<?xml version="1.0" encoding="UTF-8" standalone="no"?>
<svg
   class="svglite"
   width="360.00pt"
   height="288.00pt"
   viewBox="0 0 360.00 288.00"
   version="1.1"
   id="svg284"
   sodipodi:docname="cost-by-interval-median.svg"
   inkscape:version="1.4 (e7c3feb100, 2024-10-09)"
   xmlns:inkscape="http://www.inkscape.org/namespaces/inkscape"
   xmlns:sodipodi="http://sodipodi.sourceforge.net/DTD/sodipodi-0.dtd"
   xmlns="http://www.w3.org/2000/svg"
   xmlns:svg="http://www.w3.org/2000/svg">
  <sodipodi:namedview
     id="namedview284"
     pagecolor="#ffffff"
     bordercolor="#000000"
     borderopacity="0.25"
     inkscape:showpageshadow="2"
     inkscape:pageopacity="0.0"
     inkscape:pagecheckerboard="0"
     inkscape:deskcolor="#d1d1d1"
     inkscape:document-units="pt"
     showgrid="false"
     inkscape:zoom="2.1728802"
     inkscape:cx="263.70529"
     inkscape:cy="225.04692"
     inkscape:window-width="2560"
     inkscape:window-height="1389"
     inkscape:window-x="1200"
     inkscape:window-y="238"
     inkscape:window-maximized="1"
     inkscape:current-layer="layer2" />
  <defs
     id="defs1">
    <style
       type="text/css"
       id="style1"><![CDATA[
    .svglite line, .svglite polyline, .svglite polygon, .svglite path, .svglite rect, .svglite circle {
      fill: none;
      stroke: #000000;
      stroke-linecap: round;
      stroke-linejoin: round;
      stroke-miterlimit: 10.00;
    }
    .svglite text {
      white-space: pre;
    }
  ]]></style>
  </defs>
  <defs
     id="defs2" />
  <defs
     id="defs3" />
  <g
     inkscape:groupmode="layer"
     id="layer1"
     inkscape:label="furniture"
     style="display:inline">
    <circle
       cx="132.38"
       cy="15.999999"
       r="1.95"
       style="fill:#66c2a5;stroke:none;stroke-width:0.71"
       id="circle265" />
    <polygon
       points="189.69,16.17 184.43,16.17 187.06,11.61 "
       style="fill:#fc8d62;stroke:none;stroke-width:0.71"
       id="polygon265"
       transform="translate(-19.5,2.109999)" />
    <polygon
       points="231.69,12.69 227.78,12.69 227.78,16.6 231.69,16.6 "
       style="fill:#8da0cb;stroke:none;stroke-width:0.71"
       id="polygon266"
       transform="translate(-25.5,1.354999)" />
    <path
       id="line267"
       style="fill:none;stroke:#e78ac3;stroke-width:0.71;stroke-linecap:round;stroke-linejoin:round;stroke-miterlimit:10"
       d="m 240.91,18.764999 v -5.53 m -2.76999,2.77 h 5.53" />
    <path
       id="line269"
       style="fill:none;stroke:#a6d854;stroke-width:0.71;stroke-linecap:round;stroke-linejoin:round;stroke-miterlimit:10"
       d="m 275.63,14.044999 3.91001,3.91 m -3.91001,0 3.91001,-3.91 m -3.91001,0 h 3.91 v 3.91 h -3.91 z" />
    <path
       id="line273"
       style="fill:none;stroke:#ffd92f;stroke-width:0.71;stroke-linecap:round;stroke-linejoin:round;stroke-miterlimit:10"
       d="m 314.26001,18.764999 v -5.53 m -2.77002,2.77 h 5.53 m -4.72,-1.96 3.91,3.91 m -3.91,0 3.91,-3.91" />
    <path
       id="polyline9"
       style="display:inline;fill:none;stroke:#d9d9d9;stroke-width:1.07;stroke-linejoin:round;stroke-miterlimit:10"
       d="M 58.45,36.26 H 353.03 M 58.45,71.5 H 353.03 M 58.45,106.74 H 353.03 M 58.45,141.97 H 353.03 M 58.45,177.21 H 353.03 M 58.45,212.44 h 294.58" />
    <path
       id="polyline256"
       style="display:inline;fill:none;stroke:#000000;stroke-width:1.07;stroke-linecap:square;stroke-linejoin:miter;stroke-miterlimit:10"
       d="m 347.25,251.16 v -3.48 m -57.76,3.48 v -3.48 m -57.76,3.48 v -3.48 m -57.76,3.48 v -3.48 m -57.76,3.48 v -3.48 m -51.98,3.48 v -3.48 m -5.78,0 H 353.03 M 54.96,36.26 h 3.49 M 54.96,71.5 h 3.49 m -3.49,35.24 h 3.49 m -3.49,35.23 h 3.49 m -3.49,35.24 h 3.49 m -3.49,35.23 h 3.49 m -3.49,35.24 h 3.49 m 0,0 V 36.26 m 0,211.42 h 294.58" />
    <text
       x="58.450001"
       y="19.280001"
       style="font-size:14px;font-family:'Linux Biolinum O';display:inline"
       textLength="71.290001"
       lengthAdjust="spacingAndGlyphs"
       id="text265"
       transform="translate(-13.5)"># of samples</text>
    <text
       x="159.03"
       y="19.629999"
       style="font-size:12px;font-family:'Linux Biolinum O'"
       textLength="5.5799999"
       lengthAdjust="spacingAndGlyphs"
       id="text273"
       transform="translate(-19.5)">2</text>
    <text
       x="164.61"
       y="14.71"
       style="font-size:8.4px;font-family:'Linux Biolinum O'"
       textLength="7.8000002"
       lengthAdjust="spacingAndGlyphs"
       id="text274"
       transform="translate(-19.5)">17</text>
    <text
       x="201.7"
       y="19.629999"
       style="font-size:12px;font-family:'Linux Biolinum O'"
       textLength="5.5799999"
       lengthAdjust="spacingAndGlyphs"
       id="text275"
       transform="translate(-25.5)">2</text>
    <text
       x="207.28"
       y="14.71"
       style="font-size:8.4px;font-family:'Linux Biolinum O'"
       textLength="7.8000002"
       lengthAdjust="spacingAndGlyphs"
       id="text276"
       transform="translate(-25.5)">18</text>
    <text
       x="244.38"
       y="19.629999"
       style="font-size:12px;font-family:'Linux Biolinum O'"
       textLength="5.5799999"
       lengthAdjust="spacingAndGlyphs"
       id="text277"
       transform="translate(-31.5)">2</text>
    <text
       x="249.96001"
       y="14.71"
       style="font-size:8.4px;font-family:'Linux Biolinum O'"
       textLength="7.8000002"
       lengthAdjust="spacingAndGlyphs"
       id="text278"
       transform="translate(-31.5)">19</text>
    <text
       x="287.04999"
       y="19.629999"
       style="font-size:12px;font-family:'Linux Biolinum O'"
       textLength="5.5799999"
       lengthAdjust="spacingAndGlyphs"
       id="text279"
       transform="translate(-37.5)">2</text>
    <text
       x="292.63"
       y="14.71"
       style="font-size:8.4px;font-family:'Linux Biolinum O'"
       textLength="7.8000002"
       lengthAdjust="spacingAndGlyphs"
       id="text280"
       transform="translate(-37.5)">20</text>
    <text
       x="329.73001"
       y="19.629999"
       style="font-size:12px;font-family:'Linux Biolinum O'"
       textLength="5.5799999"
       lengthAdjust="spacingAndGlyphs"
       id="text281"
       transform="translate(-43.5)">2</text>
    <text
       x="335.31"
       y="14.71"
       style="font-size:8.4px;font-family:'Linux Biolinum O'"
       textLength="7.8000002"
       lengthAdjust="spacingAndGlyphs"
       id="text282"
       transform="translate(-43.5)">21</text>
    <text
       x="372.39999"
       y="19.629999"
       style="font-size:12px;font-family:'Linux Biolinum O'"
       textLength="5.5799999"
       lengthAdjust="spacingAndGlyphs"
       id="text283"
       transform="translate(-49.5)">2</text>
    <text
       x="377.98001"
       y="14.71"
       style="font-size:8.4px;font-family:'Linux Biolinum O'"
       textLength="7.8000002"
       lengthAdjust="spacingAndGlyphs"
       id="text284"
       transform="translate(-49.5)">22</text>
    <text
       x="51.98"
       y="251.64999"
       text-anchor="end"
       style="font-size:12px;font-family:'Linux Biolinum O'"
       textLength="13.8"
       lengthAdjust="spacingAndGlyphs"
       id="text237">1.0</text>
    <text
       x="51.98"
       y="216.42"
       text-anchor="end"
       style="font-size:12px;font-family:'Linux Biolinum O'"
       textLength="13.8"
       lengthAdjust="spacingAndGlyphs"
       id="text238">1.1</text>
    <text
       x="51.98"
       y="181.17999"
       text-anchor="end"
       style="font-size:12px;font-family:'Linux Biolinum O'"
       textLength="13.8"
       lengthAdjust="spacingAndGlyphs"
       id="text239">1.2</text>
    <text
       x="51.98"
       y="145.95"
       text-anchor="end"
       style="font-size:12px;font-family:'Linux Biolinum O'"
       textLength="13.8"
       lengthAdjust="spacingAndGlyphs"
       id="text240">1.3</text>
    <text
       x="51.98"
       y="110.71"
       text-anchor="end"
       style="font-size:12px;font-family:'Linux Biolinum O'"
       textLength="13.8"
       lengthAdjust="spacingAndGlyphs"
       id="text241">1.4</text>
    <text
       x="51.98"
       y="75.470001"
       text-anchor="end"
       style="font-size:12px;font-family:'Linux Biolinum O'"
       textLength="13.8"
       lengthAdjust="spacingAndGlyphs"
       id="text242">1.5</text>
    <text
       x="51.98"
       y="40.240002"
       text-anchor="end"
       style="font-size:12px;font-family:'Linux Biolinum O'"
       textLength="13.8"
       lengthAdjust="spacingAndGlyphs"
       id="text243">1.6</text>
    <text
       x="64.230003"
       y="262.10001"
       text-anchor="middle"
       style="font-size:12px;font-family:'Linux Biolinum O'"
       textLength="5.5799999"
       lengthAdjust="spacingAndGlyphs"
       id="text256">1</text>
    <text
       x="116.21"
       y="262.10001"
       text-anchor="middle"
       style="font-size:12px;font-family:'Linux Biolinum O'"
       textLength="11.16"
       lengthAdjust="spacingAndGlyphs"
       id="text257">10</text>
    <text
       x="173.97"
       y="262.10001"
       text-anchor="middle"
       style="font-size:12px;font-family:'Linux Biolinum O'"
       textLength="11.16"
       lengthAdjust="spacingAndGlyphs"
       id="text258">20</text>
    <text
       x="231.73"
       y="262.10001"
       text-anchor="middle"
       style="font-size:12px;font-family:'Linux Biolinum O'"
       textLength="11.16"
       lengthAdjust="spacingAndGlyphs"
       id="text259">30</text>
    <text
       x="289.48999"
       y="262.10001"
       text-anchor="middle"
       style="font-size:12px;font-family:'Linux Biolinum O'"
       textLength="11.16"
       lengthAdjust="spacingAndGlyphs"
       id="text260">40</text>
    <text
       x="347.25"
       y="262.10001"
       text-anchor="middle"
       style="font-size:12px;font-family:'Linux Biolinum O'"
       textLength="11.16"
       lengthAdjust="spacingAndGlyphs"
       id="text261">50</text>
    <text
       x="205.74001"
       y="277.70999"
       text-anchor="middle"
       style="font-size:14px;font-family:'Linux Biolinum O'"
       textLength="112.77"
       lengthAdjust="spacingAndGlyphs"
       id="text262">Check interval (ms)</text>
    <text
       transform="rotate(-90,79.109999,62.86)"
       text-anchor="middle"
       style="font-size:14px;font-family:'Linux Biolinum O'"
       textLength="150.97"
       lengthAdjust="spacingAndGlyphs"
       id="text263">Median elapsed time ratio</text>
    <text
       transform="rotate(-90,86.669999,55.3)"
       text-anchor="middle"
       style="font-size:14px;font-family:'Linux Biolinum O'"
       textLength="226.97"
       lengthAdjust="spacingAndGlyphs"
       id="text264"
       inkscape:label="text264">(coarse checks/no checks, GIL released)</text>
  </g>
  <g
     inkscape:groupmode="layer"
     id="layer2"
     inkscape:label="points"
     style="display:inline">
    <path
       id="circle29"
       style="fill:#66c2a5;stroke-width:0.71;stroke-linecap:round;stroke-linejoin:round;stroke-miterlimit:10;stroke:none"
       d="m 349.2,157.73 a 1.95,1.95 0 0 1 -1.95,1.95 1.95,1.95 0 0 1 -1.95,-1.95 1.95,1.95 0 0 1 1.95,-1.95 1.95,1.95 0 0 1 1.95,1.95 z m -14.44,-0.12999 a 1.95,1.95 0 0 1 -1.95,1.95 1.95,1.95 0 0 1 -1.95,-1.95 1.95,1.95 0 0 1 1.95,-1.95 1.95,1.95 0 0 1 1.95,1.95 z M 320.32,156.62 a 1.95,1.95 0 0 1 -1.95,1.95 1.95,1.95 0 0 1 -1.95,-1.95 1.95,1.95 0 0 1 1.95,-1.95 1.95,1.95 0 0 1 1.95,1.95 z m -14.44001,-0.08 a 1.95,1.95 0 0 1 -1.95,1.95 1.95,1.95 0 0 1 -1.95,-1.95 1.95,1.95 0 0 1 1.95,-1.95 1.95,1.95 0 0 1 1.95,1.95 z m -14.44,0.72 a 1.95,1.95 0 0 1 -1.95,1.95 1.95,1.95 0 0 1 -1.95,-1.95 1.95,1.95 0 0 1 1.95,-1.95 1.95,1.95 0 0 1 1.95,1.95 z m -14.44,0.19001 a 1.95,1.95 0 0 1 -1.95,1.95 1.95,1.95 0 0 1 -1.95,-1.95 1.95,1.95 0 0 1 1.95,-1.95 1.95,1.95 0 0 1 1.95,1.95 z m -14.44,-0.02 a 1.95,1.95 0 0 1 -1.95,1.95 1.95,1.95 0 0 1 -1.95,-1.95 1.95,1.95 0 0 1 1.95,-1.95 1.95,1.95 0 0 1 1.95,1.95 z M 248.12,156.87 a 1.95,1.95 0 0 1 -1.95,1.95 1.95,1.95 0 0 1 -1.95,-1.95 1.95,1.95 0 0 1 1.95,-1.95 1.95,1.95 0 0 1 1.95,1.95 z m -14.44,-0.29999 a 1.95,1.95 0 0 1 -1.95,1.95 1.95,1.95 0 0 1 -1.95,-1.95 1.95,1.95 0 0 1 1.95,-1.95 1.95,1.95 0 0 1 1.95,1.95 z M 219.23999,156.94 a 1.95,1.95 0 0 1 -1.95,1.95 1.95,1.95 0 0 1 -1.95,-1.95 1.95,1.95 0 0 1 1.95,-1.95 1.95,1.95 0 0 1 1.95,1.95 z m -14.43998,0.77001 a 1.95,1.95 0 0 1 -1.95,1.95 1.95,1.95 0 0 1 -1.95,-1.95 1.95,1.95 0 0 1 1.95,-1.95 1.95,1.95 0 0 1 1.95,1.95 z m -14.44001,-0.11 a 1.95,1.95 0 0 1 -1.95,1.95 1.95,1.95 0 0 1 -1.95,-1.95 1.95,1.95 0 0 1 1.95,-1.95 1.95,1.95 0 0 1 1.95,1.95 z M 175.92,156.8 a 1.95,1.95 0 0 1 -1.95,1.95 1.95,1.95 0 0 1 -1.95,-1.95 1.95,1.95 0 0 1 1.95,-1.95 1.95,1.95 0 0 1 1.95,1.95 z m -14.44,-0.61 a 1.95,1.95 0 0 1 -1.95,1.95 1.95,1.95 0 0 1 -1.95,-1.95 1.95,1.95 0 0 1 1.95,-1.95 1.95,1.95 0 0 1 1.95,1.95 z m -14.44,0.93 a 1.95,1.95 0 0 1 -1.95,1.95 1.95,1.95 0 0 1 -1.95,-1.95 1.95,1.95 0 0 1 1.95,-1.95 1.95,1.95 0 0 1 1.95,1.95 z m -14.44001,0.91999 a 1.95,1.95 0 0 1 -1.95,1.95 1.95,1.95 0 0 1 -1.95,-1.95 1.95,1.95 0 0 1 1.95,-1.95 1.95,1.95 0 0 1 1.95,1.95 z M 118.16,158.25 a 1.95,1.95 0 0 1 -1.95,1.95 1.95,1.95 0 0 1 -1.95,-1.95 1.95,1.95 0 0 1 1.95,-1.95 1.95,1.95 0 0 1 1.95,1.95 z m -14.44,-0.77 a 1.95,1.95 0 0 1 -1.95,1.95 1.95,1.95 0 0 1 -1.950003,-1.95 1.95,1.95 0 0 1 1.950003,-1.95 1.95,1.95 0 0 1 1.95,1.95 z m -14.439998,-1.01999 a 1.95,1.95 0 0 1 -1.95,1.95 1.95,1.95 0 0 1 -1.95,-1.95 1.95,1.95 0 0 1 1.95,-1.95 1.95,1.95 0 0 1 1.95,1.95 z M 74.839999,157.77 a 1.95,1.95 0 0 1 -1.95,1.95 1.95,1.95 0 0 1 -1.95,-1.95 1.95,1.95 0 0 1 1.95,-1.95 1.95,1.95 0 0 1 1.95,1.95 z m -8.659996,1.83001 a 1.95,1.95 0 0 1 -1.95,1.95 1.95,1.95 0 0 1 -1.95,-1.95 1.95,1.95 0 0 1 1.95,-1.95 1.95,1.95 0 0 1 1.95,1.95 z" />
    <path
       id="polygon49"
       style="fill:#fc8d62;stroke-width:0.71;stroke-linecap:round;stroke-linejoin:round;stroke-miterlimit:10;stroke:none"
       d="m 349.88,201.04 h -5.26 l 2.63,-4.56 z m -14.44,0.54 h -5.26 l 2.63,-4.56 z M 321,202 h -5.26 l 2.63,-4.56 z m -14.44,-0.53 h -5.26 l 2.63,-4.56 z m -14.44,-0.59 h -5.26 l 2.63,-4.56 z m -14.44,-0.2 h -5.26 l 2.63,-4.56 z m -14.44,0.44 h -5.26 l 2.63,-4.56 z m -14.44,0.5 h -5.26 l 2.63,-4.56 z m -14.44,0.03 h -5.26 l 2.63,-4.56 z m -14.44,-1.39 h -5.26 l 2.63,-4.55 z m -14.44,0.95 h -5.26 l 2.63,-4.56 z m -14.44,-0.01 h -5.26 l 2.63,-4.56 z m -14.44,0.42 h -5.26 l 2.63,-4.56 z m -14.44,0.86 h -5.26 l 2.63,-4.56 z m -14.44,-2.07 h -5.26 l 2.63,-4.56 z m -14.44,0.81 h -5.26 l 2.63,-4.56 z m -14.44,0.38 h -5.26 l 2.63,-4.56 z m -14.44,0.61 h -5.26 l 2.63,-4.56 z m -14.44,1.06 H 84.7 l 2.63,-4.56 z m -14.44,-1.48 h -5.26 l 2.63,-4.56 z m -8.66,0.08 h -5.27 l 2.64,-4.56 z" />
    <path
       id="polygon70"
       style="fill:#8da0cb;stroke-width:0.71;stroke-linecap:round;stroke-linejoin:round;stroke-miterlimit:10;stroke:none"
       d="m 345.3,164.02 v 3.91 h 3.9 v -3.91 z m -14.44,2.78 v 3.91 h 3.91 v -3.91 z m -14.44,0.33 v 3.91 h 3.91 v -3.91 z m -14.44,0.13 v 3.91 h 3.91 v -3.91 z m -14.44,-3.43 v 3.91 h 3.91 v -3.91 z m -14.44,-0.28 v 3.91 h 3.91 v -3.91 z m -14.44,1.59 v 3.9 h 3.91 v -3.9 z m -14.44,-3.47 v 3.91 h 3.91 v -3.91 z m -14.44,0.54 v 3.91 h 3.91 v -3.91 z m -14.44,-0.63 v 3.91 h 3.91 v -3.91 z m -14.44,-1.41 v 3.91 h 3.91 v -3.91 z m -14.44,1.16 v 3.91 h 3.91 v -3.91 z m -14.44,0.73 v 3.91 h 3.91 v -3.91 z m -14.44,0.41 v 3.91 h 3.91 v -3.91 z m -14.44,0.24 v 3.91 h 3.91 v -3.91 z m -14.44,-0.06 v 3.91 h 3.91 v -3.91 z m -14.44,2.86 v 3.91 h 3.91 v -3.91 z m -14.44,-3.92 v 3.91 h 3.91 v -3.91 z m -14.44,0.26 v 3.91 h 3.91 v -3.91 z m -14.44,-0.08 v 3.91 h 3.91 v -3.91 z m -8.67,-2.8 v 3.91 h 3.91 v -3.91 z" />
    <path
       id="line111"
       style="fill:none;stroke:#e78ac3;stroke-width:0.71;stroke-linecap:round;stroke-linejoin:round;stroke-miterlimit:10"
       d="m 347.25,206.16 v -5.53 m -2.76001,2.76 h 5.52002 M 332.81,204.33 v -5.53 m -2.76001,2.77001 h 5.52002 M 318.37,204.14999 V 198.62 m -2.76001,2.76 H 321.13 m -17.20001,4.11001 v -5.53 M 301.17001,202.73 H 306.69 m -17.20001,7.94999 v -5.53 M 286.73001,207.91 H 292.25 m -17.20001,-1.93 v -5.53 m -2.75998,2.77 h 5.53 m -17.21002,3.85001 v -5.53002 M 257.85001,204.31 H 263.38 m -17.21,4.21 v -5.52999 m -2.76,2.75999 h 5.53 m -17.21,-0.85001 V 199.37 m -2.76,2.76 h 5.53 m -17.21001,3.79999 v -5.53 M 214.53,203.16 h 5.53 m -17.20999,3.22 v -5.52999 M 200.09,203.61 h 5.53 m -17.21,0.81 v -5.53 m -2.76001,2.75999 h 5.53 M 173.97,203.96001 v -5.53002 M 171.21001,201.2 h 5.53 M 159.53,205.00999 V 199.48 m -2.76,2.76001 h 5.53 M 145.09,205.83 v -5.52 m -2.76,2.76001 h 5.53 m -17.21001,3.21998 v -5.53 M 127.89,203.53 h 5.53 m -17.21,5.75 v -5.53 m -2.76,2.77 h 5.53 m -17.21,3.53 v -5.53 m -2.759998,2.76 H 104.54 m -17.209998,4.04001 v -5.53002 M 84.57,208.55 h 5.529998 m -17.209999,3.69001 v -5.53 M 70.129997,209.47 h 5.530007 m -11.430001,2.5 v -5.52 m -2.770004,2.76001 h 5.529999" />
    <path
       id="line153"
       style="fill:none;stroke:#a6d854;stroke-width:0.71;stroke-linecap:round;stroke-linejoin:round;stroke-miterlimit:10"
       d="m 345.29999,75.599998 3.90002,3.910004 m -3.90002,0 3.90002,-3.910004 m -3.90002,0 h 3.91 v 3.910001 h -3.91 z m -14.44,2.300004 3.91,3.909996 m -3.91,0 3.91,-3.909996 m -3.91,0 h 3.91 v 3.91 h -3.91 z m -14.43998,-0.05 3.90998,3.910004 m -3.90998,0 3.90998,-3.910004 m -3.90998,0 h 3.91 v 3.910001 h -3.91 z m -14.44,-17.829998 3.91,3.91 m -3.91,0 3.91,-3.91 m -3.91,0 h 3.91 v 3.910001 h -3.91 z m -14.44,10.969998 3.91,3.910004 m -3.91,0 3.91,-3.910004 m -3.91,0 h 3.91 v 3.91 h -3.91 z m -14.44,4.520004 3.91,3.909996 m -3.91,0 3.91,-3.909996 m -3.91,0 h 3.91 v 3.91 h -3.91 z m -14.44001,2.459999 3.91001,3.909996 m -3.91001,0 3.91001,-3.909996 m -3.91001,0 h 3.91 v 3.91 h -3.91 z m -14.44,-0.03 3.91,3.909996 m -3.91,0 3.91,-3.909996 m -3.91,0 h 3.91 v 3.910001 h -3.91 z M 229.78,61.41 l 3.91,3.91 m -3.91,0 3.91,-3.91 m -3.91,0 h 3.91 v 3.91 h -3.91 z m -14.44,7.939998 3.91,3.900002 m -3.91,0 3.91,-3.900002 m -3.91,0 h 3.91 v 3.910001 h -3.91 z m -14.44001,6.540001 3.91001,3.910004 m -3.91001,0 3.91001,-3.910004 m -3.91001,0 h 3.91 v 3.91 h -3.91 z m -14.43998,2.309998 3.90999,3.910004 m -3.90999,0 3.90999,-3.910004 m -3.90999,0 h 3.91 v 3.91 h -3.91 z M 172.02,78.43 l 3.90999,3.909996 m -3.90999,0 3.90999,-3.909996 m -3.90999,0 h 3.91 v 3.91 h -3.91 z m -14.44,-8.720001 3.91001,3.910004 m -3.91001,0 3.91001,-3.910004 m -3.91001,0 h 3.91 v 3.91 h -3.91 z m -14.44,-2.519997 3.91,3.909996 m -3.91,0 3.91,-3.909996 m -3.91,0 h 3.91 v 3.910001 h -3.91 z m -14.44,8.32 3.91,3.909996 m -3.91,0 3.91,-3.909996 m -3.91,0 h 3.91 v 3.91 h -3.91 z m -14.44,3.360001 3.91,3.909996 m -3.91,0 3.91,-3.909996 m -3.91,0 h 3.91 v 3.91 h -3.91 z m -14.44,-0.670006 3.91,3.910004 m -3.91,0 3.91,-3.910004 m -3.91,0 h 3.91 v 3.91 h -3.91 z m -14.440003,-16.489998 3.910004,3.910004 m -3.910004,0 3.910004,-3.910004 m -3.910004,0 h 3.91 v 3.91 h -3.91 z m -14.439995,8.910004 3.909996,3.909996 m -3.909996,0 3.909996,-3.909996 m -3.909996,0 h 3.910001 v 3.91 H 70.940002 Z M 62.27,76.290001 l 3.91,3.909996 m -3.91,0 3.91,-3.909996 m -3.91,0 h 3.910001 v 3.91 H 62.27 Z" />
    <path
       id="line237"
       style="fill:none;stroke:#ffd92f;stroke-width:0.71;stroke-linecap:round;stroke-linejoin:round;stroke-miterlimit:10"
       d="m 347.25,182.07001 v -5.53002 M 344.48999,179.3 h 5.52002 m -4.71002,-1.94999 3.90002,3.90998 m -3.90002,0 3.90002,-3.90998 M 332.81,176.84 v -5.53 m -2.76001,2.77 h 5.52002 m -4.71002,-1.96 3.91,3.91 m -3.91,0 3.91,-3.91 M 318.37,176.94 v -5.53 m -2.76001,2.76999 H 321.13 m -4.70999,-1.95999 3.90998,3.91 m -3.90998,0 3.90998,-3.91 m -16.4,10.25 v -5.53 m -2.75998,2.76 H 306.69 m -4.70999,-1.95 3.91,3.91 m -3.91,0 3.91,-3.91 m -16.40002,1.36 v -5.53 m -2.75998,2.76 H 292.25 m -4.70999,-1.95 3.91,3.91 m -3.91,0 3.91,-3.91 m -16.40002,6.36 v -5.53 m -2.75998,2.77001 h 5.53 m -4.72,-1.96001 3.91,3.91 m -3.91,0 3.91,-3.91 m -16.40002,4.94 v -5.53 m -2.75998,2.77001 H 263.38 m -4.72,-1.96001 3.91001,3.91 m -3.91001,0 3.91001,-3.91 M 246.17,181.60001 v -5.53 m -2.76,2.76999 h 5.53 m -4.72,-1.96 3.91,3.90999 m -3.91,0 3.91,-3.90999 m -16.4,4.87 v -5.53 m -2.76,2.77001 h 5.53 m -4.72,-1.96001 3.91,3.91 m -3.91,0 3.91,-3.91 m -16.40001,4.46001 v -5.53 M 214.53,178.72 h 5.53 m -4.72,-1.95 3.91,3.90999 m -3.91,0 3.91,-3.90999 m -16.39999,4.43 v -5.53 m -2.76001,2.77 h 5.53 m -4.72001,-1.96 3.91001,3.91 m -3.91001,0 3.91001,-3.91 m -16.4,4.58 v -5.53 m -2.76001,2.75999 h 5.53 m -4.71998,-1.94999 3.90999,3.91 m -3.90999,0 3.90999,-3.91 m -16.4,3.91 v -5.53 m -2.75999,2.76 h 5.53 m -4.72001,-1.95 3.90999,3.91 m -3.90999,0 3.90999,-3.91 M 159.53,183.60001 v -5.53 m -2.76,2.76999 h 5.53 m -4.72,-1.96 3.91001,3.90999 m -3.91001,0 3.91001,-3.90999 M 145.09,179.63 v -5.52999 m -2.76,2.76999 h 5.53 m -4.72,-1.96 3.91,3.91001 m -3.91,0 3.91,-3.91001 m -16.40001,5.95 v -5.53 m -2.75999,2.77001 h 5.53 m -4.72,-1.96001 3.91,3.91 m -3.91,0 3.91,-3.91 m -16.4,2.35001 v -5.53 m -2.76,2.76999 h 5.53 m -4.72,-1.96 3.91,3.90999 m -3.91,0 3.91,-3.90999 m -16.4,-0.58 v -5.53 m -2.759998,2.76999 H 104.54 m -4.72,-1.95999 3.91,3.91 m -3.91,0 3.91,-3.91 m -16.399998,6.34 v -5.53 M 84.57,172.05 h 5.529998 m -4.720001,-1.96 3.910004,3.91 m -3.910004,0 3.910004,-3.91 m -16.400002,8.8 v -5.53 m -2.760002,2.77 h 5.530007 m -4.720002,-1.96 3.909996,3.91 m -3.909996,0 3.909996,-3.91 m -10.619995,5.6 v -5.52999 M 61.459999,177 h 5.529999 M 62.27,175.05 l 3.91,3.91001 m -3.91,0 3.91,-3.91001" />
  </g>
</svg>
