<?xml version="1.0" encoding="UTF-8"?>
<svg version="1.1" viewBox="0 0 585.74 469.72" xmlns="http://www.w3.org/2000/svg">
 <metadata>
  <rdf:RDF
    xmlns:rdf="http://www.w3.org/1999/02/22-rdf-syntax-ns#"
    xmlns:dc="http://purl.org/dc/elements/1.1/"
    xmlns:cc="http://creativecommons.org/ns#">
   <cc:Work>
    <dc:title>dragon sketch</dc:title>
    <dc:creator>Lazur</dc:creator>
    <dc:type>image</dc:type>
    <dc:publisher>openclipart.org</dc:publisher>
    <dc:date>[2015]</dc:date>
    <dc:source>https://openclipart.org/detail/217264/dragon-sketch</dc:source>
    <cc:license rdf:resource="http://creativecommons.org/publicdomain/zero/1.0/"/>
   </cc:Work>
   <cc:License rdf:about="http://creativecommons.org/publicdomain/zero/1.0/">
    <cc:permits rdf:resource="http://creativecommons.org/ns#Reproduction"/>
    <cc:permits rdf:resource="http://creativecommons.org/ns#Distribution"/>
    <cc:permits rdf:resource="http://creativecommons.org/ns#DerivativeWorks"/>
   </cc:License>
  </rdf:RDF>
 </metadata>
 <defs>
  <clipPath id="clipPath6303">
   <path d="m0 452.36h600v600h-600z" color="#000000" fill-rule="evenodd"/>
  </clipPath>
 </defs>
 <g transform="matrix(-1,0,0,1,585.70566,-511.13)">
  <g transform="translate(0 .0021826)" clip-path="url(#clipPath6303)" fill-rule="evenodd">
   <g fill="#f00">
    <path d="m461.72 735.63c-31.191-18.908-68.704-27.747-105.29-24.39-15.119 1.3856-30.078 4.7784-44.356 10.072 8.6801-3.7255 15.419-5.8873 17.07-6.7319 0.45496-0.23277-0.60893-1.0992-12.959 2.7394 12.842-4.7069 26.258-7.9184 39.89-9.5315 41.456-4.9022 84.787 5.5044 119.8 29.084-15.371-9.8-28.95-14.829-36.319-17.13-7.9984-2.4972-11.701-2.911-11.761-2.3659-0.11925 1.0903 14.57 5.8848 33.925 18.254z" color="#000000"/>
    <path d="m471.01 752.07c-12.181-11.073-26.501-19.884-41.901-25.974-19.286-7.6185-40.348-11.003-61.085-9.3009h-1e-5c-15.029 1.2305-29.884 4.9778-43.746 11.054 8.5548-4.2694 15.334-6.6434 16.985-7.5417 1.6507-0.89836-1.9573-0.75134-13.027 3.3057 12.534-5.3067 25.875-8.7819 39.469-10.252h1e-5c21.246-2.294 43.042 0.5932 63.225 7.9741h1e-5c20.186 7.375 38.84 19.271 53.817 34.95-13.146-13.102-26.175-20.424-33.155-23.823-7.6585-3.7288-11.345-4.6052-11.475-4.0718-0.25831 1.0667 14.116 7.6938 30.893 23.68z" color="#000000"/>
    <path d="m479.09 769.91c-24.972-20.977-56.925-33.933-89.742-35.976-13.56-0.84575-27.258 0.10528-40.614 2.8315 8.1785-2.155 14.433-3.1926 16.006-3.7565 0.59459-0.21323-0.56145-1.1096-11.871 0.54154 12.018-2.4449 24.345-3.4873 36.652-3.083 37.427 1.2329 74.475 16.295 102.39 41.954-12.367-10.746-23.756-16.98-30.013-19.974-6.7836-3.246-10.033-4.0612-10.185-3.5365-0.30395 1.0492 12.001 7.3757 27.374 20.999z" color="#000000"/>
    <path d="m485.04 785.68c-9.2411-11.444-20.685-21.188-33.459-28.677h-1e-5c-15.999-9.371-34.15-15.248-52.713-16.582-13.455-0.97022-27.104 0.30839-40.196 3.7834 8.137-2.6521 14.454-3.8719 16.033-4.4832 0.13872-0.0537-0.14431-1.3092-12.013 1.035 11.827-3.0181 24.126-4.3044 36.382-3.7778 19.157 0.8265 38.109 6.3228 55.03 15.595 0 1e-5 0 1e-5 1e-5 1e-5 16.925 9.2669 31.886 22.345 43.079 38.297-9.9562-13.396-20.564-21.597-26.332-25.518-6.3239-4.2981-9.5026-5.5241-9.7209-5.0231-0.43657 1.002 11.327 8.9017 23.91 25.35z" color="#000000"/>
    <path d="m482 806.67c-18.536-22.318-44.469-38.736-72.899-45.728-11.748-2.8911-23.904-4.2301-36.044-3.9586 7.5085-0.64384 13.162-0.61162 14.634-0.90119 0.68601-0.13499-0.43816-1.1483-10.504-1.5225 10.942-0.27665 21.94 0.72739 32.697 3.0008 32.714 6.9175 62.962 25.938 83.538 52.891-9.256-11.371-18.332-18.577-23.405-22.15-5.4936-3.8697-8.2537-5.0452-8.5045-4.562-0.50162 0.96625 9.235 8.5316 20.488 22.932z" color="#000000"/>
    <path d="m484.7 821.4c-6.2715-11.472-14.743-21.812-24.738-30.391-12.52-10.737-27.482-18.76-43.528-22.869h-1e-5c-11.631-2.982-23.792-4.0259-35.815-3.0563 7.5454-1.0858 13.28-1.2039 14.763-1.5343 0.34178-0.0761-0.12476-1.2487-10.712-1.1116 10.865-0.8098 21.878-0.0242 32.574 2.3499v1e-5c16.719 3.7145 32.536 11.505 45.983 22.307 0 1e-5 0 1e-5 1e-5 1e-5 13.45 10.798 24.582 24.648 31.953 40.454-6.7271-13.347-14.822-22.172-19.325-26.49-4.9321-4.7301-7.572-6.2599-7.8831-5.8129-0.62223 0.89401 8.3778 9.7452 16.729 26.155z" color="#000000"/>
    <path d="m481.54 839.43c-13.936-22.482-35.303-40.58-60.12-50.472-10.255-4.0899-21.076-6.8287-32.088-8.1097 6.8737 0.32056 11.992 1.0214 13.367 0.90966 0.7214-0.0586-0.31497-1.1715-9.3038-2.7891 9.9478 1.0963 19.791 3.3602 29.261 6.7459 28.802 10.3 53.892 31.273 69.242 58.273-7.0353-11.45-14.407-19.065-18.599-22.905-4.5353-4.1555-6.9217-5.5268-7.2415-5.0878-0.63961 0.87807 7.1689 8.9914 15.482 23.435z" color="#000000"/>
    <path d="m482.12 853.05c-4.2198-11.141-10.57-21.54-18.519-30.543h-1e-5c-9.9584-11.268-22.465-20.396-36.446-26.124h-1e-5c-10.134-4.1557-20.994-6.6276-31.984-7.2624 6.9582-0.0748 12.167 0.49975 13.556 0.35232 0.44812-0.0476-0.0669-1.2246-9.5473-2.4435 9.9453 0.60424 19.83 2.6726 29.235 6.1431 14.701 5.4286 28.087 14.443 38.954 25.902 10.872 11.455 19.267 25.399 24.009 40.664-4.4999-12.947-10.792-21.918-14.378-26.37-3.9248-4.8725-6.1627-6.554-6.5366-6.1597-0.74787 0.78855 6.2242 9.9649 11.656 25.84z" color="#000000"/>
    <path d="m475.77 881.09c-8.7814-24.951-25.763-47.215-47.876-62.208-9.1376-6.1972-19.118-11.196-29.597-14.813 6.6444 1.7895 11.492 3.5733 12.859 3.7595 0.71715 0.0977-0.056-1.2118-8.4876-4.7224 9.4801 3.2075 18.607 7.5328 27.129 12.874 25.917 16.246 45.917 42.119 55.109 71.786-4.4117-12.694-9.9762-21.714-13.245-26.366-3.5368-5.0327-5.573-6.8846-5.9797-6.5245-0.81328 0.72018 5.0703 10.321 10.087 26.214z" color="#000000"/>
    <path d="m473.41 894.52c-1.7283-11.787-5.6967-23.307-11.526-33.807-7.3056-13.144-17.56-24.745-29.984-33.343v-1e-5c-9.0051-6.2354-19.08-10.982-29.678-13.963 6.8119 1.4216 11.775 3.1014 13.164 3.2558 0.44788 0.0498 0.19772-1.2104-8.7996-4.4372 9.5834 2.7263 18.794 6.8697 27.234 12.279 13.192 8.4597 24.329 20.138 32.481 33.665v1e-5c8.1572 13.523 13.361 28.945 14.714 44.872-1.6139-13.612-5.8325-23.724-8.3785-28.842-2.7866-5.6018-4.6111-7.7247-5.061-7.42-0.89979 0.6095 3.9385 11.069 5.8337 27.741z" color="#000000"/>
    <path d="m465.01 913.73c-6.3951-23.896-20.634-45.888-40.189-61.466-8.0806-6.4394-17.035-11.822-26.556-15.951 6.0841 2.1197 10.496 4.1077 11.771 4.3569 0.71687 0.14009 0.0163-1.1989-7.5611-5.0817 8.6374 3.6588 16.868 8.3385 24.464 13.927 23.1 16.998 40.006 42.592 46.537 71.001-3.2714-12.188-7.8753-20.993-10.636-25.561-2.9848-4.939-4.7873-6.7948-5.2225-6.4711-0.87041 0.64752 3.8894 10.057 7.3916 25.246z" color="#000000"/>
    <path d="m461.84 926.07c-0.76418-11.109-3.636-22.134-8.3169-32.343-5.8679-12.78-14.597-24.338-25.567-33.249v-1e-5c-7.9519-6.4636-17.011-11.617-26.685-15.16 6.2638 1.7871 10.79 3.6857 12.087 3.9063 0.49342 0.0839 0.22692-1.1882-7.8757-4.8388 8.7683 3.2168 17.091 7.733 24.606 13.381 11.747 8.8324 21.351 20.534 28.033 33.76v1e-5c6.6883 13.223 10.482 28.02 10.636 43.03-0.5878-12.864-3.8615-22.605-5.9142-27.563-2.2454-5.4241-3.833-7.5221-4.3066-7.2572-0.94712 0.52989 2.7707 10.658 3.3043 26.335z" color="#000000"/>
    <path d="m446.67 945.98c-3.4458-24.496-14.909-48.054-32.427-65.891-7.2388-7.373-15.473-13.804-24.422-19.058 5.7816 2.8428 9.9194 5.352 11.155 5.7542 0.69456 0.22611 0.1618-1.1881-6.888-5.9624 8.1291 4.6807 15.731 10.325 22.592 16.794 20.865 19.678 34.538 47.135 37.571 76.127-1.767-12.495-5.2677-21.794-7.4531-26.663-2.3629-5.2649-3.9267-7.3259-4.398-7.0574-0.9426 0.53703 2.6393 10.455 4.271 25.957z" color="#000000"/>
    <path d="m442.03 957.84c0.59053-11.119-0.92112-22.412-4.3276-33.114h-1e-5c-4.2724-13.398-11.533-25.93-21.34-36.108v-1e-5c-7.1081-7.3814-15.474-13.596-24.647-18.288 6.0004 2.5346 10.262 4.9688 11.523 5.3453 0.47957 0.14325 0.36953-1.1518-7.2298-5.7594 8.3128 4.2579 16.025 9.7512 22.799 16.27 10.587 10.194 18.699 22.975 23.726 36.914v1e-5c5.033 13.937 7.0019 29.086 5.3315 44.003 0.97873-12.84-1.0878-22.906-2.5231-28.077-1.5701-5.6566-2.8912-7.9319-3.3934-7.7264-1.0045 0.41096 1.4558 10.916 0.0817 26.541z" color="#000000"/>
    <path d="m402.3 692.64c-35.762-7.1776-74.045-2.7369-107.31 12.86-13.747 6.4431-26.662 14.72-38.29 24.551 6.8965-6.4546 12.499-10.779 13.764-12.134 0.34873-0.37358-0.94637-0.82675-11.256 6.9821 10.477-8.7927 22.002-16.374 34.274-22.525 37.32-18.704 81.608-23.649 122.56-13.378-17.787-3.9907-32.267-4.1034-39.98-3.7618-8.3709 0.37075-11.994 1.2404-11.865 1.7734 0.25852 1.0659 15.702 0.58102 38.11 5.6328z" color="#000000"/>
    <path d="m416.62 704.94c-15.22-6.2723-31.682-9.6902-48.236-10.182h-1e-5c-20.728-0.60786-41.685 3.3693-60.609 12.02-13.716 6.2667-26.412 14.841-37.382 25.268 6.5938-6.9235 12.162-11.461 13.409-12.867s-2.0962-0.0411-11.127 7.5376c9.9836-9.252 21.349-17.056 33.633-23.06 19.201-9.3806 40.679-14.075 62.17-13.996h1e-5c21.491 0.0729 43.078 4.9186 62.493 14.571-16.818-7.8525-31.56-10.309-39.28-11.132-8.4701-0.90304-12.235-0.47374-12.175 0.0718 0.11973 1.091 15.891 2.4364 37.104 11.767z" color="#000000"/>
    <path d="m340.8 666.76c-36.23 4.2176-71.271 20.264-98.096 45.373-11.085 10.374-20.813 22.234-28.836 35.176 4.566-8.269 8.559-14.112 9.344-15.792 0.21631-0.46301-1.1554-0.49407-8.5497 10.117 7.2496-11.599 15.87-22.368 25.642-32.009 29.72-29.316 70.315-47.696 112.43-50.573-18.15 1.6975-31.957 6.0623-39.187 8.769-7.8472 2.9378-11.024 4.8839-10.737 5.3508 0.57506 0.93394 15.114-4.2968 37.986-6.412z" color="#000000"/>
    <path d="m358.22 674.04c-16.413-1.2653-33.126 0.56799-49.022 5.2129-19.902 5.8232-38.607 16.078-53.934 30.151v1e-5c-11.11 10.196-20.537 22.272-27.751 35.577 4.1333-8.6214 8.028-14.657 8.7798-16.379 0.75177-1.7224-2.0064 0.60822-8.2554 10.606 6.6383-11.883 15.038-22.815 24.867-32.319 15.365-14.852 34.344-25.95 54.809-32.512h1e-5c20.463-6.5677 42.491-8.6256 63.938-5.4407-18.421-2.2748-33.201-0.0581-40.797 1.5432-8.3349 1.7569-11.784 3.3281-11.558 3.8284 0.45082 1.0007 15.866-2.5902 38.924-0.26751z" color="#000000"/>
    <path d="m276.69 663.2c-33.775 13.771-63.235 38.619-82.352 69.997-7.9006 12.965-14.095 26.998-18.357 41.616 2.1835-9.19 4.4651-15.889 4.7712-17.718 0.0844-0.50405-1.2456-0.16642-5.5264 12.038 3.8769-13.117 9.2964-25.803 16.128-37.709 20.778-36.207 54.965-64.792 94.772-78.849-17.031 6.4984-29.164 14.403-35.405 18.948-6.7732 4.933-9.3128 7.6591-8.9107 8.032 0.80427 0.74572 13.41-8.1893 34.88-16.355z" color="#000000"/>
    <path d="m295.42 665.53c-16.152 3.1785-31.763 9.4229-45.833 18.157v1e-5c-17.614 10.943-32.887 25.835-43.883 43.499 0 1e-5 -1e-5 1e-5 -1e-5 1e-5 -7.9717 12.8-13.819 26.961-17.204 41.712 1.6722-9.4137 3.8075-16.272 4.0703-18.132 0.26279-1.8609-1.7701 1.1236-5.112 12.43 3.2117-13.227 8.3749-26.01 15.298-37.8 10.824-18.426 26.135-34.203 44.094-46.008 0 0 1e-5 0 1e-5 -1e-5 17.955-11.81 38.626-19.695 60.143-22.373-18.357 2.7438-32.002 8.8396-38.892 12.418-7.5594 3.9259-10.461 6.3636-10.11 6.7852 0.70245 0.84332 14.592-6.7467 37.429-10.687z" color="#000000"/>
    <path d="m201.29 701.25c-21.481 15.571-38.037 38.258-46.134 63.801-3.3481 10.556-5.3037 21.579-5.787 32.687-0.17607-6.8993 0.15543-12.07-0.0548-13.437-0.10992-0.71488-1.1466 0.39792-2.1126 9.509 0.37681-10.03 1.9291-20.04 4.6305-29.758 8.219-29.556 27.382-56.171 53.278-73.478-10.944 7.8644-18.029 15.789-21.568 20.258-3.8296 4.8363-5.0298 7.3217-4.5687 7.6088 0.92227 0.57417 8.4708-7.8265 22.317-17.191z" color="#000000"/>
    <path d="m214.88 699.69c-10.839 5.029-20.782 12.136-29.213 20.74-10.551 10.779-18.776 23.952-23.493 38.353v1e-5c-3.4227 10.439-5.1086 21.482-4.947 32.522-0.57768-6.9554-0.37907-12.207-0.62602-13.586-0.079-0.44097-1.2177 0.15216-1.7493 9.7275-0.11527-9.992 1.2383-20.03 4.0293-29.688 4.3663-15.098 12.414-29.14 23.09-40.839 1e-5 0 1e-5 -1e-5 1e-5 -1e-5 10.672-11.703 24.011-21.11 38.936-26.957-12.625 5.4365-21.144 12.378-25.338 16.286-4.5908 4.2773-6.1119 6.6365-5.6915 6.9808 0.84085 0.68865 9.5136-6.9526 25.001-13.539z" color="#000000"/>
    <path d="m149.38 735.84c-12.958 16.187-20.751 36.752-21.555 57.735-0.33416 8.6728 0.48133 17.415 2.4294 25.919-1.6693-5.1562-2.5949-9.1271-3.1265-10.107-0.34271-0.63143-0.92628 0.68931 0.16677 7.7043-1.8884-7.6868-2.882-15.618-2.9398-23.582-0.17242-24.225 8.6014-48.634 24.575-67.469-6.5706 8.455-10.122 16.056-11.758 20.277-1.7644 4.5544-2.0326 6.7419-1.5184 6.9097 1.0284 0.33576 5.1392-7.5296 13.726-17.386z" color="#000000"/>
    <path d="m159.25 731.86c-7.11 6.0244-13.125 13.436-17.693 21.667-5.7137 10.311-9.1854 21.953-9.7521 33.798v1e-5c-0.41413 8.5901 0.60821 17.282 3.028 25.593-1.9819-5.1044-3.0249-9.1046-3.5864-10.082-0.28355-0.49383-1.0092 0.58777 0.49084 7.8032-2.2534-7.5546-3.404-15.468-3.3799-23.413 0.0411-12.422 3.1079-24.853 8.6946-36.083 5.5811-11.234 13.702-21.31 23.828-29.033-8.4146 6.9919-13.283 14.187-15.549 18.134-2.4745 4.3107-3.0193 6.4843-2.531 6.7174 0.97654 0.46622 6.087-7.0325 16.45-15.101z" color="#000000"/>
    <path d="m327.12 721.34c-11.11 1.5136-21.913 6.6927-30.126 14.703-3.3978 3.3118-6.3738 7.0926-8.8127 11.215 1.0969-2.7905 2.0594-4.8306 2.0666-5.5376 6e-3 -0.57008-0.97433-0.18719-3.2796 2.9357 2.0527-3.9253 4.5769-7.6308 7.5162-11.01 8.9463-10.281 21.79-17.374 35.744-19.389-12.342 2.7344-15.904 6.8411-15.427 7.8062s5.2324-0.30476 12.318-0.72171z" color="#000000"/>
    <path d="m328.42 730.86c-11.232-0.64857-23.038 3.5244-31.41 11.542-3.3829 3.2338-6.2474 7.058-8.4176 11.267 0.9437-2.8724 1.8629-4.9522 1.8541-5.6692-7e-3 -0.52977-0.99285-0.21115-3.1954 3.1173 1.8551-4.0103 4.3128-7.7734 7.2887-11.122 9.3205-10.472 23.81-16.496 38.417-15.433-6.3375-2e-3 -11.036 1.4631-13.449 2.4934-2.6156 1.1165-3.5792 2.05-3.4053 2.5598 0.3479 1.0194 5.3114 0.29684 12.317 1.2453z" color="#000000"/>
    <path d="m319.19 754.29c-10.687 3.3899-20.447 10.339-27.17 19.635-2.7819 3.8437-5.0679 8.0775-6.7666 12.556 0.60394-2.9369 1.2036-5.1115 1.0899-5.8093-0.0917-0.56269-0.99199-0.0179-2.7297 3.453 1.3517-4.2183 3.2055-8.3007 5.524-12.133 7.0577-11.659 18.5-20.842 31.905-25.213-11.693 4.8034-14.501 9.4584-13.866 10.328s5.1033-1.1945 12.013-2.8161z" color="#000000"/>
    <path d="m322.1 763.45c-11.178 1.2805-22.097 7.4097-28.975 16.74-2.7805 3.7644-4.9493 8.0218-6.3683 12.54 0.43893-2.9914 0.98919-5.1978 0.85799-5.9027-0.0969-0.52086-1.0143-0.0384-2.6157 3.6175 1.1425-4.2683 2.9209-8.3961 5.2808-12.204 7.3938-11.911 20.641-20.322 35.215-21.772-6.2446 1.0811-10.623 3.3276-12.825 4.7552-2.3863 1.5471-3.1762 2.6315-2.9177 3.104 0.517 0.94499 5.284-0.61523 12.349-0.87798z" color="#000000"/>
    <path d="m316.14 788.22c-11.17 0.97511-22.211 5.6263-30.801 13.23-3.5539 3.1437-6.709 6.7763-9.3442 10.776 1.2305-2.7342 2.2904-4.7255 2.3317-5.4312 0.0334-0.56914-0.96415-0.23405-3.4176 2.7738 2.24-3.8215 4.9402-7.4008 8.0393-10.634 9.4325-9.8367 22.604-16.301 36.639-17.64-12.46 2.135-16.216 6.0648-15.786 7.0518s5.241-0.0516 12.338-0.12579z" color="#000000"/>
    <path d="m316.98 797.79c-11.188-1.1905-23.182 2.4073-31.931 10.011-3.5352 3.0666-6.5811 6.7479-8.9521 10.847 1.0814-2.8235 2.1-4.8565 2.1258-5.573 0.0191-0.52946-0.98149-0.25886-3.3423 2.9593 2.0467-3.916 4.6833-7.556 7.8175-10.757 9.8156-10.01 24.58-15.326 39.118-13.559-6.33-0.30815-11.094 0.92824-13.554 1.8407-2.6665 0.98884-3.6741 1.8747-3.525 2.3922 0.29824 1.0351 5.2909 0.5531 12.243 1.8389z" color="#000000"/>
    <path d="m296.33 826.2c-9.3331-0.31845-18.962 2.42-26.863 7.8693-3.2694 2.2532-6.26 4.9555-8.8568 8.0182 1.2363-2.1946 2.2688-3.802 2.3255-4.4293 0.0476-0.52663-0.88205-0.36546-3.268 1.872 2.2219-3.0134 4.8116-5.785 7.7098-8.2323 8.8223-7.4448 20.517-11.735 32.53-11.605-10.766 0.82528-14.21 3.9608-13.906 4.9928 0.30424 1.032 4.4485 0.76984 10.328 1.514z" color="#000000"/>
    <path d="m296.02 834.28c-9.0964-2.1049-19.391-0.3454-27.405 5.0754-3.2398 2.1865-6.1401 4.9356-8.5235 8.1031 1.1159-2.2762 2.1164-3.9222 2.1595-4.5576 0.0338-0.4985-0.89942-0.38093-3.2276 2.0406 2.0697-3.1115 4.6139-5.9419 7.5424-8.3601 9.1742-7.5629 22.128-10.75 34.322-7.932-5.379-0.77283-9.5088-0.0718-11.671 0.55065-2.337 0.67274-3.2525 1.4093-3.1688 1.941 0.16743 1.0634 4.3873 1.2896 9.9712 3.139z" color="#000000"/>
    <path d="m242.8 624.31c-23.198 12.873-42.363 33.404-53.475 57.788-4.5937 10.076-7.8612 20.784-9.6774 31.754 0.65522-6.8704 1.6063-11.963 1.5621-13.346-0.0231-0.72291-1.1862 0.25709-3.2413 9.1858 1.5807-9.912 4.326-19.662 8.1768-28.985 11.715-28.352 33.94-52.469 61.731-66.535-11.811 6.4906-19.797 13.505-23.849 17.516-4.3836 4.3404-5.8741 6.6635-5.4509 7.0039 0.8465 0.68095 9.3508-6.7506 24.223-14.382z" color="#000000"/>
    <path d="m246.47 629.99c-20.234 10.087-37.476 26.558-48.396 46.624-5.498 10.099-9.4456 21.08-11.638 32.429 0.71847-6.2265 1.6757-10.838 1.6357-12.105-0.0226-0.71685-1.1692 0.23156-3.2737 8.2464 1.9232-10.453 5.306-20.67 10.044-30.26 11.721-23.715 31.911-43.36 56.381-54.487-11.002 5.5052-18.484 11.649-22.287 15.196-4.1109 3.8349-5.5096 5.934-5.1055 6.2953 0.80835 0.72266 8.8417-5.6679 22.639-11.939z" color="#000000"/>
    <path d="m367.96 602.65c-26.169 4.3677-51.099 17.301-69.73 36.56-7.7008 7.9579-14.363 16.955-19.746 26.684 2.9166-6.255 5.5172-10.736 5.9382-12.054 0.22015-0.68897-1.2038-0.15469-6.1284 7.5715 4.8066-8.8115 10.657-17.081 17.405-24.577 20.528-22.797 49.542-38.085 80.438-42.04-13.302 2.1638-23.175 6.1011-28.335 8.5254-5.5834 2.6232-7.7654 4.3135-7.4805 4.776 0.56981 0.92496 11.071-3.2321 27.639-5.4463z" color="#000000"/>
    <path d="m380.82 607.3c-11.945-0.32776-24.013 1.6038-35.394 5.5503-14.248 4.9485-27.482 13.076-38.121 23.867-7.7158 7.8205-14.145 16.955-18.92 26.911 2.5821-6.4842 5.1001-11.097 5.4934-12.442 0.12578-0.42997-1.158-0.4064-5.9005 7.9289 4.3491-8.9966 10.034-17.38 16.836-24.783h1e-5c10.636-11.571 24.098-20.556 38.869-26.272h1e-5c14.768-5.7221 30.902-8.1988 46.869-6.7837-13.725-0.75849-24.444 1.6603-29.94 3.2899-6.0157 1.7836-8.4287 3.2178-8.2058 3.7134 0.44591 0.99118 11.615-1.985 28.415-0.98033z" color="#000000"/>
    <path d="m461.89 635c-23.486-2.8375-48.085 1.9648-68.886 13.776-8.598 4.88-16.57 10.913-23.631 17.897 4.0365-4.6618 7.3629-7.8873 8.0277-8.9448 0.38899-0.61872-1.1006-0.44901-7.2433 4.8744 6.3233-6.3832 13.411-12.043 21.082-16.815 23.333-14.512 52.119-20.463 79.737-16.175-12.022-1.4039-21.488-0.41319-26.535 0.43976-5.454 0.92174-7.7417 1.8878-7.6062 2.4125 0.27106 1.0495 10.33 0.20847 25.056 2.5352z" color="#000000"/>
    <path d="m471.71 642.2c-10.128-3.2782-20.934-4.6572-31.662-4.1401-13.433 0.65488-26.802 4.2845-38.622 10.848-8.5717 4.7561-16.376 10.963-22.97 18.291 3.8038-4.9384 7.0906-8.2967 7.7374-9.3833 0.26872-0.45145-1.0262-0.62026-7.1409 5.2421 5.9772-6.6571 12.953-12.457 20.649-17.136h1e-5c12.035-7.3136 25.863-11.702 40.013-12.947 14.149-1.2519 28.673 0.63255 42.096 5.8359-11.676-4.0369-21.509-4.5622-26.655-4.4787-5.6266 0.0913-8.0561 0.78042-7.9895 1.3185 0.13321 1.0762 10.454 1.4182 24.545 6.5507z" color="#000000"/>
    <path d="m364.38 634.36c-9.0167 1.3722-17.864 4.2762-26.021 8.591-6.4015 3.3859-12.386 7.6379-17.734 12.62 2.7807-3.5588 6.7282-8.3806-0.43294-2.8451 4.7815-5.044 10.207-9.5316 16.132-13.316 9.3348-5.9613 19.903-10.158 30.988-12.224-12.022 3.1995-15.894 6.6636-15.475 7.655 0.41908 0.99139 5.2752 0.0753 12.544-0.48102z" color="#000000"/>
    <path d="m369.8 641.26c-10.012-0.0268-20.142 2.3515-29.213 6.9731-5.5104 2.8065-10.645 6.4294-15.176 10.73 1.8379-2.4014 3.3065-4.1363 3.4984-4.8184 0.16083-0.57158-0.89739-0.40357-3.9518 1.9779 4.0466-4.3014 8.6852-8.0946 13.773-11.235 10.375-6.4019 22.607-10.028 35.106-10.241-12.521 1.1553-16.754 4.3874-16.45 5.4199 0.30418 1.0325 5.2274 0.63084 12.413 1.1936z" color="#000000"/>
    <path d="m453.49 664.5c-8.8772-2.0924-18.17-2.7007-27.347-1.7423-7.2027 0.75181-14.342 2.4627-21.163 5.0891 3.908-2.2637 9.37-5.2637 0.66026-2.801 6.3186-2.8948 13.027-5.033 19.936-6.3322 10.885-2.0462 22.256-1.9952 33.311 0.22514-12.347-1.5189-17.233 0.24948-17.214 1.3256 0.0188 1.0762 4.8659 2.0388 11.817 4.2356z" color="#000000"/>
    <path d="m451.84 672.38c-9.2787-3.7619-19.564-5.3364-29.705-4.4346-6.1596 0.54696-12.275 1.9916-18.084 4.29 3.5367-2.0962 9.7008-5.4073 0.6396-2.8044 5.3597-2.4801 11.079-4.2679 16.972-5.2824 12.014-2.0669 24.716-0.86521 36.392 3.6028-12.047-3.6016-17.181-2.1831-17.284-1.1117-0.10319 1.0714 4.6142 2.5364 11.07 5.7403z" color="#000000"/>
    <path d="m287.93 839.5c-7.2317 0.44968-14.448 2.0742-21.257 4.8264-5.8702 2.3724-11.446 5.5816-16.5 9.519 2.6125-2.9787 5.8598-6.5943-0.41476-2.6929 4.5425-4.1489 9.6548-7.7385 15.186-10.632 7.9418-4.1546 16.735-6.8609 25.828-7.8775-10.29 2.098-13.678 4.9228-13.352 5.9479 0.3256 1.0251 4.4563 0.7414 10.511 0.90934z" color="#000000"/>
   </g>
   <g transform="matrix(.86444 0 0 .86444 -538.05 -94.26)" fill="#fff">
    <path d="m917.5 879.08c-7.2123-2.5819-15.224-3.1856-22.783-1.575h-1e-5c-9.7341 2.0614-18.811 7.8177-24.884 15.893v1e-5c-6.202 8.2314-9.3055 18.933-8.4079 29.362-0.91913-5.1304-0.7421-9.1305-0.99622-10.193-0.25412-1.0624-1.3847 0.75704-1.5413 7.4236-0.63758-10.026 2.1195-20.338 7.8859-28.799 6.2253-9.1213 15.853-15.954 26.744-18.807 1e-5 0 1e-5 0 1e-5 -1e-5 10.894-2.8429 22.842-1.6534 33.123 3.4412-10.029-4.4578-18.888-4.0756-23.21-3.4385-4.8184 0.71026-6.7192 1.8326-6.5691 2.3518 0.30013 1.0382 9.2437-0.31594 20.639 4.3408z" color="#000000"/>
    <path d="m890.94 877.94c2.8305 2.9225 4.6364 6.7312 5.0534 10.763 0.40953 4.1694-0.67978 8.3508-2.9976 11.738-2.3267 3.3814-5.7902 5.829-9.6643 6.9003-3.8768 1.0626-8.0227 0.70686-11.597-0.93753-3.5716-1.6515-6.4546-4.5403-8.0898-8.0256 1.895 2.9192 4.1404 4.2102 4.8602 4.3038 1.0349 0.13461-0.39867-0.91911-1.9578-3.9537 1.6316 2.2103 3.9003 3.9155 6.3992 4.8295 2.9909 1.099 6.3522 1.0826 9.2327 0.0252 2.8824-1.051 5.3533-3.162 6.8097-5.7276 1.4637-2.5608 1.9684-5.6585 1.4432-8.4412-0.68491-3.7564-3.389-7.161-6.6665-8.6397 5.1021 1.7067 7.3462 6.1056 8.359 8.4233 0.75958 1.7322 1.1055 2.6744 1.5693 2.6391 0.46378-0.0353 1.0295-1.0367 1.1868-2.9914 0.19044-2.4883-0.45317-6.86-3.9401-10.905z" color="#000000"/>
    <path d="m911.03 900.39c-13.57 3.2681-26.848 7.8498-39.581 13.672-20.333 9.2974-39.277 21.773-55.921 36.865 4.5986-4.8151 8.1274-8.2159 8.8698-9.3524 0.56459-0.86432-1.2509-0.17365-7.7553 5.152 15.609-14.761 33.425-27.284 52.736-37.009 15.433-7.7721 31.811-13.76 48.705-17.785-25.304 6.9978-34.126 13.221-33.588 14.163 0.53796 0.9423 10.701-2.4526 26.535-5.7063z" color="#000000"/>
    <path d="m944.27 767.16c-32.157 21.768-60.132 49.877-81.756 82.321-9.365 14.051-17.554 28.903-24.448 44.35 3.6968-9.4514 6.8329-16.35 7.3728-18.256 0.31582-1.1151-1.3582 0.35031-7.2274 12.185 6.0977-13.891 13.242-27.341 21.36-40.196 23.475-37.174 55.175-69.283 92.308-93.335-33.008 22.504-42.56 35.971-41.66 36.602 0.90076 0.63102 13.214-10.222 34.05-23.67z" color="#000000"/>
    <path d="m855.54 917.32c-15.515 10.105-30.879 20.451-46.084 31.032-17.512 12.187-34.813 24.686-51.892 37.49 10.219-8.7682 16.943-14.911 1.727-4.2806 15.64-12.541 31.494-24.827 47.552-36.85 17.42-13.043 35.081-25.778 52.971-38.196-52.791 39.331-26.346 24.236-4.2743 10.804z" color="#000000"/>
    <path d="m1029.8 741.53c-48.188 10.693-93.172 36.655-126.44 73.495-11.089 12.278-20.917 25.716-29.269 40.032 5.6422-10.615 10.55-18.149 11.562-20.255 0.098-0.20398-1.0602-0.77415-10.194 13.342 7.3957-12.482 15.917-24.315 25.437-35.306 36.472-42.106 87.958-71.276 143.32-80.859-22.584 4.3724-39.551 11.232-48.44 15.303-9.6447 4.4164-13.541 7.0516-13.189 7.4811 0.70373 0.85884 18.478-7.4141 47.217-13.234z" color="#000000"/>
    <path d="m891.06 811.95c1.8081-2.0818 3.6493-4.1344 5.5227-6.1568h1e-5c24.997-26.978 55.946-48.179 89.728-62.321h1e-5c33.78-14.146 70.496-21.274 107.01-20.16-13.636 0.0564-23.988 1.3861-26.435 1.9677-3.8731 0.9205 3.7144 0.0638 18.894 0.31187-33.665 0.63336-67.088 8.2745-97.789 21.797l-1e-5 1e-5c-32.976 14.528-62.916 35.889-86.776 62.626l-1e-5 1e-5c-5.7467 6.4379-11.159 13.168-16.21 20.153 5.5014-7.9058 10.907-14.743 15.817-20.512 10.932-12.849 21.387-22.474 26.296-27.02 5.5112-5.1024 7.8058-7.2426 6.5451-6.9338-2.278 0.55786-17.819 10.249-36.971 30.186-1.8496 1.9257-3.7282 3.946-5.6264 6.0621z" color="#000000"/>
    <path d="m801.26 1004.5c-8.3725 6.0382-15.306 14.228-19.849 23.624-6.1715 12.749-7.9168 27.796-4.711 41.83-1.4702-4.2998-2.2003-7.6635-2.6836-8.4963-0.28445-0.4903-0.99383 0.5224-0.16431 6.5475-3.3247-13.678-2.2201-28.551 3.3266-41.807 5.1557-12.309 14.067-23.121 25.409-30.611-7.4337 5.4584-11.827 11.209-13.9 14.447-2.2481 3.5111-2.7465 5.341-2.2826 5.6167 0.92783 0.5516 5.735-5.2442 14.855-11.152z" color="#000000"/>
    <path d="m855.07 984.04c-15.039 6.3136-28.093 17.836-36.129 32.287-5.5743 10.015-8.8185 21.403-9.34 32.964-0.24482-5.1314 3e-3 -9.0043-0.22678-10.046-0.12703-0.5754-1.1205 0.2594-1.981 7.0807 0.385-10.963 3.1248-21.902 8.0513-31.851 8.8-17.758 24.662-32.104 43.667-39.094-9.4997 3.9816-15.86 9.0448-19.01 11.97-3.4255 3.1806-4.5147 4.9919-4.1242 5.3658 0.78099 0.74778 7.5347-4.4125 19.093-8.6756z" color="#000000"/>
    <path d="m880.1 968.23c-8.7075 10.061-15.824 21.574-20.937 33.963-4.64 11.242-7.6402 23.209-8.8494 35.392-0.014-4.6925 0.13846-8.1683-0.11946-9.1302-0.20504-0.7647-0.99609 0.4836-1.983 6.3465 0.76759-11.577 3.1204-23.097 7.003-34.134 5.3017-15.071 13.46-29.221 23.991-41.478-11.537 14.874-13.294 22.499-12.316 22.957 0.97771 0.45768 5.3939-5.7142 13.211-13.916z" color="#000000"/>
    <path d="m944.6 948.71c-17.749 5.4896-33.577 17.994-42.846 34.403-5.9427 10.507-9.3101 22.548-9.6582 34.725-0.3142-5.6604-2e-3 -9.934-0.21738-11.078-0.0907-0.4827-1.1771 0.1536-2.0182 7.8424 0.31126-11.492 3.2051-22.973 8.4834-33.335 10.217-20.038 29.533-35.463 51.872-40.935-10.911 3.1429-18.469 8.1006-22.2 10.972-4.0832 3.1424-5.4566 5.0133-5.0887 5.4107 0.73582 0.79471 8.5389-4.5114 21.672-8.0047z" color="#000000"/>
    <path d="m760.71 1032.5c-4.4931 6.8109-7.265 14.898-7.8243 23.203-0.43295 6.4006 0.42442 12.949 2.5408 19.112-1.3284-2.4008-2.2125-4.2744-2.7334-4.6899-0.42701-0.3406-0.77289 0.5919 0.0126 4.0651-2.3999-5.8371-3.7394-12.172-3.8828-18.602-0.22776-10.324 2.6669-20.831 8.3934-29.801-5.4641 10.309-4.6362 15.275-3.596 15.551 1.0402 0.2756 3.0815-3.7482 7.0897-8.8374z" color="#000000"/>
    <path d="m818.01 985.28c-9.7274 9.4479-15.559 23.318-15.135 37.177 0.23692 7.9974 2.4388 16.002 6.3951 23.075-2.3712-3.2645-3.8462-5.957-4.5009-6.5393-0.38826-0.3453-0.83046 0.7289 1.3544 5.7153-3.8758-6.6686-6.3094-14.238-7.0173-22.039-1.5127-16.81 5.3709-34.408 18.473-45.947-5.9474 5.8465-8.9152 11.729-10.176 14.912-1.3809 3.485-1.4523 5.2028-0.94789 5.3946 1.0088 0.38361 4.3394-5.4965 11.556-11.748z" color="#000000"/>
    <path d="m761.95 1020.4c0.61887 6.7255 1.7148 13.427 3.2828 20.034 1.838 7.7464 4.3252 15.366 7.435 22.751-2.5934-4.0046-4.9506-7.3433-2.7462-0.3762-3.5362-6.7786-6.5589-13.861-9.0225-21.166-2.6278-7.7919-4.619-15.836-5.9352-24.026 2.6475 10.54 5.0606 14.335 6.0988 14.053s0.947-4.6917 0.8874-11.27z" color="#000000"/>
    <path d="m851.55 966.52c-5.4269 12.802-7.6809 27.082-6.3471 41.108 0.72511 7.6344 2.4914 15.201 5.2479 22.416-1.8642-3.5418-3.0886-6.2561-3.7004-6.8842-0.47682-0.4895-0.72713 0.7703 0.71102 5.6876-2.8096-6.6166-4.8189-13.606-5.9517-20.77-2.5819-16.337-0.51471-33.537 6.0768-49.072-5.5038 15.384-4.2135 22.164-3.1406 22.27 1.0729 0.10615 2.8655-6.1505 7.104-14.757z" color="#000000"/>
    <path d="m901.54 943.18c-9.7725 12.51-14.937 28.929-13.787 45.074 0.43509 6.1438 1.738 12.252 3.8687 18.079-1.8448-3.6596-2.9858-6.542-3.5653-7.2086-0.40703-0.46827-0.82875 0.6951 0.57478 5.8886-2.0791-5.252-3.5188-10.782-4.2626-16.431-2.468-18.789 3.124-38.758 15.499-53.841-4.8996 6.6937-7.2642 12.726-8.2643 16.056-1.0811 3.5998-1.0674 5.323-0.55166 5.481 1.0315 0.31601 4.044-5.7307 10.488-13.097z" color="#000000"/>
    <path d="m790.4 976.19c-10.204 2.174-20.19 5.5636-29.667 10.094-8.3454 3.989-16.301 8.8615-23.689 14.521 3.9626-3.9642 8.9096-8.8164 0.10002-3.0732 6.6843-5.7223 13.948-10.819 21.666-15.185 10.853-6.1391 22.6-10.826 34.833-13.86-13.846 4.404-18.532 8.1257-18.086 9.1061 0.44636 0.98045 6.1668-0.31102 14.843-1.6036z" color="#000000"/>
    <path d="m744.99 999.29c-1.9586 0.0455-4.0645 0.88461-5.4756 2.345-1.8403 1.838-2.7614 4.9686-2.1101 7.7171 0.59005 2.6254 2.6588 5.1224 5.3357 6.2183-1.5457-0.1197-2.7748-0.5701-3.271-0.4549-0.29821 0.069-0.5235 0.8999 1.5496 2.2884-3.1308-1.1137-5.8416-3.6344-7.1489-6.9532-1.5003-3.8737-0.98257-8.5352 1.6347-12.163 2.6479-3.6023 7.1065-5.8022 11.891-5.5425-4.5287 0.21366-7.1726 2.6036-8.1437 3.8566-1.1251 1.4516-1.1185 2.3988-0.73408 2.7732 0.76892 0.74878 3.3686-0.5549 6.4729-0.085z" color="#000000"/>
    <path d="m745.65 1012.2c-2.174 4.9446-3.589 10.259-4.1466 15.682-1.3271 12.822 2.3241 26.353 10.183 36.963-2.3989-2.4393-4.0431-4.4535-4.7199-4.8202-0.49957-0.2707-0.60921 0.8411 1.7018 4.7085-8.1961-10.285-12.748-23.671-12.332-37.219 0.23688-7.6083 1.9996-15.216 5.2054-22.254-2.5014 6.6-3.0212 12.025-3.0267 14.992-6e-3 3.1846 0.47779 4.5849 1.0156 4.6112 1.0757 0.053 2.3518-5.4479 6.1184-12.664z" color="#000000"/>
    <path d="m788.13 989.3c-3.6437-0.89314-7.503-1.0816-11.261-0.50993-4.9258 0.74602-9.7304 2.8087-13.731 5.9464-4.826 3.7795-8.5141 9.183-10.281 15.209 0.32641-2.8042 0.8815-4.913 0.75644-5.58-0.0837-0.4463-1.0285-0.1476-2.5707 3.406 1.549-6.0268 4.8617-11.677 9.5439-16.044 4.2261-3.938 9.5184-6.8029 15.274-8.1866 5.7557-1.3809 11.911-1.2676 17.739 0.39878-6.0665-1.257-10.815-0.41631-13.221 0.30984-2.6232 0.79156-3.6005 1.6458-3.4743 2.1688 0.25248 1.046 5.0173 0.80055 11.226 2.8819z" color="#000000"/>
    <path d="m783.36 989.29c-3.7538 5.7616-9.2027 10.225-15.392 12.719-4.0531 1.6296-8.3818 2.4135-12.656 2.3299 5.0842-1.1466 4.1684-2.0145 0.91526-2.3853 3.5933-0.5383 7.0356-1.7381 10.097-3.4838 5.7624-3.2822 10.179-8.5769 12.341-14.427-1.3671 6.409-3.1671 9.2558-2.3687 9.976 0.72444 0.65338 3.7815-0.69945 7.0638-4.7293z" color="#000000"/>
    <path d="m857.7 921.13c3.7944-2.4693 7.7053-4.75 11.714-6.8318 17.92-9.3052 37.786-14.569 57.75-15.394-12.277 1.8371-9.3274 2.557-2.2388 2.508-18.714 2.1918-36.827 8.3477-52.789 17.841-5.3506 3.1819-10.465 6.7337-15.292 10.616 5.9398-5.3592 12.303-10.198 14.53-12.004 4.6868-3.799 4.6709-4.9455-1.4722-2.6795h-1e-5c-3.003 1.1077-7.2699 3.0695-12.202 5.944z" color="#000000"/>
    <path d="m993.14 903.41c-30.012-3.1104-60.707-0.30751-89.731 8.3116-33.104 9.8291-64.038 27.218-89.725 50.508 8.4123-8.2694 15.244-13.855 16.813-15.529 0.13712-0.14623-0.76062-1.0758-13.515 9.4331 24.487-21.883 53.674-38.621 85.116-48.686 34.428-11.019 71.496-14.012 107.44-8.5815-22.428-2.9258-40.308-1.7788-49.877-0.71631-10.351 1.1492-14.79 2.422-14.593 2.9402 0.39407 1.0364 19.505-1.1866 48.069 2.3205z" color="#000000"/>
    <path d="m929.13 801.17c-3.4114 1.4004-6.575 3.4844-9.1978 6.1108-3.8565 3.8536-6.601 8.9364-7.705 14.364-1.2857 6.2826-0.358 13.123 2.6364 18.926 1e-5 0 1e-5 1e-5 1e-5 1e-5 2.988 5.8067 8.0768 10.634 14.153 13.331-3.9812-1.2461-6.7385-2.963-7.6288-3.1665-8e-3 -2e-3 -0.91833 0.99996 4.4885 4.2865-5.759-2.7106-10.741-7.1922-14.047-12.787-3.7304-6.3227-5.2684-13.974-4.1964-21.402 0.92956-6.4058 3.7727-12.553 8.1587-17.477 4.3898-4.9204 10.251-8.5406 16.742-10.26-8.7245 2.7837-13.641 8.2852-15.685 11.262-2.3849 3.4759-2.5983 5.3397-2.0548 5.5207 0.54348 0.181 1.9611-1.2437 4.4835-3.2184 2.2766-1.7849 5.5377-3.9958 9.8528-5.4898z" color="#000000"/>
    <path d="m919.39 859.96c-6.4695-4.3393-11.578-10.542-14.52-17.66-2.9946-7.2683-3.6968-15.35-2.061-22.915 1.6405-7.5644 5.5986-14.513 11.156-19.725-2.6655 3.1519-3.9752 5.9161-4.0654 6.7655-0.11966 1.1274 0.98683-0.51235 4.2429-3.5685-4.1094 4.9477-6.8122 10.987-7.7471 17.211v1e-5c-1.041 6.9078 0.0886 14.072 3.0912 20.193v1e-5c3.6414 7.4419 10.131 13.395 17.597 16.358-6.3701-2.0394-11.028-5.6791-13.375-7.5822-2.6225-2.1262-3.8496-3.1967-4.2778-2.8696-0.85636 0.65429 1.4801 7.4512 9.9586 13.793z" color="#000000"/>
    <path d="m827.49 944.78c-5.9546-8.0117-8.9095-18.02-8.2369-27.787 0.62698-8.9421 4.2424-17.508 10.045-24.094-1.8316 2.7983-2.7135 5.1105-2.6871 5.8388 0.0321 0.88825 0.90542-0.29919 3.4217-2.9991-4.3231 6.3511-6.6121 13.962-6.5387 21.418 0.0891 10.069 4.5776 19.911 11.723 26.397-4.2868-3.286-7.2598-7.1264-8.7779-9.0482-1.7163-2.1727-2.6132-3.194-3.1078-2.9807-0.98916 0.42665-0.49909 6.0764 4.1583 13.254z" color="#000000"/>
    <path d="m918.55 865.52c-8.7625-0.25428-17.635 1.389-25.756 4.8512h-1e-5c-10.388 4.4243-19.592 11.846-26.163 21.175h-1e-5c-6.2536 8.8736-10.147 19.495-11.095 30.418 0.0185-5.7191 0.73023-10.002 0.62168-11.173-0.0243-0.26189-1.2361-0.18979-2.6462 7.7663 0.97412-10.249 4.4231-20.317 10.053-29.087h1e-5c6.5466-10.193 16.01-18.571 27.091-23.866 11.083-5.292 23.699-7.4614 36.075-6.1132-11.595-0.80227-20.479 1.7828-24.935 3.5067-4.8823 1.8888-6.7071 3.3824-6.4542 3.8608 0.50583 0.9568 9.569-2.2785 23.207-1.3387z" color="#000000"/>
    <path d="m884.69 831.35c-14.039 15.324-26.289 32.344-36.383 50.599-7.6238 13.787-14.024 28.277-19.089 43.242 2.1295-8.1716 6.6512-23.904-1.07-4.2248 4.3843-14.039 9.9359-27.741 16.589-40.918 10.886-21.559 24.729-41.699 41.064-59.681-16.964 20.076-21.19 29.953-20.227 30.454 0.96268 0.50077 7.7335-7.8515 19.116-19.471z" color="#000000"/>
    <path d="m827.55 935.53c0.74929-6.1813 1.9834-12.29 3.6854-18.254 4.447-15.581 12.109-30.131 22.301-42.501-6.0053 9.3504-3.8364 8.0483 0.5239 3.1576-8.5461 12.312-14.588 26.229-17.729 40.657-1.6249 7.4611-2.484 15.061-2.5707 22.638-0.77116-14.954 0.28387-21.302-0.7821-21.463s-3.6816 5.873-5.4285 15.766z" color="#000000"/>
    <path d="m938.33 910.09c-32.877 3.3897-65.046 14.734-92.833 32.941-17.684 11.587-33.623 25.906-47.067 42.312 5.8928-7.9424 10.77-13.507 11.805-15.143 0.38087-0.6017-1.1858-0.45521-10.129 9.4336 12.447-15.161 27.036-28.613 43.234-39.82 31.478-21.777 69.058-34.895 107.56-37.381-18.94 1.6808-33.395 5.7243-41.085 8.276-8.3025 2.755-11.723 4.5979-11.451 5.0752 0.54383 0.95465 15.938-3.765 39.962-5.6953z" color="#000000"/>
    <path d="m908.34 951.97c-8.7498 6.9184-14.972 17.412-16.631 28.703-1.1101 7.5094-0.29244 15.381 2.4035 22.603-1.665-3.1003-2.6517-5.5956-3.1932-6.1687-0.3625-0.38362-0.88153 0.59587 0.30535 5.1578-2.7865-6.8926-3.9871-14.493-3.4038-22.046 1.097-14.077 8.572-27.735 20.352-36.395-5.6378 4.7126-8.6785 9.6034-10.024 12.314-1.4659 2.9534-1.6322 4.4731-1.1554 4.7244 0.95363 0.5027 4.5116-4.1804 11.347-8.8923z" color="#000000"/>
    <path d="m858.76 972.46c-6.7324 9.5368-10.297 21.554-9.6549 33.465 0.32185 6.0167 1.6743 12.017 3.9995 17.647-1.6975-2.859-2.783-5.0982-3.3592-5.6017-0.43367-0.379-0.77184 0.6748 0.4819 4.8249-2.4-5.2012-4.0189-10.802-4.7583-16.558-1.8196-14.205 1.9042-29.253 10.543-41.263-3.6011 5.7917-5.1281 10.846-5.6991 13.651-0.61462 3.0189-0.42495 4.4456 0.0953 4.585 1.0405 0.27885 3.3868-4.6586 8.3523-10.75z" color="#000000"/>
    <path d="m823.84 992.78c-4.548 2.6894-8.529 6.4632-11.452 10.952-3.6727 5.6315-5.7114 12.448-5.7015 19.305 6e-3 5.1485 1.15 10.344 3.3529 15.081-1.7798-2.6988-2.8479-4.9383-3.4058-5.4297-0.35501-0.3127-0.88047 0.5994 0.51323 4.781-2.1976-4.4228-3.555-9.3052-3.9384-14.313-0.57428-7.5278 1.0776-15.288 4.804-22.07 3.7302-6.7794 9.4874-12.498 16.483-16.225-5.8873 3.6558-9.1783 7.9626-10.641 10.378-1.596 2.6356-1.8116 4.0572-1.3587 4.3481 0.90593 0.5816 4.5752-3.4376 11.344-6.8088z" color="#000000"/>
    <path d="m770.57 1018c-1.3079 6.8695-1.6181 13.978-0.88608 21.017 0.7195 6.9212 2.4451 13.784 5.1269 20.294-2.2163-3.4216-4.8647-7.604-2.72-0.3562-3.0552-6.0561-5.3169-12.567-6.6786-19.315-1.7194-8.5215-1.998-17.408-0.76684-26.176-0.55378 10.716 1.3081 14.809 2.3823 14.753 1.0742-0.056 1.8489-4.2278 3.5424-10.217z" color="#000000"/>
    <path d="m751.17 1020.2c-3.0953 6.3158-4.7454 13.444-4.6805 20.611 0.0594 6.778 1.6403 13.619 4.6377 19.838-1.5409-2.0995-2.6078-3.7566-3.1645-4.0806-0.46259-0.2691-0.69462 0.6655 0.42362 3.8563-3.3196-5.8871-5.4544-12.524-6.1674-19.398-0.93361-9.0211 0.60091-18.398 4.5343-26.862-3.8145 10.442-2.3804 15.021-1.3143 15.166s2.5511-3.8758 5.7312-9.13z" color="#000000"/>
    <path d="m744.38 1005.2c-0.7916 0.1311-1.6388 0.5596-2.2327 1.1992-0.77848 0.8075-1.2604 2.1564-1.1362 3.4483 0.10567 1.2516 0.81446 2.6028 1.9313 3.4815-0.8107-0.042-1.5406-0.2175-1.9322-0.067-0.33035 0.1267-0.57716 0.6916 0.2662 1.7739-1.6716-0.8432-3.0974-2.3367-3.8635-4.2598-0.86721-2.2072-0.82226-4.8306 0.32613-7.1922v-1e-4c1.1639-2.3517 3.3091-4.2379 6.0697-5.0565-2.5173 1.2246-3.4708 3.1064-3.7217 4.1076-0.2821 1.1259 0.021 1.7735 0.45232 2.0929 0.86272 0.6389 2.4066 0.1702 3.8406 0.4726z" color="#000000"/>
    <path d="m951.51 848.37c-4.439 2.4296-9.4748 3.6464-14.486 3.4825-6.7314-0.23322-13.202-2.9537-18.011-7.4727-3.4942-3.2909-6.0609-7.4684-7.4154-12-1.3521-4.5319-1.4753-9.365-0.39034-13.896-0.39814 3.7052 0.19979 6.4024 0.63192 7.0527 0.58573 0.88144 0.46219-0.92823 1.3433-4.7403-0.31083 3.6108 0.1972 7.262 1.4562 10.582 1.473 3.8888 3.9819 7.3439 7.1334 9.9035 4.3156 3.5118 9.9188 5.3446 15.289 5.1233 5.3704-0.20986 10.622-2.4697 14.366-6.0579-2.9673 3.3404-6.5261 5.2596-8.9738 6.3306-2.5722 1.1255-4.4272 1.6039-5.4085 2.0448-1.0923 0.49099-1.1754 0.97002-0.01 1.4447 1.9498 0.79228 7.63 1.4648 14.474-1.7981z" color="#000000"/>
    <path d="m1069.8 872.31c-22.761-6.3315-46.48-9.3886-70.179-8.9989-26.066 0.42821-52.116 5.0217-76.843 13.581 8.3932-3.4088 14.804-5.5859 16.368-6.4312 0.93482-0.50502-1.1024-0.77132-12.405 2.5801 23.318-8.2634 47.922-13.068 72.756-14.161 28.152-1.2391 56.58 2.2964 83.71 10.462-16.783-4.5725-30.257-6.203-37.707-6.7734-7.9759-0.61074-11.521-0.31579-11.475 0.22959 0.091 1.0908 14.627 3.065 35.776 9.5127z" color="#000000"/>
    <path d="m1027.5 803.07c-13.919 12.174-29.45 22.436-46.035 30.429-14.682 7.0762-30.181 12.376-46.057 15.765 6.0061-1.7678 10.38-3.4752 11.394-4.1754 1.1995-0.82805-1.4121-0.28311-8.6048 1.1039 14.381-3.9442 28.286-9.4785 41.378-16.454 18.309-9.7547 35.025-22.339 49.373-37.109-15.839 17.659-23.953 23.442-23.219 24.239 0.7341 0.79724 9.7166-3.9796 21.771-13.8z" color="#000000"/>
    <path d="m1224.3 833.19c-23.518-8.1732-49.083-10.739-73.861-7.2408-27.675 3.9033-54.371 15.355-76.378 32.852 7.2575-6.3784 13.192-10.537 14.552-11.859 0.138-0.13411-0.6899-1.1127-11.781 6.7145 21.067-16.464 46.363-27.655 72.937-32.106 29.686-4.9695 60.852-1.4903 88.922 10.061-17.467-6.6941-32.204-8.6618-40.085-9.2721-8.5586-0.66277-12.344-0.1858-12.273 0.35832 0.1433 1.0883 15.964 2.2696 37.966 10.492z" color="#000000"/>
    <path d="m1104.6 747.42c-10.108 4.6023-19.979 9.7447-29.554 15.4-32.211 19.026-61.055 43.917-84.669 73.141 5.1768-7.1637 9.2569-12.349 10.082-13.876 0.5905-1.0932-1.4112 0.13311-8.8524 8.6068 22.405-28.461 49.778-53.134 80.607-72.54 12.912-8.1276 26.422-15.337 40.395-21.552-22.428 10.712-35.979 20.701-39.232 23.468-2.8632 2.4349-2.1848 2.6446 0.8336 1.3736 4.7071-1.9821 15.403-7.6483 30.39-14.022z" color="#000000"/>
    <path d="m1043.5 786.07c7.1257-6.2438 14.502-12.197 22.105-17.841 52.61-39.048 116.22-62.824 181.25-67.911-13.372 1.5207-23.381 3.5912-25.775 4.3652-3.4439 1.1134 3.368-0.0567 18.613-1.3237-61.874 7.3672-121.5 31.729-170.54 69.571-12.029 9.2819-23.434 19.354-34.119 30.125 13.088-13.684 25.095-24.083 33.463-30.995 15.121-12.49 21.798-17.079 20.66-17.175-1.1389-0.0964-9.9312 4.5238-23.194 13.816v1e-5c-6.5784 4.6093-14.22 10.382-22.46 17.369z" color="#000000"/>
    <path d="m1186.4 723.06c-46.253 10.955-89.262 36.38-121.08 72.071-9.4371 10.584-17.92 22.036-25.306 34.169 5.4435-9.8572 10.118-16.861 11.074-18.835 0.2198-0.4538-1.1628-0.51594-9.8054 12.305 6.4192-10.445 13.655-20.403 21.625-29.751 34.721-40.721 83.736-69.348 136.76-79.532-21.09 4.5152-36.871 11.138-45.164 15.069-8.9825 4.2577-12.601 6.7776-12.254 7.2084 0.6934 0.86153 17.309-6.9072 44.15-12.706z" color="#000000"/>
    <path d="m1079.3 855.98c-5.1074 1.9757-10.729 2.4759-16.069 1.3737-7.597-1.5911-14.287-6.3618-18.241-12.884v-1e-5c-3.9851-6.6104-5.0024-14.749-2.8573-22.019 2.1607-7.2664 7.4084-13.404 14.104-16.654-4.2513 2.5924-6.3924 5.6363-6.7127 6.5677-0.3202 0.93136 0.8254-0.59193 5.6272-3.243-4.8648 3.4018-8.4176 8.5938-9.7543 14.223v1e-5c-1.5336 6.4116-0.2051 13.428 3.4073 18.712 3.5573 5.2308 9.391 8.8581 15.463 9.7635 6.0678 0.92526 12.528-0.83748 17.174-4.5572-6.45 5.8368-13.628 6.1899-17.476 6.1738-3.1231-0.01-4.6289-0.20615-4.7031 0.28352-0.074 0.48966 1.2842 1.6154 4.1664 2.5843 3.3799 1.1291 9.1867 1.9441 15.872-0.32446z" color="#000000"/>
    <path d="m1051.8 809.87c-3.8838 3.3178-6.8974 7.7941-8.4455 12.746-1.9621 6.2367-1.6249 13.34 1.0259 19.496 2.0982 4.8855 5.6452 9.2289 10.111 12.299-2.8974-1.4147-4.9047-2.9008-5.631-3.0741-0.371-0.0885-0.6025 0.93613 2.7963 3.9615-4.3469-2.9086-7.9978-6.9452-10.47-11.685-3.4984-6.7171-4.5551-14.765-2.7835-22.366 1.7813-7.5978 6.346-14.571 12.829-19.316-5.4681 4.5707-7.8289 9.695-8.7026 12.38-0.9676 2.9738-0.7898 4.4211-0.2773 4.5856 1.0249 0.32887 3.5437-4.6125 9.548-9.027z" color="#000000"/>
    <path d="m1068.1 869.91c-6.1771-0.61751-12.162-2.6892-17.344-6.0252-6.9727-4.4985-12.358-11.206-15.236-18.862-4.2528-11.37-2.6835-24.489 3.8914-34.371-2.1918 4.1533-2.8541 7.5677-2.7532 8.5094 0.1426 1.3309 0.8188-0.97259 3.5106-5.1819-4.5605 9.2107-4.8137 20.389-0.7822 29.494 2.9309 6.6476 8.0461 12.266 14.225 15.763 6.1751 3.5034 13.478 4.9276 20.359 4.0645-5.7702 1.0778-10.913 0.44354-14.313-0.24521-3.5566-0.72046-5.8759-1.569-7.2338-1.8856-1.6256-0.37876-2.01-0.0109-0.8099 1.3185 1.8077 2.001 7.4026 6.0964 16.486 7.4216z" color="#000000"/>
    <path d="m958.42 858.82c11.426-4.111 22.586-9.0296 33.367-14.714 8.2496-4.3499 16.278-9.1481 24.038-14.369-5.111 4.4265-9.6385 8.5192-0.418 3.155-6.9487 5.2602-14.17 10.186-21.632 14.752-12.05 7.3727-24.725 13.803-37.871 19.197 13.948-6.742 18.81-10.788 18.276-11.724s-6.5798 0.97838-15.761 3.704z" color="#000000"/>
    <path d="m1159.3 921.38c-13.988-15.088-31.504-27.02-50.814-34.447-24.087-9.2687-50.984-11.507-76.446-6.2608 8.2099-2.1772 14.516-3.1214 16.105-3.6634 0.3676-0.12538-0.3154-1.2173-11.944 0.44655 24.382-4.8787 50.188-3.124 73.87 5.1984 23.812 8.3716 45.378 23.33 61.665 42.919-10.918-12.416-21.663-19.929-27.607-23.584-6.4503-3.9655-9.6344-5.0758-9.8348-4.5678-0.4009 1.0161 11.396 8.4786 25.006 23.959z" color="#000000"/>
    <path d="m1199.4 1005.9c-1.2706-23.09-10.671-45.919-26.438-63.078-18.273-19.912-45.046-32.142-72.326-32.837 9.2116-0.24135 16.094 0.77312 17.913 0.73078 1.8192-0.0423-1.3189-1.7005-12.694-2.8571 26.168 1.3259 51.906 12.836 70.377 31.89 19.896 20.544 31.016 49.522 29.825 78.471 0.2896-18.132-4.4277-32.059-7.3233-38.966-3.1986-7.6297-5.4586-10.545-5.9019-10.223-0.8868 0.64425 5.8872 14.62 6.5671 36.869z" color="#000000"/>
    <path d="m1196.5 1095.6c6.0556-14.454 9.2226-30.181 9.1576-45.926-0.1135-29.918-12.246-59.904-33.248-81.635 6.1451 5.6734 10.175 10.503 11.451 11.559 0.087 0.0724 1.1015-0.73891-6.5554-9.8022 20.112 21.265 32.329 50.149 33.333 79.794 0.6799 20.22-3.7358 40.661-12.815 58.935 6.8755-14.866 9.0054-27.706 9.6931-34.55 0.748-7.4435 0.3017-10.748-0.2423-10.703-1.088 0.09-2.443 13.852-10.773 32.327z" color="#000000"/>
    <path d="m1151.1 1189.1c13.069-23.035 22.726-48.06 28.495-73.988 6.8589-30.824 8.222-62.932 3.9664-94.335 1.8906 10.408 2.7841 18.26 3.3118 20.255 0.2428 0.9176 1.0671-0.7932-0.2177-14.772 4.0834 29.732 3.2068 60.211-2.6448 89.788-6.1597 31.132-17.825 61.239-34.35 88.511 10.103-17.558 15.829-32.38 18.612-40.605 2.9897-8.8346 3.7024-12.911 3.1554-12.977-1.0941-0.1317-7.1106 15.926-20.328 38.121z" color="#000000"/>
    <path d="m1078 1001c-7.1624-12.985-17.355-24.39-29.597-32.942v-1e-5c-14.61-10.211-32.164-16.373-50.113-17.505-3.4938-0.22053-7.0024-0.25522-10.506-0.10324 4.5062-0.52056 8.1572-0.67712 10.55-0.82925 2.8067-0.17861 4.3479-0.48371 0.0524-1.1077-1.5068-0.21889-3.9014-0.46428-7.0031-0.54687 2.3405-0.10243 4.6864-0.12368 7.0319-0.0634 18.475 0.47581 36.896 6.1264 52.617 16.261v1e-5c15.719 10.137 28.656 24.704 36.91 41.736-6.1294-11.598-13.186-19.201-17.198-22.973-4.3549-4.0945-6.6976-5.3896-7.0191-4.9525-0.6432 0.87418 7.0054 8.7243 14.273 23.026z" color="#000000"/>
    <path d="m996.95 948.2c11.25 0.34544 22.406 2.8278 32.69 7.3141 14.243 6.2176 26.722 16.24 35.832 28.72 8.0278 11.009 13.258 23.909 15.466 37.248 2.2137 13.338 1.4131 27.171-2.5915 40.042 2.3932-9.2796 2.4182-16.709 2.1741-18.412-0.2636-1.839-0.1471 1.7575-3.0909 12.749 2.3777-11.115 2.3952-22.696 0.2522-33.803-2.4712-12.788-7.8188-25.003-15.703-35.217-8.9566-11.614-21.028-20.758-34.506-26.215v-1e-5c-13.477-5.4604-28.392-7.2486-42.658-5.1762 20.833-3.5976 37.887 1.7652 43.39 3.4495 5.2747 1.6141 10.834 3.0616 0.9372-2.2118-5.9284-3.1579-17.093-7.6839-32.192-8.4875z" color="#000000"/>
    <path d="m1014.7 959.54c-2.0026-1.9172-4.6953-3.2639-7.5074-3.6294-3.6521-0.49706-7.7107 0.65099-10.665 3.1337-3.3077 2.7485-5.349 7.3234-5.1084 11.837-0.58619-2.0661-0.64216-3.7988-0.94616-4.3008-0.16407-0.27097-1.0805-0.0396-1.4571 3.1776-0.3672-4.8114 1.3567-9.8678 4.8819-13.544 3.4605-3.5877 8.4797-5.7089 13.707-5.5914 5.2264 0.13667 10.385 2.497 13.994 6.6115-3.9264-3.7798-8.1693-4.5518-10.193-4.6068-2.2932-0.0625-3.2515 0.5218-3.2934 1.0575-0.084 1.0715 3.5956 2.2411 6.5865 5.856z" color="#000000"/>
    <path d="m992.28 963.93c-1.3087 10.922-2.8283 21.813-4.5574 32.664-1.491 9.3569-3.1376 18.685-4.9388 27.978 0.48949-7.7274 0.17737-10.81-1.977-2.3862 1.0592-8.7011 1.9826-17.413 2.7701-26.132 1.1303-12.514 1.9808-25.041 2.5515-37.571 0.52944 26.154 2.4406 25.996 6.1515 5.4473z" color="#000000"/>
    <path d="m993.99 985.48c-2.1122 20.829-8.1799 41.204-17.804 59.705-14.755 28.358-37.882 52.146-65.604 67.641 8.0203-5.0253 13.546-9.6312 14.719-10.962 1.7116-1.9407-2.1901 1.0205-11.448 6.2965 24.914-15.933 45.248-38.773 58.076-65.131 10.651-21.88 16.185-46.155 16.109-70.312 0.50719 17.159-1.8129 31.232-3.11 38.509-1.4329 8.0388-2.2059 11.627-1.662 11.694 1.0878 0.1356 7.7998-13.993 10.724-37.441z" color="#000000"/>
    <path d="m959.99 945.5c1.1135 15.406 0.88816 30.882-0.66678 46.198-1.4301 14.086-3.9832 28.034-7.6204 41.671 2.3504-13.563 1.2393-12.779-1.5888-3.3901 2.6157-12.755 4.2781-25.679 4.9758-38.627 0.94016-17.448 0.12679-34.942-2.4046-52.132 3.8935 19.97 4.5702 28.365 5.6429 28.231s2.0724-8.7266 1.6618-21.95z" color="#000000"/>
    <path d="m953.08 1016.2c-4.8819 6.0988-10.489 11.577-16.655 16.283-9.2447 7.055-19.732 12.355-30.765 15.6 8.5724-3.8555 6.7382-4.2059 1.0396-2.8178 9.8413-3.9288 18.925-9.5441 26.733-16.47 6.6149-5.8674 12.324-12.676 16.901-20.107-5.9129 11.395-9.5279 15.671-8.7192 16.382 0.80877 0.7111 5.5973-2.4083 11.466-8.87z" color="#000000"/>
    <path d="m956.52 1038.4c-11.371 5.8788-23.911 9.298-36.548 9.9987-8.3239 0.4608-16.676-0.246-24.743-2.0761 10.873 1.0607 7.8833-0.463 2.4419-1.9222 7.3187 0.9723 14.726 1.0022 21.978 0.1048 13.601-1.6823 26.663-6.6703 37.736-14.281-10.881 8.6223-16.546 10.94-16.114 11.927s6.5848 0.1162 15.25-3.7515z" color="#000000"/>
    <path d="m949.22 1039.3c-4.53 14.381-15.215 26.514-28.72 32.596-8.5116 3.8215-17.977 5.278-27.126 4.2376 4.3258 0.013 7.4673-0.6319 8.2398-1.0805 0.98744-0.5735-1.0146-0.5104-5.7738-1.0977 8.0293 0.053 16.006-1.8864 22.992-5.5456 13.665-7.1437 23.314-21.218 25.183-35.945-0.45909 7.1869-2.5847 13.203-3.6553 16.215-1.2092 3.4013-1.7688 5.0206-1.3024 5.2924 0.93281 0.5437 6.3485-4.3732 10.162-14.672z" color="#000000"/>
    <path d="m930 1084.4c-5.5276 0.042-11.035-0.481-16.413-1.5526-8.7499-1.744-17.139-4.9419-24.737-9.3869 5.956 2.1434 6.4411 1.4112 2.3163-1.4279 7.412 3.2406 15.271 5.2754 23.173 6.0432 6.2102 0.6037 12.452 0.4294 18.529-0.4953-9.176 2.3483-13.339 2.7823-13.37 3.8574-0.0319 1.075 4.0076 2.4684 10.501 2.9621z" color="#000000"/>
    <path d="m927.01 1089.4c-8.9897 6.3467-19.94 9.5856-30.705 9.1549-6.1138-0.248-12.13-1.6485-17.659-4.0805 2.9393 0.7735 5.1865 0.9574 5.8296 0.7237 0.74373-0.2703-0.41861-0.8119-3.4862-2.3328 4.9978 1.5144 10.213 2.1612 15.339 1.9268 11.151-0.5063 21.89-5.3372 29.448-12.934-3.1813 3.8253-6.6756 6.7494-8.3403 8.2172-1.9182 1.6913-2.7717 2.6217-2.533 3.1042 0.47741 0.965 5.4965 0.2222 12.106-3.7793z" color="#000000"/>
    <path d="m907.37 1109.1c-4.4697-0.3067-8.8502-1.3581-12.92-3.0894-8.6942-3.7053-15.792-10.51-19.82-18.735 1.4903 1.9618 2.8522 3.1778 3.432 3.3154 0.65639 0.1557 0.28266-0.7992-0.75998-3.3384 4.6005 6.7528 11.472 11.746 18.943 13.998 4.6109 1.3947 9.4655 1.7906 14.11 1.2031-3.8056 0.9261-7.4464 1.1839-9.223 1.3746-2.0533 0.2205-3.0877 0.48-3.212 1.0031-0.2206 0.9291 3.143 3.2829 9.451 4.2679z" color="#000000"/>
    <path d="m938.09 1099.8c-11.048 8.1335-24.028 13.459-37.453 15.392-10.297 1.4812-20.818 0.9857-30.841-1.4169 4.2828 0.5373 7.487 0.4853 8.3335 0.1848 1.0061-0.3571-0.82041-0.7468-5.589-2.0204 9.1466 1.3513 18.477 1.0852 27.421-0.7517 14.401-2.9556 27.807-10.047 38.19-20.027-5.0456 5.4684-10.171 9.5209-12.678 11.562-2.8492 2.3194-4.1091 3.4914-3.8335 3.955 0.55134 0.9271 7.4204-0.9053 16.45-6.8779z" color="#000000"/>
    <path d="m924.87 1099.8c-7.1232 5.354-15.093 9.4831-23.478 12.189-7.3984 2.3873-15.106 3.6672-22.799 3.8094 7.6549-1.3768 6.7382-2.2234 1.459-2.4343 6.8846-0.8677 13.603-2.6741 19.91-5.3291 8.8471-3.7242 16.889-9.1312 23.565-15.761-7.0387 8.3168-10.866 11.253-10.269 12.148 0.59737 0.8951 5.2972-0.5569 11.612-4.623z" color="#000000"/>
    <path d="m966.87 976.16c-1.757 13.085-4.4019 26.035-7.9081 38.731-5.3742 19.46-12.773 38.321-22.025 56.183 6.2818-14.902 4.3889-13.115-0.64781-3.993 7.7674-17.185 13.819-35.096 18.051-53.381 3.5129-15.175 5.7752-30.608 6.7665-46.09-0.52631 22.973-1.9452 32.362-0.86504 32.439 1.0802 0.078 4.1053-9.1914 6.6277-23.89z" color="#000000"/>
    <path d="m925.93 1078.7c12.055-14.907 21.61-31.921 28.061-50.094 4.7041-13.251 7.7714-27.117 9.0936-41.177-0.0941 6.1064-0.38897 10.592-0.1659 11.83 0.16518 0.91671 1.0447-0.61183 2.203-8.2774-0.95246 13.153-3.4105 26.233-7.3303 38.9-6.6431 21.466-17.507 41.72-31.877 59.264 14.607-19.321 17.08-29.045 16.077-29.454-1.0034-0.4085-6.3478 7.8615-16.061 19.008z" color="#000000"/>
    <path d="m979.31 926.71c-0.21278 28.092-4.1744 56.09-11.728 83.023-2.0687 7.3756-4.405 14.671-7.002 21.868 4.7281-16.915 2.8652-14.268-1.0864-4.0974 1.8723-6.1413 3.5541-12.336 5.0427-18.572 7.0842-29.677 9.7633-60.299 7.9813-90.552 2.3884 24.514 2.0651 34.67 3.1472 34.601 1.0821-0.0687 2.981-10.326 3.6456-26.271z" color="#000000"/>
    <path d="m896.3 918.7c8.9446-3.258 18.125-5.8308 27.437-7.6904 24.37-4.8662 49.618-4.7958 73.802 0.14016-19.681-2.4613-10.949 0.0965-3.737 1.7108-23.018-3.2882-46.56-2.1421-68.947 3.293-11.558 2.8057-22.813 6.743-33.55 11.725 20.771-10.677 30.366-12.952 29.981-13.965-0.38439-1.013-10.381 0.0456-24.986 4.7865z" color="#000000"/>
    <path d="m1097.8 948.47c-23.697-15.583-50.232-26.98-77.979-33.4-19.802-4.582-40.22-6.651-60.6-6.1256 8.8496-0.70419 15.483-0.84446 17.196-1.1778 1.0376-0.20196-0.8145-1.0638-12.354-1.2917 18.931-0.63692 37.972 0.93665 56.611 4.7003 32.27 6.5167 63.296 19.644 90.6 38.427-14.303-9.2832-26.411-14.819-33.198-17.564-7.2697-2.9404-10.672-3.7118-10.796-3.1792-0.2487 1.0652 12.727 7.2581 30.521 19.611z" color="#000000"/>
    <path d="m992.44 939.68c11.886 0.50674 23.64 2.9987 34.636 7.3375 16.122 6.363 30.545 16.696 41.676 29.757-3.7393-3.6561-6.8817-6.0124-7.8496-6.3889-1.2021-0.46769 0.3879 1.2229 4.2054 5.8602-11.163-11.234-24.883-19.78-39.679-24.797-12.798-4.341-26.406-6.066-39.726-5.0965 9.143-1.1151 17.052-0.88261 21.034-0.79795 4.4782 0.0952 6.5395 0.0495 6.6007-0.48741 0.1222-1.0738-7.8549-4.2862-20.898-5.3865z" color="#000000"/>
    <path d="m943.02 950.22c-7.0857 13.467-14.287 26.871-21.604 40.21-12.371 22.554-25.071 44.922-38.094 67.093 7.0325-13.95 9.125-19.28-0.0175-4.702 11.572-21.405 22.844-42.965 33.811-64.672 8.3193-16.467 16.463-33.018 24.43-49.65-20.46 46.582-19.704 49.219 1.4752 11.72z" color="#000000"/>
    <path d="m1103.8 1012.5c-15.545-27.898-40.727-50.651-70.438-63.059-15.356-6.4158-31.867-10.165-48.557-11.003 8.8962-0.0301 15.535 0.66754 17.285 0.54927 0.3618-0.0245 0.03-1.266-12.229-2.6082 15.3 0.85977 30.503 4.1187 44.876 9.657 34.578 13.328 63.971 40.215 80.388 73.959-7.9578-15.314-17.01-25.672-22.097-30.868-5.5402-5.6578-8.4764-7.6089-8.7898-7.1603-0.6269 0.89714 9.5324 11.415 19.562 30.532z" color="#000000"/>
    <path d="m958.56 960.03c-9.6684-2.3567-20.152-1.9577-29.755 1.2954-6.7996 2.301-13.186 6.006-18.619 10.845 2.0558-2.4702 3.7368-4.1953 4.0004-4.8926 0.20344-0.53813-0.88553-0.49373-4.2663 1.9626 5.0043-4.8727 10.953-8.8525 17.484-11.638 11.415-4.8653 24.554-5.9844 36.95-2.9304-6.497-1.128-11.565-0.71247-14.302-0.2272-2.9358 0.52055-4.1562 1.2027-4.1012 1.7384 0.10994 1.0712 5.3673 1.5226 12.61 3.8473z" color="#000000"/>
    <path d="m1118.8 834.09c17.116-5.7477 35.071-8.9104 53.077-9.3292h1e-4c23.598-0.54506 47.195 3.7899 69.088 12.32 21.894 8.5268 42.131 21.268 59.016 37.512-8.7174-7.7311-16.208-12.588-18.138-13.526-2.0299-0.986 1.5362 1.391 11.822 10.936-15.956-13.624-34.401-24.243-54.033-31.407-21.62-7.8871-44.731-11.603-67.585-10.573h-1e-4c-22.503 1.01-44.757 6.4432-65.1 15.851 19.134-9.3493 36.216-13.379 45.18-15.286 9.8549-2.0962 14.327-2.7345 14.157-3.2616-0.3399-1.0542-19.711-1.989-47.483 6.7634z" color="#000000"/>
    <path d="m1269.1 862.14c-24.646-13.807-53.598-20.241-81.952-17.897-20.206 1.6669-40.11 7.6874-57.932 17.567 7.5271-4.7164 13.528-7.6202 14.949-8.6424 0.2848-0.20471-0.6326-1.0989-11.749 4.2282 16.724-9.1343 35.294-15.008 54.357-17.12 33.071-3.6606 67.485 4.2574 95.887 22.301-14.793-8.857-27.9-12.924-34.955-14.679-7.6741-1.9088-11.192-2.0272-11.224-1.481-0.063 1.0924 14.08 4.7155 32.618 15.724z" color="#000000"/>
    <path d="m1150.6 897.25c-3.9738-3.6362-6.8965-8.3308-8.3543-13.471v-1e-5c-2.4585-8.7741-0.463-18.395 5.0652-25.35 5.5523-6.9365 14.347-10.839 22.994-10.406-4.0666 0.27293-6.8261 1.4888-7.4354 2.0605-0.861 0.808 1.1144 0.1871 5.3467 0.31013-7.1566 0.71968-13.883 4.6706-17.826 10.367-4.3326 6.22-5.3777 14.567-2.9192 21.403 1.9386 5.4534 6.0495 10.096 11.031 12.64-4.3056-1.8151-7.3982-4.7277-9.2948-6.892-1.984-2.264-3.0743-4.0858-3.839-5.0982-1.0085-1.3339-1.6172-1.3971-1.6172 0.50004 0 2.4782 1.3485 8.3567 6.8497 13.936z" color="#000000"/>
    <path d="m1052.4 860.35c11.106 2.7447 22.759 3.5643 34.252 2.3526 7.9731-0.8403 15.875-2.6503 23.471-5.3901-4.5128 2.344-11.585 5.7626-1.0226 2.8927-7.0073 2.9288-14.371 5.0915-21.917 6.4199-13.445 2.3662-27.457 2.0617-40.988-0.97426 14.409 2.2672 20.224 0.5405 20.213-0.5367-0.011-1.0772-5.7447-2.1619-14.008-4.7641z" color="#000000"/>
    <path d="m1149.6 857.77c-4.5771 4.6304-7.4962 11.236-7.6633 18.015-0.1005 3.8818 0.6534 7.844 2.2245 11.495-1.2122-1.6128-2.0411-2.9298-2.54-3.1827-0.4114-0.20863-0.7681 0.53767-0.057 3.1467-1.8369-3.4668-3.0108-7.3403-3.3919-11.352-0.8204-8.7294 2.2476-17.958 8.631-24.706-2.7345 3.5581-3.8326 6.805-4.1958 8.6277-0.3913 1.964-0.1473 2.9412 0.3505 3.1449 1.0647 0.43555 3.0046-2.2865 6.6421-5.1884z" color="#000000"/>
    <path d="m1189.7 947.59c-17.172-12.764-31.858-28.72-43.077-46.761-4.7507-7.6405-8.8846-15.648-12.354-23.919 7.6332 14.514 6.1481 8.8908 3.3598 1.757 3.4978 7.0368 7.487 13.813 11.924 20.261 13.134 19.087 30.245 35.275 49.775 47.234-18.035-9.9384-24.528-15.748-25.169-14.877-0.6414 0.87063 4.9681 7.7685 15.54 16.305z" color="#000000"/>
    <path d="m1080 884.05c-11.066-2.9025-22.6-4.2056-34.113-3.8196-12.448 0.41692-24.883 2.8063-36.683 7.0785 5.0697-2.4859 14.856-6.8537 1.451-3.0449 11.108-4.4865 22.931-7.3533 34.978-8.4418 13.883-1.254 28.049-0.14241 41.71 3.3247-17.371-3.4363-24.522-1.7066-24.509-0.62779 0.013 1.0788 7.0329 2.311 17.166 5.5309z" color="#000000"/>
    <path d="m1190.6 999.33c-7.256-13.911-16.644-26.767-27.769-37.953-10.812-10.872-23.265-20.178-36.835-27.495 5.2299 2.2771 8.9975 4.1461 10.156 4.3828 0.8743 0.1786-0.1297-1.175-6.2853-4.9795 13.008 6.6161 25.15 15.044 35.959 25 13.806 12.716 25.42 27.92 34.109 44.745-11.237-19.705-18.754-25.36-19.531-24.607-0.7776 0.75264 4.3003 8.4281 10.196 20.907z" color="#000000"/>
    <path d="m1161 937.56c-8.3797-7.3991-17.876-13.593-28.094-18.286-15.636-7.1817-32.994-10.829-50.357-10.513 5.1834-0.57037 9.0964-0.74725 10.117-1.0882 0.7443-0.24872-0.5706-0.99137-7.2846-1.3214 16.734-0.68475 33.706 2.2157 49.427 8.5478 13.063 5.2624 25.244 12.871 35.788 22.411-7.9068-6.534-14.853-10.371-18.822-12.238-4.2385-1.9941-6.3116-2.4265-6.5257-1.9303-0.428 0.99251 6.6575 5.6632 15.751 14.418z" color="#000000"/>
    <path d="m1151.1 913.16c-8.8214-9.4434-14.187-21.813-15.025-34.446-0.3736-5.6779 0.1406-11.38 1.5017-16.848-0.3293 3.2916-0.1641 5.7408 0.1662 6.3891 0.3847 0.7551 0.7324-0.60493 1.7809-4.1982-0.6354 4.7745-0.6036 9.6078 0.081 14.312 1.8934 13.047 9.0246 25.074 19.073 32.815-4.6037-2.9869-8.238-6.3921-10.046-8.0113-2.0793-1.862-3.1717-2.6673-3.614-2.36-0.8846 0.61445 0.7698 5.8632 6.0822 12.346z" color="#000000"/>
    <path d="m1178.9 1066.7c2.2443-15.674 1.8773-31.779-1.1351-47.417-3.1808-16.517-9.3079-32.526-18.037-47.027 3.4827 4.8628 5.8692 8.6592 6.7452 9.4981 0.6252 0.59875 0.5428-1.0632-3.025-7.8858 8.5548 13.627 14.886 28.723 18.614 44.508 4.3923 18.605 5.1532 38.145 2.1598 57.207 1.3547-11.586 0.8656-20.616 0.3061-25.583-0.5976-5.3057-1.3577-7.5822-1.8911-7.4887-1.0668 0.1869-1.1413 9.9005-3.7364 24.188z" color="#000000"/>
    <path d="m771.91 1085c20.684-0.9131 41.25-5.792 60.181-14.371 31.438-14.242 58.29-38.854 75.266-69.176-4.5103 9.0298-8.6321 15.378-9.4421 17.182-0.011 0.024 0.99527 0.9351 8.7041-11.164-16.601 28.956-42.156 52.9-72.48 67.556-23.377 11.294-49.463 17.105-75.596 16.759 19.53-0.1991 34.576-3.9439 42.47-6.3795 8.563-2.6421 12.056-4.5521 11.783-5.0291-0.54708-0.9539-16.339 4.0839-40.886 4.6231z" color="#000000"/>
    <path d="m813.53 1117.6c12.674-10.437 24.686-21.702 35.933-33.704 16.503-17.611 31.358-36.813 44.288-57.269-4.8354 8.8681-13.034 23.318-0.15966 4.6919-11.826 19.713-25.438 38.402-40.633 55.76-13.129 14.999-27.438 29.005-42.764 41.845 21.579-19.309 28.265-28.994 27.387-29.635s-9.772 7.255-24.052 18.311z" color="#000000"/>
    <path d="m706.72 1095.7c23.368 4.1508 47.487 4.3891 71.012 0.6343 27.149-4.3323 53.515-13.982 77.138-28.281-7.7383 5.2402-13.798 8.7255-15.217 9.8863-0.67211 0.5497 1.09 0.6918 11.999-5.2136-22.367 13.615-47.278 23.184-73.163 28.028-28.027 5.243-57.162 4.9371-85.237-0.9614 17.684 3.2476 31.794 3.4055 39.476 3.1295 8.2603-0.2968 11.856-1.0514 11.74-1.5869-0.23205-1.0711-15.414-1.1153-37.747-5.6344z" color="#000000"/>
    <path d="m612.86 1094.1c31.049 8.1094 63.226 12.051 95.381 11.638 41.313-0.5306 82.591-8.2621 121.4-22.776-12.333 5.1211-21.767 8.3415-24.099 9.4552-0.7415 0.354 0.86935 0.9871 17.998-4.6988-36.774 13.678-75.843 21.369-115.2 22.612-38.494 1.2158-77.24-3.7289-114.32-14.631 24.531 6.7362 44.378 9.2359 55.252 10.198 11.691 1.034 16.881 0.7972 16.778 0.2478-0.20668-1.099-21.723-3.2639-53.188-12.044z" color="#000000"/>
    <path d="m732.99 1158.9c35.526-19.708 69.392-42.499 101.09-68.052 4.8939-3.9457 9.7362-7.9569 14.525-12.032-9.4671 9.015-21.354 20.222-2.0206 4.8423-3.5392 3.154-7.1104 6.2732-10.713 9.357-33.916 29.031-70.621 54.911-109.49 77.165 28.376-17.334 38.576-26.1 37.831-26.898-0.74499-0.7986-12.682 5.957-31.22 15.619z" color="#000000"/>
    <path d="m673.84 1226.7c9.8657-14.983 20.715-29.306 32.454-42.846 32.21-37.149 71.156-68.326 114.3-91.573-10.397 6.1398-17.889 11.337-19.592 12.858-2.2477 2.0066 2.6326-0.9759 14.932-7.5658-40.099 23.579-76 54.098-105.61 89.72-14.684 17.666-27.834 36.576-39.263 56.447 22.306-40.674 35.378-54.822 34.374-55.294-1.0047-0.4724-14.693 13.564-31.601 38.254z" color="#000000"/>
    <path d="m471.64 1067.1c29.627 21.234 63.654 36.488 99.391 44.413 18.352 4.0702 37.148 6.2339 55.986 6.436-10.061 0.368-17.579 0.1879-19.53 0.4391-1.0457 0.1347 0.75074 1.1329 13.942 1.838-17.138-0.1077-34.289-1.8224-51.154-5.1258-40.816-7.9957-79.894-25.411-113.31-50.63 15.658 11.242 29.082 18.17 36.582 21.652 8.0513 3.7377 11.836 4.8374 11.969 4.3041 0.26692-1.0665-14.211-8.5672-33.871-23.327z" color="#000000"/>
    <path d="m528.96 1083.2c25.055 13.463 51.984 23.513 79.8 29.731 44.89 10.037 92.107 10.023 137.14-0.1095-13.107 3.4369-23.067 5.2382-25.578 5.9991-0.30759 0.093 0.23424 1.2785 18.769-2.1064-42.983 9.4164-88.038 9.7787-131.35 0.9314-34.278-7.0029-67.438-19.73-97.697-37.538 22.508 12.717 41.673 19.71 52.208 23.079 11.356 3.6316 16.563 4.4943 16.576 3.9346 0.0257-1.1193-20.952-7.7645-49.871-23.921z" color="#000000"/>
    <path d="m1128.4 1117.2c5.3159-20.434 5.897-42.178 1.5226-62.923-5.3605-25.445-18.179-49.398-36.506-68.051v-1e-5c-9.1339-9.2982-19.609-17.308-31.009-23.698 9.8198 4.9591 16.578 9.7312 18.493 10.71s-0.6555-2.3054-12.038-9.6814c9.6845 5.7034 18.699 12.577 26.781 20.44 19.181 18.664 32.954 42.959 39.111 69.214 6.1536 26.256 4.6611 54.339-4.3595 79.969 6.6687-20.324 6.9999-37.5 6.6059-46.439-0.4312-9.7829-1.6136-13.973-2.139-13.803-1.0509 0.3397 0.7849 18.566-6.4619 44.263z" color="#000000"/>
    <path d="m1140 949.78c15.288 16.907 27.25 36.764 34.962 58.147 8.5586 23.747 11.635 49.315 9.4509 74.343-2.1798 25.028-9.6284 49.595-22.078 71.342 6.0759-11.563 9.1825-21.147 9.6665-23.473 0.5143-2.472-0.8767 2.1567-8.338 16.021 9.8435-20.024 15.567-42.001 17.072-64.182 1.6634-24.55-1.8347-49.433-10.578-72.276-9.9039-25.891-26.258-49.233-47.069-67.306 18.347 15.331 29.748 31.479 35.417 40.034 6.2437 9.4218 8.6325 13.893 9.0553 13.529 0.8456-0.72868-6.0382-21.566-27.561-46.179z" color="#000000"/>
    <path d="m1065.5 901.47c28.796 6.336 55.696 20.786 76.667 41.317 23.024 22.55 38.765 52.25 44.52 83.763-2.4429-10.746-5.5942-18.57-6.5924-20.341-1.0485-1.8605 0.4175 1.922 3.0449 14.902-7.121-28.664-22.641-55.114-44.043-75.13-24.292-22.725-56.152-37.088-88.955-40.299 19.941 1.4968 35.797 6.7173 43.891 9.5878 8.9626 3.1786 12.877 4.8923 13.019 4.3587 0.2841-1.0672-14.75-11.706-41.551-18.159z" color="#000000"/>
    <path d="m963.56 890.6c21.776-2.1964 43.778-1.7088 65.353 1.4383 14.787 2.157 29.372 5.5581 43.551 10.149-18.932-4.6632-13.417-2.0173-4.1566 1.1955-13.106-3.505-26.46-5.9899-39.903-7.431-24.232-2.5979-48.754-1.79-72.616 2.351 24.736-5.2494 35.228-5.6368 35.058-6.7085s-10.876-2.103-27.287-0.99433z" color="#000000"/>
    <path d="m1111.6 910.38c15.166 2.6912 29.682 8.6298 42.285 17.302 15.485 10.659 27.998 25.4 35.967 42.237-3.0351-5.3046-5.8701-8.9365-6.7971-9.6753-1.2204-0.97268 0.2582 1.4766 3.1955 7.7809-8.4412-14.885-20.568-27.561-34.879-36.553-14.598-9.1749-31.474-14.532-48.47-15.493 10.825 0.16117 19.827 1.9722 24.424 2.9038 5.1259 1.0389 7.4722 1.4937 7.6126 0.97058 0.2808-1.0462-8.3678-6.2636-23.338-9.4724z" color="#000000"/>
    <path d="m1168.3 963.71c6.0574 6.3047 11.474 13.203 16.146 20.561 14.079 22.181 21.175 48.525 20.227 74.51-0.2462-6.2602-1.0139-10.915-1.4811-12.04-0.5985-1.441-0.5005 1.4205-0.8334 8.6033-0.7626-24.379-8.697-48.355-22.404-68.116-6.2871-9.0667-13.76-17.272-22.141-24.339 8.8378 6.8627 15.348 13.709 18.685 17.201 3.7199 3.8919 5.4532 5.6246 5.8612 5.2681 0.816-0.71302-3.6189-9.996-14.06-21.648z" color="#000000"/>
    <path d="m1057.8 879.28c12.446 0.0277 24.853 1.7375 36.782 5.0637 17.554 4.8953 34.04 13.296 48.226 24.514-4.595-3.0286-8.2703-4.9111-9.338-5.1417-1.2909-0.27881 0.6086 1.1691 5.5337 5.2254-13.845-9.4849-29.416-16.301-45.606-20.018-13.954-3.204-28.372-4.1183-42.493-2.7346 20.39-2.9451 29.156-1.5957 29.189-2.6767 0.032-1.081-8.5839-3.6586-22.294-4.2329z" color="#000000"/>
    <path d="m1067.3 1095c8.829-16.868 13.844-35.846 14.409-55.03 0.3932-13.298-1.3205-26.7-5.0791-39.54 2.118 5.5418 3.4122 9.8019 4.0344 10.834 0.4202 0.6967 0.837-0.8385-0.8563-8.3473 3.7121 11.957 5.7024 24.492 5.8582 37.1 0.2766 22.481-5.3546 45.139-16.321 65.091 5.1852-10.386 7.6265-19.094 8.671-23.932 1.1203-5.1898 1.1006-7.5766 0.5649-7.6559-1.0713-0.1585-4.1369 9.0037-11.281 21.481z" color="#000000"/>
    <path d="m1120.3 1023.7c10.709 23.461 14.854 49.784 11.791 75.23-2.5686 21.315-10.116 41.936-21.822 59.785 4.2314-7.3152 6.6212-13.262 6.9545-14.821 0.477-2.2313-1.3493 1.6555-6.5192 9.6531 9.6064-16.913 15.527-35.838 17.26-55.063 2.5607-28.375-4.1444-57.401-18.644-81.545 8.2091 12.791 12.785 24.7 15.061 30.838 2.528 6.8162 3.5724 9.9264 4.0808 9.7272 1.0167-0.3983 0.113-14.366-8.1622-33.804z" color="#000000"/>
    <path d="m1007.5 913.34c34.214 4.8975 66.961 19.253 93.526 41.136 26.116 21.518 46.182 50.149 57.483 81.877-4.5459-11.354-9.2548-19.441-10.611-21.244-1.4222-1.8908 0.8084 2.0142 6.0037 15.806-12.068-28.575-31.399-53.977-55.592-73.084-30.543-24.128-68.862-38.095-107.45-39.359 22.312 0.27706 40.338 4.6503 49.588 7.106 10.228 2.7154 14.716 4.2424 14.794 3.6922 0.1559-1.1003-17.585-11.064-47.737-15.93z" color="#000000"/>
    <path d="m1097.1 910.48c-14.505-6.1011-29.645-10.774-45.126-13.911-13.806-2.7976-27.884-4.376-42.015-4.7021 7.8332-0.50536 19.317-1.0537 3.0292-2.3055 13.267-0.1379 26.575 0.81637 39.743 2.8607 18.287 2.839 36.302 7.7828 53.576 14.729-20.299-7.147-29.074-7.589-29.255-6.5229-0.1814 1.0661 8.0262 4.2053 20.047 9.8517z" color="#000000"/>
    <path d="m957.17 868c12.648-2.8927 25.507-4.7989 38.423-5.6973 29.076-2.022 58.424 1.0988 86.295 9.1278-7.3995-1.6377-13.041-2.4103-14.506-2.3262-1.7836 0.1024 1.4214 0.96039 9.8882 3.5224-26.63-6.2426-54.221-7.9954-81.251-5.2072-15.889 1.6387-31.587 4.8352-46.794 9.5162 27.286-9.3855 39.29-10.608 38.993-11.655-0.29684-1.047-12.605-0.94131-31.049 2.7189z" color="#000000"/>
    <path d="m1093.5 1032.1c-0.7624 9.043-1.9909 18.041-3.6791 26.947-7.7905 41.092-25.512 80.13-51.134 112.89 5.2514-7.4852 8.7004-13.456 9.3199-15.087 0.8-2.1054-1.6183 1.3683-8.1784 9.6629 22.868-32.267 38.164-69.71 44.407-108.46 2.043-12.68 3.1337-25.499 3.2645-38.311 0.2904 17.257-1.1122 31.658-1.7539 38.579-1.0337 11.153-0.9084 16.611 3.1195 0.5547 1.5898-6.3379 3.4151-15.539 4.6343-26.778z" color="#000000"/>
    <path d="m1083 1190.9c16.978-20.718 29.852-44.92 37.51-70.753 3.547-11.964 5.991-24.274 7.2841-36.72-0.2662 7.167-0.7405 12.511-0.5697 13.929 0.1212 1.0066 1.092-0.6651 2.5036-9.7516-0.9972 11.284-2.9298 22.504-5.7794 33.507-7.6801 29.653-22.1 57.679-41.986 81.343 17.574-22.377 20.814-33.706 19.802-34.102-1.0122-0.3963-7.2739 9.3833-18.764 22.547z" color="#000000"/>
   </g>
  </g>
 </g>
</svg>
