<?xml version="1.0" encoding="UTF-8"?>
<svg version="1.1" viewBox="0 0 530.55 637.46" xmlns="http://www.w3.org/2000/svg">
 <metadata>
  <rdf:RDF
    xmlns:rdf="http://www.w3.org/1999/02/22-rdf-syntax-ns#"
    xmlns:dc="http://purl.org/dc/elements/1.1/"
    xmlns:cc="http://creativecommons.org/ns#">
   <cc:Work>
    <dc:title>Librarian (#4b)</dc:title>
    <dc:creator>oksmith</dc:creator>
    <dc:type>image</dc:type>
    <dc:publisher>openclipart.org</dc:publisher>
    <dc:date>[2019]</dc:date>
    <dc:source>https://openclipart.org/detail/317789/librarian-4b</dc:source>
    <cc:license rdf:resource="http://creativecommons.org/publicdomain/zero/1.0/"/>
   </cc:Work>
   <cc:License rdf:about="http://creativecommons.org/publicdomain/zero/1.0/">
    <cc:permits rdf:resource="http://creativecommons.org/ns#Reproduction"/>
    <cc:permits rdf:resource="http://creativecommons.org/ns#Distribution"/>
    <cc:permits rdf:resource="http://creativecommons.org/ns#DerivativeWorks"/>
   </cc:License>
  </rdf:RDF>
 </metadata>
 <defs>
  <clipPath id="c">
   <path d="m578.28 0.093v586h-113.6c-43.804 37.348-100.6 59.903-162.68 59.903-62.079 0-118.88-22.555-162.68-59.903h-139.26v-586z"/>
  </clipPath>
 </defs>
 <g transform="translate(-8.0086 -8.544)">
  <path fill="#4f2a25" d="m461.15 517.7 4-64s-19 81-49 90-245-23-245-23-115-259-41.587-391.06c29.315-52.732 379.1-28.973 396.6 62.959 31.99 168.1-65.01 325.1-65.01 325.1"/>
  <path clip-path="url(#c)" fill="#c6c6bb" d="m408.12 649.24h43.772s-9.928-128.08-13.918-145.37c-2.682-11.594-13.379-11.524-13.379-11.524l-68.989 11.446 52.514 145.45"/>
  <path clip-path="url(#c)" fill="#fbdfc9" d="m404.72 649.24h-176.8l-1.416-156.28h179.63l-1.416 156.28"/>
  <path clip-path="url(#c)" fill="#fffffe" d="m355.21 664.42h-86.046v-123.26s23.43 7.535 47.209 7.535 38.837-7.535 38.837-7.535v123.26"/>
  <path fill="#fbdfc9" d="m123.38 464.46-12.438-22.492c12.555-13.471 15.555-26.071 11.496-49.704-1.168-6.783-20.632-44.316-20.632-44.316s-23.829-12.699-49.631 7.119c-23.709 18.203-22.549 44.869-20.256 74.662 1.449 18.758 17.125 36.512 37.886 34.571l13.454 22.492 40.121-22.332"/>
  <path fill="#fffffe" d="m127.73 465.35-48.482 29.537-13.609-21.207 48.482-29.537 13.609 21.207"/>
  <path fill="#fbdfc9" d="m46.893 407.68c2.705 11.075 6.638 16.162-3.297 20.676-7.442 3.385-24.711-5.32-29.09-20.676-3.012-10.558 7.844-19.875 16.578-19.875s13.203 9.209 15.809 19.875"/>
  <path fill="#fbdfc9" d="m63.871 391.25c0 14.355 4.717 23.406-8.271 29.312-9.743 4.426-28.352-9.226-34.075-29.312-3.941-13.801 10.254-25.985 21.676-25.985 11.418 0 20.67 11.637 20.67 25.985"/>
  <path fill="#fbdfc9" d="m84.775 391.44c-0.445 7.459-0.082 13.74-9.375 17.783-10.933 4.762-31.845-10.929-38.277-32.535-4.422-14.846 11.518-27.978 24.344-27.978 5.424 0 10.41 2.244 14.359 6.002"/>
  <path fill="#fbdfc9" d="m101.81 347.95s-21.336-41.993-30.715-57.825c-9.399-15.863-32.832 2.172-25.414 18.942 9.89 22.354 34.468 60.649 34.468 60.649"/>
  <path fill="#fbdfc9" d="m73.971 427.43c-4.325-18.757 10.863-35.984 10.863-35.984s-20.195-3.574-25.055-10.578c-6.773-9.774 2.508-18.969 2.508-18.969s36.723 2.914 47.301 11.014c9.113 6.978 12.855 19.349 12.855 19.349"/>
  <path clip-path="url(#c)" fill="#c6c6bb" d="m424.6 492.35-56.356-16.513-54.505 134.95-50.141-132.3-52.184 9.326s-14.256-2.269-23.047 15.463l-34.562 0.139-32.195-49.453-57.951 34.084s36.464 63.601 51.702 74.771c12.253 8.982 88.797 13.057 88.797 13.057l8.552 73.367 100.35 7.693 101.91-7.693 4.814-108.62"/>
  <path fill="#c6c6bb" d="m313.72 610.78 68.113-81.256-19.76-17.838 19.957-8.775-7.236-25.508-13.543-6.565-47.531 139.94"/>
  <path fill="#c6c6bb" d="m320.08 621.82-76.255-91.017 19.76-17.836-19.957-8.778 7.236-25.506 13.543-6.564 55.673 149.7"/>
  <path fill="#fbdfc9" d="m167.57 306.09c0 17.423-13.035 31.542-29.121 31.542s-29.121-16.848-29.121-34.265 13.035-28.814 29.121-28.814 29.121 14.121 29.121 31.537"/>
  <path fill="#fbdfc9" d="m465.18 306.09c0 17.423 13.035 31.542 29.121 31.542s29.121-16.848 29.121-34.265-13.035-28.814-29.121-28.814-29.121 14.121-29.121 31.537"/>
  <path fill="#fbdfc9" d="m494.31 308.81c-12.941-115.63-79.668-266.4-177.94-266.4-98.26 0-164.99 150.77-177.93 266.4-12.556 112.18 79.668 190 177.93 190 98.271 0 190.5-77.82 177.94-190"/>
  <path fill="#fffffe" d="m275.27 309.98c0 23.414-18.984 42.401-42.402 42.401-23.414 0-42.398-18.987-42.398-42.401 0-23.418 18.984-42.399 42.398-42.399 23.418 0 42.402 18.981 42.402 42.399"/>
  <path fill="#eea5a4" d="m320.83 419.75c-1.431-0.285-2.912 2.949-4.431 2.949-1.517 0-2.999-3.234-4.429-2.949-10.019 2.004-17.555 10.019-17.555 10.019s9.843 15.563 21.984 15.563c12.143 0 21.985-15.563 21.985-15.563s-7.536-8.015-17.554-10.019"/>
  <path fill="#f4c4b4" d="m235.28 386.66c-1.728 9.795-18.994 14.932-38.582 11.478-19.578-3.455-34.056-14.189-32.328-23.978 1.731-9.795 19-14.932 38.578-11.477 19.586 3.45 34.063 14.186 32.332 23.977"/>
  <path fill="#f4c4b4" d="m401.98 386.66c1.731 9.795 18.997 14.932 38.581 11.478 19.583-3.455 34.056-14.189 32.33-23.978-1.731-9.795-19.002-14.932-38.579-11.477-19.585 3.45-34.062 14.186-32.332 23.977"/>
  <path fill="#fffffe" d="m203.15 301.7 29.715 8.282-23.715 13.718-6-22"/>
  <path fill="#4f2a25" d="m124.71 258.47c5.213 33.266 14.446 60.224 14.446 60.224l18.487-77.916 43.513-119.08s44 89 123 120c-18.295-28.097-27.622-53.625-31.891-67.952 89.891 63.952 187.85 95.799 187.85 95.799l14.189 68.085 31.861-145.03c-11.185-51.426-72.081-208.49-249.38-172.84-54.31 10.919-85.805 55.762-85.805 55.762s-34.41-2.132-61.417 54.124"/>
  <path fill="#c62534" d="m424.45 356.61c-8.784 2.084-17.684 3.139-26.454 3.139-30.782 0-55.578-13.051-61.704-32.475-3.886-12.316-0.054-25.733 10.791-37.778 11.084-12.31 28.089-21.675 47.88-26.367 8.783-2.082 17.684-3.137 26.455-3.137 30.78 0 55.577 13.049 61.702 32.473 8.129 25.774-18.189 54.549-58.67 64.145zm-129.67-29.336c-6.126 19.424-30.922 32.475-61.704 32.475-8.769 0-17.67-1.055-26.454-3.139-40.48-9.596-66.799-38.371-58.67-64.145 6.125-19.424 30.922-32.473 61.702-32.473 8.771 0 17.672 1.055 26.455 3.137 19.791 4.692 36.796 14.057 47.88 26.367 10.845 12.045 14.677 25.462 10.791 37.778zm201.6-52.596c-2.744-1.428-14.021-1.08-14.021-1.08-12.022-14.664-34.528-23.816-60.94-23.816-9.406 0-18.941 1.152-28.337 3.427-21.266 5.148-38.443 14.903-51.622 27.427-6.82 6.481-16.099 11.148-25.923 11.148-9.823 0-19.101-4.667-25.922-11.148-13.179-12.524-30.356-22.279-51.622-27.427-9.396-2.275-18.931-3.427-28.337-3.427-26.412 0-48.918 9.152-60.94 23.816 0 0-11.277-0.348-14.021 1.08-2.744 1.426-4.775 12.953-4.759 15.439 0.015 2.487 8 8.5 8 8.5 2.5 31.001 26.699 52.522 66.809 62.231 9.394 2.276 18.927 3.428 28.333 3.428 34.038 0 61.602-15.195 68.586-37.81 1.097-3.549 2.963-17.596 5.011-18.444 2.049-0.849 4.909-1.697 8.154-1.697 0.236 0 0.472 0.013 0.708 0.022h1e-3c0.236-9e-3 0.472-0.022 0.708-0.022 3.245 0 6.106 0.848 8.154 1.697 2.048 0.848 3.914 14.895 5.011 18.444 6.984 22.615 34.548 37.81 68.586 37.81 9.406 0 18.939-1.152 28.333-3.428 40.11-9.709 64.31-31.23 66.81-62.231 0 0 7.984-6.013 8-8.5 0.015-2.486-2.016-14.013-4.76-15.439"/>
 </g>
 <path fill="#1a1919" d="m432.4 494.77c-2.798-12.095-13.142-13.322-15.407-13.445l-25.831-7.568c21.543-10.358 40.975-24.649 56.659-42.186 25.038-27.998 39.384-62.785 41.752-100.2 15.437-2.045 28.341-18.243 28.341-36.544 0-12.199-6.018-22.141-15.526-27.353l0.965-4.39c0.297-1.348-0.556-2.681-1.905-2.977-1.344-0.296-2.683 0.556-2.978 1.905l-3.964 18.048c-0.462-3.945-2.203-13.57-5.442-15.253-1.64-0.854-5.604-1.286-11.78-1.286-0.855 0-1.575 9e-3 -2.099 0.017l-0.929-4.461-1.379-0.448c-0.116-0.038-1.617-0.532-4.296-1.47-10.662-8.896-25.644-14.766-42.625-16.707-36.782-15.698-89.979-41.513-140.25-77.281l-5.92-4.212 2.075 6.963c3.624 12.162 11.903 35.59 27.935 61.85-72.659-32.705-113.98-114.87-114.41-115.72l-2.588-5.228-45.516 124.56-0.05 0.139-7.595 32.011c-0.497-7e-3 -1.131-0.014-1.862-0.014-6.176 0-10.139 0.432-11.779 1.286-1.258 0.653-2.288 2.507-3.107 4.757-1.338-6.27-2.623-13.004-3.721-20.015-0.189-1.201-1.209-2.063-2.376-2.108-0.158-7e-3 -0.319 0-0.481 0.025-1.364 0.214-2.297 1.493-2.083 2.857 0.857 5.467 1.826 10.771 2.846 15.827-6.546 2.784-11.729 7.638-14.874 13.899-5.564-53.775-2.977-109.99 19.141-153.21l0.123-3.243c0.963 0.034 1.903-0.489 2.347-1.413 25.844-53.835 58.678-52.731 59.009-52.711l1.396 0.086 0.803-1.144c0.311-0.44 31.603-44.163 84.253-54.748 75.215-15.123 137.35 2.721 184.66 53.034 44.738 47.568 59.309 106.55 61.775 117.89 0.215 0.984 0.984 1.701 1.908 1.904l-0.867 3.95c14.498 84.131-3.496 164.86-21.434 218.28-14.295 42.574-30.759 74.882-39.01 89.882l3.331-53.289c0.081-1.297-0.844-2.439-2.129-2.629-1.292-0.191-2.501 0.637-2.799 1.901-0.12 0.511-7.898 33.113-20.913 58.689-0.515-3.795-0.987-6.721-1.398-8.504zm-124.04-7c-51.646 0-102.38-22.254-135.72-59.529-27.14-30.348-41.329-68.939-40.819-110.15l1.821-7.677c9.46 20.596 31.032 35.675 62.733 43.348 9.505 2.301 19.157 3.469 28.685 3.469 34.701 0 62.84-15.621 70.02-38.867 0.371-1.201 0.798-3.396 1.294-5.936 0.713-3.662 2.031-10.42 3.002-11.625 1.836-0.744 4.708-1.654 7.892-1.51l0.196 8e-3c0.037 2e-3 0.075 2e-3 0.112 0l0.194-8e-3c3.189-0.144 6.057 0.766 7.893 1.51 0.97 1.205 2.289 7.963 3.003 11.625 0.495 2.54 0.922 4.735 1.293 5.934 7.18 23.248 35.319 38.869 70.02 38.869 9.528 0 19.18-1.168 28.686-3.469 30.533-7.392 51.672-21.652 61.642-41.096l4.153 19.928c-2.595 35.717-16.447 68.885-40.376 95.641-33.336 37.277-84.076 59.533-135.73 59.533zm63.853 5.758-18.761 8.25c-0.466 0.205-0.796 0.631-0.877 1.133-0.081 0.504 0.098 1.012 0.475 1.353l18.687 16.87-62.038 74.007 36.056-106.15c7.933-1.603 15.749-3.705 23.388-6.277zm-63.853 45.129c-8.055 0-16.107-0.887-23.205-2.049l-18.013-48.435c13.474 3.009 27.313 4.597 41.218 4.597 11.434 0 22.822-1.068 34-3.119l-16.139 47.516c-5.161 0.875-11.164 1.49-17.861 1.49zm-1.931 55.158-20.075-53.982c6.819 1.051 14.408 1.824 22.006 1.824 6.228 0 11.839-0.508 16.764-1.256l-15.225 44.822zm-68.539-71.41 18.687-16.867c0.378-0.342 0.556-0.85 0.475-1.354-0.081-0.502-0.411-0.927-0.877-1.132l-18.76-8.252 4.046-14.26c7.233 2.709 14.643 4.994 22.179 6.826l43.988 118.28zm-34.569-45.656c-2.678-0.26-15.776-0.651-24.496 15.496l-21.172 0.084c-9.9-24.984-27.298-72.346-40.406-126.77-3.449-14.312-6.725-29.697-9.496-45.687 5.105 6.224 11.962 10.51 19.413 11.494 2.37 37.42 16.716 72.207 41.755 100.2 15.323 17.133 34.222 31.168 55.171 41.463zm-139.6-4.893-4.001-6.234 45.92-27.977 4.451 6.938zm-10.268-129.18c1.604 0 3.176 0.236 4.701 0.671 1.85 3.073 3.591 5.92 5.142 8.434-4.917-0.594-8.375-0.877-8.825-0.912-0.73-0.053-1.441 0.205-1.958 0.715-3.725 3.691-9.105 13.076-2.801 22.17 4.044 5.832 16.189 9.304 22.677 10.793-2.19 3.082-5.305 8.119-7.414 14.279-2.553 0.547-5.807-0.018-9.372-1.676-8.527-3.967-19.706-14.955-24.098-29.711-1.869-6.273 0.619-11.453 3.034-14.691 4.421-5.932 12.199-10.072 18.914-10.072zm7.477-59.818c9.231 15.581 30.425 57.263 30.638 57.683 0.123 0.242 0.289 0.449 0.473 0.631l-0.114 0.115 0.035 0.014c3.142 6.074 6.892 13.505 10.295 20.502-5.073-3.411-14.224-5.881-23.185-7.6-3.211-0.615-6.393-1.135-9.354-1.566-7.555-12.143-22.624-36.985-29.764-53.124-3.577-8.088 1.334-16.765 7.935-20.165 2.526-1.301 8.852-3.564 13.041 3.51zm-35.026 79.068c-0.134 2.318 0.127 4.652 0.809 6.941 4.86 16.324 16.953 28.246 26.782 32.816 0.135 0.063 0.267 0.118 0.401 0.178-0.677 3.332-2.632 5.74-7.345 7.883-0.892 0.406-1.93 0.611-3.085 0.611-9.194 0-22.93-12.115-27.55-28.334-1.717-6.008 0.677-10.922 2.988-13.984 1.878-2.49 4.33-4.586 7-6.111zm-14.815 26.347c0.359-0.474 0.749-0.931 1.165-1.367 5.326 14.479 16.828 24.988 26.491 27.734-0.732 1.045-2.049 1.93-4.198 2.907-0.733 0.332-1.656 0.502-2.744 0.502-7.233 0-19.446-7.453-22.907-19.588-1.246-4.367 0.505-7.949 2.193-10.188zm52.044 64.85-1.569 0.146c-0.958 0.09-1.925 0.135-2.873 0.135-17.899 0-30.391-15.924-32.162-31.139 1.822 0.51 3.603 0.784 5.274 0.784 1.807 0 3.427-0.321 4.813-0.952 4.315-1.96 6.453-4.234 7.325-6.763 1.689-0.057 3.266-0.395 4.68-1.037 6.281-2.856 8.972-6.535 10.002-10.795 1.514 0.363 2.974 0.549 4.365 0.549 0.185 0 0.363-0.018 0.547-0.026-1.018 4.785-1.26 10.028-0.015 15.428 0.267 1.156 1.296 1.939 2.435 1.939 0.185 0 0.375-0.021 0.563-0.064 1.346-0.311 2.185-1.652 1.875-2.998-0.081-0.352-0.143-0.703-0.21-1.053-3.184-16.857 10.373-32.558 10.512-32.717 0.598-0.677 0.783-1.625 0.484-2.478-0.298-0.852-1.033-1.479-1.923-1.637-7.415-1.314-20.334-5.068-23.436-9.539-4.497-6.488-0.32-12.75 1.485-14.949 4.179 0.367 10.585 1.099 17.337 2.201 10.834 1.766 22.559 4.486 27.412 8.201 8.34 6.387 11.948 17.975 11.983 18.088 0.083 0.275 0.218 0.52 0.377 0.738l-0.247 0.18c3.586 21.891 0.734 33.699-11.063 46.357l-1.236 1.327 1.903 3.441-35.61 21.695zm55.488-10.971c-0.657-1.01-1.57-1.76-2.599-2.213l-4.608-7.181c5.02-6.395 8.173-12.895 9.672-20.414 8.337 28.117 16.886 52.291 23.397 69.533zm9.282-151.74c0.203 0.162 0.399 0.314 0.583 0.456 0.09 0.986 0.203 1.964 0.338 2.933-0.299-1.079-0.608-2.219-0.921-3.389zm358.45 26.733-2.623-12.588c1.449-4.352 2.401-8.919 2.835-13.689 2.038-1.57 5.388-4.346 7.054-6.792zm3.508 7.336 11.383-51.815c7.188 4.558 11.666 12.522 11.666 22.16 0 15.502-10.443 29.251-23.098 31.45 0.02-0.597 0.034-1.195 0.049-1.795zm-349.2-57.925c0.464 0.02 0.91-0.188 1.206-0.548 11.944-14.569 34.292-23.267 59.78-23.267 9.292 0 18.707 1.138 27.985 3.385 20.006 4.843 37.146 13.946 50.941 27.056 7.73 7.347 17.556 11.561 26.955 11.561 9.4 0 19.226-4.214 26.956-11.561 13.795-13.11 30.935-22.213 50.943-27.056 9.276-2.247 18.691-3.385 27.983-3.385 25.488 0 47.836 8.698 59.78 23.267 0.295 0.36 0.734 0.571 1.206 0.548 0.011 0 1.198-0.036 2.887-0.036 6.321 0 9.515 0.489 10.396 0.948 1.698 0.882 3.971 10.969 3.953 14.075-0.143 1.043-3.603 4.471-7.404 7.335-0.343 0.258-0.558 0.651-0.593 1.077-2.386 29.597-25.708 51.222-65.667 60.895-9.276 2.247-18.689 3.385-27.98 3.385-33.377 0-60.364-14.769-67.152-36.754-0.325-1.047-0.758-3.269-1.217-5.623-1.884-9.66-2.82-13.003-4.653-13.763-1.996-0.826-5.129-1.811-8.729-1.811-0.195 0-0.39 7e-3 -0.585 0.016l-0.124 5e-3 -0.122-5e-3c-0.195-9e-3 -0.391-0.016-0.586-0.016-3.6 0-6.733 0.985-8.728 1.811-1.833 0.76-2.77 4.103-4.654 13.763-0.459 2.354-0.892 4.576-1.217 5.623-6.788 21.985-33.775 36.754-67.152 36.754-9.291 0-18.704-1.138-27.98-3.385-39.959-9.673-63.281-31.298-65.667-60.895-0.035-0.426-0.25-0.819-0.593-1.077-3.801-2.864-7.261-6.292-7.402-7.311-0.02-3.13 2.252-13.217 3.952-14.099 0.881-0.459 4.074-0.948 10.395-0.948 1.688 0 2.876 0.036 2.887 0.036zm177.58-34.762c-15.599-23.955-24.607-46.155-29.361-60.286 30.154 20.893 61.073 38.254 88.695 52.057-2.295 1.121-4.51 2.373-6.65 3.71-2.829 1.774-5.517 3.74-8.074 5.856-2.531 2.151-4.998 4.373-7.143 6.941 6.011-2.837 11.766-5.77 17.589-8.423 3.73-1.697 7.476-3.315 11.249-4.642 9.637 4.705 18.814 8.96 27.341 12.757-9.034 0.117-18.163 1.267-27.164 3.446-20.524 4.968-38.122 14.321-52.302 27.798-7.179 6.821-16.251 10.735-24.89 10.735s-17.71-3.914-24.889-10.735c-14.18-13.477-31.778-22.83-52.301-27.798-9.509-2.302-19.161-3.469-28.691-3.469-22.218 0-42.185 6.465-55.408 17.621l5.789-24.4 41.541-113.68c4.477 8.096 14.506 25.057 29.496 43.817 19.237 24.074 50.842 56.176 92.165 72.392l7.27 2.852zm-197.36 51.355c2.559 10.414 4.996 18.656 6.469 23.385-0.506 6.64-0.647 13.229-0.425 19.744-12.662-2.191-23.111-15.945-23.111-31.452 0-10.772 5.592-19.451 14.312-23.622 0.76 3.537 1.538 6.921 2.308 10.119-6e-3 0.104-8e-3 0.197-8e-3 0.263 2e-3 0.476 0.173 1.005 0.455 1.563zm402.57-102.88c-3.321-14.253-16.946-63.882-53.583-108.33-17.796-21.588-38.382-38.607-61.189-50.584-26.984-14.171-57.269-21.356-90.013-21.356-16.301 0-33.483 1.792-51.069 5.328-49.252 9.902-80.074 45.907-87.71 55.754-10.261 0.895-39.915 7.912-63.661 57.257-17.372 31.334-25.762 71.773-25.119 120.64 0.232 17.609 1.626 36.303 4.211 56.074 0.021 3.695 0.547 7.43 1.564 11.107 2.051 13.683 4.572 27.275 7.4 40.553-2.122-4.204-3.965-7.78-5.131-10.03-0.875-1.72-21.532-42.347-30.902-58.164-0.138-0.233-0.283-0.453-0.427-0.677-3.47-5.415-8.636-8.393-14.637-8.393-7.158 0-14.403 4.299-18.91 11.22-4.519 6.942-5.281 15.062-2.09 22.277 3.48 7.863 8.999 18.313 16.435 31.126 0.097 0.166 0.189 0.328 0.286 0.494-0.138 0.024-0.274 0.059-0.411 0.084-10.137 1.895-19.837 9.287-23.964 18.471-10.223 4.562-18.701 15.17-17.57 27.054-5.873 5.61-8.304 13.354-6.234 20.61 2.917 10.228 10.337 17.529 17.266 21.566 1.684 17.887 14.847 36.125 34.889 39.119-0.523 0.678-0.9 1.467-1.095 2.317-0.363 1.574-0.075 3.228 0.797 4.588l2.781 4.334-2.761 1.623c-2.834 1.668-3.799 5.304-2.163 8.156 3.797 6.623 37.553 65.039 53.36 76.625 2.545 1.867 7.113 3.519 12.907 4.977 21.052 5.292 58.339 7.996 74.061 8.945l5.191 44.531c1.228 0.524 2.465 1.029 3.703 1.533 1.749 0.711 3.507 1.403 5.275 2.074l-6.309-54.13c-0.142-1.211-1.134-2.143-2.351-2.207-21.084-1.123-77.894-5.571-87.452-12.579-13.093-9.597-43.283-60.716-49.772-71.857l53.751-31.615 30.892 47.451c0.461 0.709 1.249 1.137 2.095 1.137h0.01l34.562-0.139c0.946-4e-3 1.81-0.543 2.231-1.391 7.805-15.744 19.917-14.171 20.414-14.103 0.275 0.043 0.558 0.041 0.832-8e-3l28.15-5.031c2.201 0.961 4.426 1.871 6.664 2.748l-4.477 15.785c-0.205 0.719 0.154 1.481 0.839 1.781l17.835 7.844-18.039 16.283c-0.599 0.541-0.663 1.459-0.144 2.076l76.255 91.018c0.293 0.352 0.718 0.537 1.15 0.537 6e-3 0 0.013 2e-3 0.019 0 0.829 0 1.5-0.672 1.5-1.5 0-0.267-0.071-0.521-0.195-0.738l-4.378-11.774 0.108-0.265 65.842-78.549c0.519-0.619 0.456-1.535-0.144-2.076l-18.039-16.285 17.835-7.842c0.685-0.303 1.044-1.063 0.84-1.783l-3.469-12.229c4.133-1.465 8.21-3.068 12.224-4.807l31.667 9.28c0.151 0.045 0.303 0.07 0.455 0.086l-9e-3 0.091 0.432-0.072c1.273 0.059 8.732 0.781 10.768 9.582 2.306 9.992 6.69 58.338 9.913 96.498 1.593-1.111 3.174-2.242 4.739-3.39 1.106-0.811 2.204-1.629 3.295-2.457-2.203-25.85-4.854-55.243-7.014-74.078 3.615-6.418 6.868-13.387 9.733-20.311l-1.039 16.623c-0.172 2.746 1.547 5.258 4.17 6.092 2.628 0.838 5.477-0.223 6.923-2.565 1.005-1.625 24.845-40.529 45.084-100.75 10.333-30.748 20.676-70.412 25.049-114.6 3.543-35.805 3.171-74.579-4.334-114.02-0.158-0.83-0.354-1.702-0.598-2.665"/>
 <path fill="#1a1919" d="m414.27 532.19c0.06-1.332-0.938-2.457-2.25-2.588-0.046-4e-3 -0.09-0.017-0.136-0.019-1.371-0.08-2.548 1.005-2.608 2.386l-3.513 79.248c1.718-0.857 3.425-1.732 5.121-2.627l3.386-76.4"/>
 <path fill="#1a1919" d="m315.45 624.23c0-3.914-3.172-7.084-7.084-7.084s-7.084 3.17-7.084 7.084c0 3.912 3.172 7.084 7.084 7.084s7.084-3.172 7.084-7.084"/>
 <path fill="#1a1919" d="m72.141 363.42c-0.15 0.86-0.262 1.721-0.447 2.573-0.101 0.549-0.212 1.103-0.326 1.648-1.357-0.203-2.719-0.375-4.092-0.484-1.691-0.137-3.394-0.211-5.129-0.094 1.599 0.684 3.23 1.178 4.871 1.607 1.642 0.43 3.296 0.788 4.962 1.077l0.921 0.16 0.215-0.906c0.221-0.928 0.361-1.813 0.469-2.727 0.077-0.914 0.16-1.826 0.133-2.746-8e-3 -0.92-0.093-1.84-0.247-2.748-0.179-0.904-0.411-1.811-0.824-2.631-0.032 0.92-0.071 1.795-0.174 2.672-0.082 0.875-0.207 1.738-0.332 2.599"/>
 <path fill="#1a1919" d="m224.86 261.04c22.278 0 40.402 18.123 40.402 40.399s-18.124 40.401-40.402 40.401c-22.275 0-40.398-18.125-40.398-40.401s18.123-40.399 40.398-40.399zm-49.217 26.227 6.301 2.801c-0.963 3.631-1.482 7.441-1.482 11.371 0 24.483 19.917 44.401 44.398 44.401 24.484 0 44.402-19.918 44.402-44.401 0-24.482-19.918-44.399-44.402-44.399-9.74 0-18.752 3.16-26.08 8.499l-7.623-6.86c-0.615-0.553-1.563-0.506-2.119 0.111-0.554 0.617-0.504 1.565 0.111 2.119l7.229 6.505c-2.749 2.305-5.213 4.936-7.337 7.833l-7.744-5.26c-0.682-0.463-1.618-0.287-2.084 0.398-0.465 0.686-0.287 1.618 0.398 2.084l7.741 5.258c-1.862 2.935-3.387 6.102-4.526 9.448l-5.964-2.65c-0.761-0.338-1.643 5e-3 -1.98 0.761-0.336 0.757 5e-3 1.644 0.761 1.981"/>
 <path fill="#1a1919" d="m205.6 312.58c3.852 6.644 11.035 11.119 19.264 11.119 12.293 0 22.258-9.973 22.258-22.264s-9.965-22.258-22.258-22.258c-10.221 0-18.829 6.895-21.44 16.285l21.44 5.976-19.264 11.142"/>
 <path fill="#1a1919" d="m288.71 382.29c0.146 0 0.295-0.014 0.444-0.039 1.359-0.244 2.263-1.545 2.02-2.903-1.409-7.865-2.289-20.425 0.17-23.73 2.107-2.832 11.018-1.238 16.378 0.732 1.295 0.475 2.731-0.187 3.21-1.482 0.476-1.295-0.186-2.733-1.481-3.209-1.72-0.635-16.938-5.994-22.119 0.974-4.628 6.219-1.711 24.081-1.08 27.598 0.218 1.209 1.27 2.059 2.458 2.059"/>
 <path fill="#1a1919" d="m338.94 411.53c-3.377 2.689-7.72 4.748-12.576 6.187-11.052 3.278-24.788 3.319-36.054 0.073-4.692-1.354-8.958-3.27-12.415-5.764-1.118-0.809-2.682-0.555-3.49 0.564-0.808 1.12-0.555 2.682 0.564 3.491 3.411 2.459 7.479 4.412 11.924 5.875 6.569 2.162 13.969 3.248 21.353 3.248 7.589 0 15.143-1.149 21.745-3.414 4.588-1.575 8.719-3.686 12.062-6.348 1.082-0.859 1.259-2.432 0.4-3.512-0.86-1.082-2.433-1.259-3.513-0.4"/>
 <path fill="#1a1919" d="m258.44 233.12c-2.556-2.116-5.245-4.082-8.073-5.856-5.652-3.531-11.816-6.474-18.622-7.968-6.891-1.491-13.952-0.963-20.47 0.693-3.272 0.827-6.445 1.942-9.48 3.321-3.033 1.375-5.975 2.947-8.65 4.908 6.326-1.846 12.639-3.209 18.92-3.924 6.274-0.685 12.517-0.643 18.366 0.797 5.918 1.447 11.76 3.908 17.564 6.547 5.822 2.653 11.578 5.586 17.589 8.423-2.146-2.568-4.613-4.79-7.144-6.941"/>
 <path fill="#1a1919" d="m340.19 281.95c10.883-12.088 27.613-21.29 47.111-25.911 8.667-2.055 17.452-3.097 26.109-3.097 30.123 0 54.345 12.628 60.271 31.424 2.725 8.637 1.456 17.974-3.669 27.002-9.219 16.243-29.375 29.415-53.916 35.233-8.667 2.055-17.451 3.098-26.108 3.098-30.123 0-54.346-12.629-60.273-31.426-3.72-11.789 0-24.689 10.475-36.323zm49.798 70.749c8.89 0 17.907-1.07 26.8-3.178 25.338-6.008 46.21-19.717 55.834-36.672 5.546-9.772 6.902-19.933 3.921-29.385-6.323-20.05-31.694-33.522-63.133-33.522-8.891 0-17.907 1.07-26.801 3.177-20.085 4.762-37.361 14.287-48.648 26.823-11.215 12.457-15.159 26.39-11.108 39.233 6.324 20.051 31.696 33.524 63.135 33.524"/>
 <path fill="#1a1919" d="m141.38 284.37c5.926-18.796 30.148-31.424 60.271-31.424 8.657 0 17.442 1.042 26.11 3.097 19.497 4.621 36.227 13.823 47.11 25.911 10.476 11.634 14.195 24.534 10.476 36.323-5.928 18.797-30.151 31.426-60.274 31.426-8.657 0-17.441-1.043-26.108-3.098-24.541-5.818-44.697-18.99-53.916-35.233-5.124-9.028-6.394-18.365-3.669-27.002zm1.059 28.483c9.624 16.955 30.496 30.664 55.834 36.672 8.893 2.108 17.91 3.178 26.8 3.178 31.44 0 56.811-13.473 63.135-33.524 4.052-12.843 0.107-26.776-11.107-39.233-11.288-12.536-28.564-22.061-48.649-26.823-8.894-2.107-17.91-3.177-26.801-3.177-31.439 0-56.81 13.472-63.133 33.522-2.981 9.452-1.625 19.613 3.921 29.385"/>
 <path fill="#1a1919" d="m360.51 315.06 0.209-0.113 0.791-0.434 0.906-0.461c0.614-0.304 1.244-0.599 1.881-0.885 1.277-0.566 2.579-1.107 3.893-1.627 2.635-1.027 5.341-1.91 8.076-2.717 5.482-1.568 11.107-2.74 16.824-3.477 5.717-0.739 11.518-1.101 17.377-1.083 5.863 4e-3 11.765 0.41 17.766 0.963-5.532-2.399-11.387-4.077-17.38-5.162-5.996-1.071-12.141-1.537-18.293-1.326-5.168 0.181-10.342 0.796-15.433 1.895 2.21-2.093 4.377-4.239 6.5-6.442 1.182-1.225 2.347-2.472 3.481-3.757 1.147-1.271 2.273-2.566 3.354-3.919-1.57 0.733-3.093 1.525-4.596 2.342-1.515 0.802-3 1.642-4.468 2.505-2.937 1.721-5.828 3.502-8.656 5.363-2.841 1.843-5.623 3.763-8.383 5.711-2.747 1.963-5.463 3.965-8.145 6.011-1.53 1.165-2.022 3.304-1.072 5.043 1.049 1.916 3.452 2.619 5.368 1.57"/>
</svg>
