<?xml version="1.0" encoding="UTF-8"?>
<svg version="1.1" viewBox="0 0 363.77 212.41" xmlns="http://www.w3.org/2000/svg">
 <metadata>
  <rdf:RDF
    xmlns:rdf="http://www.w3.org/1999/02/22-rdf-syntax-ns#"
    xmlns:dc="http://purl.org/dc/elements/1.1/"
    xmlns:cc="http://creativecommons.org/ns#">
   <cc:Work>
    <dc:title>Science student with spiky hair</dc:title>
    <dc:creator>barnheartowl</dc:creator>
    <dc:type>image</dc:type>
    <dc:publisher>openclipart.org</dc:publisher>
    <dc:date>[2015]</dc:date>
    <dc:source>https://openclipart.org/detail/232922/science-student-with-spiky-hair</dc:source>
    <cc:license rdf:resource="http://creativecommons.org/publicdomain/zero/1.0/"/>
   </cc:Work>
   <cc:License rdf:about="http://creativecommons.org/publicdomain/zero/1.0/">
    <cc:permits rdf:resource="http://creativecommons.org/ns#Reproduction"/>
    <cc:permits rdf:resource="http://creativecommons.org/ns#Distribution"/>
    <cc:permits rdf:resource="http://creativecommons.org/ns#DerivativeWorks"/>
   </cc:License>
  </rdf:RDF>
 </metadata>
 <defs>
  <radialGradient id="radialGradient4546" cx="541.87" cy="110.64" r="5.211" fx="539.86" fy="111.43" gradientTransform="matrix(1 0 0 .81004 0 21.018)" gradientUnits="userSpaceOnUse">
   <stop stop-color="#f9f9f9" offset="0"/>
   <stop stop-color="#040404" offset="1"/>
  </radialGradient>
  <radialGradient id="radialGradient4548" cx="541.87" cy="110.64" r="5.6536" fx="539.59" fy="110.92" gradientTransform="matrix(1 0 0 .81907 0 20.018)" gradientUnits="userSpaceOnUse">
   <stop stop-color="#f9f9f9" offset="0"/>
   <stop stop-color="#040404" offset="1"/>
  </radialGradient>
  <clipPath id="clipEmfPath1">
   <path d="m7.5017-2.5006h636.4v952.72h-636.4z"/>
  </clipPath>
 </defs>
 <g transform="translate(-444.72 -16.829)" stroke-width="0">
  <ellipse transform="matrix(.94612 -.32382 .32382 .94612 32.8 172.15)" cx="541.87" cy="110.64" rx="5.211" ry="4.2211" fill="url(#radialGradient4546)"/>
  <ellipse transform="matrix(.30287 -.10366 .10366 .30287 405.71 124.03)" cx="541.87" cy="110.64" rx="5.211" ry="4.2211"/>
  <ellipse transform="matrix(.99071 -.13598 .13598 .99071 -12.271 73.537)" cx="541.87" cy="110.64" rx="5.6536" ry="4.6307" fill="url(#radialGradient4548)"/>
  <ellipse transform="matrix(.34786 -.047745 .047745 .34786 345.84 96.853)" cx="541.87" cy="110.64" rx="5.6536" ry="4.6307"/>
 </g>
 <path d="m93.691 73.952c0.39731 0.0068 0.79284 0.03469 1.1875 0.0625 1.5786 0.11124 3.1349 0.38974 4.625 0.84375 1.4901 0.45401 2.9416 1.086 4.3125 1.9062 0.63577 0.38039 1.1388 0.77326 1.4688 1.1875 0.32992 0.41424 0.45866 0.86136 0.28125 1.3438-0.13914 0.37832-0.39561 0.71395-0.78125 0.875s-0.90166 0.13952-1.5625-0.28125c-1.2558-0.79963-2.505-1.4414-3.8125-1.9375-1.3075-0.49611-2.6609-0.85801-4.0312-1.0625s-2.7744-0.26273-4.2188-0.1875c-1.4443 0.07523-2.9393 0.28194-4.4688 0.625-1.5294 0.34306-3.093 0.83852-4.7188 1.4375-1.6257 0.59898-3.2981 1.3132-5.0312 2.1562-3.4664 1.686-7.1619 3.8468-11.125 6.4375 1.4686-1.4528 2.9992-2.8117 4.5625-4.0625 1.5634-1.2508 3.1537-2.381 4.7812-3.4062 1.6275-1.0253 3.2764-1.9424 4.9375-2.7188 1.6611-0.77634 3.3358-1.4336 5-1.9375 1.6642-0.50393 3.3321-0.85443 4.9688-1.0625 1.2275-0.15605 2.4331-0.23922 3.625-0.21875zm5.7188-48.25c-0.56505 2.71e-4 -1.1222 0.0139-1.6875 0.03125-4.5228 0.13877-9.0368 0.80809-13.375 1.8438-5.8847 1.4049-11.518 4.2569-16.344 7.9062-4.9329 3.7306-9.5476 8.3427-12.312 13.875-2.8634 5.7294-4.0006 12.409-3.8438 18.812 0.13112 5.3534 2.3977 10.443 3.9688 15.562 1.4093 4.5922 3.3874 8.995 4.875 13.562 1.7584 5.3993 4.8845 11.143 8.3138 16.123 3.1004 4.5024 5.5167 9.0874 10.936 12.221 6.3024 3.6442 13.706 4.9292 20.469 7.625 4.4025 1.755 8.3926 4.9617 13.094 5.5625 3.2255 0.4122 6.9245 0.37375 9.625-1.4375 3.3268-2.2313 4.0386-6.9122 6.1562-10.312 2.9997-4.8166 6.7422-9.2068 9.2812-14.281 2.8096-5.615 5.8208-11.442 6.4688-17.688 0.1934-3.87-0.92525-7.4476-1.5938-10.719-3e-3 -0.0191 3e-3 0.0193 0 0-1.6085 1.8368-3.9177 4.1867-5.8438 5.1562-2.2519 1.1336-4.9492 1.341-7.4688 1.25-2.2832-0.0824-4.666-0.41622-6.6562-1.625 2.8834-2.2074 6.2738-3.904 9.75-5.0625 2.6803-0.89326 7.3254-1.4873 10-1.7812-0.0629-0.88449-0.10331-1.8461-0.125-2.875 0.23324-3.9193 1.594-7.8015 1.75-11.688-7.2547-0.82708-16.209 1.4025-21.438 7.9375-0.38926 0.48656-1.4127 0.91756-1.875 0.46875-0.8871-0.86121-0.0681-2.7922 0.78125-3.6562 5.4006-5.4939 16.309-6.9261 22.531-4.75 0.0375-0.93509 0.0102-1.8775-0.125-2.8125-1.29-8.906-4.47-18.185-10.47-24.9-5.9-6.599-14.57-10.817-23.16-12.969-3.7855-0.94867-7.7321-1.3769-11.688-1.375zm-7.5 65.656c4.1943-0.0331 8.3703 0.2833 11.719 1.2812-4.4318 4.521-10.885 7.0681-17.219 6.4062-3.7032-0.30732-7.308-1.5636-10.438-3.5625 3.2402-1.5532 9.5072-4.1597 15.938-4.125z" fill="#f4e3d7" stroke="#000" stroke-width="1px"/>
 <path d="m122.88 113.09c0.33854-1.5531 1.5894-2.1101 2.8085-2.6009" fill="none" stroke="#000" stroke-width="1px"/>
 <path d="m127.08 110.05c-0.46561-2.2364-2.1753-4.3374-3.7774-9.2225" fill="none" stroke="#000" stroke-width="1px"/>
 <path d="m115.55 112.68c1.254-0.89188 1.8898-0.36142 2.8805 0.047" fill="none" stroke="#000" stroke-width="1px"/>
 <path d="m113.28 108.69c-0.18014 1.229-0.43494 2.458-0.83797 3.687" fill="none" stroke="#000" stroke-width="1px"/>
 <path d="m94.871 74.015c1.5786 0.11124 3.1349 0.38974 4.625 0.84375 1.4901 0.45401 2.9416 1.086 4.3125 1.9062 0.63577 0.38039 1.1388 0.77326 1.4688 1.1875 0.32992 0.41424 0.45866 0.86136 0.28125 1.3438-0.13914 0.37832-0.39561 0.71396-0.78125 0.875-0.38564 0.16105-0.90166 0.13952-1.5625-0.28125-1.2558-0.79963-2.505-1.4414-3.8125-1.9375-1.3075-0.49611-2.6609-0.85801-4.0312-1.0625s-2.7744-0.26273-4.2188-0.1875c-1.4443 0.07523-2.9393 0.28194-4.4688 0.625-1.5294 0.34306-3.093 0.83852-4.7188 1.4375-1.6257 0.59898-3.2981 1.3132-5.0312 2.1562-3.4664 1.686-7.1619 3.8468-11.125 6.4375 1.4686-1.4528 2.9992-2.8117 4.5625-4.0625 1.5634-1.2508 3.1537-2.381 4.7812-3.4063s3.2764-1.9424 4.9375-2.7187c1.6611-0.77634 3.3358-1.4336 5-1.9375 1.6642-0.50393 3.3321-0.85443 4.9688-1.0625s3.2338-0.26749 4.8125-0.15625z" fill="#1a1a1a" stroke="#000" stroke-width="1px"/>
 <path d="m144.85 67.77c-7.2547-0.82708-16.198 1.3952-21.427 7.9302-0.38926 0.48656-1.4158 0.90634-1.8781 0.45753-0.8871-0.86121-0.0785-2.7641 0.77083-3.6281 5.4006-5.4939 16.312-6.9357 22.534-4.7596z" fill="#1a1a1a" stroke="#000" stroke-width="1px"/>
 <path d="m127.57 116.76 1.3445-0.66244m-21.45 3.064 2.9011 0.72507m13.922-3.7506c0.47252-0.25164 1.2905-0.106 1.9968 0.11301 0.70634 0.21901 1.2857 0.51096 1.2857 0.51096-1.4216 0.77143-2.9043 1.4527-4.4015 2.0045-1.4972 0.55181-2.9952 0.95897-4.484 1.2486-1.4888 0.28966-2.9794 0.45601-4.3757 0.44096-1.3963-0.015-2.7234-0.20511-3.943-0.56745 0 0 1.1418-0.62104 2.4471-1.2074 0.65266-0.29319 1.3651-0.57772 1.9838-0.76412 0.61877-0.18641 1.1376-0.2871 1.4823-0.19781 0.79242 0.20524 1.6154 0.26712 2.4301 0.20013 0.81471-0.067 1.6395-0.24503 2.3736-0.46037 1.468-0.43068 2.6776-1.0403 3.2048-1.321zm3.2825 0.62397c-1.6611 1.913-2.6837 3.7659-3.8505 4.8116-1.1668 1.0456-2.2082 1.6735-3.2916 1.9236-1.0834 0.25015-2.217 0.12514-3.628-0.34837s-4.2846-2.1349-6.434-3.2602" fill="#f00" stroke="#000" stroke-width="1px"/>
 <g transform="translate(-432.87 -50.465)" fill="#f4e3d7" stroke="#000" stroke-width=".59039">
  <path d="m488.42 141.83c-1.4198-0.73974-2.9076-1.6099-4.5579-1.5768-1.3708 0.0854-2.7287 1.0322-2.997 2.4308-0.43004 1.59 0.18155 3.2242 0.99584 4.581 1.0078 1.9812 1.7449 4.2348 3.5514 5.6648 1.8473 1.542 4.0935 2.515 6.3895 3.1736 1.4859 0.55291 4.5565-0.28241 3.9306-1.1961-2.4375-4.3591-4.8748-8.7182-7.3123-13.077z" enable-background="new"/>
  <path d="m486.02 145.9c-1.0651-0.25008-2.496-0.23374-2.6204 0.65823-0.18339 1.3145 2.4235 1.1472 3.4489 1.9899 0.96748 0.79515 1.2822 1.8002 2.4723 2.8289m-6.576-7.328c1.0406-0.6742 2.7209-1.3539 3.9448-0.80367 1.8365 0.82561 2.038 3.4736 3.027 5.2276 0.96669 1.7148 4.091 3.6554 2.8418 5.1767-1.2123 1.4764-4.7759-0.89955-5.4645-1.7276m1.3288-10.091c-1.4198-0.73974-2.9076-1.6099-4.5579-1.5768-1.3708 0.0854-2.7287 1.0322-2.997 2.4308-0.43004 1.59 0.18155 3.2242 0.99584 4.581 1.0078 1.9812 1.7449 4.2348 3.5514 5.6648 1.8473 1.542 4.0935 2.515 6.3895 3.1736 1.4859 0.55291 4.5565-0.28241 3.9306-1.1961-2.4375-4.3591-4.8748-8.7182-7.3123-13.077z" enable-background="new"/>
 </g>
 <path d="m80.231 70.425c3.0856-1.7721 6.7661-2.7007 10.324-2.7132 6.2347-0.0219 12.063 3.1105 18.123 4.6268l-7.2146-5.8456 16.305 6.5515-9.9862-7.9214 20.262 5.6374-12.942-7.3306 21.084 5.6566-14.448-7.2773 19.575 6.6393-10.073-8.7697 20.561 9.723-14.026-10.598 18.711 7.4558-10.511-14.739 12.232 4.7844-12.234-10.88 13.014 3.6622-16.024-12.291 12.422 3.1465-16.038-10.832 11.723-0.98093-18.457-5.8832 13.37-2.215-19.399-5.3476 11.912-4.2118-20.833 1.1599 12.004-5.91-20.116 4.3707 6.1464-7.8598-17.848 6.6901 4.4724-7.6309-15.946 8.6296-1.5599-7.8251-9.8153 11.948-3.1993-9.1464-5.6397 12.364-3.4212-8.8669-3.5519 12.616-8.7357-7.829 2.2741 10.668-10.241-3.6795 5.6115 10.327-9.3768-5.3767 4.5477 10.982-10.03-2.1295 8.7022 8.5653-13.996 0.32459 12.657 7.7059-14.365 2.1706 15.685 5.56-10.926 8.7142 12.406 0.26297-6.2031 14.886 7.6911-6.6715-1.6524 18.526 7.2217-9.7588-1.9022 15.031 6.3288-11.39-2.1382 16.899 4.6975-10.242 4.4137 13.04 0.48488-13.306 4.6087 9.3148-3.6885-20.252 7.0124 11.363-1.1025-14.505 3.9187 4.6341-2.4455-12.203s3.5324 2.3818 5.4037 1.9667c1.9258-0.42722 2.4729-3.2033 4.1835-4.1857z" stroke="#000" stroke-width="1px"/>
 <g transform="translate(-444.72 -16.829)" fill="#f1dccd">
  <path d="m527.66 147.45s7.5675 12.634 11.132 19.076c2.4546 4.4363 5.1739 13.285 7.0578 13.474 1.8838 0.18831 2.5016-2.9667 2.5016-2.9667m-23.41-34.41c2.4407 4.4822 5.9108 9.4575 5.8841 14.408-0.0153 2.8273-1.6382 4.2793-3.2188 5.8438-2.6896 2.6622-6.506 3.9214-10 5.375-6.7755 2.8187-15.289 1.8761-21.062 6.4062-5.4018 4.2388-10.509 17.717-10.509 17.717h124.19s-4.4622-11.61-8.3972-16.279c-3.0592-3.6297-7.0403-6.6268-11.368-8.5774-5.0619-2.2816-12.936-1.7371-16.323-3.3181-4.7512-2.2176-6.0486-0.90373-7.0992-6.794-0.14777-0.82847-0.17697-1.775 0.0937-2.7812-2.6168 1.3912-5.9483 1.4578-8.9062 1.0312-4.6936-0.67685-8.6913-3.8075-13.094-5.5625-6.6624-2.6558-13.947-3.9466-20.188-7.4688z" fill="#f1dccd" stroke="#000" stroke-width="1px"/>
 </g>
 <path d="m143.22 82.327c-0.52859 0.05844-1.1909 0.13631-1.8438 0.21875 0.0459 0.10102 0.0885 0.20591 0.125 0.3125 0.75491 2.2056-0.83962 4.7556-3.5625 5.6875-2.7229 0.93194-5.5263-0.10686-6.2812-2.3125-0.16708-0.48816-0.20617-0.99987-0.15625-1.5-2.8816 1.1179-5.646 2.6188-8.0625 4.4688 1.9903 1.2088 4.373 1.5113 6.6562 1.5938 2.5195 0.091 5.2168-0.1164 7.4688-1.25 1.8616-0.93712 4.2698-3.4022 5.875-5.2188l-0.21875-2z" fill="#f9f9f9" stroke="#000" stroke-width="1px"/>
 <path d="m76.741 87.831s9.541-5.4272 14.796-5.4445c3.3922-0.0112 9.5736 3.4513 9.5736 3.4513" fill="none" stroke="#000" stroke-width="1px"/>
 <path d="m124.45 80.753s6.1542-6.7953 10.331-7.1855c2.186-0.20424 6.0104 2.6943 6.0104 2.6943" fill="none" stroke="#000" stroke-width="1px"/>
 <path d="m117.43 79.334c-1.001 1.4889-1.4628 2.5822 0.0918 6.9681" fill="none" stroke="#000" stroke-width="1px"/>
 <path d="m89.501 91.451c-5.5501 0.49575-10.696 2.6722-13.531 4.0312 3.1295 1.9989 6.7343 3.2552 10.438 3.5625 6.334 0.66182 12.787-1.8852 17.219-6.4062-0.97617-0.29093-2.0272-0.50491-3.125-0.6875 0.28456 2.5008-1.9115 4.8616-4.9688 5.2812-3.0934 0.42459-5.9022-1.2788-6.25-3.8125-0.0929-0.67714 8e-3 -1.3461 0.25-1.9688-0.0104 9.2e-4 -0.0208-9.3e-4 -0.0313 0z" fill="#f9f9f9" stroke="#000" stroke-width="1px"/>
 <path d="m104.01 117.3c-0.70675 0.87594-0.97394 1.642-1.0093 2.3501" fill="none" stroke="#000" stroke-width="1px"/>
 <path d="m130.74 113.78c0.57039 0.58228 0.89999 1.285 1.1355 2.0347" fill="none" stroke="#000" stroke-width="1px"/>
 <path d="m71.991 94.021c0.94777 0.7637 2.1653 1.5426 3.9819 1.4621" fill="none" stroke="#000" stroke-width="1px"/>
 <path d="m142.96 82.356c1.219-0.38848 3.1584-0.94974 4.06-2.2904" fill="none" stroke="#000" stroke-width="1px"/>
 <path d="m74.291 93.651c0.84391 0.61857 2.0061 0.94603 3.4017 1.0446" fill="none" stroke="#000" stroke-width="1px"/>
 <path d="m76.731 93.101c0.28921 0.48916 1.4018 0.52082 3.3004 0.64091" fill="none" stroke="#000" stroke-width="1px"/>
 <path d="m79.341 92.141c0.57953 0.75043 1.6648 0.66354 3.2543 0.72702" fill="none" stroke="#000" stroke-width="1px"/>
 <path d="m81.141 91.191c0.70073 0.87429 2.0747 0.97873 4.0988 0.95922" fill="none" stroke="#000" stroke-width="1px"/>
 <path d="m139.81 82.753c1.219-0.38848 4.1677-1.2652 5.0693-2.6058" fill="none" stroke="#000" stroke-width="1px"/>
 <path d="m137.97 83.034c1.219-0.38848 3.4107-1.2652 4.3123-2.6058" fill="none" stroke="#000" stroke-width="1px"/>
 <path d="m136.15 83.261c1.219-0.38849 3.0953-1.3282 3.9969-2.6689" fill="none" stroke="#000" stroke-width="1px"/>
 <path d="m134.66 83.701c1.219-0.38849 2.3383-1.5806 3.2399-2.9212" fill="none" stroke="#000" stroke-width="1px"/>
 <path d="m42.03 156.83-14.635 38.789 33.447 13.061h75.477l33.492-20.781-18.656-31.068-55.24 9.7441z" fill="#92d050" fill-rule="evenodd"/>
 <path d="m42.03 156.83-14.635 38.789 33.447 13.061h75.477l33.492-20.781-18.656-31.068-55.24 9.7441z" fill="none" stroke="#000" stroke-linejoin="round" stroke-width="2.0538px"/>
 <path d="m65.096 144.03-37.992 15.818-26.187 51.764h215.75l-24.08-39.9-15.361-14.357-32.029-12.006-3.3926 19.537-17.832 27.258-18.705 14.311-16.912-12.57-23.211-33.752zm231.43 23.256-18.172 20.996-29.398 23.33h46.061l9.5059-7.8887z" fill="#fbfbfb" fill-rule="evenodd"/>
 <path d="m26.668 160.13-25.674 51.48h46.186z" fill="#fbfbfb" fill-rule="evenodd"/>
 <path d="m295.02 211.61 9.5059-7.8887-7.9961-36.438-18.172 20.996-29.398 23.33" fill="none" stroke="#000" stroke-linecap="round" stroke-linejoin="round" stroke-width="2.0538px"/>
 <path d="m216.67 211.61-24.08-39.9-15.361-14.357-32.029-12.006-3.3926 19.537-17.832 27.258-18.705 15.043-16.912-13.303-23.211-33.752-0.04687-16.102-37.992 15.818-26.187 51.764" fill="none" stroke="#000" stroke-linecap="round" stroke-linejoin="round" stroke-width="2.0538px"/>
 <path d="m305.78 165.07c-6.9775-1.7892-15.167 6.0255-18.317 17.512-3.1495 11.534-0.0483 22.266 6.9298 24.103 6.9775 1.7886 15.167-6.0731 18.317-17.559 3.1012-11.487 0.0483-22.267-6.9298-24.056z" fill="#f5f5f5" fill-rule="evenodd"/>
 <path d="m305.78 165.07c-6.9775-1.7892-15.167 6.0255-18.317 17.512-3.1495 11.534-0.0483 22.266 6.9298 24.103 6.9775 1.7886 15.167-6.0731 18.317-17.559 3.1012-11.487 0.0483-22.267-6.9298-24.056" fill="none" stroke="#000" stroke-linejoin="round" stroke-width="2.0538px"/>
 <path d="m295.46 206.21c-1.1144-0.75304-5.2821-2.5417-6.784-4.6134-1.5025-2.1181-2.2293-5.1309-2.2777-7.9557 0-2.8242-0.8235-5.555 2.0352-8.8973 2.8593-3.3893 11.388-8.7088 15.071-11.298 3.6339-2.5892 5.1848-2.4007 7.0259-4.2369 1.7934-1.8356 2.7136-5.1309 3.7796-6.7316 1.0666-1.6007 1.0666-1.3651 2.5685-2.8718 1.5509-1.5537 4.2645-4.2839 6.4932-6.308 2.2777-2.0242 5.6213-5.3197 7.1232-5.7434 1.5025-0.47074 3.0044 0.56497 1.8417 3.1071-1.2117 2.5423-11.145 11.769-8.965 12.146 2.1809 0.32954 17.881-8.7564 21.951-10.027 4.022-1.3181 4.2155 0.047 2.2777 2.2128-1.8901 2.1181-14.731 10.262-13.762 10.592 1.0176 0.32952 16.185-7.6732 19.722-8.5678 3.5377-0.9416 4.1188 0.70606 1.5025 3.0128-2.6652 2.3067-17.445 9.698-17.397 10.781 0 1.1296 14.392-4.0014 17.542-4.1899 3.1496-0.14089 3.1496 1.9772 1.3568 3.1543-1.8411 1.1296-9.0617 2.6362-12.211 3.8128-3.1496 1.1772-6.0089 2.8248-6.6389 3.2953-0.58104 0.47111 1.9385-0.28193 3.0044-0.37652 1.066-0.047 1.9385-0.047 3.4404-0.047 1.5509 0 4.6521-0.4235 5.6697 0.047 1.0176 0.47111 2.6169 2.2128 0.33921 2.8718-2.326 0.61208-9.8368 0.51809-14.101 1.0356-4.2645 0.47111-8.6258 1.0356-11.484 1.8362-2.9077 0.80002-0.92086-1.0356-5.8148 2.8712-4.8462 3.9544-18.463 16.477-23.356 20.808z" fill="#f5dfd6" fill-rule="evenodd"/>
 <path d="m295.46 206.21c-1.1144-0.75304-5.2821-2.5417-6.784-4.6134-1.5025-2.1181-2.2293-5.1309-2.2777-7.9557 0-2.8242-0.8235-5.555 2.0352-8.8973 2.8593-3.3893 11.388-8.7088 15.071-11.298 3.6339-2.5892 5.1848-2.4007 7.0259-4.2369 1.7934-1.8356 2.7136-5.1309 3.7796-6.7316 1.0666-1.6007 1.0666-1.3651 2.5685-2.8718 1.5509-1.5537 4.2645-4.2839 6.4932-6.308 2.2777-2.0242 5.6213-5.3197 7.1232-5.7434 1.5025-0.47074 3.0044 0.56497 1.8417 3.1071-1.2117 2.5423-11.145 11.769-8.965 12.146 2.1809 0.32954 17.881-8.7564 21.951-10.027 4.022-1.3181 4.2155 0.047 2.2777 2.2128-1.8901 2.1181-14.731 10.262-13.762 10.592 1.0176 0.32952 16.185-7.6732 19.722-8.5678 3.5377-0.9416 4.1188 0.70606 1.5025 3.0128-2.6652 2.3067-17.445 9.698-17.397 10.781 0 1.1296 14.392-4.0014 17.542-4.1899 3.1496-0.14089 3.1496 1.9772 1.3568 3.1543-1.8411 1.1296-9.0617 2.6362-12.211 3.8128-3.1496 1.1772-6.0089 2.8248-6.6389 3.2953-0.58104 0.47111 1.9385-0.28193 3.0044-0.37652 1.066-0.047 1.9385-0.047 3.4404-0.047 1.5509 0 4.6521-0.4235 5.6697 0.047 1.0176 0.47111 2.6169 2.2128 0.33921 2.8718-2.326 0.61208-9.8368 0.51809-14.101 1.0356-4.2645 0.47111-8.6258 1.0356-11.484 1.8362-2.9077 0.80002-0.92086-1.0356-5.8148 2.8712-4.8462 3.9544-18.463 16.477-23.356 20.808" fill="none" stroke="#000" stroke-linejoin="round" stroke-width="2.0538px"/>
 <path d="m157.99 161.77-12.89-20.619-23.502 50.183z" fill="#fff" fill-rule="evenodd"/>
 <path d="m157.99 161.77-12.89-20.619-23.502 50.183z" fill="none" stroke="#000" stroke-miterlimit="8" stroke-width="2.0538px"/>
 <path d="m138.41 192.42-7.6565-16.854-22.775 30.552z" fill="#fff" fill-rule="evenodd"/>
 <path d="m138.41 192.42-7.6565-16.854-23.333 29.995z" fill="none" stroke="#000" stroke-miterlimit="3" stroke-width="2.0538px"/>
 <path d="m50.51 161.26 15.554-21.419 22.726 50.512z" fill="#fff" fill-rule="evenodd"/>
 <path d="m50.51 161.26 15.554-21.419 22.726 50.512z" fill="none" stroke="#000" stroke-miterlimit="8" stroke-width="2.0538px"/>
 <path d="m73.187 191.57 7.899-16.524 21.902 31.164z" fill="#fff" fill-rule="evenodd"/>
 <path d="m73.187 191.57 7.899-16.524 22.699 31.164z" fill="none" stroke="#000" stroke-width="2.0538px"/>
 <path d="m332.77 90.454c-5.088 0-9.2068 1.6006-9.2068 3.5778 0 1.9772 4.1188 3.6248 9.2068 3.6248s9.2068-1.6477 9.2068-3.6248c0-1.9772-4.1188-3.5778-9.2068-3.5778" fill="none" stroke="#000" stroke-linejoin="round" stroke-miterlimit="10" stroke-width="2.0538px"/>
 <path transform="matrix(.62011 0 0 .60243 -33.806 88.43)" d="m576.07 8.205c0.157 1.641 1.407-1.094 0.782 9.6897-0.625 10.862-0.157 41.494-4.533 55.247-4.297 13.831-17.035 19.067-21.645 27.662-4.611 8.596-6.564 17.192-5.939 23.912s1.797 12.347 9.69 16.41c7.892 3.985 25.396 7.502 37.43 7.658 12.034 0.234 26.803-2.344 34.696-6.642 7.892-4.22 11.877-12.19 12.737-18.989 0.938-6.72-2.032-12.815-7.189-21.645-5.236-8.8306-19.302-17.895-23.912-31.336s-3.438-39.15-3.751-49.23c-0.312-10.08 1.485-8.9083 1.876-11.253" clip-path="url(#clipEmfPath1)" fill="none" stroke="#000" stroke-linejoin="round" stroke-miterlimit="10" stroke-width="3.3601px"/>
 <path d="m321.09 133.53c-1.2111 0.65908-1.2111 3.06-3.4404 5.8374-2.2287 2.7775-7.7043 6.5906-9.9819 10.78-2.2777 4.1899-4.0704 10.357-3.6828 14.405 0.38757 4.0483 1.1143 7.4382 6.0089 9.8859 4.8939 2.4007 15.748 4.5195 23.211 4.6604 7.4624 0.0939 16.621-1.4591 21.515-4.0014 4.8939-2.5893 7.3651-7.3906 7.8984-11.44 0.58165-4.0953-1.8901-8.6148-4.458-13.04-2.6169-4.4723-8.6258-10.498-11.097-13.652-2.4712-3.107-2.8104-4.7546-3.7312-5.2725-0.92087-0.51783-0.19402 1.5535-1.7927 2.2126-1.6476 0.61201-5.2338 1.5535-7.9474 1.6477-2.762 0.0472-6.3475-0.75322-8.4317-1.1298-2.0836-0.32954-3.1979-0.70617-4.0704-0.89444z" fill="#92d050" fill-rule="evenodd"/>
 <path transform="matrix(.62011 0 0 .60243 -33.806 88.43)" d="m572.32 74.861c-1.953 1.094-1.953 5.0793-5.548 9.6897-3.594 4.6104-12.424 10.94-16.097 17.894-3.673 6.955-6.564 17.192-5.939 23.912s1.797 12.347 9.69 16.41c7.892 3.985 25.396 7.502 37.43 7.736 12.034 0.156 26.803-2.422 34.696-6.642 7.892-4.298 11.877-12.268 12.737-18.989 0.938-6.798-3.048-14.3-7.189-21.645-4.22-7.4238-13.91-17.426-17.895-22.662-3.985-5.1574-4.532-7.8924-6.017-8.752s-0.313 2.5787-2.891 3.6727c-2.657 1.0159-8.44 2.5787-12.816 2.735-4.454 0.0782-10.236-1.2503-13.597-1.8754-3.36-0.547-5.157-1.1722-6.564-1.4847" clip-path="url(#clipEmfPath1)" fill="none" stroke="#000" stroke-linejoin="round" stroke-miterlimit="10" stroke-width="3.3601px"/>
 <path d="m332.53 127.69c-5.524 0-9.9819 1.7418-9.9819 3.9072 0 2.1655 4.458 3.9073 9.9819 3.9073 5.4756 0 9.9336-1.7418 9.9336-3.9073 0-2.1655-4.458-3.9072-9.9336-3.9072z" fill="#b4df85" fill-rule="evenodd"/>
 <path d="m332.53 127.69c-5.524 0-9.9819 1.7418-9.9819 3.9072 0 2.1655 4.458 3.9073 9.9819 3.9073 5.4756 0 9.9336-1.7418 9.9336-3.9073 0-2.1655-4.458-3.9072-9.9336-3.9072" fill="none" stroke="#000" stroke-linejoin="round" stroke-miterlimit="10" stroke-width="2.0538px"/>
 <path d="m333.69 121.71c-5.5246 0.80027-10.031-0.37658-10.564-2.7304" fill="none" stroke="#000" stroke-linejoin="round" stroke-miterlimit="10" stroke-width="2.0538px"/>
 <path d="m334.18 112.11c-5.5239 0.80028-10.031-0.37663-10.564-2.7304" fill="none" stroke="#000" stroke-linejoin="round" stroke-miterlimit="10" stroke-width="2.0538px"/>
 <path d="m332.73 130.19c-5.5246 0.80033-10.031-0.37658-10.564-2.7304" fill="none" stroke="#000" stroke-linejoin="round" stroke-miterlimit="10" stroke-width="2.0538px"/>
 <path d="m334.18 103.45c-5.5239 0.80027-10.031-0.37665-10.564-2.7304" fill="none" stroke="#000" stroke-linejoin="round" stroke-miterlimit="10" stroke-width="2.0538px"/>
</svg>
