<?xml version="1.0" encoding="UTF-8"?>
<svg width="786pt" height="385pt" version="1.1" viewBox="0 0 786 385" xmlns="http://www.w3.org/2000/svg">
 <g transform="translate(5 5)">
  <g transform="translate(-.62341 -21.996)">
   <g font-family="'Linux Biolinum O'" font-size="12px" text-anchor="end" fill="#a0b2b4">
    <text x="84.099998" y="342.07" lengthAdjust="spacingAndGlyphs" textLength="84.099998">Check every 1ms</text>
    <text x="84.099998" y="183.06" lengthAdjust="spacingAndGlyphs" textLength="84.099998">Check every 1ms</text>
   </g>
   <g transform="translate(0 -36.14)">
    <g fill="#4a1486" fill-opacity=".75">
     <circle cx="171.04" cy="367.13" r="1.775"/>
     <circle cx="170.36" cy="368.55" r="1.775"/>
     <circle cx="171.12" cy="372.82" r="1.775"/>
     <circle cx="169.52" cy="372.23" r="1.775"/>
     <circle cx="169.67" cy="380.04" r="1.775"/>
     <circle cx="169.59" cy="370.72" r="1.775"/>
     <circle cx="171.2" cy="360.48" r="1.775"/>
     <circle cx="169.5" cy="372.35" r="1.775"/>
     <circle cx="170.54" cy="368.72" r="1.775"/>
     <circle cx="169.11" cy="363.37" r="1.775"/>
     <circle cx="169.73" cy="380.79" r="1.775"/>
     <circle cx="169.55" cy="386.74" r="1.775"/>
     <circle cx="171.42" cy="362.32" r="1.775"/>
     <circle cx="170.57" cy="385.05" r="1.775"/>
     <circle cx="169.89" cy="384.37" r="1.775"/>
     <circle cx="168.41" cy="382.52" r="1.775"/>
     <circle cx="168.02" cy="360.49" r="1.775"/>
     <circle cx="168.26" cy="382.75" r="1.775"/>
     <circle cx="169.93" cy="371.03" r="1.775"/>
     <circle cx="168.69" cy="382.59" r="1.775"/>
     <circle cx="169.46" cy="384.28" r="1.775"/>
     <circle cx="169.22" cy="364.4" r="1.775"/>
     <circle cx="168.26" cy="369.04" r="1.775"/>
     <circle cx="168.74" cy="379.56" r="1.775"/>
     <circle cx="170.27" cy="361.37" r="1.775"/>
     <circle cx="169.67" cy="373.69" r="1.775"/>
     <circle cx="170.21" cy="379.16" r="1.775"/>
     <circle cx="168.37" cy="374.65" r="1.775"/>
     <circle cx="168.68" cy="364.59" r="1.775"/>
     <circle cx="168.72" cy="361.36" r="1.775"/>
     <circle cx="169.9" cy="386.39" r="1.775"/>
     <circle cx="169.28" cy="364.24" r="1.775"/>
     <circle cx="169.77" cy="363.93" r="1.775"/>
     <circle cx="168.57" cy="369.19" r="1.775"/>
     <circle cx="168.62" cy="363.73" r="1.775"/>
     <circle cx="168.72" cy="372.25" r="1.775"/>
     <circle cx="170.21" cy="368.06" r="1.775"/>
     <circle cx="168.65" cy="387.68" r="1.775"/>
     <circle cx="170.07" cy="370.59" r="1.775"/>
     <circle cx="168.89" cy="362.92" r="1.775"/>
    </g>
    <g fill="#8c2d04" fill-opacity=".75">
     <circle cx="205.61" cy="363.51" r="1.775"/>
     <circle cx="204.76" cy="361.54" r="1.775"/>
     <circle cx="205.51" cy="379.49" r="1.775"/>
     <circle cx="204.14" cy="372.42" r="1.775"/>
     <circle cx="207.05" cy="379.79" r="1.775"/>
     <circle cx="203.94" cy="383.21" r="1.775"/>
     <circle cx="206.07" cy="379.78" r="1.775"/>
     <circle cx="204.44" cy="387.31" r="1.775"/>
     <circle cx="205.77" cy="373.66" r="1.775"/>
     <circle cx="203.93" cy="360.02" r="1.775"/>
     <circle cx="204.9" cy="375.41" r="1.775"/>
     <circle cx="204.71" cy="370.06" r="1.775"/>
     <circle cx="204.54" cy="384.14" r="1.775"/>
     <circle cx="205.38" cy="384.09" r="1.775"/>
     <circle cx="204.26" cy="386.5" r="1.775"/>
     <circle cx="205.24" cy="379.67" r="1.775"/>
     <circle cx="204.68" cy="360.67" r="1.775"/>
     <circle cx="205.46" cy="383.82" r="1.775"/>
     <circle cx="204.27" cy="375.45" r="1.775"/>
     <circle cx="205.99" cy="380.51" r="1.775"/>
     <circle cx="203.66" cy="363.13" r="1.775"/>
     <circle cx="205.59" cy="376.78" r="1.775"/>
     <circle cx="203.96" cy="381.74" r="1.775"/>
     <circle cx="204.8" cy="366.17" r="1.775"/>
     <circle cx="204.79" cy="383.59" r="1.775"/>
     <circle cx="204.76" cy="379.75" r="1.775"/>
     <circle cx="205.03" cy="367.67" r="1.775"/>
     <circle cx="204.83" cy="387.69" r="1.775"/>
     <circle cx="205.4" cy="362.78" r="1.775"/>
     <circle cx="204.78" cy="368.37" r="1.775"/>
     <circle cx="205.74" cy="374.42" r="1.775"/>
     <circle cx="204.63" cy="387.49" r="1.775"/>
     <circle cx="205.48" cy="372.04" r="1.775"/>
     <circle cx="203.79" cy="379.18" r="1.775"/>
     <circle cx="205.31" cy="371.08" r="1.775"/>
     <circle cx="203.98" cy="382.8" r="1.775"/>
     <circle cx="204.8" cy="364.63" r="1.775"/>
     <circle cx="204.78" cy="362.85" r="1.775"/>
     <circle cx="204.86" cy="382.57" r="1.775"/>
     <circle cx="205.24" cy="367.24" r="1.775"/>
    </g>
    <g fill="#6a51a3" fill-opacity=".75">
     <circle cx="180.31" cy="363.94" r="1.775"/>
     <circle cx="176.34" cy="375.17" r="1.775"/>
     <circle cx="175.86" cy="377.69" r="1.775"/>
     <circle cx="176.37" cy="371.06" r="1.775"/>
     <circle cx="176.37" cy="383.01" r="1.775"/>
     <circle cx="176.23" cy="372.59" r="1.775"/>
     <circle cx="176.28" cy="388.2" r="1.775"/>
     <circle cx="176.64" cy="370.14" r="1.775"/>
     <circle cx="175.95" cy="371.52" r="1.775"/>
     <circle cx="176.12" cy="376.88" r="1.775"/>
     <circle cx="176.62" cy="387.32" r="1.775"/>
     <circle cx="176.38" cy="369.08" r="1.775"/>
     <circle cx="176.21" cy="368.45" r="1.775"/>
     <circle cx="176.72" cy="372.95" r="1.775"/>
     <circle cx="177.1" cy="365.87" r="1.775"/>
     <circle cx="176.55" cy="373.98" r="1.775"/>
     <circle cx="176.27" cy="378.18" r="1.775"/>
     <circle cx="177.06" cy="381.48" r="1.775"/>
     <circle cx="176.61" cy="361.4" r="1.775"/>
     <circle cx="176.37" cy="373.37" r="1.775"/>
     <circle cx="176.67" cy="368.37" r="1.775"/>
     <circle cx="177.08" cy="373.49" r="1.775"/>
     <circle cx="176.2" cy="382.68" r="1.775"/>
     <circle cx="176.36" cy="362.59" r="1.775"/>
     <circle cx="176.82" cy="362.25" r="1.775"/>
     <circle cx="176.38" cy="365.1" r="1.775"/>
     <circle cx="176.34" cy="376.19" r="1.775"/>
     <circle cx="176.76" cy="370.6" r="1.775"/>
     <circle cx="176.78" cy="368.55" r="1.775"/>
     <circle cx="176.41" cy="370.46" r="1.775"/>
     <circle cx="176.14" cy="384.78" r="1.775"/>
     <circle cx="176.6" cy="375.66" r="1.775"/>
     <circle cx="176.63" cy="384.78" r="1.775"/>
     <circle cx="176.41" cy="382.63" r="1.775"/>
     <circle cx="176.66" cy="366.15" r="1.775"/>
     <circle cx="176.28" cy="368.63" r="1.775"/>
     <circle cx="176.14" cy="371.37" r="1.775"/>
     <circle cx="176.11" cy="384.3" r="1.775"/>
     <circle cx="176.77" cy="365.57" r="1.775"/>
     <circle cx="176.36" cy="374.37" r="1.775"/>
    </g>
    <g fill="#d94801" fill-opacity=".75">
     <circle cx="210.95" cy="370.27" r="1.775"/>
     <circle cx="211.24" cy="388.13" r="1.775"/>
     <circle cx="211.13" cy="366.05" r="1.775"/>
     <circle cx="211.34" cy="372.11" r="1.775"/>
     <circle cx="210.72" cy="372.18" r="1.775"/>
     <circle cx="210.97" cy="383.19" r="1.775"/>
     <circle cx="213.13" cy="379.1" r="1.775"/>
     <circle cx="213.75" cy="367.87" r="1.775"/>
     <circle cx="210.87" cy="377.36" r="1.775"/>
     <circle cx="210.63" cy="362.93" r="1.775"/>
     <circle cx="210.87" cy="373.8" r="1.775"/>
     <circle cx="211.08" cy="365.52" r="1.775"/>
     <circle cx="210.73" cy="366.75" r="1.775"/>
     <circle cx="210.53" cy="378.62" r="1.775"/>
     <circle cx="210.56" cy="370.5" r="1.775"/>
     <circle cx="210.62" cy="374.67" r="1.775"/>
     <circle cx="210.84" cy="366.69" r="1.775"/>
     <circle cx="211.44" cy="368.62" r="1.775"/>
     <circle cx="211.38" cy="371.96" r="1.775"/>
     <circle cx="211.18" cy="362.52" r="1.775"/>
     <circle cx="211.31" cy="372.67" r="1.775"/>
     <circle cx="211.91" cy="375.39" r="1.775"/>
     <circle cx="210.95" cy="364.6" r="1.775"/>
     <circle cx="211.37" cy="381.14" r="1.775"/>
     <circle cx="211.51" cy="384.7" r="1.775"/>
     <circle cx="211.26" cy="384.27" r="1.775"/>
     <circle cx="211.42" cy="367.24" r="1.775"/>
     <circle cx="211.39" cy="360.96" r="1.775"/>
     <circle cx="211.52" cy="379.88" r="1.775"/>
     <circle cx="211.46" cy="387.76" r="1.775"/>
     <circle cx="211.37" cy="361.73" r="1.775"/>
     <circle cx="215.08" cy="368.51" r="1.775"/>
     <circle cx="211.74" cy="382.45" r="1.775"/>
     <circle cx="211.68" cy="376.92" r="1.775"/>
     <circle cx="211.64" cy="379.18" r="1.775"/>
     <circle cx="211.74" cy="380.85" r="1.775"/>
     <circle cx="211.76" cy="386.3" r="1.775"/>
     <circle cx="212.12" cy="388.01" r="1.775"/>
     <circle cx="211.42" cy="386.97" r="1.775"/>
     <circle cx="211.6" cy="384.63" r="1.775"/>
    </g>
    <g fill="#807dba" fill-opacity=".75">
     <circle cx="191.81" cy="379.49" r="1.775"/>
     <circle cx="192.04" cy="383.91" r="1.775"/>
     <circle cx="191.89" cy="363.45" r="1.775"/>
     <circle cx="194.81" cy="361.96" r="1.775"/>
     <circle cx="191.31" cy="383.84" r="1.775"/>
     <circle cx="190.85" cy="382.36" r="1.775"/>
     <circle cx="190.97" cy="369.38" r="1.775"/>
     <circle cx="190.93" cy="361.66" r="1.775"/>
     <circle cx="191.1" cy="371.23" r="1.775"/>
     <circle cx="190.94" cy="366.84" r="1.775"/>
     <circle cx="190.98" cy="375.19" r="1.775"/>
     <circle cx="190.99" cy="375.54" r="1.775"/>
     <circle cx="191.46" cy="374.71" r="1.775"/>
     <circle cx="190.96" cy="366.8" r="1.775"/>
     <circle cx="190.76" cy="386.87" r="1.775"/>
     <circle cx="190.94" cy="365.95" r="1.775"/>
     <circle cx="191.25" cy="385.7" r="1.775"/>
     <circle cx="190.97" cy="372.38" r="1.775"/>
     <circle cx="190.98" cy="371.61" r="1.775"/>
     <circle cx="191.18" cy="375.46" r="1.775"/>
     <circle cx="191.03" cy="375.34" r="1.775"/>
     <circle cx="191.01" cy="361.16" r="1.775"/>
     <circle cx="190.99" cy="378.96" r="1.775"/>
     <circle cx="190.85" cy="360.67" r="1.775"/>
     <circle cx="191.02" cy="362.79" r="1.775"/>
     <circle cx="190.81" cy="381.32" r="1.775"/>
     <circle cx="190.93" cy="372.86" r="1.775"/>
     <circle cx="190.91" cy="382.56" r="1.775"/>
     <circle cx="190.85" cy="386.36" r="1.775"/>
     <circle cx="190.94" cy="368.71" r="1.775"/>
     <circle cx="191.46" cy="360.5" r="1.775"/>
     <circle cx="192.9" cy="364.08" r="1.775"/>
     <circle cx="191.14" cy="375.17" r="1.775"/>
     <circle cx="191.3" cy="367.73" r="1.775"/>
     <circle cx="191.05" cy="380.15" r="1.775"/>
     <circle cx="191.07" cy="373.25" r="1.775"/>
     <circle cx="191.11" cy="388.39" r="1.775"/>
     <circle cx="191.17" cy="384.24" r="1.775"/>
     <circle cx="191.07" cy="364.3" r="1.775"/>
     <circle cx="191.13" cy="386.37" r="1.775"/>
    </g>
    <g fill="#f16913" fill-opacity=".75">
     <circle cx="308.32" cy="379.39" r="1.775"/>
     <circle cx="304.98" cy="380.17" r="1.775"/>
     <circle cx="308.96" cy="368.5" r="1.775"/>
     <circle cx="306.63" cy="360.84" r="1.775"/>
     <circle cx="306.59" cy="376.55" r="1.775"/>
     <circle cx="305.62" cy="370.46" r="1.775"/>
     <circle cx="308.05" cy="388.29" r="1.775"/>
     <circle cx="313.11" cy="383.57" r="1.775"/>
     <circle cx="304.37" cy="363.51" r="1.775"/>
     <circle cx="308.54" cy="364.55" r="1.775"/>
     <circle cx="306.54" cy="365.03" r="1.775"/>
     <circle cx="307.27" cy="368.79" r="1.775"/>
     <circle cx="304.59" cy="381.01" r="1.775"/>
     <circle cx="308.57" cy="371.22" r="1.775"/>
     <circle cx="309.73" cy="381.71" r="1.775"/>
     <circle cx="306.82" cy="364" r="1.775"/>
     <circle cx="308.48" cy="364.54" r="1.775"/>
     <circle cx="306.72" cy="378.13" r="1.775"/>
     <circle cx="307.95" cy="359.83" r="1.775"/>
     <circle cx="304.87" cy="365.65" r="1.775"/>
     <circle cx="311.25" cy="362.34" r="1.775"/>
     <circle cx="305.48" cy="365.72" r="1.775"/>
     <circle cx="309.22" cy="382.15" r="1.775"/>
     <circle cx="304.88" cy="386.47" r="1.775"/>
     <circle cx="305.38" cy="388.69" r="1.775"/>
     <circle cx="308.67" cy="378.7" r="1.775"/>
     <circle cx="304.58" cy="366.88" r="1.775"/>
     <circle cx="305.5" cy="375.14" r="1.775"/>
     <circle cx="307.3" cy="360.76" r="1.775"/>
     <circle cx="308.99" cy="368.14" r="1.775"/>
     <circle cx="304.74" cy="370.62" r="1.775"/>
     <circle cx="309.91" cy="384.92" r="1.775"/>
     <circle cx="304.95" cy="370.94" r="1.775"/>
     <circle cx="305.03" cy="366.61" r="1.775"/>
     <circle cx="304.49" cy="368.99" r="1.775"/>
     <circle cx="306.76" cy="362.38" r="1.775"/>
     <circle cx="306.98" cy="378.01" r="1.775"/>
     <circle cx="306.26" cy="379.37" r="1.775"/>
     <circle cx="307.49" cy="372.87" r="1.775"/>
     <circle cx="307.5" cy="371.33" r="1.775"/>
    </g>
    <g fill="#9e9ac8" fill-opacity=".75">
     <circle cx="308.98" cy="388.07" r="1.775"/>
     <circle cx="311.22" cy="360.57" r="1.775"/>
     <circle cx="308.52" cy="364.19" r="1.775"/>
     <circle cx="311.15" cy="372.95" r="1.775"/>
     <circle cx="308.57" cy="382.79" r="1.775"/>
     <circle cx="311.26" cy="374.11" r="1.775"/>
     <circle cx="308.74" cy="387.42" r="1.775"/>
     <circle cx="311.34" cy="369.67" r="1.775"/>
     <circle cx="308.76" cy="383.63" r="1.775"/>
     <circle cx="311.48" cy="388.19" r="1.775"/>
     <circle cx="308.86" cy="382.11" r="1.775"/>
     <circle cx="310.79" cy="364.08" r="1.775"/>
     <circle cx="307.48" cy="380.69" r="1.775"/>
     <circle cx="310.68" cy="365.88" r="1.775"/>
     <circle cx="307.46" cy="380.22" r="1.775"/>
     <circle cx="310.92" cy="360.05" r="1.775"/>
     <circle cx="307.48" cy="384.77" r="1.775"/>
     <circle cx="310.77" cy="372.63" r="1.775"/>
     <circle cx="307.7" cy="377.88" r="1.775"/>
     <circle cx="310.76" cy="388.24" r="1.775"/>
     <circle cx="307.46" cy="385.74" r="1.775"/>
     <circle cx="310.58" cy="374.3" r="1.775"/>
     <circle cx="307.76" cy="373.52" r="1.775"/>
     <circle cx="310.57" cy="360.11" r="1.775"/>
     <circle cx="307.71" cy="369.48" r="1.775"/>
     <circle cx="311.02" cy="383.36" r="1.775"/>
     <circle cx="308.93" cy="371.8" r="1.775"/>
     <circle cx="311.96" cy="362.55" r="1.775"/>
     <circle cx="311.19" cy="387.03" r="1.775"/>
     <circle cx="312.12" cy="381.25" r="1.775"/>
     <circle cx="311.12" cy="381.31" r="1.775"/>
     <circle cx="312.04" cy="369.99" r="1.775"/>
     <circle cx="311.22" cy="369.44" r="1.775"/>
     <circle cx="311.98" cy="383.96" r="1.775"/>
     <circle cx="311.12" cy="388.14" r="1.775"/>
     <circle cx="311.94" cy="367.5" r="1.775"/>
     <circle cx="311.06" cy="373.19" r="1.775"/>
     <circle cx="312.2" cy="374.76" r="1.775"/>
     <circle cx="311.29" cy="386.62" r="1.775"/>
     <circle cx="312.59" cy="371.97" r="1.775"/>
    </g>
    <g fill="#fd8dc3" fill-opacity=".75">
     <circle cx="476.24" cy="386.71" r="1.775"/>
     <circle cx="476.88" cy="384.86" r="1.775"/>
     <circle cx="476.35" cy="361.48" r="1.775"/>
     <circle cx="476.8" cy="362.53" r="1.775"/>
     <circle cx="476.19" cy="378.28" r="1.775"/>
     <circle cx="477.38" cy="366.22" r="1.775"/>
     <circle cx="476.14" cy="374.22" r="1.775"/>
     <circle cx="476.63" cy="383.61" r="1.775"/>
     <circle cx="476.19" cy="365.83" r="1.775"/>
     <circle cx="476.72" cy="382.67" r="1.775"/>
     <circle cx="475.97" cy="381.42" r="1.775"/>
     <circle cx="476.64" cy="360.5" r="1.775"/>
     <circle cx="476.12" cy="372.76" r="1.775"/>
     <circle cx="476.83" cy="377.31" r="1.775"/>
     <circle cx="476.25" cy="373.06" r="1.775"/>
     <circle cx="476.61" cy="360.04" r="1.775"/>
     <circle cx="476.55" cy="380.84" r="1.775"/>
     <circle cx="477.01" cy="360.33" r="1.775"/>
     <circle cx="476.22" cy="366.99" r="1.775"/>
     <circle cx="477.08" cy="369.95" r="1.775"/>
     <circle cx="476.19" cy="369.85" r="1.775"/>
     <circle cx="477.11" cy="375.59" r="1.775"/>
     <circle cx="476.02" cy="368.65" r="1.775"/>
     <circle cx="476.76" cy="370.05" r="1.775"/>
     <circle cx="476.05" cy="375.27" r="1.775"/>
     <circle cx="476.99" cy="364.98" r="1.775"/>
     <circle cx="476.28" cy="371.33" r="1.775"/>
     <circle cx="475.13" cy="376.79" r="1.775"/>
     <circle cx="475.09" cy="361.01" r="1.775"/>
     <circle cx="476.54" cy="376.37" r="1.775"/>
     <circle cx="475.02" cy="363.54" r="1.775"/>
     <circle cx="476.66" cy="363.43" r="1.775"/>
     <circle cx="474.85" cy="368.9" r="1.775"/>
     <circle cx="476.57" cy="385.81" r="1.775"/>
     <circle cx="475.25" cy="366.4" r="1.775"/>
     <circle cx="476.14" cy="383.16" r="1.775"/>
     <circle cx="474.98" cy="364.61" r="1.775"/>
     <circle cx="476.86" cy="386.2" r="1.775"/>
     <circle cx="475.38" cy="372.48" r="1.775"/>
     <circle cx="475.72" cy="381.19" r="1.775"/>
    </g>
   </g>
   <g transform="translate(0 -35.99)">
    <g fill="#4a1486" fill-opacity=".75">
     <circle cx="169.65" cy="224.62" r="1.775"/>
     <circle cx="167.95" cy="222.56" r="1.775"/>
     <circle cx="169.48" cy="205.28" r="1.775"/>
     <circle cx="170.72" cy="225.26" r="1.775"/>
     <circle cx="170.18" cy="223.22" r="1.775"/>
     <circle cx="170.53" cy="222.14" r="1.775"/>
     <circle cx="169.99" cy="213.65" r="1.775"/>
     <circle cx="168.48" cy="214.68" r="1.775"/>
     <circle cx="168.32" cy="201.42" r="1.775"/>
     <circle cx="169.71" cy="214.44" r="1.775"/>
     <circle cx="169.62" cy="203.48" r="1.775"/>
     <circle cx="170.31" cy="208.6" r="1.775"/>
     <circle cx="170.09" cy="216.39" r="1.775"/>
     <circle cx="169.05" cy="202.81" r="1.775"/>
     <circle cx="168.92" cy="225.36" r="1.775"/>
     <circle cx="168.98" cy="209.29" r="1.775"/>
     <circle cx="168.82" cy="206.34" r="1.775"/>
     <circle cx="171.24" cy="206.82" r="1.775"/>
     <circle cx="169.88" cy="222.96" r="1.775"/>
     <circle cx="169.44" cy="211.82" r="1.775"/>
     <circle cx="169.41" cy="213.94" r="1.775"/>
     <circle cx="170.24" cy="227.24" r="1.775"/>
     <circle cx="169.78" cy="215.78" r="1.775"/>
     <circle cx="170.91" cy="203.88" r="1.775"/>
     <circle cx="170.59" cy="220.55" r="1.775"/>
     <circle cx="168.84" cy="222.84" r="1.775"/>
     <circle cx="169.82" cy="203.7" r="1.775"/>
     <circle cx="170.07" cy="221.12" r="1.775"/>
     <circle cx="169.27" cy="209.9" r="1.775"/>
     <circle cx="170.69" cy="207.33" r="1.775"/>
     <circle cx="169.98" cy="220.28" r="1.775"/>
     <circle cx="168.65" cy="220.27" r="1.775"/>
     <circle cx="168.78" cy="213.41" r="1.775"/>
     <circle cx="170.42" cy="229.49" r="1.775"/>
     <circle cx="169.99" cy="220.85" r="1.775"/>
     <circle cx="170.87" cy="224.85" r="1.775"/>
     <circle cx="169.41" cy="215.5" r="1.775"/>
     <circle cx="168.91" cy="225.12" r="1.775"/>
     <circle cx="168.69" cy="206.35" r="1.775"/>
     <circle cx="169.77" cy="224.13" r="1.775"/>
    </g>
    <g fill="#8c2d04" fill-opacity=".75">
     <circle cx="205.39" cy="205.94" r="1.775"/>
     <circle cx="205.96" cy="223.61" r="1.775"/>
     <circle cx="205.57" cy="216.8" r="1.775"/>
     <circle cx="204.97" cy="221.3" r="1.775"/>
     <circle cx="204.65" cy="213.77" r="1.775"/>
     <circle cx="204.38" cy="205.57" r="1.775"/>
     <circle cx="205.46" cy="210.15" r="1.775"/>
     <circle cx="203.91" cy="216.33" r="1.775"/>
     <circle cx="205.21" cy="220.25" r="1.775"/>
     <circle cx="204.29" cy="227.91" r="1.775"/>
     <circle cx="205.41" cy="217.63" r="1.775"/>
     <circle cx="203.44" cy="216.16" r="1.775"/>
     <circle cx="205.74" cy="217.45" r="1.775"/>
     <circle cx="203.84" cy="207.23" r="1.775"/>
     <circle cx="205.01" cy="228.59" r="1.775"/>
     <circle cx="203.85" cy="202.99" r="1.775"/>
     <circle cx="204.6" cy="221.54" r="1.775"/>
     <circle cx="204.4" cy="213.18" r="1.775"/>
     <circle cx="204.09" cy="214.74" r="1.775"/>
     <circle cx="205.23" cy="210.05" r="1.775"/>
     <circle cx="204.09" cy="207.79" r="1.775"/>
     <circle cx="205.11" cy="223" r="1.775"/>
     <circle cx="204.04" cy="201.53" r="1.775"/>
     <circle cx="205.27" cy="225.04" r="1.775"/>
     <circle cx="203.94" cy="228.23" r="1.775"/>
     <circle cx="205.53" cy="210.58" r="1.775"/>
     <circle cx="203.32" cy="218.82" r="1.775"/>
     <circle cx="205.54" cy="224.75" r="1.775"/>
     <circle cx="204.17" cy="211.78" r="1.775"/>
     <circle cx="204.45" cy="208.28" r="1.775"/>
     <circle cx="204.52" cy="207.34" r="1.775"/>
     <circle cx="204.16" cy="227.7" r="1.775"/>
     <circle cx="205.43" cy="223.68" r="1.775"/>
     <circle cx="204.52" cy="224.23" r="1.775"/>
     <circle cx="205.65" cy="213.37" r="1.775"/>
     <circle cx="204.67" cy="201.02" r="1.775"/>
     <circle cx="205.76" cy="224.87" r="1.775"/>
     <circle cx="204.05" cy="216.87" r="1.775"/>
     <circle cx="205.37" cy="225.04" r="1.775"/>
     <circle cx="204.09" cy="223.59" r="1.775"/>
    </g>
    <g fill="#6a51a3" fill-opacity=".75">
     <circle cx="178.31" cy="215.49" r="1.775"/>
     <circle cx="181.32" cy="214.71" r="1.775"/>
     <circle cx="174.84" cy="219.17" r="1.775"/>
     <circle cx="175.5" cy="209.13" r="1.775"/>
     <circle cx="176.48" cy="208.09" r="1.775"/>
     <circle cx="175.91" cy="210.07" r="1.775"/>
     <circle cx="175.14" cy="223.06" r="1.775"/>
     <circle cx="177.8" cy="206.01" r="1.775"/>
     <circle cx="175.33" cy="229.29" r="1.775"/>
     <circle cx="176.13" cy="211.99" r="1.775"/>
     <circle cx="176.61" cy="219.36" r="1.775"/>
     <circle cx="176.08" cy="225.91" r="1.775"/>
     <circle cx="175.99" cy="214.7" r="1.775"/>
     <circle cx="176.54" cy="201.92" r="1.775"/>
     <circle cx="176.93" cy="209.95" r="1.775"/>
     <circle cx="176.13" cy="229.02" r="1.775"/>
     <circle cx="176.55" cy="213.67" r="1.775"/>
     <circle cx="176.92" cy="227.15" r="1.775"/>
     <circle cx="176.35" cy="226.42" r="1.775"/>
     <circle cx="176.47" cy="224.69" r="1.775"/>
     <circle cx="176.11" cy="221.63" r="1.775"/>
     <circle cx="176.36" cy="213.34" r="1.775"/>
     <circle cx="176.03" cy="225.59" r="1.775"/>
     <circle cx="176.11" cy="228.18" r="1.775"/>
     <circle cx="176.42" cy="222.9" r="1.775"/>
     <circle cx="176.56" cy="205.35" r="1.775"/>
     <circle cx="176.02" cy="203.52" r="1.775"/>
     <circle cx="176.15" cy="218.58" r="1.775"/>
     <circle cx="176.43" cy="201.46" r="1.775"/>
     <circle cx="176.27" cy="226.57" r="1.775"/>
     <circle cx="175.93" cy="226.8" r="1.775"/>
     <circle cx="176.21" cy="204.48" r="1.775"/>
     <circle cx="195.4" cy="219.64" r="1.775"/>
     <circle cx="176.91" cy="209.32" r="1.775"/>
     <circle cx="175.76" cy="200.9" r="1.775"/>
     <circle cx="176.36" cy="216.5" r="1.775"/>
     <circle cx="175.83" cy="207.36" r="1.775"/>
     <circle cx="175.97" cy="206.45" r="1.775"/>
     <circle cx="175.96" cy="206.25" r="1.775"/>
     <circle cx="176.22" cy="224.53" r="1.775"/>
    </g>
    <g fill="#d94801" fill-opacity=".75">
     <circle cx="212.27" cy="223.88" r="1.775"/>
     <circle cx="211.58" cy="222.27" r="1.775"/>
     <circle cx="211.44" cy="212.07" r="1.775"/>
     <circle cx="211.33" cy="214.21" r="1.775"/>
     <circle cx="211.55" cy="205.25" r="1.775"/>
     <circle cx="210.88" cy="206.56" r="1.775"/>
     <circle cx="211.46" cy="209.65" r="1.775"/>
     <circle cx="211.63" cy="209.67" r="1.775"/>
     <circle cx="211.72" cy="212.69" r="1.775"/>
     <circle cx="211.79" cy="217.05" r="1.775"/>
     <circle cx="211.28" cy="204.83" r="1.775"/>
     <circle cx="212.13" cy="213.79" r="1.775"/>
     <circle cx="211.34" cy="216.1" r="1.775"/>
     <circle cx="211.17" cy="209.54" r="1.775"/>
     <circle cx="211.12" cy="223.64" r="1.775"/>
     <circle cx="210.88" cy="215.32" r="1.775"/>
     <circle cx="211.17" cy="213.26" r="1.775"/>
     <circle cx="211.31" cy="212.75" r="1.775"/>
     <circle cx="211.22" cy="217.06" r="1.775"/>
     <circle cx="211.16" cy="220.92" r="1.775"/>
     <circle cx="210.33" cy="213.5" r="1.775"/>
     <circle cx="211.06" cy="223.16" r="1.775"/>
     <circle cx="211.35" cy="226.9" r="1.775"/>
     <circle cx="211.25" cy="201.57" r="1.775"/>
     <circle cx="211.86" cy="214.52" r="1.775"/>
     <circle cx="211.22" cy="213.14" r="1.775"/>
     <circle cx="211.63" cy="226.15" r="1.775"/>
     <circle cx="211.44" cy="210.86" r="1.775"/>
     <circle cx="211.57" cy="202.38" r="1.775"/>
     <circle cx="211.58" cy="210.63" r="1.775"/>
     <circle cx="211.46" cy="203.8" r="1.775"/>
     <circle cx="211.03" cy="227.11" r="1.775"/>
     <circle cx="211.44" cy="205.95" r="1.775"/>
     <circle cx="211.15" cy="203.37" r="1.775"/>
     <circle cx="211.44" cy="221.54" r="1.775"/>
     <circle cx="211.31" cy="221.93" r="1.775"/>
     <circle cx="211.27" cy="218.55" r="1.775"/>
     <circle cx="211.32" cy="222.77" r="1.775"/>
     <circle cx="211.4" cy="209.08" r="1.775"/>
     <circle cx="211.49" cy="222.02" r="1.775"/>
    </g>
    <g fill="#807dba" fill-opacity=".75">
     <circle cx="192.11" cy="220.06" r="1.775"/>
     <circle cx="190.96" cy="211.23" r="1.775"/>
     <circle cx="191.04" cy="219.21" r="1.775"/>
     <circle cx="190.89" cy="208.22" r="1.775"/>
     <circle cx="190.92" cy="225.4" r="1.775"/>
     <circle cx="191.02" cy="223.96" r="1.775"/>
     <circle cx="190.96" cy="224.23" r="1.775"/>
     <circle cx="191.19" cy="223.69" r="1.775"/>
     <circle cx="191.2" cy="225.44" r="1.775"/>
     <circle cx="192.68" cy="212.08" r="1.775"/>
     <circle cx="190.86" cy="213.09" r="1.775"/>
     <circle cx="191.03" cy="214.76" r="1.775"/>
     <circle cx="191.41" cy="219.81" r="1.775"/>
     <circle cx="190.97" cy="206.98" r="1.775"/>
     <circle cx="190.75" cy="220.94" r="1.775"/>
     <circle cx="189.78" cy="226.67" r="1.775"/>
     <circle cx="190.78" cy="211.64" r="1.775"/>
     <circle cx="190.93" cy="225.99" r="1.775"/>
     <circle cx="192.76" cy="204.12" r="1.775"/>
     <circle cx="190.69" cy="211.97" r="1.775"/>
     <circle cx="190.86" cy="227.45" r="1.775"/>
     <circle cx="191.28" cy="218.65" r="1.775"/>
     <circle cx="191.08" cy="208.76" r="1.775"/>
     <circle cx="191.01" cy="201.73" r="1.775"/>
     <circle cx="191.14" cy="202.29" r="1.775"/>
     <circle cx="190.91" cy="200.84" r="1.775"/>
     <circle cx="190.97" cy="213.91" r="1.775"/>
     <circle cx="193.12" cy="222.96" r="1.775"/>
     <circle cx="190.7" cy="221.13" r="1.775"/>
     <circle cx="191" cy="226.77" r="1.775"/>
     <circle cx="190.93" cy="201.07" r="1.775"/>
     <circle cx="192.49" cy="207.81" r="1.775"/>
     <circle cx="191.42" cy="229.16" r="1.775"/>
     <circle cx="190.86" cy="205.27" r="1.775"/>
     <circle cx="191.09" cy="201.34" r="1.775"/>
     <circle cx="190.94" cy="212.5" r="1.775"/>
     <circle cx="193.85" cy="219.55" r="1.775"/>
     <circle cx="190.86" cy="202.11" r="1.775"/>
     <circle cx="190.96" cy="226.12" r="1.775"/>
     <circle cx="190.83" cy="219.47" r="1.775"/>
    </g>
    <g fill="#f16913" fill-opacity=".75">
     <circle cx="306.38" cy="215.17" r="1.775"/>
     <circle cx="305.2" cy="221.97" r="1.775"/>
     <circle cx="306.73" cy="215.3" r="1.775"/>
     <circle cx="306.01" cy="216.03" r="1.775"/>
     <circle cx="304.59" cy="207.54" r="1.775"/>
     <circle cx="308.62" cy="203.37" r="1.775"/>
     <circle cx="307.51" cy="223.12" r="1.775"/>
     <circle cx="309.38" cy="200.86" r="1.775"/>
     <circle cx="305.32" cy="205.83" r="1.775"/>
     <circle cx="306.97" cy="229.28" r="1.775"/>
     <circle cx="305.21" cy="210.5" r="1.775"/>
     <circle cx="307.81" cy="218.7" r="1.775"/>
     <circle cx="310.26" cy="221.91" r="1.775"/>
     <circle cx="305.59" cy="205.39" r="1.775"/>
     <circle cx="309.09" cy="219.81" r="1.775"/>
     <circle cx="311.74" cy="222.15" r="1.775"/>
     <circle cx="308.07" cy="207.85" r="1.775"/>
     <circle cx="304.71" cy="212.04" r="1.775"/>
     <circle cx="309.75" cy="225.81" r="1.775"/>
     <circle cx="307.45" cy="211.7" r="1.775"/>
     <circle cx="304.19" cy="225.17" r="1.775"/>
     <circle cx="305.24" cy="228.49" r="1.775"/>
     <circle cx="304.32" cy="224.92" r="1.775"/>
     <circle cx="306.85" cy="202" r="1.775"/>
     <circle cx="306.73" cy="200.85" r="1.775"/>
     <circle cx="309.94" cy="214.8" r="1.775"/>
     <circle cx="304.85" cy="203.34" r="1.775"/>
     <circle cx="310.86" cy="209.81" r="1.775"/>
     <circle cx="307.35" cy="214.41" r="1.775"/>
     <circle cx="307.59" cy="213.7" r="1.775"/>
     <circle cx="305.02" cy="212.98" r="1.775"/>
     <circle cx="304.75" cy="220.05" r="1.775"/>
     <circle cx="306.29" cy="224.76" r="1.775"/>
     <circle cx="323.38" cy="202.97" r="1.775"/>
     <circle cx="323.82" cy="215.37" r="1.775"/>
     <circle cx="323.17" cy="227.31" r="1.775"/>
     <circle cx="323.95" cy="218.54" r="1.775"/>
     <circle cx="323.46" cy="211.23" r="1.775"/>
     <circle cx="324.1" cy="223.26" r="1.775"/>
     <circle cx="322.79" cy="216.8" r="1.775"/>
    </g>
    <g fill="#9e9ac8" fill-opacity=".75">
     <circle cx="308.77" cy="214.59" r="1.775"/>
     <circle cx="309.14" cy="224.68" r="1.775"/>
     <circle cx="307.69" cy="204.33" r="1.775"/>
     <circle cx="307.88" cy="219.09" r="1.775"/>
     <circle cx="307.65" cy="227.44" r="1.775"/>
     <circle cx="308.12" cy="207.93" r="1.775"/>
     <circle cx="307.85" cy="201.22" r="1.775"/>
     <circle cx="307.88" cy="225.91" r="1.775"/>
     <circle cx="307.42" cy="215.92" r="1.775"/>
     <circle cx="307.91" cy="222.87" r="1.775"/>
     <circle cx="307.8" cy="219.11" r="1.775"/>
     <circle cx="307.92" cy="221.26" r="1.775"/>
     <circle cx="307.49" cy="227.7" r="1.775"/>
     <circle cx="308.06" cy="224.01" r="1.775"/>
     <circle cx="307.72" cy="227.46" r="1.775"/>
     <circle cx="307.97" cy="215.11" r="1.775"/>
     <circle cx="307.46" cy="224.24" r="1.775"/>
     <circle cx="307.65" cy="219.94" r="1.775"/>
     <circle cx="307.65" cy="216.15" r="1.775"/>
     <circle cx="307.87" cy="218.32" r="1.775"/>
     <circle cx="307.51" cy="228.39" r="1.775"/>
     <circle cx="307.78" cy="206.82" r="1.775"/>
     <circle cx="307.39" cy="205.78" r="1.775"/>
     <circle cx="307.92" cy="220.35" r="1.775"/>
     <circle cx="307.52" cy="224.58" r="1.775"/>
     <circle cx="307.87" cy="202.4" r="1.775"/>
     <circle cx="307.39" cy="215.79" r="1.775"/>
     <circle cx="307.93" cy="203.03" r="1.775"/>
     <circle cx="307.47" cy="225.44" r="1.775"/>
     <circle cx="308.83" cy="220.24" r="1.775"/>
     <circle cx="309.03" cy="229.13" r="1.775"/>
     <circle cx="308.7" cy="213.34" r="1.775"/>
     <circle cx="308.97" cy="224.2" r="1.775"/>
     <circle cx="308.93" cy="218.67" r="1.775"/>
     <circle cx="308.95" cy="218.49" r="1.775"/>
     <circle cx="308.81" cy="225.51" r="1.775"/>
     <circle cx="309.02" cy="213.99" r="1.775"/>
     <circle cx="309.53" cy="221.53" r="1.775"/>
     <circle cx="310.81" cy="221.46" r="1.775"/>
     <circle cx="308.31" cy="205.09" r="1.775"/>
    </g>
    <g fill="#fd8dc3" fill-opacity=".75">
     <circle cx="475.54" cy="202.73" r="1.775"/>
     <circle cx="476.09" cy="228.35" r="1.775"/>
     <circle cx="475.12" cy="210.92" r="1.775"/>
     <circle cx="475.88" cy="215.06" r="1.775"/>
     <circle cx="475.43" cy="229.43" r="1.775"/>
     <circle cx="476.77" cy="207.02" r="1.775"/>
     <circle cx="475.31" cy="217.17" r="1.775"/>
     <circle cx="476.9" cy="207.91" r="1.775"/>
     <circle cx="475.34" cy="218.11" r="1.775"/>
     <circle cx="477.17" cy="201.61" r="1.775"/>
     <circle cx="475.4" cy="206.04" r="1.775"/>
     <circle cx="477.67" cy="207.34" r="1.775"/>
     <circle cx="475.93" cy="215.13" r="1.775"/>
     <circle cx="478.16" cy="210.9" r="1.775"/>
     <circle cx="475.55" cy="228.93" r="1.775"/>
     <circle cx="478.49" cy="203.46" r="1.775"/>
     <circle cx="474.99" cy="228.28" r="1.775"/>
     <circle cx="477.79" cy="211.36" r="1.775"/>
     <circle cx="475.18" cy="203.15" r="1.775"/>
     <circle cx="477.93" cy="221.76" r="1.775"/>
     <circle cx="474.65" cy="218.39" r="1.775"/>
     <circle cx="477.81" cy="203.85" r="1.775"/>
     <circle cx="475.04" cy="205.14" r="1.775"/>
     <circle cx="477.93" cy="214.56" r="1.775"/>
     <circle cx="475.36" cy="214.4" r="1.775"/>
     <circle cx="477.93" cy="219.77" r="1.775"/>
     <circle cx="475.04" cy="201.44" r="1.775"/>
     <circle cx="477.98" cy="226.93" r="1.775"/>
     <circle cx="474.87" cy="215.42" r="1.775"/>
     <circle cx="478" cy="219.46" r="1.775"/>
     <circle cx="475.03" cy="208.42" r="1.775"/>
     <circle cx="477.8" cy="207.37" r="1.775"/>
     <circle cx="475.06" cy="226.11" r="1.775"/>
     <circle cx="478.5" cy="225.86" r="1.775"/>
     <circle cx="475.12" cy="207.55" r="1.775"/>
     <circle cx="477.84" cy="209.24" r="1.775"/>
     <circle cx="474.89" cy="223.36" r="1.775"/>
     <circle cx="477.93" cy="214.33" r="1.775"/>
     <circle cx="475.03" cy="209.31" r="1.775"/>
     <circle cx="478.05" cy="214.69" r="1.775"/>
    </g>
   </g>
  </g>
 </g>
</svg>
