<?xml version="1.0" encoding="UTF-8"?>
<svg id="svg2277" width="576pt" height="432pt" version="1.1" viewBox="0 0 576 432" xmlns="http://www.w3.org/2000/svg">
 <defs><style type="text/css"><![CDATA[
  @import url('rjs/fonts/fontfaces.css');
]]></style></defs>
 <g id="layer4">
  <path id="path163" d="m563.96 34.074a0.355 0.355 0 0 0-0.35449 0.35596v4.6758h-4.6758a0.355 0.355 0 0 0-0.35596 0.35596 0.355 0.355 0 0 0 4e-3 0.01904 0.355 0.355 0 0 0-4e-3 0.01904 0.355 0.355 0 0 0 4e-3 0.02051 0.355 0.355 0 0 0-4e-3 0.01904 0.355 0.355 0 0 0 3e-3 0.01465 0.355 0.355 0 0 0-3e-3 0.01611 0.355 0.355 0 0 0 1e-3 0.0059 0.355 0.355 0 0 0-1e-3 0.0044 0.355 0.355 0 0 0 1e-3 0.01025 0.355 0.355 0 0 0-1e-3 0.0088 0.355 0.355 0 0 0 1e-3 0.01025 0.355 0.355 0 0 0-1e-3 0.01025 0.355 0.355 0 0 0 1e-3 0.0073 0.355 0.355 0 0 0-1e-3 0.0044 0.355 0.355 0 0 0 1e-3 0.0029 0.355 0.355 0 0 0-1e-3 0.0059 0.355 0.355 0 0 0 3e-3 0.01758 0.355 0.355 0 0 0-3e-3 0.01172 0.355 0.355 0 0 0 1e-3 0.0044 0.355 0.355 0 0 0 0 0.0015 0.355 0.355 0 0 0-1e-3 0.0044 0.355 0.355 0 0 0 1e-3 0.0044 0.355 0.355 0 0 0 0 0.0015 0.355 0.355 0 0 0-1e-3 0.0044 0.355 0.355 0 0 0 4e-3 0.02197 0.355 0.355 0 0 0-4e-3 0.01904 0.355 0.355 0 0 0 1e-3 0.0044 0.355 0.355 0 0 0-1e-3 0.0044 0.355 0.355 0 0 0 4e-3 0.0249 0.355 0.355 0 0 0-4e-3 0.0249 0.355 0.355 0 0 0 1e-3 0.0073 0.355 0.355 0 0 0-1e-3 0.0044 0.355 0.355 0 0 0 1e-3 0.0029 0.355 0.355 0 0 0-1e-3 0.0059 0.355 0.355 0 0 0 1e-3 0.0059 0.355 0.355 0 0 0-1e-3 0.0044 0.355 0.355 0 0 0 1e-3 0.0044 0.355 0.355 0 0 0-1e-3 0.0059 0.355 0.355 0 0 0 1e-3 0.0044 0.355 0.355 0 0 0-1e-3 0.0044 0.355 0.355 0 0 0 1e-3 0.0044 0.355 0.355 0 0 0 0 0.0015 0.355 0.355 0 0 0-1e-3 0.0044 0.355 0.355 0 0 0 4e-3 0.02051 0.355 0.355 0 0 0 0 0.0015 0.355 0.355 0 0 0-4e-3 0.01904 0.355 0.355 0 0 0 1e-3 0.0088 0.355 0.355 0 0 0-1e-3 0.01025 0.355 0.355 0 0 0 1e-3 0.01025 0.355 0.355 0 0 0-1e-3 0.01025 0.355 0.355 0 0 0 1e-3 0.0044 0.355 0.355 0 0 0-1e-3 0.0044 0.355 0.355 0 0 0 4e-3 0.0249 0.355 0.355 0 0 0-4e-3 0.02637 0.355 0.355 0 0 0 1e-3 0.01025 0.355 0.355 0 0 0-1e-3 0.0088 0.355 0.355 0 0 0 6e-3 0.03076 0.355 0.355 0 0 0-6e-3 0.03076 0.355 0.355 0 0 0 0.35596 0.35449h4.6758v4.6743a0.355 0.355 0 0 0 0.35449 0.35596 0.355 0.355 0 0 0 0.35449-0.35596v-4.6743h4.6655a0.355 0.355 0 0 0 0.35596-0.35449 0.355 0.355 0 0 0-3e-3 -0.03223 0.355 0.355 0 0 0 3e-3 -0.0293 0.355 0.355 0 0 0 0-0.0088 0.355 0.355 0 0 0 0-0.01025 0.355 0.355 0 0 0-1e-3 -0.02637 0.355 0.355 0 0 0 1e-3 -0.0249 0.355 0.355 0 0 0 0-0.0029 0.355 0.355 0 0 0 0-0.0059 0.355 0.355 0 0 0-1e-3 -0.01025 0.355 0.355 0 0 0 1e-3 -0.01025 0.355 0.355 0 0 0-1e-3 -0.01318 0.355 0.355 0 0 0 1e-3 -0.0059 0.355 0.355 0 0 0-1e-3 -0.02051 0.355 0.355 0 0 0 1e-3 -0.02051 0.355 0.355 0 0 0 0-0.0029 0.355 0.355 0 0 0 0-0.0073 0.355 0.355 0 0 0 0-0.0059 0.355 0.355 0 0 0 0-0.0029 0.355 0.355 0 0 0 0-0.0044 0.355 0.355 0 0 0 0-0.0059 0.355 0.355 0 0 0 0-0.0088 0.355 0.355 0 0 0 0-0.0015 0.355 0.355 0 0 0 0-0.0073 0.355 0.355 0 0 0 0-0.0015 0.355 0.355 0 0 0 0-0.0073 0.355 0.355 0 0 0 0-0.0044 0.355 0.355 0 0 0-1e-3 -0.0059 0.355 0.355 0 0 0-1e-3 -0.01025 0.355 0.355 0 0 0 0-0.0015 0.355 0.355 0 0 0 3e-3 -0.03223 0.355 0.355 0 0 0 0-0.0088 0.355 0.355 0 0 0-1e-3 -0.01611 0.355 0.355 0 0 0 0-0.0015 0.355 0.355 0 0 0 1e-3 -0.02344 0.355 0.355 0 0 0 0-0.0029 0.355 0.355 0 0 0 0-0.0073 0.355 0.355 0 0 0 0-0.0044 0.355 0.355 0 0 0 0-0.0059 0.355 0.355 0 0 0-1e-3 -0.02344 0.355 0.355 0 0 0 1e-3 -0.0059 0.355 0.355 0 0 0-1e-3 -0.0059 0.355 0.355 0 0 0 0-0.0015 0.355 0.355 0 0 0 1e-3 -0.0015 0.355 0.355 0 0 0 0-0.0073 0.355 0.355 0 0 0 0-0.0044 0.355 0.355 0 0 0-1e-3 -0.0073 0.355 0.355 0 0 0 1e-3 -0.01318 0.355 0.355 0 0 0-1e-3 -0.0088 0.355 0.355 0 0 0 1e-3 -0.01025 0.355 0.355 0 0 0 0-0.0059 0.355 0.355 0 0 0 0-0.0044 0.355 0.355 0 0 0-1e-3 -0.01758 0.355 0.355 0 0 0 1e-3 -0.01318 0.355 0.355 0 0 0-3e-3 -0.01172 0.355 0.355 0 0 0 3e-3 -0.02783 0.355 0.355 0 0 0-1e-3 -0.02783 0.355 0.355 0 0 0 1e-3 -0.01025 0.355 0.355 0 0 0-0.35596-0.35596h-4.6655v-4.6758a0.355 0.355 0 0 0-0.35449-0.35596zm-72.441 59.59a0.355 0.355 0 0 0-0.35596 0.35596v4.6758h-4.6728a0.355 0.355 0 0 0-0.35595 0.35596 0.355 0.355 0 0 0 0.0205 0.10107 0.355 0.355 0 0 0-0.0205 0.10693 0.355 0.355 0 0 0 1e-3 0.0044 0.355 0.355 0 0 0-1e-3 0.0059 0.355 0.355 0 0 0 1e-3 0.0059 0.355 0.355 0 0 0-1e-3 0.0044 0.355 0.355 0 0 0 1e-3 0.0044 0.355 0.355 0 0 0-1e-3 0.0044 0.355 0.355 0 0 0 1e-3 0.0059 0.355 0.355 0 0 0 0 0.0015 0.355 0.355 0 0 0-1e-3 0.0044 0.355 0.355 0 0 0 1e-3 0.0044 0.355 0.355 0 0 0 0 0.0015 0.355 0.355 0 0 0-1e-3 0.0044 0.355 0.355 0 0 0 1e-3 0.0044 0.355 0.355 0 0 0 0 0.0015 0.355 0.355 0 0 0-1e-3 0.0044 0.355 0.355 0 0 0 1e-3 0.0059 0.355 0.355 0 0 0-1e-3 0.0029 0.355 0.355 0 0 0 1e-3 0.0059 0.355 0.355 0 0 0-1e-3 0.0044 0.355 0.355 0 0 0 1e-3 0.0044 0.355 0.355 0 0 0 0 0.0015 0.355 0.355 0 0 0-1e-3 0.0044 0.355 0.355 0 0 0 1e-3 0.0059 0.355 0.355 0 0 0-1e-3 0.0029 0.355 0.355 0 0 0 1e-3 0.0044 0.355 0.355 0 0 0-1e-3 0.0059 0.355 0.355 0 0 0 1e-3 0.0059 0.355 0.355 0 0 0 0 0.0015 0.355 0.355 0 0 0-1e-3 0.0044 0.355 0.355 0 0 0 1e-3 0.0044 0.355 0.355 0 0 0-1e-3 0.0059 0.355 0.355 0 0 0 3e-3 0.01465 0.355 0.355 0 0 0-3e-3 0.01465 0.355 0.355 0 0 0 0.0557 0.18018 0.355 0.355 0 0 0-0.0557 0.17871 0.355 0.355 0 0 0 0.0102 0.04981 0.355 0.355 0 0 0-0.0102 0.05127 0.355 0.355 0 0 0 0.35595 0.35449h4.6728v4.6765a0.355 0.355 0 0 0 0.35596 0.3545 0.355 0.355 0 0 0 0.35596-0.3545v-4.6758h4.6758a0.355 0.355 0 0 0 0.35303-0.35449 0.355 0.355 0 0 0-4e-3 -0.05127 0.355 0.355 0 0 0 4e-3 -0.04981 0.355 0.355 0 0 0-0.0527-0.17285 0.355 0.355 0 0 0 0.0527-0.18604 0.355 0.355 0 0 0-1e-3 -0.0249 0.355 0.355 0 0 0 1e-3 -0.0044 0.355 0.355 0 0 0 0-0.0073 0.355 0.355 0 0 0 0-0.0029 0.355 0.355 0 0 0 0-0.0059 0.355 0.355 0 0 0 0-0.0059 0.355 0.355 0 0 0 0-0.0015 0.355 0.355 0 0 0 0-0.0088 0.355 0.355 0 0 0 0-0.0029 0.355 0.355 0 0 0 0-0.0059 0.355 0.355 0 0 0 0-0.0029 0.355 0.355 0 0 0 0-0.0073 0.355 0.355 0 0 0 0-0.0059 0.355 0.355 0 0 0 0-0.0044 0.355 0.355 0 0 0 0-0.0044 0.355 0.355 0 0 0 0-0.0044 0.355 0.355 0 0 0 0-0.0073 0.355 0.355 0 0 0 0-0.0029 0.355 0.355 0 0 0 0-0.0073 0.355 0.355 0 0 0 0-0.0029 0.355 0.355 0 0 0 0-0.0059 0.355 0.355 0 0 0 0-0.0059 0.355 0.355 0 0 0 0-0.0015 0.355 0.355 0 0 0 0-0.0073 0.355 0.355 0 0 0-1e-3 -0.0044 0.355 0.355 0 0 0 1e-3 -0.0059 0.355 0.355 0 0 0 0-0.0044 0.355 0.355 0 0 0 0-0.0059 0.355 0.355 0 0 0-0.019-0.11279 0.355 0.355 0 0 0 0.019-0.09521 0.355 0.355 0 0 0-0.35303-0.35596h-4.6758v-4.4458a0.355 0.355 0 0 0 0-0.0088v-0.22119a0.355 0.355 0 0 0-0.35596-0.35596zm-72.429 37.592a0.355 0.355 0 0 0-0.35595 0.35303v4.676h-4.6743a0.355 0.355 0 0 0-0.35449 0.35596 0.355 0.355 0 0 0 0.0102 0.0498 0.355 0.355 0 0 0-0.0102 0.0498 0.355 0.355 0 0 0 0.0146 0.0762 0.355 0.355 0 0 0-0.0146 0.0747 0.355 0.355 0 0 0 1e-3 4e-3 0.355 0.355 0 0 0-1e-3 4e-3 0.355 0.355 0 0 0 0.0161 0.085 0.355 0.355 0 0 0-0.0161 0.085 0.355 0.355 0 0 0 1e-3 6e-3 0.355 0.355 0 0 0-1e-3 4e-3 0.355 0.355 0 0 0 0.0117 0.0615 0.355 0.355 0 0 0-0.0117 0.0571 0.355 0.355 0 0 0 1e-3 6e-3 0.355 0.355 0 0 0-1e-3 6e-3 0.355 0.355 0 0 0 1e-3 0.0102 0.355 0.355 0 0 0-1e-3 0.0103 0.355 0.355 0 0 0 1e-3 4e-3 0.355 0.355 0 0 0-1e-3 4e-3 0.355 0.355 0 0 0 4e-3 0.0205 0.355 0.355 0 0 0-4e-3 0.019 0.355 0.355 0 0 0 0.0102 0.0498 0.355 0.355 0 0 0-0.0102 0.0513 0.355 0.355 0 0 0 3e-3 0.0146 0.355 0.355 0 0 0-3e-3 0.0147 0.355 0.355 0 0 0 1e-3 0.0102 0.355 0.355 0 0 0-1e-3 0.0103 0.355 0.355 0 0 0 4e-3 0.0264 0.355 0.355 0 0 0-4e-3 0.0234 0.355 0.355 0 0 0 1e-3 0.0102 0.355 0.355 0 0 0-1e-3 0.0103 0.355 0.355 0 0 0 4e-3 0.0249 0.355 0.355 0 0 0-4e-3 0.0249 0.355 0.355 0 0 0 4e-3 0.0205 0.355 0.355 0 0 0-4e-3 0.019 0.355 0.355 0 0 0 1e-3 0.0103 0.355 0.355 0 0 0-1e-3 9e-3 0.355 0.355 0 0 0 4e-3 0.0205 0.355 0.355 0 0 0-4e-3 0.0205 0.355 0.355 0 0 0 3e-3 0.0146 0.355 0.355 0 0 0-3e-3 0.0147 0.355 0.355 0 0 0 4e-3 0.022 0.355 0.355 0 0 0-4e-3 0.019 0.355 0.355 0 0 0 1e-3 4e-3 0.355 0.355 0 0 0-1e-3 6e-3 0.355 0.355 0 0 0 3e-3 0.0146 0.355 0.355 0 0 0-3e-3 0.0147 0.355 0.355 0 0 0 3e-3 0.0132 0.355 0.355 0 0 0-3e-3 0.0161 0.355 0.355 0 0 0 1e-3 6e-3 0.355 0.355 0 0 0-1e-3 6e-3 0.355 0.355 0 0 0 1e-3 9e-3 0.355 0.355 0 0 0-1e-3 0.0102 0.355 0.355 0 0 0 1e-3 6e-3 0.355 0.355 0 0 0-1e-3 4e-3 0.355 0.355 0 0 0 1e-3 4e-3 0.355 0.355 0 0 0-1e-3 6e-3 0.355 0.355 0 0 0 4e-3 0.022 0.355 0.355 0 0 0-4e-3 0.019 0.355 0.355 0 0 0 1e-3 0.0103 0.355 0.355 0 0 0-1e-3 9e-3 0.355 0.355 0 0 0 3e-3 0.0147 0.355 0.355 0 0 0-3e-3 0.0146 0.355 0.355 0 0 0 1e-3 9e-3 0.355 0.355 0 0 0-1e-3 0.0103 0.355 0.355 0 0 0 3e-3 0.0102 0.355 0.355 0 0 0-3e-3 0.0117 0.355 0.355 0 0 0 1e-3 6e-3 0.355 0.355 0 0 0-1e-3 4e-3 0.355 0.355 0 0 0 1e-3 0.0102 0.355 0.355 0 0 0-1e-3 9e-3 0.355 0.355 0 0 0 0.35449 0.35596h4.6743v4.6738a0.355 0.355 0 0 0 0.35595 0.35596 0.355 0.355 0 0 0 0.35449-0.35596v-4.6728h4.6743a0.355 0.355 0 0 0 0.35596-0.35582 0.355 0.355 0 0 0-1e-3 -9e-3 0.355 0.355 0 0 0 1e-3 -0.0102 0.355 0.355 0 0 0 0-7e-3 0.355 0.355 0 0 0 0-3e-3 0.355 0.355 0 0 0-1e-3 -0.0117 0.355 0.355 0 0 0 1e-3 -0.0102 0.355 0.355 0 0 0-1e-3 -4e-3 0.355 0.355 0 0 0 1e-3 -0.0147 0.355 0.355 0 0 0-1e-3 -0.0132 0.355 0.355 0 0 0 1e-3 -0.0161 0.355 0.355 0 0 0-1e-3 -0.0132 0.355 0.355 0 0 0 1e-3 -6e-3 0.355 0.355 0 0 0-1e-3 -0.0264 0.355 0.355 0 0 0 1e-3 -0.0147 0.355 0.355 0 0 0 0-4e-3 0.355 0.355 0 0 0 0-6e-3 0.355 0.355 0 0 0 0-6e-3 0.355 0.355 0 0 0 0-4e-3 0.355 0.355 0 0 0-1e-3 -0.0132 0.355 0.355 0 0 0 1e-3 -6e-3 0.355 0.355 0 0 0 0-6e-3 0.355 0.355 0 0 0 0-6e-3 0.355 0.355 0 0 0-1e-3 -9e-3 0.355 0.355 0 0 0 1e-3 -0.0205 0.355 0.355 0 0 0-1e-3 -0.0147 0.355 0.355 0 0 0 1e-3 -0.0146 0.355 0.355 0 0 0 0-0.0103 0.355 0.355 0 0 0-1e-3 -0.0146 0.355 0.355 0 0 0 1e-3 -0.0264 0.355 0.355 0 0 0-1e-3 -0.0147 0.355 0.355 0 0 0 0-1e-3 0.355 0.355 0 0 0 1e-3 -0.0132 0.355 0.355 0 0 0-1e-3 -0.019 0.355 0.355 0 0 0 1e-3 -0.022 0.355 0.355 0 0 0-1e-3 -6e-3 0.355 0.355 0 0 0 1e-3 -0.0132 0.355 0.355 0 0 0-1e-3 -0.0293 0.355 0.355 0 0 0 1e-3 -0.0103 0.355 0.355 0 0 0-1e-3 -0.022 0.355 0.355 0 0 0 1e-3 -0.0278 0.355 0.355 0 0 0 0-0.0117 0.355 0.355 0 0 0 0-9e-3 0.355 0.355 0 0 0-1e-3 -0.0234 0.355 0.355 0 0 0 1e-3 -0.0264 0.355 0.355 0 0 0-1e-3 -0.0103 0.355 0.355 0 0 0 1e-3 -0.0102 0.355 0.355 0 0 0-1e-3 -0.0205 0.355 0.355 0 0 0 1e-3 -9e-3 0.355 0.355 0 0 0-4e-3 -0.0513 0.355 0.355 0 0 0 4e-3 -0.0498 0.355 0.355 0 0 0-1e-3 -0.0117 0.355 0.355 0 0 0 1e-3 -0.0278 0.355 0.355 0 0 0 0-9e-3 0.355 0.355 0 0 0-1e-3 -0.0117 0.355 0.355 0 0 0 0-1e-3 0.355 0.355 0 0 0 0-1e-3 0.355 0.355 0 0 0 1e-3 -6e-3 0.355 0.355 0 0 0 0-6e-3 0.355 0.355 0 0 0 0-6e-3 0.355 0.355 0 0 0-1e-3 -7e-3 0.355 0.355 0 0 0-4e-3 -0.0469 0.355 0.355 0 0 0 6e-3 -0.0644 0.355 0.355 0 0 0 0-6e-3 0.355 0.355 0 0 0 0-4e-3 0.355 0.355 0 0 0-0.0117-0.085 0.355 0.355 0 0 0 0.0117-0.085 0.355 0.355 0 0 0 0-9e-3 0.355 0.355 0 0 0-9e-3 -0.0747 0.355 0.355 0 0 0 9e-3 -0.0762 0.355 0.355 0 0 0-7e-3 -0.0659 0.355 0.355 0 0 0 7e-3 -0.0337 0.355 0.355 0 0 0-0.35596-0.35596h-4.6743v-3.4746a0.355 0.355 0 0 0 0-9e-3v-1.1924a0.355 0.355 0 0 0-0.35449-0.35303zm-72.439 71.849a0.355 0.355 0 0 0-0.35596 0.35596v4.6744h-4.6641a0.355 0.355 0 0 0-0.35596 0.3545 0.355 0.355 0 0 0 4e-3 0.0205 0.355 0.355 0 0 0-4e-3 0.019 0.355 0.355 0 0 0 1e-3 0.0102 0.355 0.355 0 0 0-1e-3 0.0117 0.355 0.355 0 0 0 4e-3 0.019 0.355 0.355 0 0 0-4e-3 0.019 0.355 0.355 0 0 0 4e-3 0.0249 0.355 0.355 0 0 0-4e-3 0.0264 0.355 0.355 0 0 0 4e-3 0.0249 0.355 0.355 0 0 0-4e-3 0.0234 0.355 0.355 0 0 0 1e-3 6e-3 0.355 0.355 0 0 0-1e-3 4e-3 0.355 0.355 0 0 0 1e-3 4e-3 0.355 0.355 0 0 0-1e-3 7e-3 0.355 0.355 0 0 0 1e-3 9e-3 0.355 0.355 0 0 0-1e-3 0.0103 0.355 0.355 0 0 0 3e-3 0.0102 0.355 0.355 0 0 0-3e-3 0.0103 0.355 0.355 0 0 0 1e-3 0.0102 0.355 0.355 0 0 0-1e-3 9e-3 0.355 0.355 0 0 0 1e-3 4e-3 0.355 0.355 0 0 0-1e-3 6e-3 0.355 0.355 0 0 0 1e-3 4e-3 0.355 0.355 0 0 0-1e-3 4e-3 0.355 0.355 0 0 0 6e-3 0.0308 0.355 0.355 0 0 0-6e-3 0.0308 0.355 0.355 0 0 0 0.0147 0.0703 0.355 0.355 0 0 0-0.0147 0.0703 0.355 0.355 0 0 0 7e-3 0.0337 0.355 0.355 0 0 0-7e-3 0.0366 0.355 0.355 0 0 0 4e-3 0.019 0.355 0.355 0 0 0-4e-3 0.019 0.355 0.355 0 0 0 1e-3 6e-3 0.355 0.355 0 0 0-1e-3 4e-3 0.355 0.355 0 0 0 1e-3 0.0103 0.355 0.355 0 0 0-1e-3 0.0117 0.355 0.355 0 0 0 1e-3 0.0103 0.355 0.355 0 0 0-1e-3 9e-3 0.355 0.355 0 0 0 4e-3 0.019 0.355 0.355 0 0 0-4e-3 0.0205 0.355 0.355 0 0 0 1e-3 4e-3 0.355 0.355 0 0 0-1e-3 4e-3 0.355 0.355 0 0 0 9e-3 0.0395 0.355 0.355 0 0 0 0 1e-3 0.355 0.355 0 0 0-9e-3 0.0396 0.355 0.355 0 0 0 3e-3 0.0146 0.355 0.355 0 0 0-3e-3 0.0161 0.355 0.355 0 0 0 1e-3 4e-3 0.355 0.355 0 0 0 0 1e-3 0.355 0.355 0 0 0-1e-3 4e-3 0.355 0.355 0 0 0 9e-3 0.0395 0.355 0.355 0 0 0-9e-3 0.041 0.355 0.355 0 0 0 3e-3 0.0146 0.355 0.355 0 0 0-3e-3 0.0147 0.355 0.355 0 0 0 0.11133 0.25488 0.355 0.355 0 0 0-0.11133 0.25488 0.355 0.355 0 0 0 0.022 0.10986 0.355 0.355 0 0 0-0.022 0.10987 0.355 0.355 0 0 0 0.0249 0.12012 0.355 0.355 0 0 0-0.0249 0.12011 0.355 0.355 0 0 0 0.35596 0.35596h4.6641v4.6641a0.355 0.355 0 0 0 0.35596 0.35596 0.355 0.355 0 0 0 0.35449-0.35596v-4.6641h4.6743a0.355 0.355 0 0 0 0.35595-0.35596 0.355 0.355 0 0 0-0.022-0.12011 0.355 0.355 0 0 0 0.022-0.12012 0.355 0.355 0 0 0-0.0176-0.10987 0.355 0.355 0 0 0 0.0176-0.10986 0.355 0.355 0 0 0-0.10986-0.25342 0.355 0.355 0 0 0 0.10986-0.25634 0.355 0.355 0 0 0-1e-3 -0.0147 0.355 0.355 0 0 0 1e-3 -0.0146 0.355 0.355 0 0 0-3e-3 -0.041 0.355 0.355 0 0 0 3e-3 -0.0395 0.355 0.355 0 0 0 0-7e-3 0.355 0.355 0 0 0 0-3e-3 0.355 0.355 0 0 0-1e-3 -0.0161 0.355 0.355 0 0 0 0-1e-3 0.355 0.355 0 0 0 1e-3 -0.0132 0.355 0.355 0 0 0-4e-3 -0.0249 0.355 0.355 0 0 0 0-9e-3 0.355 0.355 0 0 0 4e-3 -0.0469 0.355 0.355 0 0 0 0-3e-3 0.355 0.355 0 0 0 0-6e-3 0.355 0.355 0 0 0-3e-3 -0.0117 0.355 0.355 0 0 0 3e-3 -0.0278 0.355 0.355 0 0 0-1e-3 -0.0146 0.355 0.355 0 0 0 1e-3 -4e-3 0.355 0.355 0 0 0-1e-3 -0.0103 0.355 0.355 0 0 0 1e-3 -0.0117 0.355 0.355 0 0 0 0-3e-3 0.355 0.355 0 0 0 0-7e-3 0.355 0.355 0 0 0-3e-3 -0.0278 0.355 0.355 0 0 0 3e-3 -0.0103 0.355 0.355 0 0 0-3e-3 -0.0366 0.355 0.355 0 0 0 3e-3 -0.0337 0.355 0.355 0 0 0-4e-3 -0.0557 0.355 0.355 0 0 0-3e-3 -0.0146 0.355 0.355 0 0 0 3e-3 -0.0147 0.355 0.355 0 0 0 4e-3 -0.0557 0.355 0.355 0 0 0-3e-3 -0.0293 0.355 0.355 0 0 0 3e-3 -0.0322 0.355 0.355 0 0 0 0-3e-3 0.355 0.355 0 0 0 0-6e-3 0.355 0.355 0 0 0 0-3e-3 0.355 0.355 0 0 0 0-7e-3 0.355 0.355 0 0 0-1e-3 -0.0103 0.355 0.355 0 0 0 1e-3 -9e-3 0.355 0.355 0 0 0-1e-3 -0.0103 0.355 0.355 0 0 0 1e-3 -0.0102 0.355 0.355 0 0 0-1e-3 -0.0132 0.355 0.355 0 0 0 0-1e-3 0.355 0.355 0 0 0 1e-3 -4e-3 0.355 0.355 0 0 0 0-4e-3 0.355 0.355 0 0 0 0-7e-3 0.355 0.355 0 0 0-1e-3 -4e-3 0.355 0.355 0 0 0 1e-3 -6e-3 0.355 0.355 0 0 0-3e-3 -0.0132 0.355 0.355 0 0 0-1e-3 -0.0161 0.355 0.355 0 0 0 0-1e-3 0.355 0.355 0 0 0 4e-3 -0.0176 0.355 0.355 0 0 0-1e-3 -0.0264 0.355 0.355 0 0 0 1e-3 -0.0249 0.355 0.355 0 0 0-3e-3 -0.0293 0.355 0.355 0 0 0 3e-3 -9e-3 0.355 0.355 0 0 0-1e-3 -9e-3 0.355 0.355 0 0 0 1e-3 -0.0132 0.355 0.355 0 0 0-3e-3 -0.0117 0.355 0.355 0 0 0 0-1e-3 0.355 0.355 0 0 0 3e-3 -0.0264 0.355 0.355 0 0 0-4e-3 -0.0557 0.355 0.355 0 0 0-0.0996-0.19482 0.355 0.355 0 0 0-0.0425-0.0366 0.355 0.355 0 0 0-0.20947-0.0674h-4.6743v-4.4561a0.355 0.355 0 0 0 0-9e-3v-0.20946a0.355 0.355 0 0 0-0.35449-0.35596zm-72.431 33.299a0.355 0.355 0 0 0-0.35449 0.35596v4.6656h-4.6758a0.355 0.355 0 0 0-0.35449 0.3545 0.355 0.355 0 0 0 1e-3 6e-3 0.355 0.355 0 0 0-1e-3 3e-3 0.355 0.355 0 0 0 1e-3 4e-3 0.355 0.355 0 0 0-1e-3 7e-3 0.355 0.355 0 0 0 1e-3 0.0103 0.355 0.355 0 0 0-1e-3 0.0102 0.355 0.355 0 0 0 1e-3 9e-3 0.355 0.355 0 0 0-1e-3 0.0103 0.355 0.355 0 0 0 3e-3 0.0146 0.355 0.355 0 0 0-3e-3 0.0146 0.355 0.355 0 0 0 3e-3 0.0103 0.355 0.355 0 0 0-3e-3 0.0117 0.355 0.355 0 0 0 1e-3 0.0103 0.355 0.355 0 0 0-1e-3 9e-3 0.355 0.355 0 0 0 1e-3 6e-3 0.355 0.355 0 0 0-1e-3 4e-3 0.355 0.355 0 0 0 1e-3 4e-3 0.355 0.355 0 0 0 0 1e-3 0.355 0.355 0 0 0-1e-3 3e-3 0.355 0.355 0 0 0 1e-3 0.0102 0.355 0.355 0 0 0-1e-3 0.0103 0.355 0.355 0 0 0 1e-3 6e-3 0.355 0.355 0 0 0-1e-3 6e-3 0.355 0.355 0 0 0 1e-3 9e-3 0.355 0.355 0 0 0-1e-3 0.0103 0.355 0.355 0 0 0 3e-3 0.0132 0.355 0.355 0 0 0-3e-3 0.0161 0.355 0.355 0 0 0 1e-3 6e-3 0.355 0.355 0 0 0-1e-3 4e-3 0.355 0.355 0 0 0 1e-3 0.0103 0.355 0.355 0 0 0-1e-3 9e-3 0.355 0.355 0 0 0 1e-3 6e-3 0.355 0.355 0 0 0-1e-3 6e-3 0.355 0.355 0 0 0 1e-3 6e-3 0.355 0.355 0 0 0-1e-3 4e-3 0.355 0.355 0 0 0 1e-3 4e-3 0.355 0.355 0 0 0-1e-3 4e-3 0.355 0.355 0 0 0 1e-3 0.0103 0.355 0.355 0 0 0-1e-3 0.0102 0.355 0.355 0 0 0 4e-3 0.022 0.355 0.355 0 0 0-4e-3 0.019 0.355 0.355 0 0 0 1e-3 4e-3 0.355 0.355 0 0 0 0 1e-3 0.355 0.355 0 0 0-1e-3 3e-3 0.355 0.355 0 0 0 0.0176 0.085 0.355 0.355 0 0 0-0.0176 0.085 0.355 0.355 0 0 0 3e-3 0.0147 0.355 0.355 0 0 0-3e-3 0.0146 0.355 0.355 0 0 0 4e-3 0.0205 0.355 0.355 0 0 0-4e-3 0.0205 0.355 0.355 0 0 0 1e-3 0.0117 0.355 0.355 0 0 0-1e-3 9e-3 0.355 0.355 0 0 0 3e-3 0.0132 0.355 0.355 0 0 0-3e-3 0.0161 0.355 0.355 0 0 0 6e-3 0.0293 0.355 0.355 0 0 0-6e-3 0.0308 0.355 0.355 0 0 0 0.35449 0.35596h4.6758v4.6734a0.355 0.355 0 0 0 0.35449 0.35596 0.355 0.355 0 0 0 0.3545-0.35596v-4.6728h4.6758a0.355 0.355 0 0 0 0.35449-0.35596 0.355 0.355 0 0 0-3e-3 -0.0293 0.355 0.355 0 0 0 3e-3 -0.0308 0.355 0.355 0 0 0-1e-3 -0.0147 0.355 0.355 0 0 0 1e-3 -0.0146 0.355 0.355 0 0 0-1e-3 -0.0146 0.355 0.355 0 0 0 1e-3 -6e-3 0.355 0.355 0 0 0-1e-3 -0.0205 0.355 0.355 0 0 0 1e-3 -0.0205 0.355 0.355 0 0 0-1e-3 -0.0205 0.355 0.355 0 0 0 1e-3 -9e-3 0.355 0.355 0 0 0-4e-3 -0.0557 0.355 0.355 0 0 0-9e-3 -0.041 0.355 0.355 0 0 0 0.0132-0.0732 0.355 0.355 0 0 0 0-9e-3 0.355 0.355 0 0 0-1e-3 -0.0161 0.355 0.355 0 0 0 0-1e-3 0.355 0.355 0 0 0 1e-3 -0.0234 0.355 0.355 0 0 0-1e-3 -0.0102 0.355 0.355 0 0 0 1e-3 -0.0103 0.355 0.355 0 0 0 0-6e-3 0.355 0.355 0 0 0 0-3e-3 0.355 0.355 0 0 0 0-0.0103 0.355 0.355 0 0 0 0-4e-3 0.355 0.355 0 0 0 0-7e-3 0.355 0.355 0 0 0-1e-3 -4e-3 0.355 0.355 0 0 0 0-1e-3 0.355 0.355 0 0 0 1e-3 -0.0132 0.355 0.355 0 0 0 0-6e-3 0.355 0.355 0 0 0 0-4e-3 0.355 0.355 0 0 0-1e-3 -9e-3 0.355 0.355 0 0 0 0-7e-3 0.355 0.355 0 0 0 1e-3 -0.0132 0.355 0.355 0 0 0-1e-3 -0.0132 0.355 0.355 0 0 0 1e-3 -6e-3 0.355 0.355 0 0 0 0-6e-3 0.355 0.355 0 0 0 0-6e-3 0.355 0.355 0 0 0-1e-3 -6e-3 0.355 0.355 0 0 0 0-1e-3 0.355 0.355 0 0 0 0-3e-3 0.355 0.355 0 0 0 1e-3 -0.0102 0.355 0.355 0 0 0 0-4e-3 0.355 0.355 0 0 0 0-4e-3 0.355 0.355 0 0 0 0-0.0103 0.355 0.355 0 0 0-1e-3 -0.0132 0.355 0.355 0 0 0 0-1e-3 0.355 0.355 0 0 0 0-1e-3 0.355 0.355 0 0 0 1e-3 -3e-3 0.355 0.355 0 0 0-1e-3 -9e-3 0.355 0.355 0 0 0 1e-3 -0.0132 0.355 0.355 0 0 0-1e-3 -7e-3 0.355 0.355 0 0 0 1e-3 -0.022 0.355 0.355 0 0 0-1e-3 -9e-3 0.355 0.355 0 0 0 1e-3 -0.0103 0.355 0.355 0 0 0-1e-3 -0.0146 0.355 0.355 0 0 0 1e-3 -6e-3 0.355 0.355 0 0 0 0-4e-3 0.355 0.355 0 0 0 0-7e-3 0.355 0.355 0 0 0 0-4e-3 0.355 0.355 0 0 0 0-4e-3 0.355 0.355 0 0 0-3e-3 -0.0146 0.355 0.355 0 0 0-0.0147-0.0791 0.355 0.355 0 0 0-0.33691-0.26075h-4.6758v-4.6655a0.355 0.355 0 0 0-0.3545-0.35596zm-72.431 44.142a0.355 0.355 0 0 0-0.35449 0.35449v4.6641h-4.6758a0.355 0.355 0 0 0-0.35449 0.35596 0.355 0.355 0 0 0 7e-3 0.041 0.355 0.355 0 0 0-7e-3 0.0396 0.355 0.355 0 0 0 6e-3 0.0293 0.355 0.355 0 0 0-6e-3 0.0308 0.355 0.355 0 0 0 9e-3 0.0439 0.355 0.355 0 0 0-9e-3 0.0454 0.355 0.355 0 0 0 7e-3 0.0366 0.355 0.355 0 0 0-7e-3 0.0337 0.355 0.355 0 0 0 1e-3 4e-3 0.355 0.355 0 0 0-1e-3 6e-3 0.355 0.355 0 0 0 1e-3 0.0102 0.355 0.355 0 0 0-1e-3 9e-3 0.355 0.355 0 0 0 6e-3 0.0308 0.355 0.355 0 0 0-6e-3 0.0308 0.355 0.355 0 0 0 4e-3 0.019 0.355 0.355 0 0 0-4e-3 0.019 0.355 0.355 0 0 0 1e-3 0.0117 0.355 0.355 0 0 0-1e-3 9e-3 0.355 0.355 0 0 0 1e-3 6e-3 0.355 0.355 0 0 0-1e-3 6e-3 0.355 0.355 0 0 0 1e-3 9e-3 0.355 0.355 0 0 0-1e-3 0.0103 0.355 0.355 0 0 0 1e-3 9e-3 0.355 0.355 0 0 0-1e-3 0.0102 0.355 0.355 0 0 0 1e-3 0.0117 0.355 0.355 0 0 0-1e-3 9e-3 0.355 0.355 0 0 0 7e-3 0.0381 0.355 0.355 0 0 0-7e-3 0.041 0.355 0.355 0 0 0 4e-3 0.0264 0.355 0.355 0 0 0-4e-3 0.0249 0.355 0.355 0 0 0 1e-3 6e-3 0.355 0.355 0 0 0-1e-3 4e-3 0.355 0.355 0 0 0 0 4e-3 0.355 0.355 0 0 0 0 4e-3 0.355 0.355 0 0 0 1e-3 6e-3 0.355 0.355 0 0 0-1e-3 4e-3 0.355 0.355 0 0 0 1e-3 0.0103 0.355 0.355 0 0 0-1e-3 9e-3 0.355 0.355 0 0 0 1e-3 6e-3 0.355 0.355 0 0 0-1e-3 6e-3 0.355 0.355 0 0 0 1e-3 0.0103 0.355 0.355 0 0 0-1e-3 0.0102 0.355 0.355 0 0 0 1e-3 4e-3 0.355 0.355 0 0 0-1e-3 4e-3 0.355 0.355 0 0 0 1e-3 0.0102 0.355 0.355 0 0 0-1e-3 0.0103 0.355 0.355 0 0 0 4e-3 0.0205 0.355 0.355 0 0 0-4e-3 0.0205 0.355 0.355 0 0 0 1e-3 4e-3 0.355 0.355 0 0 0 0 1e-3 0.355 0.355 0 0 0-1e-3 3e-3 0.355 0.355 0 0 0 4e-3 0.019 0.355 0.355 0 0 0-4e-3 0.0205 0.355 0.355 0 0 0 1e-3 6e-3 0.355 0.355 0 0 0-1e-3 4e-3 0.355 0.355 0 0 0 1e-3 0.0102 0.355 0.355 0 0 0-1e-3 0.0103 0.355 0.355 0 0 0 1e-3 0.0103 0.355 0.355 0 0 0-1e-3 0.0103 0.355 0.355 0 0 0 4e-3 0.0234 0.355 0.355 0 0 0-4e-3 0.0249 0.355 0.355 0 0 0 6e-3 0.0293 0.355 0.355 0 0 0-6e-3 0.0308 0.355 0.355 0 0 0 1e-3 4e-3 0.355 0.355 0 0 0-1e-3 6e-3 0.355 0.355 0 0 0 0.35449 0.35596h4.6758v4.6759a0.355 0.355 0 0 0 0.35449 0.35303 0.355 0.355 0 0 0 0.33691-0.26074 0.355 0.355 0 0 0 0.0146-0.0776 0.355 0.355 0 0 0 3e-3 -0.0147v-4.6758h4.6758a0.355 0.355 0 0 0 0.35596-0.35596 0.355 0.355 0 0 0 0-3e-3 0.355 0.355 0 0 0 0-7e-3 0.355 0.355 0 0 0-3e-3 -0.0293 0.355 0.355 0 0 0 3e-3 -0.0308 0.355 0.355 0 0 0-3e-3 -0.0147 0.355 0.355 0 0 0 3e-3 -0.0337 0.355 0.355 0 0 0-1e-3 -0.0147 0.355 0.355 0 0 0 1e-3 -6e-3 0.355 0.355 0 0 0-1e-3 -9e-3 0.355 0.355 0 0 0 1e-3 -0.0117 0.355 0.355 0 0 0 0-3e-3 0.355 0.355 0 0 0 0-7e-3 0.355 0.355 0 0 0-1e-3 -0.0205 0.355 0.355 0 0 0 1e-3 -0.019 0.355 0.355 0 0 0 0-9e-3 0.355 0.355 0 0 0-1e-3 -0.0176 0.355 0.355 0 0 0 1e-3 -0.0234 0.355 0.355 0 0 0-1e-3 -0.0117 0.355 0.355 0 0 0 1e-3 -9e-3 0.355 0.355 0 0 0 0-9e-3 0.355 0.355 0 0 0-1e-3 -0.0161 0.355 0.355 0 0 0 1e-3 -4e-3 0.355 0.355 0 0 0 0-6e-3 0.355 0.355 0 0 0 0-6e-3 0.355 0.355 0 0 0-1e-3 -6e-3 0.355 0.355 0 0 0 1e-3 -0.0132 0.355 0.355 0 0 0 0-6e-3 0.355 0.355 0 0 0 0-4e-3 0.355 0.355 0 0 0 0-3e-3 0.355 0.355 0 0 0 0-6e-3 0.355 0.355 0 0 0 0-7e-3 0.355 0.355 0 0 0 0-3e-3 0.355 0.355 0 0 0-1e-3 -0.0264 0.355 0.355 0 0 0 1e-3 -0.0249 0.355 0.355 0 0 0-3e-3 -0.0396 0.355 0.355 0 0 0 3e-3 -0.0396 0.355 0.355 0 0 0-1e-3 -4e-3 0.355 0.355 0 0 0 1e-3 -0.0161 0.355 0.355 0 0 0-1e-3 -0.0102 0.355 0.355 0 0 0 1e-3 -9e-3 0.355 0.355 0 0 0-1e-3 -0.0132 0.355 0.355 0 0 0 1e-3 -6e-3 0.355 0.355 0 0 0 0-6e-3 0.355 0.355 0 0 0 0-6e-3 0.355 0.355 0 0 0-1e-3 -4e-3 0.355 0.355 0 0 0 0-1e-3 0.355 0.355 0 0 0 1e-3 -0.0146 0.355 0.355 0 0 0-3e-3 -0.0278 0.355 0.355 0 0 0 3e-3 -0.0102 0.355 0.355 0 0 0-3e-3 -0.0308 0.355 0.355 0 0 0 3e-3 -0.0308 0.355 0.355 0 0 0 0-0.0102 0.355 0.355 0 0 0 0-9e-3 0.355 0.355 0 0 0 0-7e-3 0.355 0.355 0 0 0 0-3e-3 0.355 0.355 0 0 0-3e-3 -0.0351 0.355 0.355 0 0 0 3e-3 -0.0352 0.355 0.355 0 0 0-6e-3 -0.0615 0.355 0.355 0 0 0 6e-3 -0.0278 0.355 0.355 0 0 0-3e-3 -0.0293 0.355 0.355 0 0 0 3e-3 -0.0308 0.355 0.355 0 0 0-3e-3 -0.0396 0.355 0.355 0 0 0 3e-3 -0.041 0.355 0.355 0 0 0-0.35596-0.35596h-4.6758v-3.8144a0.355 0.355 0 0 0 0-9e-3v-0.84081a0.355 0.355 0 0 0-0.35449-0.35449zm-72.439 2.9487a0.355 0.355 0 0 0-0.35596 0.35596v4.6758h-4.6641a0.355 0.355 0 0 0-0.35596 0.35449 0.355 0.355 0 0 0 0.35596 0.35449h4.6641v4.6758a0.355 0.355 0 0 0 0.35596 0.3545 0.355 0.355 0 0 0 0.35449-0.3545v-4.6758h4.6758a0.355 0.355 0 0 0 0.35449-0.35449 0.355 0.355 0 0 0-0.35449-0.35449h-4.6758v-4.6758a0.355 0.355 0 0 0-0.35449-0.35596zm0 13.8a0.355 0.355 0 0 0-0.35596 0.35596v4.6743h-4.6641a0.355 0.355 0 0 0-0.35596 0.35449 0.355 0.355 0 0 0 0.35596 0.35596h4.6641v1.3403h-4.6641a0.355 0.355 0 0 0-0.35596 0.35449 0.355 0.355 0 0 0 0.35596 0.35596h4.6641v1.1792h-4.6641a0.355 0.355 0 0 0-0.35596 0.35449 0.355 0.355 0 0 0 0.16406 0.29004 0.355 0.355 0 0 0-0.16406 0.29004 0.355 0.355 0 0 0 0.0249 0.12011 0.355 0.355 0 0 0-0.0249 0.12012 0.355 0.355 0 0 0 0.35596 0.35449h4.6641v3h-4.6641a0.355 0.355 0 0 0-0.35596 0.35596 0.355 0.355 0 0 0 0.0161 0.0791 0.355 0.355 0 0 0-0.0161 0.0806 0.355 0.355 0 0 0 1e-3 0.0102 0.355 0.355 0 0 0-1e-3 0.0103 0.355 0.355 0 0 0 0.0498 0.16992 0.355 0.355 0 0 0-0.0498 0.16992 0.355 0.355 0 0 0 1e-3 4e-3 0.355 0.355 0 0 0-1e-3 4e-3 0.355 0.355 0 0 0 6e-3 0.0249 0.355 0.355 0 0 0-6e-3 0.0264 0.355 0.355 0 0 0 9e-3 0.0454 0.355 0.355 0 0 0-9e-3 0.0439 0.355 0.355 0 0 0 1e-3 6e-3 0.355 0.355 0 0 0-1e-3 4e-3 0.355 0.355 0 0 0 0.0103 0.0483 0.355 0.355 0 0 0-0.0103 0.0513 0.355 0.355 0 0 0 1e-3 6e-3 0.355 0.355 0 0 0-1e-3 4e-3 0.355 0.355 0 0 0 1e-3 4e-3 0.355 0.355 0 0 0-1e-3 4e-3 0.355 0.355 0 0 0 3e-3 0.0161 0.355 0.355 0 0 0-3e-3 0.0161 0.355 0.355 0 0 0 1e-3 0.0103 0.355 0.355 0 0 0-1e-3 9e-3 0.355 0.355 0 0 0 4e-3 0.019 0.355 0.355 0 0 0-4e-3 0.0205 0.355 0.355 0 0 0 3e-3 0.0161 0.355 0.355 0 0 0-3e-3 0.0147 0.355 0.355 0 0 0 1e-3 6e-3 0.355 0.355 0 0 0-1e-3 4e-3 0.355 0.355 0 0 0 7e-3 0.0351 0.355 0.355 0 0 0-7e-3 0.0352 0.355 0.355 0 0 0 0.0176 0.0864 0.355 0.355 0 0 0-0.0176 0.0835 0.355 0.355 0 0 0 4e-3 0.0234 0.355 0.355 0 0 0-4e-3 0.0249 0.355 0.355 0 0 0 3e-3 0.0146 0.355 0.355 0 0 0-3e-3 0.0161 0.355 0.355 0 0 0 6e-3 0.0308 0.355 0.355 0 0 0-6e-3 0.0308 0.355 0.355 0 0 0 0.0103 0.0513 0.355 0.355 0 0 0-0.0103 0.0483 0.355 0.355 0 0 0 1e-3 9e-3 0.355 0.355 0 0 0-1e-3 0.0103 0.355 0.355 0 0 0 1e-3 9e-3 0.355 0.355 0 0 0-1e-3 0.0103 0.355 0.355 0 0 0 4e-3 0.0205 0.355 0.355 0 0 0-4e-3 0.0205 0.355 0.355 0 0 0 0.0205 0.0996 0.355 0.355 0 0 0-0.0205 0.0996 0.355 0.355 0 0 0 0.0264 0.13037 0.355 0.355 0 0 0-0.0264 0.13037 0.355 0.355 0 0 0 0.10254 0.24902 0.355 0.355 0 0 0-0.10254 0.25049 0.355 0.355 0 0 0 0.35596 0.35596h4.6641v4.6762a0.355 0.355 0 0 0 0.35596 0.35303 0.355 0.355 0 0 0 0.35449-0.35303v-4.6758h4.6758a0.355 0.355 0 0 0 0.35449-0.35596 0.355 0.355 0 0 0-0.104-0.25049 0.355 0.355 0 0 0 0.104-0.24902 0.355 0.355 0 0 0-0.0264-0.13037 0.355 0.355 0 0 0 0.0264-0.13037 0.355 0.355 0 0 0-0.0176-0.10987 0.355 0.355 0 0 0 0.0176-0.0894 0.355 0.355 0 0 0-1e-3 -0.0205 0.355 0.355 0 0 0 1e-3 -0.0205 0.355 0.355 0 0 0-1e-3 -0.0103 0.355 0.355 0 0 0 1e-3 -9e-3 0.355 0.355 0 0 0-1e-3 -0.0132 0.355 0.355 0 0 0 1e-3 -6e-3 0.355 0.355 0 0 0-7e-3 -0.0659 0.355 0.355 0 0 0 7e-3 -0.0337 0.355 0.355 0 0 0-3e-3 -0.0308 0.355 0.355 0 0 0 0-3e-3 0.355 0.355 0 0 0 3e-3 -0.0278 0.355 0.355 0 0 0-1e-3 -0.0161 0.355 0.355 0 0 0 0-1e-3 0.355 0.355 0 0 0 1e-3 -0.0132 0.355 0.355 0 0 0-3e-3 -0.0103 0.355 0.355 0 0 0 3e-3 -0.0381 0.355 0.355 0 0 0-0.0117-0.085 0.355 0.355 0 0 0 0.0117-0.085 0.355 0.355 0 0 0-3e-3 -0.0352 0.355 0.355 0 0 0 0-1e-3 0.355 0.355 0 0 0 3e-3 -0.0337 0.355 0.355 0 0 0 0-4e-3 0.355 0.355 0 0 0 0-6e-3 0.355 0.355 0 0 0-1e-3 -0.0147 0.355 0.355 0 0 0 1e-3 -0.0161 0.355 0.355 0 0 0-3e-3 -0.0117 0.355 0.355 0 0 0 3e-3 -0.0278 0.355 0.355 0 0 0 0-0.0117 0.355 0.355 0 0 0 0-7e-3 0.355 0.355 0 0 0-1e-3 -0.0132 0.355 0.355 0 0 0 1e-3 -0.019 0.355 0.355 0 0 0 0-3e-3 0.355 0.355 0 0 0 0-6e-3 0.355 0.355 0 0 0 0-3e-3 0.355 0.355 0 0 0 0-7e-3 0.355 0.355 0 0 0-4e-3 -0.0498 0.355 0.355 0 0 0 4e-3 -0.0498 0.355 0.355 0 0 0 0-4e-3 0.355 0.355 0 0 0 0-6e-3 0.355 0.355 0 0 0-4e-3 -0.0469 0.355 0.355 0 0 0 4e-3 -0.0425 0.355 0.355 0 0 0-1e-3 -0.0264 0.355 0.355 0 0 0 1e-3 -0.0249 0.355 0.355 0 0 0 0-9e-3 0.355 0.355 0 0 0-0.0454-0.16992 0.355 0.355 0 0 0 0.0454-0.16992 0.355 0.355 0 0 0-1e-3 -0.0147 0.355 0.355 0 0 0 1e-3 -6e-3 0.355 0.355 0 0 0-0.0102-0.0791 0.355 0.355 0 0 0 0.0102-0.0806 0.355 0.355 0 0 0-0.35449-0.35596h-4.6758v-3h4.6758a0.355 0.355 0 0 0 0.35449-0.35449 0.355 0.355 0 0 0-0.0234-0.11719 0.355 0.355 0 0 0 0.0234-0.12304 0.355 0.355 0 0 0-0.15673-0.28565 0.355 0.355 0 0 0 0.15673-0.29443 0.355 0.355 0 0 0-0.35449-0.35449h-4.6758v-1.1792h4.6758a0.355 0.355 0 0 0 0.35449-0.35596 0.355 0.355 0 0 0-0.35449-0.35449h-4.6758v-1.3403h4.6758a0.355 0.355 0 0 0 0.35449-0.35596 0.355 0.355 0 0 0-0.35449-0.35449h-4.6758v-4.6743a0.355 0.355 0 0 0-0.35449-0.35596zm-72.431 53.971a0.355 0.355 0 0 0-0.35449 0.35449v4.6758h-4.6743a0.355 0.355 0 0 0-0.35596 0.35449 0.355 0.355 0 0 0 0.0059 0.0308 0.355 0.355 0 0 0-0.0059 0.0308 0.355 0.355 0 0 0 0.01465 0.0747 0.355 0.355 0 0 0-0.01465 0.0732 0.355 0.355 0 0 0 0.0059 0.0308 0.355 0.355 0 0 0-0.0059 0.0293 0.355 0.355 0 0 0 0.0029 0.0147 0.355 0.355 0 0 0-0.0029 0.0147 0.355 0.355 0 0 0 0.0059 0.0249 0.355 0.355 0 0 0-0.0059 0.0264 0.355 0.355 0 0 0 0.0044 0.0205 0.355 0.355 0 0 0-0.0044 0.019 0.355 0.355 0 0 0 0.02783 0.13623 0.355 0.355 0 0 0-0.02783 0.13477 0.355 0.355 0 0 0 0.01172 0.0586 0.355 0.355 0 0 0-0.01172 0.0601 0.355 0.355 0 0 0 0.0073 0.0352 0.355 0.355 0 0 0-0.0073 0.0351 0.355 0.355 0 0 0 0.01172 0.0586 0.355 0.355 0 0 0-0.01172 0.0615 0.355 0.355 0 0 0 0.0015 0.0103 0.355 0.355 0 0 0-0.0015 0.0103 0.355 0.355 0 0 0 0.0015 4e-3 0.355 0.355 0 0 0 0 1e-3 0.355 0.355 0 0 0-0.0015 4e-3 0.355 0.355 0 0 0 0.0015 0.0102 0.355 0.355 0 0 0-0.0015 9e-3 0.355 0.355 0 0 0 0.0015 0.0103 0.355 0.355 0 0 0-0.0015 0.0102 0.355 0.355 0 0 0 0.0015 4e-3 0.355 0.355 0 0 0-0.0015 4e-3 0.355 0.355 0 0 0 0.0088 0.0469 0.355 0.355 0 0 0-0.0088 0.0439 0.355 0.355 0 0 0 0.0029 0.0161 0.355 0.355 0 0 0-0.0029 0.0147 0.355 0.355 0 0 0 0.0029 0.0147 0.355 0.355 0 0 0-0.0029 0.0146 0.355 0.355 0 0 0 0.0015 0.0103 0.355 0.355 0 0 0-0.0015 9e-3 0.355 0.355 0 0 0 0.0015 6e-3 0.355 0.355 0 0 0-0.0015 6e-3 0.355 0.355 0 0 0 0.0015 0.0103 0.355 0.355 0 0 0-0.0015 0.0102 0.355 0.355 0 0 0 0.0015 4e-3 0.355 0.355 0 0 0-0.0015 4e-3 0.355 0.355 0 0 0 0.0015 6e-3 0.355 0.355 0 0 0-0.0015 4e-3 0.355 0.355 0 0 0 0.0015 4e-3 0.355 0.355 0 0 0-0.0015 6e-3 0.355 0.355 0 0 0 0.0015 0.0102 0.355 0.355 0 0 0-0.0015 9e-3 0.355 0.355 0 0 0 0.0029 0.0161 0.355 0.355 0 0 0-0.0029 0.0147 0.355 0.355 0 0 0 0.01318 0.0644 0.355 0.355 0 0 0-0.01318 0.0645 0.355 0.355 0 0 0 0.0073 0.0352 0.355 0.355 0 0 0-0.0073 0.0352 0.355 0.355 0 0 0 0.0029 0.0161 0.355 0.355 0 0 0-0.0029 0.0161 0.355 0.355 0 0 0 0.0029 0.0146 0.355 0.355 0 0 0-0.0029 0.0147 0.355 0.355 0 0 0 0.01318 0.0645 0.355 0.355 0 0 0-0.01318 0.0644 0.355 0.355 0 0 0 0.35596 0.35449h4.6743v4.6762a0.355 0.355 0 0 0 0.35449 0.35596 0.355 0.355 0 0 0 0.25195-0.104 0.355 0.355 0 0 0 0.03662-0.0425 0.355 0.355 0 0 0 0.06738-0.20948v-4.6758h4.6743a0.355 0.355 0 0 0 0.35449-0.35449 0.355 0.355 0 0 0-0.01025-0.0498 0.355 0.355 0 0 0 0-1e-3 0.355 0.355 0 0 0 0.01025-0.0776 0.355 0.355 0 0 0-0.0015-0.0205 0.355 0.355 0 0 0 0.0015-9e-3 0.355 0.355 0 0 0-0.0015-0.0161 0.355 0.355 0 0 0 0.0015-0.0161 0.355 0.355 0 0 0-0.0029-0.0352 0.355 0.355 0 0 0 0.0029-0.0352 0.355 0.355 0 0 0-0.0088-0.0483 0.355 0.355 0 0 0 0.0088-0.0806 0.355 0.355 0 0 0-0.0015-0.0161 0.355 0.355 0 0 0 0.0015-0.0146 0.355 0.355 0 0 0-0.0015-6e-3 0.355 0.355 0 0 0 0.0015-0.0132 0.355 0.355 0 0 0 0-3e-3 0.355 0.355 0 0 0 0-7e-3 0.355 0.355 0 0 0 0-6e-3 0.355 0.355 0 0 0 0-4e-3 0.355 0.355 0 0 0 0-9e-3 0.355 0.355 0 0 0-0.0015-0.0132 0.355 0.355 0 0 0 0-3e-3 0.355 0.355 0 0 0 0.0015-4e-3 0.355 0.355 0 0 0 0-6e-3 0.355 0.355 0 0 0 0-6e-3 0.355 0.355 0 0 0-0.0015-4e-3 0.355 0.355 0 0 0 0-1e-3 0.355 0.355 0 0 0 0.0015-0.0132 0.355 0.355 0 0 0-0.0015-0.0132 0.355 0.355 0 0 0 0-4e-3 0.355 0.355 0 0 0 0.0015-0.0117 0.355 0.355 0 0 0-0.0015-0.0161 0.355 0.355 0 0 0 0-1e-3 0.355 0.355 0 0 0 0.0015-0.0132 0.355 0.355 0 0 0-0.0044-0.022 0.355 0.355 0 0 0 0-3e-3 0.355 0.355 0 0 0-0.0015-4e-3 0.355 0.355 0 0 0 0-1e-3 0.355 0.355 0 0 0 0.0015-0.0132 0.355 0.355 0 0 0 0.0044-0.0469 0.355 0.355 0 0 0 0-3e-3 0.355 0.355 0 0 0 0-6e-3 0.355 0.355 0 0 0-0.0015-6e-3 0.355 0.355 0 0 0 0.0015-0.0147 0.355 0.355 0 0 0-0.0015-0.0102 0.355 0.355 0 0 0 0.0015-9e-3 0.355 0.355 0 0 0 0-7e-3 0.355 0.355 0 0 0 0-3e-3 0.355 0.355 0 0 0-0.0015-0.0103 0.355 0.355 0 0 0 0-3e-3 0.355 0.355 0 0 0 0.0015-7e-3 0.355 0.355 0 0 0-0.0029-0.0146 0.355 0.355 0 0 0-0.0044-0.0352 0.355 0.355 0 0 0 0.0073-0.0703 0.355 0.355 0 0 0-0.0029-0.0351 0.355 0.355 0 0 0 0.0029-0.0352 0.355 0.355 0 0 0-0.0088-0.0747 0.355 0.355 0 0 0 0.0088-0.0439 0.355 0.355 0 0 0-0.02783-0.13477 0.355 0.355 0 0 0 0.02783-0.13623 0.355 0.355 0 0 0-0.0029-0.0117 0.355 0.355 0 0 0 0.0029-0.0278 0.355 0.355 0 0 0-0.0015-0.0264 0.355 0.355 0 0 0 0.0015-0.0249 0.355 0.355 0 0 0-0.0015-7e-3 0.355 0.355 0 0 0 0.0015-0.022 0.355 0.355 0 0 0-0.0029-0.0308 0.355 0.355 0 0 0 0.0029-0.0293 0.355 0.355 0 0 0-0.01465-0.0762 0.355 0.355 0 0 0 0.01465-0.0718 0.355 0.355 0 0 0-0.0029-0.0308 0.355 0.355 0 0 0 0.0029-0.0308 0.355 0.355 0 0 0-0.35449-0.35449h-4.6743v-4.6758a0.355 0.355 0 0 0-0.35596-0.35449z" fill="#66c2a5"/>
  <polyline id="polyline2229" points="56.92 367.1 563.96 53.57" stroke="#66c2a5" stroke-width="2.13"/>
  <line id="line2273" x1="351.07" x2="363.34" y1="358.85" y2="358.85" stroke="#66c2a5" stroke-width="2.13"/>
  <line id="line2272" x1="357.21" x2="357.21" y1="363.87" y2="353.82" stroke="#66c2a5" stroke-width=".71"/>
 </g>
 <g id="layer1" fill="#a0b2b4">
  <text id="text2276" x="371.85001" y="362.82001" font-family="'Libertinus Sans', 'Linux Biolinum O', sans-serif" font-size="12px" lengthAdjust="spacingAndGlyphs" textLength="172.92999">Check whenever possible, GIL held</text>
 </g>
</svg>
