<?xml version="1.0" encoding="UTF-8"?>
<svg width="786pt" height="385pt" version="1.1" viewBox="0 0 786 385" xmlns="http://www.w3.org/2000/svg">
 <g transform="translate(5 5)">
  <g transform="translate(-.62341 -21.996)">
   <g font-family="'Linux Biolinum O'" text-anchor="end" font-size="12px" fill="#a0b2b4">
    <text x="84.099998" y="212.56" lengthAdjust="spacingAndGlyphs" textLength="84.099998">Check every 1ms</text>
    <text x="84.099998" y="225.52" lengthAdjust="spacingAndGlyphs" textLength="66.919998">(coarse clock)</text>
    <text x="84.099998" y="371.72" lengthAdjust="spacingAndGlyphs" textLength="84.099998">Check every 1ms</text>
    <text x="84.099998" y="384.68" lengthAdjust="spacingAndGlyphs" textLength="66.919998">(coarse clock)</text>
   </g>
   <g transform="translate(0 36.14)">
    <g fill="#4a1486" fill-opacity=".75">
     <circle cx="147.53" cy="339.12" r="1.775"/>
     <circle cx="147.55" cy="334.87" r="1.775"/>
     <circle cx="147.91" cy="344.05" r="1.775"/>
     <circle cx="147.96" cy="330.81" r="1.775"/>
     <circle cx="148.36" cy="326.99" r="1.775"/>
     <circle cx="147.68" cy="323.95" r="1.775"/>
     <circle cx="147.38" cy="326.13" r="1.775"/>
     <circle cx="147.27" cy="351.63" r="1.775"/>
     <circle cx="147.73" cy="338.83" r="1.775"/>
     <circle cx="147.58" cy="332.69" r="1.775"/>
     <circle cx="148.28" cy="351.96" r="1.775"/>
     <circle cx="147.2" cy="340.01" r="1.775"/>
     <circle cx="147.87" cy="340.45" r="1.775"/>
     <circle cx="147.52" cy="350.48" r="1.775"/>
     <circle cx="147.15" cy="339.56" r="1.775"/>
     <circle cx="147.27" cy="343.81" r="1.775"/>
     <circle cx="147.19" cy="334.79" r="1.775"/>
     <circle cx="147.79" cy="351.09" r="1.775"/>
     <circle cx="148.3" cy="326.49" r="1.775"/>
     <circle cx="147.54" cy="325.23" r="1.775"/>
     <circle cx="148.24" cy="325.55" r="1.775"/>
     <circle cx="148.21" cy="339.45" r="1.775"/>
     <circle cx="147.24" cy="345.06" r="1.775"/>
     <circle cx="147.39" cy="342.05" r="1.775"/>
     <circle cx="147.38" cy="351.66" r="1.775"/>
     <circle cx="147.6" cy="324.29" r="1.775"/>
     <circle cx="147.88" cy="351.04" r="1.775"/>
     <circle cx="147.54" cy="339.79" r="1.775"/>
     <circle cx="148.45" cy="341.78" r="1.775"/>
     <circle cx="147.93" cy="348.65" r="1.775"/>
     <circle cx="147.39" cy="324.79" r="1.775"/>
     <circle cx="147.74" cy="345.41" r="1.775"/>
     <circle cx="147.38" cy="345.56" r="1.775"/>
     <circle cx="147.16" cy="326.43" r="1.775"/>
     <circle cx="148.24" cy="338.46" r="1.775"/>
     <circle cx="146.98" cy="333.77" r="1.775"/>
     <circle cx="147.9" cy="341" r="1.775"/>
     <circle cx="147.57" cy="347.32" r="1.775"/>
     <circle cx="147.26" cy="345.27" r="1.775"/>
     <circle cx="147.38" cy="346.36" r="1.775"/>
    </g>
    <g fill="#8c2d04" fill-opacity=".75">
     <circle cx="160.22" cy="326.85" r="1.775"/>
     <circle cx="159.45" cy="342.97" r="1.775"/>
     <circle cx="160.39" cy="347.18" r="1.775"/>
     <circle cx="160.5" cy="350.41" r="1.775"/>
     <circle cx="159.49" cy="348.21" r="1.775"/>
     <circle cx="159.96" cy="327.36" r="1.775"/>
     <circle cx="162.13" cy="333.21" r="1.775"/>
     <circle cx="161.44" cy="344.09" r="1.775"/>
     <circle cx="159.95" cy="340.73" r="1.775"/>
     <circle cx="160.54" cy="325.1" r="1.775"/>
     <circle cx="160.42" cy="350.61" r="1.775"/>
     <circle cx="159.46" cy="344.57" r="1.775"/>
     <circle cx="160.58" cy="331.2" r="1.775"/>
     <circle cx="160.51" cy="349.79" r="1.775"/>
     <circle cx="159.83" cy="351.83" r="1.775"/>
     <circle cx="159.95" cy="331.05" r="1.775"/>
     <circle cx="160.71" cy="344.72" r="1.775"/>
     <circle cx="159.83" cy="333.02" r="1.775"/>
     <circle cx="159.41" cy="330.05" r="1.775"/>
     <circle cx="160.52" cy="326.6" r="1.775"/>
     <circle cx="160.75" cy="342.39" r="1.775"/>
     <circle cx="159.5" cy="347.48" r="1.775"/>
     <circle cx="160.07" cy="350.53" r="1.775"/>
     <circle cx="160.44" cy="329.24" r="1.775"/>
     <circle cx="159.85" cy="347.99" r="1.775"/>
     <circle cx="159.47" cy="327.39" r="1.775"/>
     <circle cx="160.46" cy="330.57" r="1.775"/>
     <circle cx="160.44" cy="350.48" r="1.775"/>
     <circle cx="159.99" cy="327.17" r="1.775"/>
     <circle cx="160.76" cy="347.5" r="1.775"/>
     <circle cx="160.52" cy="332.63" r="1.775"/>
     <circle cx="159.57" cy="345.34" r="1.775"/>
     <circle cx="159.85" cy="327.08" r="1.775"/>
     <circle cx="160.51" cy="336.86" r="1.775"/>
     <circle cx="159.9" cy="327.37" r="1.775"/>
     <circle cx="159.65" cy="327.95" r="1.775"/>
     <circle cx="160.54" cy="331.42" r="1.775"/>
     <circle cx="160.66" cy="338.72" r="1.775"/>
     <circle cx="159.6" cy="324.4" r="1.775"/>
     <circle cx="160.26" cy="348.19" r="1.775"/>
    </g>
    <g fill="#6a51a3" fill-opacity=".75">
     <circle cx="153.68" cy="331.96" r="1.775"/>
     <circle cx="153.31" cy="326.6" r="1.775"/>
     <circle cx="153.68" cy="338.69" r="1.775"/>
     <circle cx="152.99" cy="352.04" r="1.775"/>
     <circle cx="153.91" cy="343.48" r="1.775"/>
     <circle cx="153.43" cy="338.02" r="1.775"/>
     <circle cx="153.87" cy="341.72" r="1.775"/>
     <circle cx="153.15" cy="338.57" r="1.775"/>
     <circle cx="153.4" cy="335.39" r="1.775"/>
     <circle cx="153.91" cy="350.94" r="1.775"/>
     <circle cx="153.92" cy="325.98" r="1.775"/>
     <circle cx="153.77" cy="349.28" r="1.775"/>
     <circle cx="153.48" cy="342.42" r="1.775"/>
     <circle cx="153.77" cy="347.89" r="1.775"/>
     <circle cx="153.41" cy="343.35" r="1.775"/>
     <circle cx="153.89" cy="329.95" r="1.775"/>
     <circle cx="153.23" cy="335.8" r="1.775"/>
     <circle cx="153.81" cy="348.43" r="1.775"/>
     <circle cx="153.3" cy="335.81" r="1.775"/>
     <circle cx="153.71" cy="351.82" r="1.775"/>
     <circle cx="153.4" cy="331.12" r="1.775"/>
     <circle cx="153.54" cy="341.5" r="1.775"/>
     <circle cx="153.64" cy="337.27" r="1.775"/>
     <circle cx="153.43" cy="328.53" r="1.775"/>
     <circle cx="153.74" cy="346.21" r="1.775"/>
     <circle cx="153.38" cy="323.69" r="1.775"/>
     <circle cx="153.79" cy="335.53" r="1.775"/>
     <circle cx="153.45" cy="342.54" r="1.775"/>
     <circle cx="154" cy="343.52" r="1.775"/>
     <circle cx="153.24" cy="331.17" r="1.775"/>
     <circle cx="153.88" cy="349.04" r="1.775"/>
     <circle cx="153.53" cy="340.71" r="1.775"/>
     <circle cx="153.52" cy="344.99" r="1.775"/>
     <circle cx="153.64" cy="347.24" r="1.775"/>
     <circle cx="153.59" cy="351.23" r="1.775"/>
     <circle cx="153.64" cy="326.39" r="1.775"/>
     <circle cx="153.4" cy="346.52" r="1.775"/>
     <circle cx="153.62" cy="324.68" r="1.775"/>
     <circle cx="153.21" cy="350.81" r="1.775"/>
     <circle cx="153.95" cy="331.51" r="1.775"/>
    </g>
    <g fill="#d94801" fill-opacity=".75">
     <circle cx="165.53" cy="333.93" r="1.775"/>
     <circle cx="165.84" cy="340.39" r="1.775"/>
     <circle cx="166.58" cy="329.04" r="1.775"/>
     <circle cx="166.91" cy="339.77" r="1.775"/>
     <circle cx="166.69" cy="351.78" r="1.775"/>
     <circle cx="167.54" cy="331.55" r="1.775"/>
     <circle cx="166.71" cy="329.18" r="1.775"/>
     <circle cx="166.9" cy="330.56" r="1.775"/>
     <circle cx="167.23" cy="324.87" r="1.775"/>
     <circle cx="166.89" cy="333.76" r="1.775"/>
     <circle cx="166.96" cy="339.42" r="1.775"/>
     <circle cx="167.13" cy="330.33" r="1.775"/>
     <circle cx="166.99" cy="337.28" r="1.775"/>
     <circle cx="166.54" cy="349.81" r="1.775"/>
     <circle cx="166.84" cy="348.89" r="1.775"/>
     <circle cx="166.51" cy="337.27" r="1.775"/>
     <circle cx="166.39" cy="324.48" r="1.775"/>
     <circle cx="166.52" cy="327.31" r="1.775"/>
     <circle cx="166.65" cy="333.95" r="1.775"/>
     <circle cx="166.6" cy="337.61" r="1.775"/>
     <circle cx="166.35" cy="344.66" r="1.775"/>
     <circle cx="166.65" cy="328.6" r="1.775"/>
     <circle cx="166.56" cy="331.58" r="1.775"/>
     <circle cx="166.6" cy="350.82" r="1.775"/>
     <circle cx="166.4" cy="324.33" r="1.775"/>
     <circle cx="166.28" cy="324.38" r="1.775"/>
     <circle cx="166.72" cy="326.48" r="1.775"/>
     <circle cx="166.6" cy="350.13" r="1.775"/>
     <circle cx="166.54" cy="349.78" r="1.775"/>
     <circle cx="166.87" cy="334.27" r="1.775"/>
     <circle cx="166.96" cy="341.81" r="1.775"/>
     <circle cx="166.67" cy="339.35" r="1.775"/>
     <circle cx="166.91" cy="348.28" r="1.775"/>
     <circle cx="166.87" cy="337.3" r="1.775"/>
     <circle cx="166.48" cy="334.85" r="1.775"/>
     <circle cx="166.9" cy="336.78" r="1.775"/>
     <circle cx="167.04" cy="338.09" r="1.775"/>
     <circle cx="166.97" cy="336.71" r="1.775"/>
     <circle cx="166.99" cy="323.91" r="1.775"/>
     <circle cx="166.96" cy="336.33" r="1.775"/>
    </g>
    <g fill="#807dba" fill-opacity=".75">
     <circle cx="170.35" cy="330.83" r="1.775"/>
     <circle cx="170.8" cy="329.86" r="1.775"/>
     <circle cx="170.38" cy="340.87" r="1.775"/>
     <circle cx="170.32" cy="327.98" r="1.775"/>
     <circle cx="170.23" cy="326.81" r="1.775"/>
     <circle cx="170.32" cy="339.27" r="1.775"/>
     <circle cx="170.46" cy="324.89" r="1.775"/>
     <circle cx="170.44" cy="348.32" r="1.775"/>
     <circle cx="171.88" cy="341.49" r="1.775"/>
     <circle cx="170.3" cy="347.68" r="1.775"/>
     <circle cx="169.65" cy="336.65" r="1.775"/>
     <circle cx="169.9" cy="343.85" r="1.775"/>
     <circle cx="169.71" cy="334.72" r="1.775"/>
     <circle cx="169.56" cy="349.51" r="1.775"/>
     <circle cx="169.64" cy="338.99" r="1.775"/>
     <circle cx="169.56" cy="335.79" r="1.775"/>
     <circle cx="169.66" cy="325.76" r="1.775"/>
     <circle cx="169.86" cy="326.14" r="1.775"/>
     <circle cx="169.68" cy="331.28" r="1.775"/>
     <circle cx="171.95" cy="335.34" r="1.775"/>
     <circle cx="169.73" cy="341.07" r="1.775"/>
     <circle cx="169.67" cy="333.39" r="1.775"/>
     <circle cx="169.48" cy="329.94" r="1.775"/>
     <circle cx="169.57" cy="348.66" r="1.775"/>
     <circle cx="169.66" cy="350.06" r="1.775"/>
     <circle cx="169.07" cy="349.37" r="1.775"/>
     <circle cx="169.78" cy="324.33" r="1.775"/>
     <circle cx="169.66" cy="325.03" r="1.775"/>
     <circle cx="169.81" cy="345.13" r="1.775"/>
     <circle cx="169.67" cy="352.33" r="1.775"/>
     <circle cx="172.03" cy="343.85" r="1.775"/>
     <circle cx="169.5" cy="328.8" r="1.775"/>
     <circle cx="169.26" cy="343.06" r="1.775"/>
     <circle cx="169.81" cy="349.62" r="1.775"/>
     <circle cx="169.96" cy="329.49" r="1.775"/>
     <circle cx="170.49" cy="325.08" r="1.775"/>
     <circle cx="170.26" cy="324.97" r="1.775"/>
     <circle cx="170.4" cy="347.87" r="1.775"/>
     <circle cx="169.92" cy="351.13" r="1.775"/>
     <circle cx="170.29" cy="333.2" r="1.775"/>
    </g>
    <g fill="#f16913" fill-opacity=".75">
     <circle cx="262.13" cy="331.6" r="1.775"/>
     <circle cx="262.51" cy="328.81" r="1.775"/>
     <circle cx="261.93" cy="339.74" r="1.775"/>
     <circle cx="262.16" cy="339.6" r="1.775"/>
     <circle cx="261.73" cy="341.16" r="1.775"/>
     <circle cx="262.41" cy="323.83" r="1.775"/>
     <circle cx="261.77" cy="333.01" r="1.775"/>
     <circle cx="261.03" cy="350.95" r="1.775"/>
     <circle cx="263.64" cy="341.43" r="1.775"/>
     <circle cx="263.75" cy="334.95" r="1.775"/>
     <circle cx="262.46" cy="331.4" r="1.775"/>
     <circle cx="260.96" cy="346.06" r="1.775"/>
     <circle cx="262.72" cy="330.16" r="1.775"/>
     <circle cx="262.28" cy="329.87" r="1.775"/>
     <circle cx="260.83" cy="340.61" r="1.775"/>
     <circle cx="260.63" cy="333.15" r="1.775"/>
     <circle cx="262.68" cy="339.74" r="1.775"/>
     <circle cx="265.31" cy="350.56" r="1.775"/>
     <circle cx="261.09" cy="331.95" r="1.775"/>
     <circle cx="264.36" cy="343.95" r="1.775"/>
     <circle cx="263.78" cy="346.21" r="1.775"/>
     <circle cx="264.04" cy="344.24" r="1.775"/>
     <circle cx="260.87" cy="333.16" r="1.775"/>
     <circle cx="264.83" cy="343.81" r="1.775"/>
     <circle cx="261.9" cy="326.04" r="1.775"/>
     <circle cx="261.31" cy="328.21" r="1.775"/>
     <circle cx="262.28" cy="333.75" r="1.775"/>
     <circle cx="260.56" cy="340.43" r="1.775"/>
     <circle cx="261.46" cy="325" r="1.775"/>
     <circle cx="262.83" cy="327.35" r="1.775"/>
     <circle cx="262.74" cy="332.97" r="1.775"/>
     <circle cx="261.33" cy="334.64" r="1.775"/>
     <circle cx="262.52" cy="332.98" r="1.775"/>
     <circle cx="263.04" cy="338.95" r="1.775"/>
     <circle cx="260.89" cy="330.19" r="1.775"/>
     <circle cx="262.72" cy="346.88" r="1.775"/>
     <circle cx="262.97" cy="324.32" r="1.775"/>
     <circle cx="261.07" cy="337.72" r="1.775"/>
     <circle cx="263.51" cy="352.37" r="1.775"/>
     <circle cx="261.33" cy="339.13" r="1.775"/>
    </g>
    <g fill="#9e9ac8" fill-opacity=".75">
     <circle cx="287.23" cy="326.51" r="1.775"/>
     <circle cx="287.13" cy="331.45" r="1.775"/>
     <circle cx="287.15" cy="328.11" r="1.775"/>
     <circle cx="287.12" cy="335.63" r="1.775"/>
     <circle cx="287.06" cy="343.79" r="1.775"/>
     <circle cx="287.05" cy="347.53" r="1.775"/>
     <circle cx="287.13" cy="332.14" r="1.775"/>
     <circle cx="287.01" cy="324.62" r="1.775"/>
     <circle cx="287.08" cy="336.05" r="1.775"/>
     <circle cx="286.96" cy="333.79" r="1.775"/>
     <circle cx="287.14" cy="347.23" r="1.775"/>
     <circle cx="286.99" cy="348.45" r="1.775"/>
     <circle cx="287" cy="343.06" r="1.775"/>
     <circle cx="287.06" cy="325.95" r="1.775"/>
     <circle cx="287" cy="351.86" r="1.775"/>
     <circle cx="287.05" cy="346.13" r="1.775"/>
     <circle cx="287.12" cy="345.16" r="1.775"/>
     <circle cx="286.99" cy="333.03" r="1.775"/>
     <circle cx="287.04" cy="329.39" r="1.775"/>
     <circle cx="287" cy="352.12" r="1.775"/>
     <circle cx="286.97" cy="324.62" r="1.775"/>
     <circle cx="287.09" cy="340.74" r="1.775"/>
     <circle cx="287.2" cy="336.16" r="1.775"/>
     <circle cx="286.91" cy="342.29" r="1.775"/>
     <circle cx="287.29" cy="331.41" r="1.775"/>
     <circle cx="286.89" cy="348.27" r="1.775"/>
     <circle cx="287.39" cy="341.13" r="1.775"/>
     <circle cx="289.46" cy="350.03" r="1.775"/>
     <circle cx="288.17" cy="348.75" r="1.775"/>
     <circle cx="287.47" cy="327.24" r="1.775"/>
     <circle cx="286.86" cy="323.75" r="1.775"/>
     <circle cx="287.39" cy="328.22" r="1.775"/>
     <circle cx="287.02" cy="351.69" r="1.775"/>
     <circle cx="287.41" cy="334.86" r="1.775"/>
     <circle cx="286.88" cy="334.79" r="1.775"/>
     <circle cx="287.8" cy="328.89" r="1.775"/>
     <circle cx="286.73" cy="343.4" r="1.775"/>
     <circle cx="287.38" cy="326.92" r="1.775"/>
     <circle cx="287.25" cy="344.81" r="1.775"/>
     <circle cx="287.55" cy="325.95" r="1.775"/>
    </g>
    <g fill="#fd8dc3" fill-opacity=".75">
     <circle cx="434.11" cy="330.33" r="1.775"/>
     <circle cx="433.75" cy="331.96" r="1.775"/>
     <circle cx="434.28" cy="349.56" r="1.775"/>
     <circle cx="433.96" cy="351.52" r="1.775"/>
     <circle cx="433.98" cy="325.84" r="1.775"/>
     <circle cx="434.16" cy="329.28" r="1.775"/>
     <circle cx="433.89" cy="351.81" r="1.775"/>
     <circle cx="434.13" cy="351.44" r="1.775"/>
     <circle cx="434.14" cy="344.51" r="1.775"/>
     <circle cx="434.06" cy="344.09" r="1.775"/>
     <circle cx="434.12" cy="345.75" r="1.775"/>
     <circle cx="433.85" cy="344.97" r="1.775"/>
     <circle cx="434.13" cy="323.9" r="1.775"/>
     <circle cx="433.61" cy="344.35" r="1.775"/>
     <circle cx="434.23" cy="345.23" r="1.775"/>
     <circle cx="434.07" cy="331.93" r="1.775"/>
     <circle cx="434.39" cy="350.47" r="1.775"/>
     <circle cx="433.88" cy="333.45" r="1.775"/>
     <circle cx="434.17" cy="342.05" r="1.775"/>
     <circle cx="434.25" cy="329.52" r="1.775"/>
     <circle cx="434.8" cy="327.15" r="1.775"/>
     <circle cx="434.01" cy="324.86" r="1.775"/>
     <circle cx="433.8" cy="339.19" r="1.775"/>
     <circle cx="433.8" cy="333.63" r="1.775"/>
     <circle cx="434" cy="337.84" r="1.775"/>
     <circle cx="433.57" cy="329.76" r="1.775"/>
     <circle cx="433.49" cy="324.51" r="1.775"/>
     <circle cx="432.21" cy="342.26" r="1.775"/>
     <circle cx="432.69" cy="324.9" r="1.775"/>
     <circle cx="431.76" cy="351.22" r="1.775"/>
     <circle cx="431.62" cy="335.53" r="1.775"/>
     <circle cx="432.65" cy="331.3" r="1.775"/>
     <circle cx="431.73" cy="344.26" r="1.775"/>
     <circle cx="432.93" cy="329.15" r="1.775"/>
     <circle cx="431.79" cy="336.61" r="1.775"/>
     <circle cx="432.88" cy="325.78" r="1.775"/>
     <circle cx="431.81" cy="329.8" r="1.775"/>
     <circle cx="433.07" cy="339.21" r="1.775"/>
     <circle cx="431.95" cy="331.19" r="1.775"/>
     <circle cx="432.78" cy="339.07" r="1.775"/>
    </g>
   </g>
   <g transform="translate(0 35.99)">
    <g fill="#4a1486" fill-opacity=".75">
     <circle cx="146.83" cy="169.31" r="1.775"/>
     <circle cx="147.28" cy="178.11" r="1.775"/>
     <circle cx="147.95" cy="175.7" r="1.775"/>
     <circle cx="148.04" cy="183.21" r="1.775"/>
     <circle cx="147.58" cy="171.04" r="1.775"/>
     <circle cx="147.87" cy="183.96" r="1.775"/>
     <circle cx="147.57" cy="191.37" r="1.775"/>
     <circle cx="147.53" cy="166.5" r="1.775"/>
     <circle cx="147.56" cy="175.58" r="1.775"/>
     <circle cx="147.11" cy="189.21" r="1.775"/>
     <circle cx="147.57" cy="190.82" r="1.775"/>
     <circle cx="148.05" cy="178.55" r="1.775"/>
     <circle cx="147.21" cy="189.63" r="1.775"/>
     <circle cx="148.44" cy="181.86" r="1.775"/>
     <circle cx="147.37" cy="173.3" r="1.775"/>
     <circle cx="147.32" cy="176.77" r="1.775"/>
     <circle cx="147.3" cy="187.16" r="1.775"/>
     <circle cx="147.55" cy="175.44" r="1.775"/>
     <circle cx="147.57" cy="170.84" r="1.775"/>
     <circle cx="148.43" cy="185.01" r="1.775"/>
     <circle cx="147.03" cy="180.94" r="1.775"/>
     <circle cx="147.97" cy="173.12" r="1.775"/>
     <circle cx="147.32" cy="172.86" r="1.775"/>
     <circle cx="147.19" cy="191.69" r="1.775"/>
     <circle cx="147.18" cy="186.73" r="1.775"/>
     <circle cx="147.23" cy="176.5" r="1.775"/>
     <circle cx="147.83" cy="190.56" r="1.775"/>
     <circle cx="147.93" cy="191.6" r="1.775"/>
     <circle cx="147.53" cy="178.02" r="1.775"/>
     <circle cx="147.96" cy="171.17" r="1.775"/>
     <circle cx="147.13" cy="182.45" r="1.775"/>
     <circle cx="147.21" cy="188.29" r="1.775"/>
     <circle cx="147.16" cy="187.84" r="1.775"/>
     <circle cx="147.39" cy="184.24" r="1.775"/>
     <circle cx="147.69" cy="165.72" r="1.775"/>
     <circle cx="148.21" cy="187.22" r="1.775"/>
     <circle cx="147.42" cy="175.74" r="1.775"/>
     <circle cx="148.38" cy="168.68" r="1.775"/>
     <circle cx="147.39" cy="183.43" r="1.775"/>
     <circle cx="148.72" cy="182.48" r="1.775"/>
    </g>
    <g fill="#8c2d04" fill-opacity=".75">
     <circle cx="160.19" cy="169.28" r="1.775"/>
     <circle cx="159.61" cy="168.1" r="1.775"/>
     <circle cx="159.58" cy="177.56" r="1.775"/>
     <circle cx="160.25" cy="184.88" r="1.775"/>
     <circle cx="160.31" cy="183.52" r="1.775"/>
     <circle cx="159.36" cy="171.99" r="1.775"/>
     <circle cx="160.42" cy="172.61" r="1.775"/>
     <circle cx="159.69" cy="188.54" r="1.775"/>
     <circle cx="159.68" cy="174.72" r="1.775"/>
     <circle cx="160.23" cy="175.72" r="1.775"/>
     <circle cx="159.83" cy="169.44" r="1.775"/>
     <circle cx="159.37" cy="167.05" r="1.775"/>
     <circle cx="160.54" cy="190.01" r="1.775"/>
     <circle cx="160.42" cy="166.32" r="1.775"/>
     <circle cx="159.38" cy="172.18" r="1.775"/>
     <circle cx="160.29" cy="189.13" r="1.775"/>
     <circle cx="160.34" cy="188.41" r="1.775"/>
     <circle cx="159.53" cy="169.85" r="1.775"/>
     <circle cx="159.44" cy="191.66" r="1.775"/>
     <circle cx="160.43" cy="174.04" r="1.775"/>
     <circle cx="160.1" cy="189.11" r="1.775"/>
     <circle cx="159.51" cy="189.39" r="1.775"/>
     <circle cx="160.41" cy="191.04" r="1.775"/>
     <circle cx="160.51" cy="189.04" r="1.775"/>
     <circle cx="159.45" cy="187.5" r="1.775"/>
     <circle cx="160" cy="183.49" r="1.775"/>
     <circle cx="160.5" cy="190.48" r="1.775"/>
     <circle cx="159.26" cy="175.42" r="1.775"/>
     <circle cx="159.86" cy="189.34" r="1.775"/>
     <circle cx="159.99" cy="183.28" r="1.775"/>
     <circle cx="159.19" cy="192.22" r="1.775"/>
     <circle cx="160.08" cy="166.7" r="1.775"/>
     <circle cx="160.06" cy="181.23" r="1.775"/>
     <circle cx="159.36" cy="191.74" r="1.775"/>
     <circle cx="159.31" cy="176.36" r="1.775"/>
     <circle cx="160.43" cy="185.25" r="1.775"/>
     <circle cx="159.74" cy="166.74" r="1.775"/>
     <circle cx="159.06" cy="176" r="1.775"/>
    </g>
    <g fill="#6a51a3" fill-opacity=".75">
     <circle cx="153.38" cy="170.35" r="1.775"/>
     <circle cx="152.66" cy="171.12" r="1.775"/>
     <circle cx="153.19" cy="179.2" r="1.775"/>
     <circle cx="153.12" cy="176.1" r="1.775"/>
     <circle cx="152.83" cy="180.86" r="1.775"/>
     <circle cx="153.09" cy="188.98" r="1.775"/>
     <circle cx="152.84" cy="187.21" r="1.775"/>
     <circle cx="153.05" cy="183.25" r="1.775"/>
     <circle cx="152.66" cy="186.18" r="1.775"/>
     <circle cx="153.02" cy="166.69" r="1.775"/>
     <circle cx="152.38" cy="175.62" r="1.775"/>
     <circle cx="153.56" cy="172.07" r="1.775"/>
     <circle cx="152.31" cy="181.11" r="1.775"/>
     <circle cx="153.33" cy="187.65" r="1.775"/>
     <circle cx="152.47" cy="181.75" r="1.775"/>
     <circle cx="184.84" cy="164.85" r="1.775"/>
     <circle cx="155.2" cy="188.35" r="1.775"/>
     <circle cx="152.29" cy="184.3" r="1.775"/>
     <circle cx="153.87" cy="182.95" r="1.775"/>
     <circle cx="152.55" cy="185.26" r="1.775"/>
     <circle cx="152.95" cy="168.08" r="1.775"/>
     <circle cx="152.6" cy="175.96" r="1.775"/>
     <circle cx="153.13" cy="181.84" r="1.775"/>
     <circle cx="152.99" cy="187.78" r="1.775"/>
     <circle cx="152.84" cy="188.62" r="1.775"/>
     <circle cx="153" cy="182.47" r="1.775"/>
     <circle cx="152.91" cy="188.04" r="1.775"/>
     <circle cx="153.17" cy="179.84" r="1.775"/>
     <circle cx="152.81" cy="188.56" r="1.775"/>
     <circle cx="153.42" cy="191.15" r="1.775"/>
     <circle cx="152.71" cy="171.2" r="1.775"/>
     <circle cx="153.39" cy="167.62" r="1.775"/>
     <circle cx="152.67" cy="166.51" r="1.775"/>
     <circle cx="153.3" cy="191.58" r="1.775"/>
     <circle cx="152.96" cy="184.88" r="1.775"/>
     <circle cx="153.16" cy="177.69" r="1.775"/>
     <circle cx="153.14" cy="169.97" r="1.775"/>
     <circle cx="152.98" cy="175.73" r="1.775"/>
     <circle cx="153.15" cy="170.56" r="1.775"/>
     <circle cx="152.98" cy="169.4" r="1.775"/>
    </g>
    <g fill="#d94801" fill-opacity=".75">
     <circle cx="166.31" cy="175.94" r="1.775"/>
     <circle cx="167.76" cy="192.03" r="1.775"/>
     <circle cx="166.35" cy="183.62" r="1.775"/>
     <circle cx="166.56" cy="188.05" r="1.775"/>
     <circle cx="166.84" cy="193.32" r="1.775"/>
     <circle cx="166.49" cy="172.15" r="1.775"/>
     <circle cx="166.52" cy="170.23" r="1.775"/>
     <circle cx="166.75" cy="170.88" r="1.775"/>
     <circle cx="166.6" cy="181.83" r="1.775"/>
     <circle cx="166.61" cy="171.17" r="1.775"/>
     <circle cx="166.6" cy="168.39" r="1.775"/>
     <circle cx="166.58" cy="191.03" r="1.775"/>
     <circle cx="166.61" cy="174.1" r="1.775"/>
     <circle cx="166.87" cy="166.2" r="1.775"/>
     <circle cx="166.76" cy="179.48" r="1.775"/>
     <circle cx="166.68" cy="182.24" r="1.775"/>
     <circle cx="166.56" cy="191.59" r="1.775"/>
     <circle cx="166.64" cy="188.5" r="1.775"/>
     <circle cx="166.41" cy="172.84" r="1.775"/>
     <circle cx="166.25" cy="183.65" r="1.775"/>
     <circle cx="166.94" cy="183.85" r="1.775"/>
     <circle cx="166.48" cy="187.58" r="1.775"/>
     <circle cx="166.57" cy="175.27" r="1.775"/>
     <circle cx="166.7" cy="167.9" r="1.775"/>
     <circle cx="166.96" cy="171.09" r="1.775"/>
     <circle cx="166.82" cy="189.49" r="1.775"/>
     <circle cx="166.58" cy="173.28" r="1.775"/>
     <circle cx="166.54" cy="186.12" r="1.775"/>
     <circle cx="166.6" cy="186.76" r="1.775"/>
     <circle cx="166.52" cy="171.29" r="1.775"/>
     <circle cx="166.51" cy="186.52" r="1.775"/>
     <circle cx="166.52" cy="190.3" r="1.775"/>
     <circle cx="166.4" cy="189.46" r="1.775"/>
     <circle cx="166.63" cy="173.29" r="1.775"/>
     <circle cx="166.35" cy="180.17" r="1.775"/>
     <circle cx="166.3" cy="189.05" r="1.775"/>
     <circle cx="166.42" cy="174.03" r="1.775"/>
     <circle cx="166.19" cy="166.96" r="1.775"/>
     <circle cx="166.65" cy="185.28" r="1.775"/>
    </g>
    <g fill="#807dba" fill-opacity=".75">
     <circle cx="169.55" cy="181.61" r="1.775"/>
     <circle cx="169.37" cy="179.45" r="1.775"/>
     <circle cx="170.52" cy="177.53" r="1.775"/>
     <circle cx="169.47" cy="191.5" r="1.775"/>
     <circle cx="169.26" cy="186.18" r="1.775"/>
     <circle cx="169.09" cy="188.98" r="1.775"/>
     <circle cx="169.13" cy="190.27" r="1.775"/>
     <circle cx="169.44" cy="172.7" r="1.775"/>
     <circle cx="169.37" cy="168.35" r="1.775"/>
     <circle cx="171.29" cy="183.08" r="1.775"/>
     <circle cx="169.22" cy="172.34" r="1.775"/>
     <circle cx="169.17" cy="168.21" r="1.775"/>
     <circle cx="169.22" cy="193.11" r="1.775"/>
     <circle cx="169.29" cy="175.65" r="1.775"/>
     <circle cx="169.33" cy="167.91" r="1.775"/>
     <circle cx="169.22" cy="189.85" r="1.775"/>
     <circle cx="169.4" cy="177.45" r="1.775"/>
     <circle cx="169.63" cy="168.77" r="1.775"/>
     <circle cx="169.52" cy="167.07" r="1.775"/>
     <circle cx="169.58" cy="176.16" r="1.775"/>
     <circle cx="172.23" cy="181.75" r="1.775"/>
     <circle cx="168.77" cy="172.12" r="1.775"/>
     <circle cx="168.82" cy="187.51" r="1.775"/>
     <circle cx="168.63" cy="186.8" r="1.775"/>
     <circle cx="168.76" cy="179.22" r="1.775"/>
     <circle cx="168.74" cy="185.58" r="1.775"/>
     <circle cx="168.45" cy="188.11" r="1.775"/>
     <circle cx="169.02" cy="166.77" r="1.775"/>
     <circle cx="168.68" cy="187.4" r="1.775"/>
     <circle cx="168.81" cy="166.95" r="1.775"/>
     <circle cx="169.19" cy="173.84" r="1.775"/>
     <circle cx="168.87" cy="180.05" r="1.775"/>
     <circle cx="169.02" cy="186.36" r="1.775"/>
     <circle cx="168.9" cy="189.82" r="1.775"/>
     <circle cx="178.31" cy="190.91" r="1.775"/>
     <circle cx="169.38" cy="183.15" r="1.775"/>
     <circle cx="168.7" cy="170.82" r="1.775"/>
     <circle cx="169.17" cy="191.25" r="1.775"/>
     <circle cx="169.08" cy="192.42" r="1.775"/>
     <circle cx="169.01" cy="167.44" r="1.775"/>
    </g>
    <g fill="#f16913" fill-opacity=".75">
     <circle cx="262.32" cy="187" r="1.775"/>
     <circle cx="262.85" cy="180.17" r="1.775"/>
     <circle cx="269.79" cy="178.99" r="1.775"/>
     <circle cx="262.23" cy="169.2" r="1.775"/>
     <circle cx="260.86" cy="191.2" r="1.775"/>
     <circle cx="260.75" cy="184.42" r="1.775"/>
     <circle cx="262.88" cy="191.26" r="1.775"/>
     <circle cx="267.94" cy="173.51" r="1.775"/>
     <circle cx="265.88" cy="193.38" r="1.775"/>
     <circle cx="260.19" cy="166.13" r="1.775"/>
     <circle cx="261.86" cy="184.41" r="1.775"/>
     <circle cx="262.42" cy="188.81" r="1.775"/>
     <circle cx="263.69" cy="182.83" r="1.775"/>
     <circle cx="264.74" cy="188.11" r="1.775"/>
     <circle cx="260.59" cy="165.82" r="1.775"/>
     <circle cx="261.32" cy="190.54" r="1.775"/>
     <circle cx="262.21" cy="192.27" r="1.775"/>
     <circle cx="264.73" cy="181.02" r="1.775"/>
     <circle cx="265.67" cy="184.92" r="1.775"/>
     <circle cx="261.73" cy="179.72" r="1.775"/>
     <circle cx="262.98" cy="191.01" r="1.775"/>
     <circle cx="266.29" cy="183.86" r="1.775"/>
     <circle cx="261.23" cy="190.2" r="1.775"/>
     <circle cx="261.05" cy="176.73" r="1.775"/>
     <circle cx="263.13" cy="170.79" r="1.775"/>
     <circle cx="262.03" cy="173.55" r="1.775"/>
     <circle cx="261.46" cy="166.97" r="1.775"/>
     <circle cx="263.2" cy="183.49" r="1.775"/>
     <circle cx="260.92" cy="171.95" r="1.775"/>
     <circle cx="261.47" cy="184.49" r="1.775"/>
     <circle cx="262.85" cy="180.7" r="1.775"/>
     <circle cx="264.47" cy="181.08" r="1.775"/>
     <circle cx="263.92" cy="189.58" r="1.775"/>
     <circle cx="263.17" cy="175.84" r="1.775"/>
     <circle cx="267" cy="178.23" r="1.775"/>
     <circle cx="267.66" cy="168.67" r="1.775"/>
     <circle cx="263.81" cy="191.18" r="1.775"/>
     <circle cx="263.63" cy="176.97" r="1.775"/>
     <circle cx="266.33" cy="183.39" r="1.775"/>
     <circle cx="265.93" cy="170.93" r="1.775"/>
    </g>
    <g fill="#9e9ac8" fill-opacity=".75">
     <circle cx="285.69" cy="174.33" r="1.775"/>
     <circle cx="286.02" cy="190.32" r="1.775"/>
     <circle cx="285.61" cy="192.46" r="1.775"/>
     <circle cx="286.14" cy="166.65" r="1.775"/>
     <circle cx="285.5" cy="166.69" r="1.775"/>
     <circle cx="285.83" cy="175.94" r="1.775"/>
     <circle cx="285.72" cy="172.46" r="1.775"/>
     <circle cx="285.99" cy="186.19" r="1.775"/>
     <circle cx="286.09" cy="177.81" r="1.775"/>
     <circle cx="285.8" cy="189.86" r="1.775"/>
     <circle cx="285.59" cy="170.19" r="1.775"/>
     <circle cx="285.89" cy="191.51" r="1.775"/>
     <circle cx="287.39" cy="167.4" r="1.775"/>
     <circle cx="287.38" cy="167.64" r="1.775"/>
     <circle cx="286.74" cy="180.01" r="1.775"/>
     <circle cx="287.07" cy="173.46" r="1.775"/>
     <circle cx="286.9" cy="167.13" r="1.775"/>
     <circle cx="286.97" cy="171.48" r="1.775"/>
     <circle cx="286.87" cy="172.42" r="1.775"/>
     <circle cx="287.61" cy="190.48" r="1.775"/>
     <circle cx="286.76" cy="191.49" r="1.775"/>
     <circle cx="287.28" cy="175.46" r="1.775"/>
     <circle cx="286.98" cy="190.48" r="1.775"/>
     <circle cx="287.46" cy="183.22" r="1.775"/>
     <circle cx="287.04" cy="185.26" r="1.775"/>
     <circle cx="286.62" cy="167.32" r="1.775"/>
     <circle cx="285.67" cy="174.41" r="1.775"/>
     <circle cx="286.12" cy="180.95" r="1.775"/>
     <circle cx="285.87" cy="193.44" r="1.775"/>
     <circle cx="289.6" cy="181.39" r="1.775"/>
     <circle cx="290.5" cy="170.22" r="1.775"/>
     <circle cx="289.51" cy="176.38" r="1.775"/>
     <circle cx="290.89" cy="179.6" r="1.775"/>
     <circle cx="289.81" cy="170.25" r="1.775"/>
     <circle cx="290.44" cy="178.9" r="1.775"/>
     <circle cx="289.76" cy="183.22" r="1.775"/>
     <circle cx="290.42" cy="169.63" r="1.775"/>
     <circle cx="290.75" cy="188.34" r="1.775"/>
     <circle cx="285.97" cy="171.67" r="1.775"/>
     <circle cx="286.2" cy="181.33" r="1.775"/>
    </g>
    <g fill="#fd8dc3" fill-opacity=".75">
     <circle cx="432.73" cy="178.28" r="1.775"/>
     <circle cx="433.78" cy="177.81" r="1.775"/>
     <circle cx="432.82" cy="190.53" r="1.775"/>
     <circle cx="432.01" cy="183.82" r="1.775"/>
     <circle cx="433.31" cy="193.08" r="1.775"/>
     <circle cx="433.93" cy="178.29" r="1.775"/>
     <circle cx="433.86" cy="186.51" r="1.775"/>
     <circle cx="433.29" cy="184.57" r="1.775"/>
     <circle cx="433.86" cy="175.22" r="1.775"/>
     <circle cx="432.35" cy="182.72" r="1.775"/>
     <circle cx="433.72" cy="183.87" r="1.775"/>
     <circle cx="431.31" cy="189.54" r="1.775"/>
     <circle cx="432.62" cy="170.11" r="1.775"/>
     <circle cx="433.14" cy="184.26" r="1.775"/>
     <circle cx="432.94" cy="179.2" r="1.775"/>
     <circle cx="433.61" cy="166.1" r="1.775"/>
     <circle cx="432.54" cy="165.91" r="1.775"/>
     <circle cx="433.31" cy="173.82" r="1.775"/>
     <circle cx="433.73" cy="175.06" r="1.775"/>
     <circle cx="433.77" cy="172.4" r="1.775"/>
     <circle cx="433.68" cy="182.25" r="1.775"/>
     <circle cx="432.95" cy="177.21" r="1.775"/>
     <circle cx="433.29" cy="180.16" r="1.775"/>
     <circle cx="433.45" cy="167.26" r="1.775"/>
     <circle cx="433.63" cy="192.07" r="1.775"/>
     <circle cx="433.61" cy="174.99" r="1.775"/>
     <circle cx="433.78" cy="168.15" r="1.775"/>
     <circle cx="433.02" cy="165.66" r="1.775"/>
     <circle cx="432.68" cy="178.74" r="1.775"/>
     <circle cx="432.57" cy="177.11" r="1.775"/>
     <circle cx="434.42" cy="182.27" r="1.775"/>
     <circle cx="432.8" cy="184.38" r="1.775"/>
     <circle cx="433.59" cy="185.23" r="1.775"/>
     <circle cx="433.67" cy="169.88" r="1.775"/>
     <circle cx="433.72" cy="177.02" r="1.775"/>
     <circle cx="433.07" cy="166.36" r="1.775"/>
     <circle cx="432.28" cy="172.05" r="1.775"/>
     <circle cx="432.97" cy="191.31" r="1.775"/>
     <circle cx="433.2" cy="174.91" r="1.775"/>
     <circle cx="432.8" cy="165.56" r="1.775"/>
    </g>
    <g fill-opacity=".75">
     <circle cx="167.19" cy="164.97" r="1.775" fill="#d94801"/>
     <circle cx="159.35" cy="165.17" r="1.775" fill="#8c2d04"/>
     <circle cx="160.36" cy="165.02" r="1.775" fill="#8c2d04"/>
    </g>
   </g>
  </g>
 </g>
</svg>
