<?xml version="1.0" encoding="UTF-8"?>
<svg id="svg2277" class="svglite" width="576pt" height="432pt" version="1.1" viewBox="0 0 576 432" xmlns="http://www.w3.org/2000/svg">
 <g id="layer2">
  <path id="circle3" d="m560.4 45.655a0.355 0.355 0 0 0-0.25195 0.10547 0.355 0.355 0 0 0-0.0483 0.43066 0.355 0.355 0 0 0-0.0513 0.19775 0.355 0.355 0 0 0 3e-3 0.05566 0.355 0.355 0 0 0-3e-3 0.06152 0.355 0.355 0 0 0-1e-3 0.03955 0.355 0.355 0 0 0 0 0.0293 0.355 0.355 0 0 0-1e-3 0.02197 0.355 0.355 0 0 0 0 0.01318 0.355 0.355 0 0 0 0 0.02051 0.355 0.355 0 0 0 0 0.01465 0.355 0.355 0 0 0 0 0.0088 0.355 0.355 0 0 0 0 0.0015 0.355 0.355 0 0 0 0 0.0088 0.355 0.355 0 0 0 0 0.0015 0.355 0.355 0 0 0 0 0.01611 0.355 0.355 0 0 0 0 0.01758 0.355 0.355 0 0 0 0 0.01611 0.355 0.355 0 0 0 0 0.0088 0.355 0.355 0 0 0 0 0.0015 0.355 0.355 0 0 0 1e-3 0.02051 0.355 0.355 0 0 0-1e-3 0.02051 0.355 0.355 0 0 0-1e-3 0.0088 0.355 0.355 0 0 0 1e-3 0.01465 0.355 0.355 0 0 0 0 0.01465 0.355 0.355 0 0 0 0 0.01025 0.355 0.355 0 0 0 3e-3 0.02344 0.355 0.355 0 0 0-3e-3 0.02783 0.355 0.355 0 0 0 1e-3 0.01904 0.355 0.355 0 0 0-1e-3 0.02344 0.355 0.355 0 0 0 4e-3 0.04102 0.355 0.355 0 0 0-4e-3 0.03662 0.355 0.355 0 0 0 0.10254 0.26514l0.3999 0.3999c-0.32063 0.56753-0.50391 1.2224-0.50391 1.9189 0 0.06006 2e-3 0.1193 4e-3 0.17871-3e-3 0.05989-4e-3 0.11963-4e-3 0.18018 0 0.0059-2e-5 0.01172 0 0.01758-2e-5 0.0049 0 0.0098 0 0.01465 9e-5 0.01074 1e-3 0.02151 1e-3 0.03223-1.8e-4 0.01522-1e-3 0.03015-1e-3 0.04541 0 0.0084-5e-5 0.01655 0 0.0249-6e-5 0.0088 0 0.01757 0 0.02637v0.0088c-3e-5 0.0068 0 0.01367 0 0.02051-3e-5 0.0069 0 0.01362 0 0.02051 2e-5 0.0034-2e-5 0.0068 0 0.01025-1e-5 0.0034 0 0.0068 0 0.01025-3e-5 0.0064 0 0.01265 0 0.01904 2e-5 0.0039-3e-5 0.0078 0 0.01172v0.0073c-1e-5 0.0039 0 0.0078 0 0.01172-1e-5 0.0034 0 0.0068 0 0.01025-1e-5 0.0034 0 0.0068 0 0.01025v0.0088c1e-5 9.83e-4 0 0.0019 0 0.0029-2e-5 0.0059 0 0.01172 0 0.01758v0.0088c-1e-5 0.0034 0 0.0068 0 0.01025 2e-5 0.0078-6e-5 0.01564 0 0.02344v0.0073c-3e-5 0.0068 0 0.01367 0 0.02051 0 0.0044-1e-5 0.0088 0 0.01318v0.0059c-1e-5 0.0034 0 0.0068 0 0.01025v0.0088c-1e-5 0.0039 0 0.0078 0 0.01172 2e-5 0.0063-5e-5 0.01271 0 0.01904-3e-5 0.0069 0 0.01362 0 0.02051 0 0.0098-7e-5 0.01947 0 0.0293-1e-5 0.0039 0 0.0078 0 0.01172-3e-5 0.0064 0 0.01265 0 0.01904 0 0.0039 1e-3 0.0078 1e-3 0.01172-1.2e-4 0.01268-1e-3 0.02538-1e-3 0.03809 0 0.0049-2e-5 0.0097 0 0.01465v0.0059c3.2e-4 0.06048 1e-3 0.12036 4e-3 0.18018 0.0286 0.6295 0.20655 1.2205 0.49951 1.7388l-0.3999 0.3999a0.355 0.355 0 0 0-0.0483 0.43066 0.355 0.355 0 0 0-0.0513 0.20068 0.355 0.355 0 0 0 3e-3 0.05566 0.355 0.355 0 0 0-3e-3 0.06006 0.355 0.355 0 0 0-1e-3 0.03809 0.355 0.355 0 0 0 0 0.03076 0.355 0.355 0 0 0-1e-3 0.02051 0.355 0.355 0 0 0 0 0.01465 0.355 0.355 0 0 0 0 0.01465 0.355 0.355 0 0 0 0 0.0015 0.355 0.355 0 0 0-1e-3 0.02197 0.355 0.355 0 0 0 0 0.0073 0.355 0.355 0 0 0 1e-3 0.0088 0.355 0.355 0 0 0 0 0.0015 0.355 0.355 0 0 0 0 0.01465 0.355 0.355 0 0 0 0 0.01904 0.355 0.355 0 0 0 0 0.01465 0.355 0.355 0 0 0 0 0.01025 0.355 0.355 0 0 0 0 0.0015 0.355 0.355 0 0 0 1e-3 0.02051 0.355 0.355 0 0 0-1e-3 0.01904 0.355 0.355 0 0 0 0 0.0088 0.355 0.355 0 0 0 0 0.01611 0.355 0.355 0 0 0 0 0.01465 0.355 0.355 0 0 0 0 0.01172 0.355 0.355 0 0 0 1e-3 0.02197 0.355 0.355 0 0 0-1e-3 0.0249 0.355 0.355 0 0 0 1e-3 0.02197 0.355 0.355 0 0 0 0 0.0293 0.355 0.355 0 0 0 3e-3 0.03955 0.355 0.355 0 0 0-4e-3 0.03662 0.355 0.355 0 0 0 0.10254 0.26074 0.355 0.355 0 0 0 0.50097 0l0.80567-0.80566c0.6796 0.56681 1.5533 0.9082 2.5049 0.9082 0.94856 0 1.8193-0.34022 2.4976-0.90381l0.80127 0.80127a0.355 0.355 0 0 0 0.50244 0 0.355 0.355 0 0 0 0.10254-0.26074 0.355 0.355 0 0 0 0-0.03662 0.355 0.355 0 0 0 0-0.03809 0.355 0.355 0 0 0 0-0.03369 0.355 0.355 0 0 0 1e-3 -0.02344 0.355 0.355 0 0 0-1e-3 -0.02344 0.355 0.355 0 0 0 1e-3 -0.01465 0.355 0.355 0 0 0 0-0.0044 0.355 0.355 0 0 0 0-0.01172 0.355 0.355 0 0 0-1e-3 -0.01611 0.355 0.355 0 0 0 1e-3 -0.01318 0.355 0.355 0 0 0 0-0.01318 0.355 0.355 0 0 0-1e-3 -0.01465 0.355 0.355 0 0 0 1e-3 -0.02344 0.355 0.355 0 0 0 0-0.01465 0.355 0.355 0 0 0-1e-3 -0.0073 0.355 0.355 0 0 0 0-0.0029 0.355 0.355 0 0 0 0-0.0015 0.355 0.355 0 0 0 1e-3 -0.01758 0.355 0.355 0 0 0 0-0.01611 0.355 0.355 0 0 0 0-0.0044 0.355 0.355 0 0 0 0-0.0088 0.355 0.355 0 0 0 0-0.03223 0.355 0.355 0 0 0-1e-3 -0.0088 0.355 0.355 0 0 0 0-0.0015 0.355 0.355 0 0 0 0-0.0044 0.355 0.355 0 0 0 1e-3 -0.0044 0.355 0.355 0 0 0 0-0.01025 0.355 0.355 0 0 0-1e-3 -0.0088 0.355 0.355 0 0 0 0-0.03662 0.355 0.355 0 0 0 0-0.03809 0.355 0.355 0 0 0-1e-3 -0.06006 0.355 0.355 0 0 0 1e-3 -0.05566 0.355 0.355 0 0 0-0.0483-0.20068 0.355 0.355 0 0 0-0.0542-0.43066l-0.39404-0.39404c0.29469-0.51971 0.47379-1.1127 0.50244-1.7446 3e-3 -0.05981 4e-3 -0.1197 4e-3 -0.18018v-0.0059c2e-5 -0.0049 0-0.0097 0-0.01465 0-0.01271-1e-3 -0.0254-1e-3 -0.03809 3e-5 -0.0039 1e-3 -0.0078 1e-3 -0.01172 0-0.0064 3e-5 -0.01265 0-0.01904 0-0.0039 1e-5 -0.0078 0-0.01172 7e-5 -0.0098 0-0.01946 0-0.0293 0-0.0069 4e-5 -0.01363 0-0.02051 5e-5 -0.0063-2e-5 -0.0127 0-0.01904 0-0.0039 1e-5 -0.0078 0-0.01172 0-3e-3 1e-5 -0.0058 0-0.0088 0-0.0034 1e-5 -0.0068 0-0.01025v-0.0059c2e-5 -0.0044 0-0.0088 0-0.01318v-0.0029c3e-5 -0.0059 0-0.01172 0-0.01758 0-0.01033 8e-5 -0.02045 0-0.03076 0-0.0025 1e-5 -0.0049 0-0.0073v-0.0029c0-3e-3 1e-5 -0.0058 0-0.0088 0-0.0059 3e-5 -0.01172 0-0.01758 1e-5 -9.83e-4 0-0.0019 0-0.0029 0-3e-3 1e-5 -0.0058 0-0.0088 0-0.0034 1e-5 -0.0068 0-0.01025 0-0.0034 1e-5 -0.0068 0-0.01025 0-0.0039 1e-5 -0.0078 0-0.01172 0-0.0025 1e-5 -0.0049 0-0.0073 3e-5 -0.0039-2e-5 -0.0078 0-0.01172 0-0.0064 3e-5 -0.01265 0-0.01904 0-0.0034 1e-5 -0.0068 0-0.01025 0-0.0034 1e-5 -0.0068 0-0.01025 0-0.0069 4e-5 -0.01363 0-0.02051 0-0.0098 7e-5 -0.01955 0-0.0293 0-0.0088 6e-5 -0.01759 0-0.02637 5e-5 -0.0084 0-0.01654 0-0.0249 0-0.01526-1e-3 -0.03019-1e-3 -0.04541 2.5e-4 -0.01558 1e-3 -0.03125 1e-3 -0.04687-2e-5 -0.0059 5e-5 -0.01173 0-0.01758 0-0.0571-2e-3 -0.1134-4e-3 -0.16992-1.8e-4 -0.0034 1.8e-4 -0.0068 0-0.01025 3e-3 -0.0594 4e-3 -0.11865 4e-3 -0.17871 0-0.69895-0.18441-1.3559-0.50683-1.9248l0.39404-0.39404a0.355 0.355 0 0 0 0.104-0.27246 0.355 0.355 0 0 0-3e-3 -0.0293 0.355 0.355 0 0 0 3e-3 -0.04102 0.355 0.355 0 0 0-1e-3 -0.02197 0.355 0.355 0 0 0 1e-3 -0.02637 0.355 0.355 0 0 0-1e-3 -0.0249 0.355 0.355 0 0 0 1e-3 -0.01611 0.355 0.355 0 0 0 0-0.0044 0.355 0.355 0 0 0 0-0.0088 0.355 0.355 0 0 0-1e-3 -0.01758 0.355 0.355 0 0 0 0-0.0015 0.355 0.355 0 0 0 1e-3 -0.0073 0.355 0.355 0 0 0 0-0.0088 0.355 0.355 0 0 0 0-0.0015 0.355 0.355 0 0 0-1e-3 -0.02051 0.355 0.355 0 0 0 1e-3 -0.0249 0.355 0.355 0 0 0 0-0.0088 0.355 0.355 0 0 0-1e-3 -0.01318 0.355 0.355 0 0 0 1e-3 -0.01172 0.355 0.355 0 0 0 0-0.0088 0.355 0.355 0 0 0 0-0.01465 0.355 0.355 0 0 0 0-0.01318 0.355 0.355 0 0 0 0-0.01025 0.355 0.355 0 0 0-1e-3 -0.01172 0.355 0.355 0 0 0 0-0.0029 0.355 0.355 0 0 0 1e-3 -0.0088 0.355 0.355 0 0 0-1e-3 -0.0088 0.355 0.355 0 0 0 0-0.0044 0.355 0.355 0 0 0 1e-3 -0.01611 0.355 0.355 0 0 0-1e-3 -0.01025 0.355 0.355 0 0 0 0-0.03516 0.355 0.355 0 0 0 0-0.03955 0.355 0.355 0 0 0-1e-3 -0.06152 0.355 0.355 0 0 0 1e-3 -0.05566 0.355 0.355 0 0 0-0.0483-0.19922 0.355 0.355 0 0 0-0.0542-0.4292 0.355 0.355 0 0 0-0.25195-0.10547 0.355 0.355 0 0 0-0.25049 0.10547l-0.79981 0.79834c-0.67837-0.56444-1.55-0.90381-2.499-0.90381-0.95233 0-1.8265 0.34164-2.5064 0.90967l-0.8042-0.8042a0.355 0.355 0 0 0-0.24902-0.10547zm3.5596 1.6904c0.50019 0 0.97352 0.11481 1.3945 0.31787l-1.4004 1.4004-1.396-1.396c0.42345-0.20573 0.89818-0.32226 1.4019-0.32226zm2.5049 1.2026c0.34152 0.42754 0.57567 0.94611 0.66211 1.5132-0.0865 0.56739-0.32175 1.084-0.66357 1.5117l-1.5117-1.5132zm-5.0142 0.0059 1.5073 1.5073-1.5073 1.5059c-0.33937-0.42644-0.57302-0.94276-0.65918-1.5073 0.0862-0.56456 0.31982-1.0794 0.65918-1.5059zm2.5034 2.5034 1.4019 1.4019c-0.42131 0.20341-0.89535 0.31641-1.396 0.31641-0.50366 0-0.97843-0.11509-1.4019-0.3208zm-72.435 53.607c-0.94931 0-1.8205 0.34047-2.499 0.90527l-0.79981-0.7998a0.355 0.355 0 0 0-0.50244 0 0.355 0.355 0 0 0-0.10254 0.25928 0.355 0.355 0 0 0 0 0.0146 0.355 0.355 0 0 0 0 1e-3 0.355 0.355 0 0 0 0 0.0102 0.355 0.355 0 0 0 0 9e-3 0.355 0.355 0 0 0 1e-3 0.0147 0.355 0.355 0 0 0 0 1e-3 0.355 0.355 0 0 0 0 1e-3 0.355 0.355 0 0 0-1e-3 0.0147 0.355 0.355 0 0 0 0 7e-3 0.355 0.355 0 0 0 0 1e-3 0.355 0.355 0 0 0 0 9e-3 0.355 0.355 0 0 0 0 1e-3 0.355 0.355 0 0 0 0 0.0103 0.355 0.355 0 0 0 0 7e-3 0.355 0.355 0 0 0 0 0.0102 0.355 0.355 0 0 0 0 0.0117 0.355 0.355 0 0 0 0 0.0103 0.355 0.355 0 0 0 0 1e-3 0.355 0.355 0 0 0 0 7e-3 0.355 0.355 0 0 0 0 1e-3 0.355 0.355 0 0 0 0 1e-3 0.355 0.355 0 0 0 0.0381 0.15673 0.355 0.355 0 0 0-0.0337 0.18604 0.355 0.355 0 0 0-4e-3 0.0352 0.355 0.355 0 0 0 0 9e-3 0.355 0.355 0 0 0 6e-3 0.041 0.355 0.355 0 0 0-3e-3 0.0557 0.355 0.355 0 0 0 3e-3 0.0527 0.355 0.355 0 0 0-6e-3 0.0425 0.355 0.355 0 0 0 0 9e-3 0.355 0.355 0 0 0 0.10254 0.25635l0.4834 0.48339c-0.34444 0.54893-0.55692 1.1893-0.5918 1.875-1.5e-4 3e-3 1.5e-4 6e-3 0 9e-3 -3.3e-4 7e-3 3e-4 0.0137 0 0.0205-1.5e-4 3e-3 1.5e-4 6e-3 0 9e-3 -3.3e-4 7e-3 3e-4 0.0147 0 0.022-1.1e-4 2e-3 1.1e-4 5e-3 0 7e-3 -4e-5 9.6e-4 5e-5 2e-3 0 3e-3 -6e-5 1e-3 -1e-3 3e-3 -1e-3 4e-3 -4e-5 9.5e-4 4e-5 2e-3 0 3e-3 -1.4e-4 4e-3 1.3e-4 8e-3 0 0.0117-1.6e-4 5e-3 1.4e-4 0.01 0 0.0147-3.5e-4 0.0131-1e-3 0.0264-1e-3 0.0395-2.7e-4 0.0191-1e-3 0.0379-1e-3 0.0571v6e-3 4e-3c-1e-5 3e-3 0 6e-3 0 9e-3 -1e-5 3e-3 0 7e-3 0 0.0103-1e-5 3e-3 0 7e-3 0 0.0102 0 1e-3 -1e-5 3e-3 0 4e-3 -1e-5 1e-3 1e-5 3e-3 0 4e-3v3e-3c-1e-5 3e-3 0 6e-3 0 9e-3 -1e-5 3e-3 0 7e-3 0 0.0102v3e-3c-1e-5 2e-3 0 5e-3 0 7e-3v4e-3 4e-3c0 7e-3 -4e-5 0.0137 0 0.0205-1e-5 3e-3 0 6e-3 0 9e-3 -1e-5 4e-3 0 8e-3 0 0.0117-1e-5 3e-3 0 7e-3 0 0.0102v4e-3 6e-3c0 0.0157 1e-3 0.0312 1e-3 0.0469 2e-5 9.8e-4 -1e-5 2e-3 0 3e-3 3e-5 2e-3 -2e-5 4e-3 0 6e-3 2.2e-4 0.0152 1e-3 0.0302 1e-3 0.0454 6.5e-4 0.023 4.2e-4 0.046 1e-3 0.0688 1.9e-4 4e-3 -1.9e-4 8e-3 0 0.0117 1.2e-4 2e-3 -1.1e-4 5e-3 0 7e-3v1e-3c1.7e-4 3e-3 -1.7e-4 7e-3 0 0.0102-9.7e-4 0.0357-4e-3 0.071-4e-3 0.10693 0 0.0117 1e-3 0.0234 1e-3 0.0352-5e-5 9e-3 -1e-3 0.0176-1e-3 0.0264 0 4e-3 -2e-5 9e-3 0 0.0132v6e-3c-1e-5 4e-3 0 8e-3 0 0.0117 0 0.0103 1e-3 0.0204 1e-3 0.0308 4e-5 3e-3 -3e-5 6e-3 0 9e-3 -7e-5 0.01-1e-3 0.0195-1e-3 0.0293 0 7e-3 -4e-5 0.0146 0 0.022-3e-5 6e-3 0 0.0127 0 0.019 0 0.0113 1e-3 0.0224 1e-3 0.0337-1e-5 1e-3 2e-5 3e-3 0 4e-3 -6e-5 5e-3 5e-5 0.01 0 0.0147 2e-5 9.8e-4 -1e-5 2e-3 0 3e-3 -1e-5 5e-3 -1e-3 0.01-1e-3 0.0147v4e-3 4e-3c0 1e-3 -1e-5 3e-3 0 4e-3v6e-3c2.9e-4 0.061 1e-3 0.12135 4e-3 0.18164 1.7e-4 3e-3 -1.7e-4 7e-3 0 0.0102 0.0334 0.68653 0.24511 1.3268 0.58887 1.8765l-0.48047 0.48047a0.355 0.355 0 0 0-0.10254 0.26074 0.355 0.355 0 0 0 0 0.0161 0.355 0.355 0 0 0 0 7e-3 0.355 0.355 0 0 0 0 0.0132 0.355 0.355 0 0 0 0 0.0132 0.355 0.355 0 0 0 0 0.0161 0.355 0.355 0 0 0 0 9e-3 0.355 0.355 0 0 0 0 1e-3 0.355 0.355 0 0 0 0 9e-3 0.355 0.355 0 0 0 0 1e-3 0.355 0.355 0 0 0 0 9e-3 0.355 0.355 0 0 0 0 9e-3 0.355 0.355 0 0 0 0 0.0132 0.355 0.355 0 0 0 0 7e-3 0.355 0.355 0 0 0 0 0.0117 0.355 0.355 0 0 0 0 9e-3 0.355 0.355 0 0 0 0 1e-3 0.355 0.355 0 0 0 0.0395 0.15821 0.355 0.355 0 0 0-0.0351 0.18603 0.355 0.355 0 0 0-4e-3 0.0366 0.355 0.355 0 0 0 0 7e-3 0.355 0.355 0 0 0 6e-3 0.0396 0.355 0.355 0 0 0-3e-3 0.0557 0.355 0.355 0 0 0 3e-3 0.0571 0.355 0.355 0 0 0-6e-3 0.0439 0.355 0.355 0 0 0 0.10254 0.26074 0.355 0.355 0 0 0 0.50244 0l0.79395-0.79541c0.67917 0.56681 1.5533 0.9082 2.5049 0.9082 0.95381 0 1.829-0.34341 2.5093-0.9126l0.7998 0.79981a0.355 0.355 0 0 0 0.38672 0.0762 0.355 0.355 0 0 0 0.11426-0.0762 0.355 0.355 0 0 0 0.0366-0.0425 0.355 0.355 0 0 0 0.0293-0.0483 0.355 0.355 0 0 0 0.0381-0.18018 0.355 0.355 0 0 0-3e-3 -0.0352 0.355 0.355 0 0 0 1e-3 -0.0454 0.355 0.355 0 0 0 0-0.0733 0.355 0.355 0 0 0 1e-3 -0.0293 0.355 0.355 0 0 0 0-0.0132 0.355 0.355 0 0 0-3e-3 -0.0337 0.355 0.355 0 0 0-0.0322-0.18457 0.355 0.355 0 0 0 0.0351-0.1582 0.355 0.355 0 0 0 0-0.0147 0.355 0.355 0 0 0 0-3e-3 0.355 0.355 0 0 0 0-1e-3 0.355 0.355 0 0 0 0-0.0293 0.355 0.355 0 0 0 0-9e-3 0.355 0.355 0 0 0 0-1e-3 0.355 0.355 0 0 0 0-9e-3 0.355 0.355 0 0 0 0-3e-3 0.355 0.355 0 0 0 0-0.0132 0.355 0.355 0 0 0-1e-3 -0.0102 0.355 0.355 0 0 0 0-1e-3 0.355 0.355 0 0 0 1e-3 -0.0176 0.355 0.355 0 0 0 0-9e-3 0.355 0.355 0 0 0 0-0.0161 0.355 0.355 0 0 0-1e-3 -0.0102 0.355 0.355 0 0 0-0.10254-0.26074l-0.48486-0.48487c0.3424-0.54869 0.55259-1.1874 0.58593-1.8721 1.8e-4 -3e-3 -1.6e-4 -7e-3 0-0.0102 3e-3 -0.0622 4e-3 -0.12454 4e-3 -0.1875v-4e-3 -4e-3 -4e-3c0-0.0122-1e-3 -0.0244-1e-3 -0.0366 1e-4 -0.0113 1e-3 -0.0224 1e-3 -0.0337 0-6e-3 3e-5 -0.0127 0-0.019 4e-5 -7e-3 0-0.0146 0-0.022 0-0.0127-1e-3 -0.0254-1e-3 -0.0381 6e-5 -7e-3 1e-3 -0.0136 1e-3 -0.0205 2e-5 -3e-3 -1e-5 -7e-3 0-0.0102 0-4e-3 1e-5 -8e-3 0-0.0117v-6e-3c-2e-5 -4e-3 3e-5 -9e-3 0-0.0132 0-9e-3 -1e-3 -0.0176-1e-3 -0.0264 1.1e-4 -0.0117 1e-3 -0.0234 1e-3 -0.0352 0-0.036-3e-3 -0.0712-4e-3 -0.10693 1.8e-4 -3e-3 -1.6e-4 -7e-3 0-0.0102v-1e-3c-7e-5 -2e-3 8e-5 -5e-3 0-7e-3 2e-4 -4e-3 -1.8e-4 -8e-3 0-0.0117 1e-3 -0.0229 8.2e-4 -0.0459 1e-3 -0.0688 3.9e-4 -0.0152 1e-3 -0.0302 1e-3 -0.0454 4e-5 -2e-3 -3e-5 -4e-3 0-6e-3 2e-5 -9.7e-4 -1e-5 -2e-3 0-3e-3 1e-4 -8e-3 -4e-5 -0.0156 0-0.0234 7e-5 -8e-3 1e-3 -0.0156 1e-3 -0.0234v-6e-3 -4e-3c0-3e-3 1e-5 -7e-3 0-0.0102 0-4e-3 1e-5 -8e-3 0-0.0117 0-3e-3 1e-5 -6e-3 0-9e-3 0-7e-3 3e-5 -0.0137 0-0.0205v-4e-3 -4e-3 -7e-3c-1e-5 -9.8e-4 0-2e-3 0-3e-3 0-3e-3 1e-5 -7e-3 0-0.0102 0-3e-3 1e-5 -6e-3 0-9e-3v-3e-3c-1e-5 -1e-3 0-3e-3 0-4e-3s-1e-5 -3e-3 0-4e-3c0-3e-3 1e-5 -7e-3 0-0.0102 0-3e-3 1e-5 -7e-3 0-0.0103 0-3e-3 1e-5 -6e-3 0-9e-3v-4e-3c-1e-5 -2e-3 1e-5 -4e-3 0-6e-3 0-0.0546-2e-3 -0.10849-4e-3 -0.1626-1.5e-4 -3e-3 1.6e-4 -6e-3 0-9e-3 -2.9e-4 -7e-3 3.4e-4 -0.0137 0-0.0205-1.5e-4 -3e-3 1.6e-4 -6e-3 0-9e-3 -0.0348-0.6838-0.24579-1.3227-0.58886-1.8706l0.48779-0.48779a0.355 0.355 0 0 0 0.10107-0.20508 0.355 0.355 0 0 0 4e-3 -0.0601 0.355 0.355 0 0 0-3e-3 -0.0498 0.355 0.355 0 0 0 0-0.0469 0.355 0.355 0 0 0-1e-3 -0.0542 0.355 0.355 0 0 0 3e-3 -0.0381 0.355 0.355 0 0 0 0-0.0146 0.355 0.355 0 0 0-3e-3 -0.0337 0.355 0.355 0 0 0-0.0322-0.18457 0.355 0.355 0 0 0 0.0308-0.10693 0.355 0.355 0 0 0 4e-3 -0.0469 0.355 0.355 0 0 0 0-3e-3 0.355 0.355 0 0 0 0-0.0132 0.355 0.355 0 0 0 0-7e-3 0.355 0.355 0 0 0 0-0.0147 0.355 0.355 0 0 0 0-0.0117 0.355 0.355 0 0 0 0-0.0161 0.355 0.355 0 0 0 0-0.0132 0.355 0.355 0 0 0 0-1e-3 0.355 0.355 0 0 0-1e-3 -0.0161 0.355 0.355 0 0 0 0-1e-3 0.355 0.355 0 0 0 0-4e-3 0.355 0.355 0 0 0 1e-3 -0.0176 0.355 0.355 0 0 0 0-3e-3 0.355 0.355 0 0 0 0-0.0147 0.355 0.355 0 0 0 0-0.0117 0.355 0.355 0 0 0-0.104-0.26074 0.355 0.355 0 0 0-0.50098 0l-0.8042 0.8042c-0.6797-0.56761-1.553-0.90967-2.5049-0.90967zm0 1.4604c0.5641 0 1.093 0.1456 1.5527 0.3999l-1.5483 1.5483-1.5513-1.5513c0.45838-0.25234 0.98512-0.39697 1.5469-0.39697zm-2.5005 1.1968 1.6289 1.6289-1.6333 1.6318c-0.36541-0.45702-0.60771-1.0171-0.67822-1.6304 0.0717-0.61358 0.31581-1.1737 0.68261-1.6304zm5.0039 6e-3c0.36457 0.45572 0.60828 1.0132 0.67969 1.6245-0.0703 0.61106-0.31211 1.1684-0.6753 1.6245l-1.626-1.6274zm-2.499 2.499 1.5542 1.5542c-0.46119 0.25649-0.9919 0.4043-1.5586 0.4043-0.56455 0-1.0942-0.14522-1.5542-0.39991zm-75.993 37.548a0.355 0.355 0 0 0-0.25195 0.104 0.355 0.355 0 0 0-0.10108 0.26661 0.355 0.355 0 0 0-1e-3 0.019 0.355 0.355 0 0 0 0 0.0161 0.355 0.355 0 0 0 0 0.0132 0.355 0.355 0 0 0 0 0.0117 0.355 0.355 0 0 0 0 7e-3 0.355 0.355 0 0 0 0 0.0102 0.355 0.355 0 0 0 0 0.0117 0.355 0.355 0 0 0 0 0.0161 0.355 0.355 0 0 0 0 0.0147 0.355 0.355 0 0 0 0 0.0103 0.355 0.355 0 0 0 0 9e-3 0.355 0.355 0 0 0 0 9e-3 0.355 0.355 0 0 0 1e-3 0.0176 0.355 0.355 0 0 0-1e-3 0.0146 0.355 0.355 0 0 0 0 0.0103 0.355 0.355 0 0 0 0.10254 0.25488l0.35449 0.35449a0.355 0.355 0 0 0-0.35449 0.0835 0.355 0.355 0 0 0-0.0982 0.27539 0.355 0.355 0 0 0-4e-3 0.0308 0.355 0.355 0 0 0 0.019 0.10693 0.355 0.355 0 0 0-6e-3 0.17285 0.355 0.355 0 0 0-0.0103 0.0937 0.355 0.355 0 0 0 1e-3 0.0469 0.355 0.355 0 0 0 0.0117 0.1084 0.355 0.355 0 0 0 0 1e-3 0.355 0.355 0 0 0-0.0132 0.10547 0.355 0.355 0 0 0 0 0.0439 0.355 0.355 0 0 0 0 0.0439 0.355 0.355 0 0 0-3e-3 0.0278 0.355 0.355 0 0 0 0 0.0132 0.355 0.355 0 0 0 0 0.0205 0.355 0.355 0 0 0 3e-3 0.0366 0.355 0.355 0 0 0-1e-3 0.0381 0.355 0.355 0 0 0 1e-3 0.0352 0.355 0.355 0 0 0 0.0996 0.27099l0.063 0.063c-0.10718 0.35645-0.16553 0.73413-0.16553 1.125 0 5e-3 -2e-5 0.0107 0 0.0161-2e-5 5e-3 0 0.01 0 0.0146-1e-5 3e-3 0 7e-3 0 0.0103 1e-5 3e-3 -2e-5 7e-3 0 0.0102-3e-5 6e-3 0 0.0127 0 0.019v3e-3 7e-3c0 2e-3 -1e-5 5e-3 0 7e-3v4e-3c-1e-5 3e-3 0 6e-3 0 9e-3 0 5e-3 -2e-5 0.0108 0 0.0161v4e-3c-1e-5 3e-3 0 6e-3 0 9e-3 -2e-5 3e-3 1e-5 6e-3 0 9e-3v1e-3c-1e-5 3e-3 0 7e-3 0 0.0103 1e-5 2e-3 -1e-5 5e-3 0 7e-3 -2e-5 4e-3 0 9e-3 0 0.0132 0 5e-3 -2e-5 0.01 0 0.0146v6e-3c-1e-5 3e-3 0 6e-3 0 9e-3 4.2e-4 0.0576 2e-3 0.11589 4e-3 0.17285 3e-4 6e-3 -3.2e-4 0.0127 0 0.019 1.7e-4 3e-3 -1.7e-4 7e-3 0 0.0103 3e-3 0.0631 8e-3 0.12519 0.0147 0.1875 3e-3 0.0284 7e-3 0.0567 0.0103 0.085-0.019 0.156-0.0293 0.31356-0.0293 0.4746 0 9e-3 -6e-5 0.0176 0 0.0264-5e-5 8e-3 0 0.0165 0 0.0249v6e-3 4e-3c0 7e-3 -4e-5 0.0136 0 0.0205 1.8e-4 0.0231 8.8e-4 0.0459 1e-3 0.0688-8.4e-4 0.0333-1e-3 0.0661-1e-3 0.0996 0 0.0315 7.2e-4 0.0639 1e-3 0.0952-3.5e-4 0.0216-1e-3 0.0428-1e-3 0.0644 0 4e-3 -2e-5 9e-3 0 0.0132-3e-5 6e-3 0 0.0127 0 0.019 0 8e-3 -5e-5 0.0165 0 0.0249-5e-5 8e-3 0 0.0156 0 0.0234 0 0.0266 9.3e-4 0.0526 1e-3 0.0791-8.5e-4 0.0335-1e-3 0.0674-1e-3 0.10107 0 8e-3 -5e-5 0.0156 0 0.0234-1e-5 2e-3 0 5e-3 0 7e-3 -1e-5 3e-3 0 7e-3 0 0.0103 0 6e-3 -3e-5 0.0117 0 0.0176-4e-5 7e-3 0 0.0136 0 0.0205 0 9e-3 -6e-5 0.0176 0 0.0264-5e-5 8e-3 0 0.0165 0 0.0249-3e-5 6e-3 0 0.0127 0 0.019 0 9.8e-4 -1e-5 2e-3 0 3e-3 -3e-5 6e-3 0 0.0117 0 0.0176 4e-5 4e-3 1e-3 8e-3 1e-3 0.0117 3e-5 2e-3 -2e-5 4e-3 0 6e-3 -8e-5 0.0108-1e-3 0.0214-1e-3 0.0322 0 9e-3 -6e-5 0.0176 0 0.0264-2e-5 4e-3 0 9e-3 0 0.0132 0 5e-3 -2e-5 0.0107 0 0.0161-2e-5 5e-3 0 0.01 0 0.0146 4.4e-4 0.057 2e-3 0.11352 4e-3 0.16992 0.0142 0.33125 0.0693 0.65139 0.16114 0.95655l-0.063 0.063a0.355 0.355 0 0 0-0.10108 0.2666 0.355 0.355 0 0 0-1e-3 0.019 0.355 0.355 0 0 0 0 0.0146 0.355 0.355 0 0 0 0 0.0147 0.355 0.355 0 0 0 0 9e-3 0.355 0.355 0 0 0 0 0.0132 0.355 0.355 0 0 0 0 0.0103 0.355 0.355 0 0 0 0 9e-3 0.355 0.355 0 0 0 0 0.0146 0.355 0.355 0 0 0 0 0.0147 0.355 0.355 0 0 0 0 1e-3 0.355 0.355 0 0 0 0 9e-3 0.355 0.355 0 0 0 0 9e-3 0.355 0.355 0 0 0 0 0.0132 0.355 0.355 0 0 0 0 0.0132 0.355 0.355 0 0 0 0 0.0147 0.355 0.355 0 0 0 0 0.0102 0.355 0.355 0 0 0 0.10254 0.25635 0.355 0.355 0 0 0 0.35449 0.082l-0.35449 0.35449a0.355 0.355 0 0 0-0.0982 0.27686 0.355 0.355 0 0 0-4e-3 0.0308 0.355 0.355 0 0 0 0.0176 0.10107 0.355 0.355 0 0 0-4e-3 0.18018 0.355 0.355 0 0 0-0.0103 0.0937 0.355 0.355 0 0 0 0 0.0439 0.355 0.355 0 0 0 0.0132 0.10839 0.355 0.355 0 0 0 0 1e-3 0.355 0.355 0 0 0-0.0132 0.10547 0.355 0.355 0 0 0 0 0.0454 0.355 0.355 0 0 0 0 0.0469 0.355 0.355 0 0 0-3e-3 0.022 0.355 0.355 0 0 0 0 0.0146 0.355 0.355 0 0 0 1e-3 0.022 0.355 0.355 0 0 0 1e-3 0.0337 0.355 0.355 0 0 0-1e-3 0.041 0.355 0.355 0 0 0 1e-3 0.0352 0.355 0.355 0 0 0 0.0996 0.271 0.355 0.355 0 0 0 0.50244 0l0.80566-0.80567c0.67906 0.56639 1.5522 0.9082 2.5034 0.9082 0.94857 0 1.8189-0.34021 2.4976-0.9038l0.80127 0.80127a0.355 0.355 0 0 0 0.50098 0 0.355 0.355 0 0 0 0.10254-0.271 0.355 0.355 0 0 0 0-0.0352 0.355 0.355 0 0 0 0-0.0395 0.355 0.355 0 0 0 0-0.0366 0.355 0.355 0 0 0 1e-3 -0.019 0.355 0.355 0 0 0 0-0.0146 0.355 0.355 0 0 0-1e-3 -0.0176 0.355 0.355 0 0 0 0-0.0615 0.355 0.355 0 0 0 0-1e-3 0.355 0.355 0 0 0 0-0.0352 0.355 0.355 0 0 0-0.0103-0.10547 0.355 0.355 0 0 0 0.0103-0.1084 0.355 0.355 0 0 0 0-0.0454 0.355 0.355 0 0 0-7e-3 -0.0923 0.355 0.355 0 0 0-6e-3 -0.18165 0.355 0.355 0 0 0 0.0147-0.10253 0.355 0.355 0 0 0-1e-3 -0.0293 0.355 0.355 0 0 0-0.10254-0.27686l-0.35303-0.35302a0.355 0.355 0 0 0 0.35303-0.0835 0.355 0.355 0 0 0 0.0996-0.20508 0.355 0.355 0 0 0 4e-3 -0.0469 0.355 0.355 0 0 0 0-9e-3 0.355 0.355 0 0 0 0-3e-3 0.355 0.355 0 0 0 0-0.0117 0.355 0.355 0 0 0 0-0.0366 0.355 0.355 0 0 0 0-9e-3 0.355 0.355 0 0 0 0-1e-3 0.355 0.355 0 0 0 0-3e-3 0.355 0.355 0 0 0-1e-3 -0.0176 0.355 0.355 0 0 0 0-1e-3 0.355 0.355 0 0 0 0-1e-3 0.355 0.355 0 0 0 0-1e-3 0.355 0.355 0 0 0 1e-3 -4e-3 0.355 0.355 0 0 0 0-9e-3 0.355 0.355 0 0 0 0-0.0147 0.355 0.355 0 0 0 0-0.0132 0.355 0.355 0 0 0 0-9e-3 0.355 0.355 0 0 0-1e-3 -0.0147 0.355 0.355 0 0 0 1e-3 -0.0103 0.355 0.355 0 0 0 0-9e-3 0.355 0.355 0 0 0-1e-3 -0.0132 0.355 0.355 0 0 0-0.10254-0.26806l-0.0527-0.0527c0.0938-0.30819 0.14973-0.63187 0.16406-0.9668 3e-3 -0.0564 4e-3 -0.11291 4e-3 -0.16992 0-0.0147 1.6e-4 -0.0292 0-0.0439 6e-5 -9e-3 0-0.0176 0-0.0264 0-0.0128-1e-3 -0.0253-1e-3 -0.0381 4e-5 -4e-3 1e-3 -8e-3 1e-3 -0.0117 7e-5 -7e-3 -3e-5 -0.0136 0-0.0205 0-6e-3 3e-5 -0.0127 0-0.019 0-8e-3 5e-5 -0.0165 0-0.0249 6e-5 -9e-3 0-0.0176 0-0.0264 0-7e-3 4e-5 -0.0136 0-0.0205-5e-5 -9e-3 1.1e-4 -0.0185 0-0.0278v-7e-3c5e-5 -8e-3 0-0.0156 0-0.0234 0-0.0249-2e-3 -0.0499-3e-3 -0.0747 9.4e-4 -0.0352 3e-3 -0.07 3e-3 -0.10547 0-8e-3 5e-5 -0.0156 0-0.0234 5e-5 -8e-3 0-0.0165 0-0.0249 0-0.0323-6.8e-4 -0.0646-1e-3 -0.0967v-1e-3c7.5e-4 -0.0313 1e-3 -0.0623 1e-3 -0.0937 0-0.0335-6.2e-4 -0.0663-1e-3 -0.0996 8e-4 -0.0313 1e-3 -0.0623 1e-3 -0.0937v-6e-3c0-8e-3 5e-5 -0.0165 0-0.0249 6e-5 -9e-3 0-0.0176 0-0.0264 0-0.16057-0.0118-0.31757-0.0308-0.47314 0.0115-0.094 0.0217-0.18825 0.0264-0.28418 3.3e-4 -6e-3 -2.9e-4 -0.0127 0-0.019 2e-3 -0.0391 2e-3 -0.0793 3e-3 -0.11865 9e-5 -5e-3 -6e-5 -0.0107 0-0.0161 1.6e-4 -0.0128 1e-3 -0.0253 1e-3 -0.0381 2e-5 -3e-3 -2e-5 -6e-3 0-9e-3v-6e-3c-2e-5 -5e-3 4e-5 -0.01 0-0.0146 0-4e-3 1e-5 -9e-3 0-0.0132 1e-5 -2e-3 -1e-5 -5e-3 0-7e-3 0-3e-3 1e-5 -7e-3 0-0.0103v-6e-3c1e-5 -1e-3 -1e-5 -3e-3 0-4e-3 0-3e-3 1e-5 -6e-3 0-9e-3 0-7e-3 3e-5 -0.0137 0-0.0205 0-3e-3 1e-5 -6e-3 0-9e-3v-4e-3c-1e-5 -2e-3 1e-5 -5e-3 0-7e-3v-7e-3 -3e-3c0-6e-3 3e-5 -0.0127 0-0.019 0-3e-3 1e-5 -7e-3 0-0.0102 0-3e-3 1e-5 -7e-3 0-0.0103 0-0.0103 8e-5 -0.0204 0-0.0308 0-0.39459-0.0592-0.77582-0.16846-1.1352l0.0527-0.0527a0.355 0.355 0 0 0 0.10254-0.27099 0.355 0.355 0 0 0 0-0.0352 0.355 0.355 0 0 0 0-0.0395 0.355 0.355 0 0 0 0-0.0366 0.355 0.355 0 0 0 0-0.0176 0.355 0.355 0 0 0 1e-3 -0.0205 0.355 0.355 0 0 0-1e-3 -0.0146 0.355 0.355 0 0 0 0-0.0498 0.355 0.355 0 0 0 0-0.0454 0.355 0.355 0 0 0-0.0103-0.10547 0.355 0.355 0 0 0 0.0103-0.10986 0.355 0.355 0 0 0 0-0.0469 0.355 0.355 0 0 0-7e-3 -0.0923 0.355 0.355 0 0 0-6e-3 -0.17578 0.355 0.355 0 0 0 0.0147-0.10401 0.355 0.355 0 0 0-1e-3 -0.0322 0.355 0.355 0 0 0-0.10254-0.27539 0.355 0.355 0 0 0-0.3545-0.0835l0.3545-0.35449a0.355 0.355 0 0 0 0.104-0.26074 0.355 0.355 0 0 0 0-3e-3 0.355 0.355 0 0 0-1e-3 -0.0176 0.355 0.355 0 0 0 1e-3 -0.0132 0.355 0.355 0 0 0 0-0.0161 0.355 0.355 0 0 0 0-0.0103 0.355 0.355 0 0 0 0-4e-3 0.355 0.355 0 0 0-1e-3 -0.0176 0.355 0.355 0 0 0 0-1e-3 0.355 0.355 0 0 0 0-1e-3 0.355 0.355 0 0 0 1e-3 -0.0132 0.355 0.355 0 0 0 0-0.0161 0.355 0.355 0 0 0 0-0.0132 0.355 0.355 0 0 0 0-7e-3 0.355 0.355 0 0 0-1e-3 -0.0161 0.355 0.355 0 0 0 1e-3 -9e-3 0.355 0.355 0 0 0 0-4e-3 0.355 0.355 0 0 0-1e-3 -0.022 0.355 0.355 0 0 0-0.10254-0.26514 0.355 0.355 0 0 0-0.50098 0l-0.7998 0.79981c-0.6788-0.56401-1.5501-0.90381-2.499-0.90381-0.95159 0-1.8257 0.34139-2.5049 0.9082l-0.8042-0.8042a0.355 0.355 0 0 0-0.25049-0.104zm3.5596 0.90967c0.70503 0 1.3554 0.22576 1.8838 0.60937l-0.0762 0.0762c-0.54165-0.28342-1.1554-0.44531-1.8076-0.44531-0.65454 0-1.2721 0.16292-1.8149 0.44824l-0.0747-0.0747c0.52922-0.3858 1.1824-0.61377 1.8896-0.61377zm0 1.9102c0.18342 0 0.36272 0.016 0.5376 0.0454l-0.54346 0.54346-0.54052-0.54053c0.17758-0.0303 0.35995-0.0483 0.54638-0.0483zm2.5034 1.2026c0.22462 0.28077 0.40249 0.60078 0.52295 0.94775-0.12059 0.34701-0.29819 0.66701-0.52295 0.94776l-0.94775-0.94776zm-5.0127 6e-3 0.9419 0.94189-0.9419 0.9419c-0.22284-0.27971-0.39881-0.59824-0.51855-0.94336 0.1196-0.34407 0.29643-0.66141 0.51855-0.94043zm2.5034 2.5034 0.54199 0.54199c-0.17445 0.0292-0.35318 0.0454-0.53613 0.0454-0.18637 0-0.36885-0.0166-0.54638-0.0469zm-1.2788 1.2803c0.40258 0.14029 0.83493 0.2168 1.2847 0.2168 0.44716 0 0.87662-0.0751 1.2774-0.21387l0.13037 0.13037c-0.42492 0.20752-0.90171 0.32373-1.4077 0.32373-0.50833 0-0.98866-0.11734-1.415-0.32666zm-74.706 53.498a0.355 0.355 0 0 0-0.25049 0.104 0.355 0.355 0 0 0 0 0.50245l0.7998 0.7998c-0.0418 0.0499-0.0837 0.10037-0.12304 0.15234l-0.17432-0.17431a0.355 0.355 0 0 0-0.50244 0 0.355 0.355 0 0 0-0.0674 0.40136 0.355 0.355 0 0 0 0.0454 0.37061 0.355 0.355 0 0 0-0.0776 0.23877 0.355 0.355 0 0 0 0 0.0454 0.355 0.355 0 0 0-1e-3 0.0395 0.355 0.355 0 0 0 0 0.0308 0.355 0.355 0 0 0-1e-3 0.0205 0.355 0.355 0 0 0-1e-3 9e-3 0.355 0.355 0 0 0 1e-3 0.0102 0.355 0.355 0 0 0-1e-3 6e-3 0.355 0.355 0 0 0 0 0.0176 0.355 0.355 0 0 0 0.0132 0.0674 0.355 0.355 0 0 0-3e-3 0.11719 0.355 0.355 0 0 0-7e-3 0.0791 0.355 0.355 0 0 0-1e-3 0.0234 0.355 0.355 0 0 0 1e-3 0.019 0.355 0.355 0 0 0 4e-3 0.0498 0.355 0.355 0 0 0 0 0.0688 0.355 0.355 0 0 0-6e-3 0.0425 0.355 0.355 0 0 0-1e-3 9e-3 0.355 0.355 0 0 0 3e-3 0.0161 0.355 0.355 0 0 0 1e-3 0.0337 0.355 0.355 0 0 0-3e-3 0.0308 0.355 0.355 0 0 0 3e-3 0.0293 0.355 0.355 0 0 0-3e-3 0.0308 0.355 0.355 0 0 0 0 1e-3 0.355 0.355 0 0 0 0 7e-3 0.355 0.355 0 0 0 0 0.0146 0.355 0.355 0 0 0 1e-3 0.0205 0.355 0.355 0 0 0-1e-3 0.022 0.355 0.355 0 0 0 0 0.0146 0.355 0.355 0 0 0 0 9e-3 0.355 0.355 0 0 0 0 1e-3 0.355 0.355 0 0 0 0.0147 0.0835 0.355 0.355 0 0 0-6e-3 0.13623c-0.0144 0.13614-0.022 0.27466-0.022 0.41455 0 0.21611 0.0188 0.42755 0.0527 0.63428-0.0339 0.20678-0.0527 0.41806-0.0527 0.63427 0 0.0518 2e-3 0.10396 4e-3 0.15528-2e-3 0.0517-4e-3 0.10309-4e-3 0.15527 0 0.0734 3e-3 0.14727 7e-3 0.21973-4e-3 0.0729-7e-3 0.14579-7e-3 0.21972 0 7e-3 -4e-5 0.0137 0 0.0205-4e-5 7e-3 0 0.0136 0 0.0205 0 7e-3 1e-3 0.0137 1e-3 0.0205-8e-5 0.0103-1e-3 0.0204-1e-3 0.0308 0 4e-3 -1e-5 8e-3 0 0.0117-1e-5 2e-3 0 5e-3 0 7e-3 0 4e-3 1e-3 9e-3 1e-3 0.0132 1e-5 1e-3 -1e-5 3e-3 0 4e-3 -3e-5 3e-3 -1e-3 7e-3 -1e-3 0.0103-1e-5 4e-3 0 8e-3 0 0.0117-1e-5 3e-3 0 7e-3 0 0.0103 0 9.8e-4 -1e-5 2e-3 0 3e-3 -1e-5 2e-3 0 4e-3 0 6e-3s-1e-5 5e-3 0 7e-3v4e-3c0 2e-3 -1e-5 4e-3 0 6e-3v4e-3 4e-3c-1e-5 2e-3 0 4e-3 0 6e-3 9e-5 0.019 1e-3 0.0382 1e-3 0.0571-4.3e-4 0.0238-1e-3 0.0478-1e-3 0.0718 0 0.0177 1e-3 0.0351 1e-3 0.0527-2e-4 0.0162-1e-3 0.0321-1e-3 0.0483 0 6e-3 1e-3 0.0126 1e-3 0.019-7e-5 0.01-1e-3 0.0195-1e-3 0.0293 0 2e-3 -1e-5 5e-3 0 7e-3v3e-3c0 4e-3 -1e-5 8e-3 0 0.0117-3e-5 6e-3 0 0.0126 0 0.019 0 0.0117-1.1e-4 0.0235 0 0.0351-5e-5 8e-3 0 0.0156 0 0.0234 0 0.0117 1e-3 0.0234 1e-3 0.0352-1.7e-4 0.0152-1e-3 0.0301-1e-3 0.0454-1e-5 3e-3 0 7e-3 0 0.0102 1e-5 3e-3 -2e-5 7e-3 0 0.0103-4e-5 7e-3 0 0.0136 0 0.0205 0 8e-3 -6e-5 0.0166 0 0.0249-5e-5 8e-3 0 0.0156 0 0.0234v4e-3c-1e-5 2e-3 0 5e-3 0 7e-3 0 6e-3 1e-3 0.0117 1e-3 0.0176-9e-5 0.0107-1e-3 0.0215-1e-3 0.0322 0 6e-3 -3e-5 0.0117 0 0.0176v1e-3c-4e-5 7e-3 0 0.0146 0 0.022-3e-5 6e-3 0 0.0126 0 0.019 0 9.9e-4 -1e-5 2e-3 0 3e-3 -1e-5 2e-3 0 5e-3 0 7e-3 -1e-5 3e-3 0 6e-3 0 9e-3s-1e-5 7e-3 0 0.0103c-1e-5 3e-3 0 7e-3 0 0.0103 0 0.0197 3e-3 0.0389 3e-3 0.0586v1e-3c7e-5 5e-3 -1e-4 0.01 0 0.0146 2e-5 9.7e-4 -3e-5 2e-3 0 3e-3v1e-3c-5.5e-4 0.0269-3e-3 0.0535-3e-3 0.0806 0 0.0384 2e-3 0.0761 3e-3 0.11426-8e-4 0.0323-3e-3 0.0642-3e-3 0.0967 0 0.0586 2e-3 0.11637 4e-3 0.17432-3e-3 0.058-4e-3 0.11714-4e-3 0.17578 0 0.32112 0.0409 0.63278 0.11425 0.93164a0.355 0.355 0 0 0-0.0674 0.39697 0.355 0.355 0 0 0 0.0483 0.37061 0.355 0.355 0 0 0-0.0791 0.2417 0.355 0.355 0 0 0 0 0.0439 0.355 0.355 0 0 0-1e-3 0.0395 0.355 0.355 0 0 0 0 0.0308 0.355 0.355 0 0 0-1e-3 0.0191 0.355 0.355 0 0 0 0 9e-3 0.355 0.355 0 0 0 0 0.0117 0.355 0.355 0 0 0 0 0.0103 0.355 0.355 0 0 0 0 9e-3 0.355 0.355 0 0 0 0.0102 0.0688 0.355 0.355 0 0 0-1e-3 0.12451 0.355 0.355 0 0 0-7e-3 0.0732 0.355 0.355 0 0 0-1e-3 0.0234 0.355 0.355 0 0 0 1e-3 0.0205 0.355 0.355 0 0 0 4e-3 0.0513 0.355 0.355 0 0 0-1e-3 0.0688 0.355 0.355 0 0 0-4e-3 0.0381 0.355 0.355 0 0 0 0 0.0132 0.355 0.355 0 0 0 0 0.0146 0.355 0.355 0 0 0 3e-3 0.0352 0.355 0.355 0 0 0-3e-3 0.0293 0.355 0.355 0 0 0 3e-3 0.0293 0.355 0.355 0 0 0-3e-3 0.0293 0.355 0.355 0 0 0 0 1e-3 0.355 0.355 0 0 0-1e-3 6e-3 0.355 0.355 0 0 0 1e-3 0.022 0.355 0.355 0 0 0 0 0.0161 0.355 0.355 0 0 0 0 0.0205 0.355 0.355 0 0 0 0 0.0146 0.355 0.355 0 0 0 0 9e-3 0.355 0.355 0 0 0 0 1e-3 0.355 0.355 0 0 0 0.0147 0.085 0.355 0.355 0 0 0 6e-3 0.18896 0.355 0.355 0 0 0 0.0278 0.28125 0.355 0.355 0 0 0 0.0542 0.42041 0.355 0.355 0 0 0 0.50244 0l0.79395-0.79394c0.67958 0.56676 1.5533 0.9082 2.5049 0.9082 0.95415 0 1.8279-0.3445 2.5078-0.91406l0.79981 0.7998a0.355 0.355 0 0 0 0.50244 0 0.355 0.355 0 0 0 0.0601-0.42041 0.355 0.355 0 0 0 0.0264-0.28125 0.355 0.355 0 0 0 7e-3 -0.19043 0.355 0.355 0 0 0 0.0102-0.082 0.355 0.355 0 0 0 0-0.0161 0.355 0.355 0 0 0-1e-3 -0.0103 0.355 0.355 0 0 0 0-0.019 0.355 0.355 0 0 0 1e-3 -0.0117 0.355 0.355 0 0 0 0-0.0293 0.355 0.355 0 0 0 0-4e-3 0.355 0.355 0 0 0 0-4e-3 0.355 0.355 0 0 0 0-1e-3 0.355 0.355 0 0 0-1e-3 -0.0234 0.355 0.355 0 0 0 1e-3 -0.0293 0.355 0.355 0 0 0-3e-3 -0.0337 0.355 0.355 0 0 0 3e-3 -0.0337 0.355 0.355 0 0 0 0-0.0117 0.355 0.355 0 0 0 0-0.0146 0.355 0.355 0 0 0-3e-3 -0.0381 0.355 0.355 0 0 0 0-0.0688 0.355 0.355 0 0 0 1e-3 -0.0527 0.355 0.355 0 0 0 1e-3 -0.0146 0.355 0.355 0 0 0 0-9e-3 0.355 0.355 0 0 0-1e-3 -0.0161 0.355 0.355 0 0 0 0-1e-3 0.355 0.355 0 0 0-3e-3 -0.0718 0.355 0.355 0 0 0-1e-3 -0.12891 0.355 0.355 0 0 0 6e-3 -0.0674 0.355 0.355 0 0 0 0-0.0132 0.355 0.355 0 0 0 0-4e-3 0.355 0.355 0 0 0 0-0.0102 0.355 0.355 0 0 0 0-0.0132 0.355 0.355 0 0 0-1e-3 -0.0234 0.355 0.355 0 0 0 0-0.0249 0.355 0.355 0 0 0 0-0.0381 0.355 0.355 0 0 0 0-0.0454 0.355 0.355 0 0 0-0.0776-0.2417 0.355 0.355 0 0 0 0.0454-0.36914 0.355 0.355 0 0 0-0.0703-0.40137l-7e-3 -7e-3c0.0717-0.29575 0.11133-0.60394 0.11133-0.92139 0-0.0244-1e-3 -0.0489-1e-3 -0.0732a0.355 0.355 0 0 0-3e-3 -0.0835c-3.3e-4 -8e-3 -1e-3 -0.0167-1e-3 -0.0249 2e-3 -0.056 6e-3 -0.11184 6e-3 -0.16846 0-0.0325-2e-3 -0.0644-3e-3 -0.0967 1e-3 -0.0381 3e-3 -0.0759 3e-3 -0.11426 0-0.0271-2e-3 -0.0551-3e-3 -0.082-2e-5 -9.8e-4 2e-5 -2e-3 0-3e-3 9e-5 -5e-3 -7e-5 -0.0112 0-0.0161 2e-5 -9.7e-4 -2e-5 -2e-3 0-3e-3 2.3e-4 -9e-3 1e-3 -0.0185 1e-3 -0.0278 1.1e-4 -9e-3 1e-3 -0.0185 1e-3 -0.0278 2e-5 -3e-3 -1e-5 -7e-3 0-0.0103-1e-5 -3e-3 2e-5 -7e-3 0-0.0103 0-3e-3 1e-5 -6e-3 0-9e-3 0-2e-3 1e-5 -5e-3 0-7e-3 1e-5 -9.8e-4 0-2e-3 0-3e-3 0-6e-3 3e-5 -0.0127 0-0.019 0-7e-3 4e-5 -0.0147 0-0.022v-1e-3c3e-5 -6e-3 0-0.0117 0-0.0176 0-0.0108-1e-3 -0.0215-1e-3 -0.0322 2e-5 -6e-3 1e-3 -0.0117 1e-3 -0.0176 1e-5 -2e-3 0-5e-3 0-7e-3 0-1e-3 1e-5 -3e-3 0-4e-3 0-8e-3 5e-5 -0.0156 0-0.0234 5e-5 -8e-3 0-0.0165 0-0.0249 0-7e-3 4e-5 -0.0136 0-0.0205 2e-5 -3e-3 -1e-5 -7e-3 0-0.0103 0-3e-3 1e-5 -7e-3 0-0.0102 0-0.0153-1e-3 -0.0302-1e-3 -0.0454 1e-4 -0.0117 1e-3 -0.0234 1e-3 -0.0352 0-8e-3 5e-5 -0.0156 0-0.0234 1e-4 -0.0117 0-0.0234 0-0.0351 0-6e-3 3e-5 -0.0127 0-0.019 2e-5 -4e-3 -1e-5 -8e-3 0-0.0117 0-3e-3 1e-5 -7e-3 0-0.0103 0-0.01-1e-3 -0.0195-1e-3 -0.0293 3e-5 -6e-3 1e-3 -0.0126 1e-3 -0.019 0-0.0162-1e-3 -0.0321-1e-3 -0.0483 2.3e-4 -0.0177 1e-3 -0.035 1e-3 -0.0527 0-0.0239-1e-3 -0.0479-1e-3 -0.0718 3.7e-4 -0.019 1e-3 -0.0381 1e-3 -0.0571 1e-5 -2e-3 0-4e-3 0-6e-3 0-1e-3 1e-5 -3e-3 0-4e-3 0-7e-3 4e-5 -0.0146 0-0.022v-6e-3 -3e-3c0-3e-3 1e-5 -7e-3 0-0.0103 0-9e-3 -1e-3 -0.0175-1e-3 -0.0264 1e-5 -3e-3 1e-3 -6e-3 1e-3 -9e-3 1e-5 -1e-3 -1e-5 -3e-3 0-4e-3 0-2e-3 1e-5 -5e-3 0-7e-3 1e-5 -4e-3 0-8e-3 0-0.0117 0-0.0103-1e-3 -0.0204-1e-3 -0.0308 3e-5 -7e-3 1e-3 -0.0137 1e-3 -0.0205 0-7e-3 4e-5 -0.0136 0-0.0205 4e-5 -7e-3 0-0.0137 0-0.0205 0-0.0739-3e-3 -0.14679-7e-3 -0.21972 4e-3 -0.0725 7e-3 -0.1463 7e-3 -0.21973 0-0.0522-2e-3 -0.10359-4e-3 -0.15527 2e-3 -0.0513 4e-3 -0.10348 4e-3 -0.15528 0-0.21621-0.0188-0.42749-0.0527-0.63427 0.0262-0.15964 0.0422-0.32238 0.0483-0.4878a0.355 0.355 0 0 0 3e-3 -0.0806c3.6e-4 -0.0221 1e-3 -0.0438 1e-3 -0.0659 0-0.0645-3e-3 -0.12961-6e-3 -0.19336a0.355 0.355 0 0 0-0.0102-0.17578 0.355 0.355 0 0 0 6e-3 -0.18018 0.355 0.355 0 0 0 0.0102-0.0835 0.355 0.355 0 0 0 0-0.0146 0.355 0.355 0 0 0 0-0.0132 0.355 0.355 0 0 0-1e-3 -0.019 0.355 0.355 0 0 0 0-0.0205 0.355 0.355 0 0 0 1e-3 -0.0176 0.355 0.355 0 0 0 0-3e-3 0.355 0.355 0 0 0 0-9e-3 0.355 0.355 0 0 0-1e-3 -0.0249 0.355 0.355 0 0 0 1e-3 -0.0308 0.355 0.355 0 0 0-1e-3 -0.0322 0.355 0.355 0 0 0 0-0.0337 0.355 0.355 0 0 0 1e-3 -0.019 0.355 0.355 0 0 0-3e-3 -0.0454 0.355 0.355 0 0 0 0-0.0703 0.355 0.355 0 0 0 1e-3 -0.0498 0.355 0.355 0 0 0 1e-3 -0.019 0.355 0.355 0 0 0-1e-3 -0.0176 0.355 0.355 0 0 0-3e-3 -0.0879 0.355 0.355 0 0 0-1e-3 -0.11426 0.355 0.355 0 0 0 3e-3 -0.0205 0.355 0.355 0 0 0 3e-3 -0.0762 0.355 0.355 0 0 0 0-3e-3 0.355 0.355 0 0 0 0-0.0117 0.355 0.355 0 0 0-1e-3 -0.0176 0.355 0.355 0 0 0 0-0.0322 0.355 0.355 0 0 0 0-0.0381 0.355 0.355 0 0 0 0-0.0469 0.355 0.355 0 0 0-0.0747-0.24023 0.355 0.355 0 0 0 0.0425-0.37061 0.355 0.355 0 0 0-0.0703-0.3999 0.355 0.355 0 0 0-0.50244 0l-0.18018 0.18017c-0.0394-0.0523-0.0797-0.10357-0.12158-0.15381l0.8042-0.80419a0.355 0.355 0 0 0 0-0.50245 0.355 0.355 0 0 0-0.50244 0l-0.80567 0.80567c-0.67905-0.56639-1.5508-0.9082-2.502-0.9082-0.94894 0-1.8202 0.33982-2.499 0.9038l-0.79981-0.80127a0.355 0.355 0 0 0-0.25195-0.104zm3.5508 0.71045c0.75889 0 1.4543 0.26176 2.0024 0.70019l-0.2666 0.26661c-0.52359-0.26035-1.1126-0.40723-1.7358-0.40723-0.62001 0-1.2068 0.1465-1.7285 0.4043l-0.26806-0.26807c0.5472-0.43552 1.2405-0.6958 1.9966-0.6958zm-2.5005 1.1968 0.14941 0.14941c-0.0523 0.0394-0.10357 0.0797-0.1538 0.12158l-0.11426-0.11425c0.038-0.0538 0.0774-0.10546 0.11865-0.15674zm5.0039 6e-3c0.041 0.0512 0.0808 0.10302 0.11865 0.15673l-0.11279 0.11426c-0.0504-0.0422-0.10133-0.0833-0.15381-0.12304zm-2.499 2.499 0.1377 0.1377-0.1377 0.13769-0.13769-0.13769zm-2.5049 1.1455 0.17871 0.17871-0.1831 0.18164c-0.0462-0.0578-0.0897-0.11777-0.13184-0.17871 0.0433-0.0625 0.0887-0.12247 0.13623-0.18164zm5.0039 6e-3c0.0459 0.0574 0.0913 0.1152 0.1333 0.17578-0.0408 0.059-0.0843 0.11681-0.12891 0.17285l-0.17724-0.17578zm-4.3242 0.67383 0.13769 0.13769-0.16259 0.1626c-0.0537-0.0378-0.10554-0.0777-0.15674-0.11865zm3.6504 0 0.17871 0.17871c-0.051 0.0409-0.10472 0.0794-0.1582 0.11718l-0.15821-0.1582zm0.67822 0.67822 0.11426 0.11426c-0.038 0.054-0.0774 0.10671-0.11865 0.1582l-0.14795-0.14795c0.0522-0.0395 0.1022-0.0825 0.15234-0.12451zm-5.0127 6e-3c0.0503 0.0419 0.10147 0.0836 0.1538 0.12304l-0.14941 0.14942c-0.0415-0.0516-0.0804-0.10407-0.11865-0.15821zm2.5093 1.1411 0.31202 0.31201c-0.10416 0.0102-0.20953 0.0147-0.31641 0.0147-0.10347 0-0.2067-5e-3 -0.30762-0.0147zm-75.984 29.338a0.355 0.355 0 0 0-0.25049 0.104 0.355 0.355 0 0 0-3e-3 0.50245l0.79981 0.80127c-0.1641 0.19606-0.30991 0.40854-0.4336 0.63427a0.355 0.355 0 0 0-0.36328 0.082 0.355 0.355 0 0 0 0 0.50245l0.0527 0.0527a0.355 0.355 0 0 0-0.0527 0.0352 0.355 0.355 0 0 0-0.0937 0.30468 0.355 0.355 0 0 0-3e-3 0.0967 0.355 0.355 0 0 0 0 0.0733 0.355 0.355 0 0 0-4e-3 0.0513 0.355 0.355 0 0 0-1e-3 0.0205 0.355 0.355 0 0 0 9e-3 0.0542 0.355 0.355 0 0 0-6e-3 0.0732 0.355 0.355 0 0 0-1e-3 0.0454 0.355 0.355 0 0 0-1e-3 0.0161 0.355 0.355 0 0 0 0 0.0102 0.355 0.355 0 0 0 0 0.0147 0.355 0.355 0 0 0 0 0.0205 0.355 0.355 0 0 0 0 0.0146 0.355 0.355 0 0 0 0 1e-3 0.355 0.355 0 0 0 1e-3 0.0205 0.355 0.355 0 0 0 0 0.0425 0.355 0.355 0 0 0-1e-3 0.0205c-1.2e-4 1e-3 1.2e-4 3e-3 0 4e-3a0.355 0.355 0 0 0-1e-3 9e-3c-8e-3 0.10138-0.0117 0.20425-0.0117 0.30762 0 0.34729 0.045 0.68405 0.13037 1.0049-0.0854 0.32077-0.13037 0.65766-0.13037 1.0049 0 0.0989 4e-3 0.19588 0.0117 0.29297-7e-3 0.098-0.0117 0.19601-0.0117 0.2959 0 0.0161 1e-3 0.0323 1e-3 0.0483-3.3e-4 0.0211-1e-3 0.0418-1e-3 0.063 0 0.0171 1e-3 0.0342 1e-3 0.0513-1.3e-4 0.0132-1e-3 0.0264-1e-3 0.0395 0 9e-3 1e-3 0.0175 1e-3 0.0264-1.4e-4 0.0137-1e-3 0.0272-1e-3 0.041 0 5e-3 -2e-5 0.01 0 0.0146-1e-5 2e-3 0 5e-3 0 7e-3 0 4e-3 -1e-5 8e-3 0 0.0117-1e-5 2e-3 0 5e-3 0 7e-3 0 0.0171 1e-3 0.0342 1e-3 0.0513-2e-4 0.0162-1e-3 0.0321-1e-3 0.0483 0 0.01-7e-5 0.0195 0 0.0293-4e-5 7e-3 0 0.0146 0 0.022-3e-5 6e-3 0 0.0126 0 0.019-1e-5 3e-3 0 7e-3 0 0.0103 1e-5 3e-3 -2e-5 7e-3 0 0.0103-3e-5 6e-3 0 0.0126 0 0.019 0 3e-3 -1e-5 7e-3 0 0.0103-4e-5 7e-3 0 0.0136 0 0.0205 0 0.01-7e-5 0.0196 0 0.0293-4e-5 7e-3 0 0.0137 0 0.0205 0 3e-3 -1e-5 7e-3 0 0.0102-1e-5 3e-3 0 7e-3 0 0.0103 2e-5 4e-3 -3e-5 8e-3 0 0.0117-3e-5 6e-3 0 0.0117 0 0.0176-1e-5 3e-3 0 7e-3 0 0.0103 0 1e-3 -1e-5 3e-3 0 4e-3 -6e-5 8e-3 0 0.0165 0 0.0249 0 3e-3 -1e-5 7e-3 0 0.0103-1e-5 9.7e-4 0 2e-3 0 3e-3 -3e-5 6e-3 0 0.0117 0 0.0176 0 2e-3 -1e-5 4e-3 0 6e-3v4e-3c-1e-5 3e-3 0 7e-3 0 0.0102 2e-5 5e-3 -5e-5 0.01 0 0.0147-2e-5 5e-3 0 0.01 0 0.0146-1e-5 4e-3 0 8e-3 0 0.0117v3e-3c-1e-5 2e-3 0 4e-3 0 6e-3 0 9.8e-4 -1e-5 2e-3 0 3e-3 -1e-5 2e-3 0 5e-3 0 7e-3s-1e-5 5e-3 0 7e-3c-1e-5 4e-3 0 8e-3 0 0.0117 0 3e-3 -1e-5 7e-3 0 0.0103-3e-5 6e-3 0 0.0126 0 0.019 0 6e-3 -3e-5 0.0127 0 0.019v3e-3c0 0.01-8e-5 0.0195 0 0.0293-1e-5 3e-3 0 7e-3 0 0.0103-3e-5 6e-3 0 0.0126 0 0.019v4e-3c-1e-5 2e-3 0 4e-3 0 6e-3 3e-5 5e-3 -6e-5 0.01 0 0.0147-2e-5 5e-3 0 0.0107 0 0.0161 0 0.54813 0.11475 1.0699 0.31933 1.544l-0.20361 0.20361a0.355 0.355 0 0 0 0 0.50244 0.355 0.355 0 0 0 0.0527 0.0352l-0.0527 0.0527a0.355 0.355 0 0 0-0.0923 0.30616 0.355 0.355 0 0 0-4e-3 0.0967 0.355 0.355 0 0 0 0 0.0732 0.355 0.355 0 0 0-4e-3 0.0513 0.355 0.355 0 0 0-1e-3 0.019 0.355 0.355 0 0 0 9e-3 0.0557 0.355 0.355 0 0 0-6e-3 0.0747 0.355 0.355 0 0 0-1e-3 0.0395 0.355 0.355 0 0 0-1e-3 0.019 0.355 0.355 0 0 0 0 0.0117 0.355 0.355 0 0 0 0 0.0147 0.355 0.355 0 0 0 0 0.0205 0.355 0.355 0 0 0 0 0.0147 0.355 0.355 0 0 0 0 1e-3 0.355 0.355 0 0 0 1e-3 0.0205 0.355 0.355 0 0 0-3e-3 0.0293 0.355 0.355 0 0 0 1e-3 0.0176 0.355 0.355 0 0 0 0 0.0161 0.355 0.355 0 0 0 0 0.0147 0.355 0.355 0 0 0 3e-3 0.0234 0.355 0.355 0 0 0-3e-3 0.0322 0.355 0.355 0 0 0 0 0.019 0.355 0.355 0 0 0 0 0.0147 0.355 0.355 0 0 0 0 0.0161 0.355 0.355 0 0 0 0 0.0161 0.355 0.355 0 0 0 0 9e-3 0.355 0.355 0 0 0 0 0.0117 0.355 0.355 0 0 0-1e-3 0.0234 0.355 0.355 0 0 0 0 0.019 0.355 0.355 0 0 0 1e-3 0.0234 0.355 0.355 0 0 0 0 0.0132 0.355 0.355 0 0 0 1e-3 0.019 0.355 0.355 0 0 0-1e-3 0.0234 0.355 0.355 0 0 0 0 0.0205 0.355 0.355 0 0 0 0 0.022 0.355 0.355 0 0 0 0.10254 0.26074 0.355 0.355 0 0 0 0.50098 0l0.79541-0.79541c0.67947 0.56638 1.5522 0.90821 2.5034 0.90821 0.95381 0 1.8294-0.34342 2.5093-0.9126l0.79981 0.7998a0.355 0.355 0 0 0 0.50244 0 0.355 0.355 0 0 0 0.10254-0.2622 0.355 0.355 0 0 0 0-0.0205 0.355 0.355 0 0 0 1e-3 -0.0205 0.355 0.355 0 0 0-1e-3 -0.022 0.355 0.355 0 0 0 1e-3 -0.0205 0.355 0.355 0 0 0-1e-3 -0.0161 0.355 0.355 0 0 0 0-0.022 0.355 0.355 0 0 0 1e-3 -0.0176 0.355 0.355 0 0 0-1e-3 -0.0205 0.355 0.355 0 0 0 1e-3 -0.0146 0.355 0.355 0 0 0 0-9e-3 0.355 0.355 0 0 0-1e-3 -0.0161 0.355 0.355 0 0 0 1e-3 -0.0103 0.355 0.355 0 0 0 0-4e-3 0.355 0.355 0 0 0-1e-3 -0.0147 0.355 0.355 0 0 0 0-0.0205 0.355 0.355 0 0 0 0-0.0366 0.355 0.355 0 0 0 1e-3 -0.0147 0.355 0.355 0 0 0 0-9e-3 0.355 0.355 0 0 0 0-9e-3 0.355 0.355 0 0 0-1e-3 -0.022 0.355 0.355 0 0 0 1e-3 -0.019 0.355 0.355 0 0 0-1e-3 -0.0132 0.355 0.355 0 0 0 1e-3 -0.0366 0.355 0.355 0 0 0-1e-3 -0.0102 0.355 0.355 0 0 0 0-0.0205 0.355 0.355 0 0 0 1e-3 -0.0176 0.355 0.355 0 0 0 0-3e-3 0.355 0.355 0 0 0 0-4e-3 0.355 0.355 0 0 0-1e-3 -0.0205 0.355 0.355 0 0 0 0-0.0381 0.355 0.355 0 0 0-3e-3 -0.0762 0.355 0.355 0 0 0 4e-3 -0.0542 0.355 0.355 0 0 0-1e-3 -0.019 0.355 0.355 0 0 0-1e-3 -0.0527 0.355 0.355 0 0 0 0-0.0747 0.355 0.355 0 0 0-1e-3 -0.0952 0.355 0.355 0 0 0-0.0996-0.30616l-0.0527-0.0527a0.355 0.355 0 0 0 0.0527-0.0352 0.355 0.355 0 0 0 0-0.50244l-0.21094-0.21094c0.20226-0.47197 0.31348-0.99153 0.31348-1.5366a0.355 0.355 0 0 0 0-0.0293v-1e-3c0-3e-3 1e-5 -7e-3 0-0.0102 0-6e-3 3e-5 -0.0127 0-0.019 0-4e-3 1e-5 -9e-3 0-0.0132 6e-5 -9e-3 0-0.0175 0-0.0264v-3e-3c3e-5 -6e-3 0-0.0127 0-0.019 0-0.01 7e-5 -0.0195 0-0.0293 2e-5 -4e-3 -1e-5 -8e-3 0-0.0117-1e-5 -2e-3 1e-5 -5e-3 0-7e-3v-7e-3 -3e-3 -6e-3 -3e-3c0-4e-3 1e-5 -8e-3 0-0.0117 0-5e-3 2e-5 -0.01 0-0.0146 4e-5 -5e-3 -3e-5 -0.01 0-0.0147 0-3e-3 1e-5 -7e-3 0-0.0102v-4e-3 -6e-3 -7e-3c4e-5 -8e-3 0-0.0156 0-0.0234 0-8e-3 5e-5 -0.0165 0-0.0249 0-1e-3 -1e-5 -3e-3 0-4e-3 0-3e-3 1e-5 -7e-3 0-0.0103 0-0.01 7e-5 -0.0195 0-0.0293 2e-5 -4e-3 -1e-5 -8e-3 0-0.0117-1e-5 -3e-3 1e-5 -6e-3 0-9e-3 0-0.0108 8e-5 -0.0215 0-0.0322 7e-5 -6e-3 -5e-5 -0.0117 0-0.0176 0-0.0103 8e-5 -0.0205 0-0.0308 0-6e-3 3e-5 -0.0126 0-0.019 0-3e-3 1e-5 -7e-3 0-0.0103 0-3e-3 1e-5 -7e-3 0-0.0103 0-6e-3 3e-5 -0.0127 0-0.019 0-7e-3 4e-5 -0.0146 0-0.022 7e-5 -0.01 0-0.0195 0-0.0293 0-0.0162-1e-3 -0.0321-1e-3 -0.0483 3.5e-4 -0.0196 1e-3 -0.0389 1e-3 -0.0586-1e-5 -4e-3 2e-5 -8e-3 0-0.0117v-7e-3c2e-5 -5e-3 0-0.01 0-0.0146 0-0.0138-1e-3 -0.0273-1e-3 -0.041 6e-5 -9e-3 1e-3 -0.0175 1e-3 -0.0264 0-0.0181-1e-3 -0.0362-1e-3 -0.0542 1.1e-4 -0.0122 1e-3 -0.0244 1e-3 -0.0366 0-0.0148-1e-3 -0.0292-1e-3 -0.0439 3.8e-4 -0.0224 1e-3 -0.0449 1e-3 -0.0674 0-0.0999-4e-3 -0.19784-0.0117-0.2959 7e-3 -0.0971 0.0117-0.19405 0.0117-0.29297 0-0.34722-0.0451-0.68411-0.13037-1.0049 0.0823-0.30947 0.12727-0.63398 0.13037-0.96826a0.355 0.355 0 0 0 0-0.0366 0.355 0.355 0 0 0 1e-3 -0.0205 0.355 0.355 0 0 0 0-0.022 0.355 0.355 0 0 0-1e-3 -0.0205 0.355 0.355 0 0 0 1e-3 -0.0205 0.355 0.355 0 0 0-1e-3 -0.0176 0.355 0.355 0 0 0 0-0.0249 0.355 0.355 0 0 0 1e-3 -0.0176 0.355 0.355 0 0 0 0-0.0132 0.355 0.355 0 0 0 0-0.0103 0.355 0.355 0 0 0 0-0.0103 0.355 0.355 0 0 0 0-9e-3 0.355 0.355 0 0 0-1e-3 -0.0146 0.355 0.355 0 0 0 1e-3 -0.0103 0.355 0.355 0 0 0 0-9e-3 0.355 0.355 0 0 0-1e-3 -0.0102 0.355 0.355 0 0 0 0-0.0205 0.355 0.355 0 0 0 0-0.0366 0.355 0.355 0 0 0 1e-3 -0.0132 0.355 0.355 0 0 0 0-4e-3 0.355 0.355 0 0 0 0-0.0146 0.355 0.355 0 0 0-1e-3 -0.0249 0.355 0.355 0 0 0 0-0.041 0.355 0.355 0 0 0 1e-3 -0.0146 0.355 0.355 0 0 0 0-4e-3 0.355 0.355 0 0 0-1e-3 -0.0161 0.355 0.355 0 0 0 0-0.019 0.355 0.355 0 0 0 1e-3 -0.0205 0.355 0.355 0 0 0 0-4e-3 0.355 0.355 0 0 0-1e-3 -0.022 0.355 0.355 0 0 0 0-0.0381 0.355 0.355 0 0 0-3e-3 -0.0791 0.355 0.355 0 0 0 0-1e-3 0.355 0.355 0 0 0 0-1e-3 0.355 0.355 0 0 0 4e-3 -0.0439 0.355 0.355 0 0 0 0-9e-3 0.355 0.355 0 0 0-1e-3 -0.0146 0.355 0.355 0 0 0-1e-3 -0.0557 0.355 0.355 0 0 0 0-0.0718 0.355 0.355 0 0 0-1e-3 -0.0952 0.355 0.355 0 0 0-0.0996-0.30468 0.355 0.355 0 0 0-0.0527-0.0352l0.0527-0.0527a0.355 0.355 0 0 0 0-0.50245 0.355 0.355 0 0 0-0.375-0.0806c-0.12294-0.22483-0.26765-0.43591-0.43067-0.63135l0.80567-0.80566a0.355 0.355 0 0 0 0-0.50245 0.355 0.355 0 0 0-0.50244 0l-0.80567 0.80567c-0.67905-0.56639-1.5522-0.9082-2.5034-0.9082-0.94896 0-1.8202 0.33979-2.499 0.9038l-0.7998-0.80127a0.355 0.355 0 0 0-0.25049-0.104zm3.5493 0.71045c0.75919 0 1.4557 0.26146 2.0039 0.7002l-0.79248 0.79248c-0.38156-0.12449-0.78888-0.1919-1.2114-0.1919-0.42031 0-0.82417 0.0672-1.2041 0.19043l-0.79394-0.79541c0.54739-0.43611 1.2414-0.6958 1.998-0.6958zm-2.502 1.1982 0.59766 0.59912c-0.21231 0.11879-0.41342 0.25683-0.59912 0.41162l-0.38819-0.38818c0.10652-0.22295 0.23675-0.43192 0.38965-0.62256zm5.0083 4e-3c0.15276 0.19114 0.28345 0.40055 0.38965 0.62402l-0.38672 0.38672c-0.18582-0.15558-0.38648-0.29369-0.59912-0.41309zm-2.502 2.5049 0.50537 0.50537-0.50391 0.50391-0.50537-0.50391zm-2.5034 1.0591 0.21973 0.22119-0.22266 0.22266c-0.057-0.0711-0.11171-0.14525-0.1626-0.22119 0.0516-0.0771 0.10756-0.15053 0.16553-0.22266zm5.0039 6e-3c0.0562 0.0703 0.10943 0.14182 0.15967 0.2168-0.0499 0.0744-0.10246 0.147-0.15821 0.21679l-0.21679-0.21826zm-4.2803 0.71777 0.50391 0.50391-0.10547 0.10547c-0.22212-0.10555-0.43089-0.23516-0.62109-0.38672zm3.561 1e-3 0.21826 0.2168c-0.18961 0.15177-0.39664 0.28223-0.61816 0.38818l-0.10254-0.10254zm1.2334 0.20068c5e-3 0.0136 9e-3 0.0273 0.0132 0.041l-0.0264-0.0264c4e-3 -5e-3 9e-3 -0.01 0.0132-0.0147zm-6.0366 1e-3c5e-3 6e-3 0.01 0.0117 0.0147 0.0176l-0.0322 0.0337c6e-3 -0.0172 0.0115-0.0342 0.0176-0.0513zm5.5225 0.51562 0.38818 0.38965c-0.10579 0.22121-0.23669 0.42876-0.38818 0.61817l-0.59619-0.59766c0.21157-0.1187 0.41113-0.25564 0.59619-0.41016zm-5.0039 6e-3c0.18524 0.15391 0.38605 0.29055 0.59766 0.40869l-0.59912 0.59912c-0.15192-0.18911-0.28193-0.39715-0.38819-0.61816zm2.5049 1.0562 0.99024 0.9917c-0.31321 0.10177-0.6483 0.15674-0.9961 0.15674-0.34519 0-0.67612-0.055-0.9873-0.15527zm-72.437 30.229c-0.95381 0-1.8294 0.34298-2.5093 0.9126l-0.7998-0.79981a0.355 0.355 0 0 0-0.25049-0.104 0.355 0.355 0 0 0-0.25195 0.104 0.355 0.355 0 0 0 0 0.50244l0.80127 0.80127c-0.31288 0.37656-0.55683 0.81209-0.71192 1.2876a0.355 0.355 0 0 0-0.0894 0.0586 0.355 0.355 0 0 0-0.0381 0.44531c-0.0421 0.22968-0.0644 0.4659-0.0644 0.70752 0 0.0305 7.6e-4 0.0605 1e-3 0.0908a0.355 0.355 0 0 0 1e-3 0.0381c2e-3 0.0633 5e-3 0.12645 0.0102 0.18897a0.355 0.355 0 0 0-0.0102 0.0923 0.355 0.355 0 0 0 4e-3 0.0586 0.355 0.355 0 0 0-3e-3 0.0703 0.355 0.355 0 0 0-4e-3 0.0396 0.355 0.355 0 0 0 7e-3 0.0513 0.355 0.355 0 0 0 0 0.0791 0.355 0.355 0 0 0 0 1e-3 0.355 0.355 0 0 0 0 0.0776 0.355 0.355 0 0 0 1e-3 0.0908 0.355 0.355 0 0 0-7e-3 0.0659 0.355 0.355 0 0 0-1e-3 0.019 0.355 0.355 0 0 0 0 0.0147 0.355 0.355 0 0 0 1e-3 0.0205 0.355 0.355 0 0 0 1e-3 0.0352 0.355 0.355 0 0 0-3e-3 0.0308 0.355 0.355 0 0 0 4e-3 0.0352 0.355 0.355 0 0 0-4e-3 0.0337 0.355 0.355 0 0 0 7e-3 0.0469 0.355 0.355 0 0 0-3e-3 0.0688 0.355 0.355 0 0 0-4e-3 0.0396 0.355 0.355 0 0 0 0 0.0147 0.355 0.355 0 0 0 0 0.0102 0.355 0.355 0 0 0 0 0.0117 0.355 0.355 0 0 0 0 7e-3 0.355 0.355 0 0 0 0 0.0117 0.355 0.355 0 0 0 0 0.0132 0.355 0.355 0 0 0 7e-3 0.0513 0.355 0.355 0 0 0-4e-3 0.0645 0.355 0.355 0 0 0 0 0.0439 0.355 0.355 0 0 0 1e-3 0.0513 0.355 0.355 0 0 0-4e-3 0.0351 0.355 0.355 0 0 0 1e-3 0.0205 0.355 0.355 0 0 0 4e-3 0.0498 0.355 0.355 0 0 0-4e-3 0.0498 0.355 0.355 0 0 0 0.0645 0.21094c-0.0428 0.23148-0.0659 0.46969-0.0659 0.71338 0 0.17139 0.0122 0.33969 0.0337 0.50537-0.0164 0.12686-0.0268 0.25492-0.0308 0.38525a0.355 0.355 0 0 0-1e-3 0.0366c-5.7e-4 0.0274-1e-3 0.0545-1e-3 0.082 0 0.0484 1e-3 0.0971 3e-3 0.14502-2e-3 0.0454-3e-3 0.0905-3e-3 0.13623v4e-3 6e-3c1e-5 6e-3 -5e-5 0.0127 0 0.019-4e-5 7e-3 0 0.0137 0 0.0205 0 0.0123 1e-3 0.0243 1e-3 0.0366-9e-5 0.0112-1e-3 0.0224-1e-3 0.0337 0 0.0123 1e-3 0.0243 1e-3 0.0366-9e-5 0.0112-1e-3 0.0224-1e-3 0.0337 0 3e-3 -1e-5 6e-3 0 9e-3 -1e-5 3e-3 0 7e-3 0 0.0103 0 0.0123 1e-3 0.0243 1e-3 0.0366 2e-5 1e-3 -2e-5 3e-3 0 4e-3 -7e-5 7e-3 -1e-3 0.0146-1e-3 0.022-1e-5 2e-3 0 5e-3 0 7e-3v4e-3 6e-3c3e-5 0.0123 1e-3 0.0243 1e-3 0.0366 4e-5 3e-3 -4e-5 7e-3 0 0.0103-4e-5 8e-3 -1e-3 0.0156-1e-3 0.0234 0 0.0153 1e-3 0.0302 1e-3 0.0454-1.6e-4 0.0147-1e-3 0.0292-1e-3 0.0439 0 0.0148 1e-3 0.0292 1e-3 0.0439-1.7e-4 0.0152-1e-3 0.0301-1e-3 0.0454 0 7e-3 -4e-5 0.0137 0 0.0205-4e-5 7e-3 0 0.0136 0 0.0205 0 5e-3 -2e-5 0.01 0 0.0146v6e-3c-3e-5 6e-3 0 0.0127 0 0.019 0 0.0108-9e-5 0.0214 0 0.0322-3e-5 6e-3 0 0.0127 0 0.019v4e-3 4e-3c0 3e-3 -1e-5 7e-3 0 0.0102 0 9e-3 1e-3 0.0185 1e-3 0.0278-1e-4 0.01-1e-3 0.0195-1e-3 0.0293v3e-3 4e-3 6e-3c3e-5 0.0127 1e-3 0.0254 1e-3 0.0381 4e-5 4e-3 -5e-5 8e-3 0 0.0117-8e-5 0.0102-1e-3 0.0205-1e-3 0.0308 0 9e-3 -6e-5 0.0175 0 0.0264-4e-5 7e-3 0 0.0146 0 0.022v4e-3c-1e-5 9.8e-4 1e-5 2e-3 0 3e-3 -5e-5 8e-3 0 0.0156 0 0.0234v4e-3 6e-3c-1e-5 3e-3 0 7e-3 0 0.0102-1e-5 3e-3 0 6e-3 0 9e-3 1e-5 3e-3 -2e-5 6e-3 0 9e-3 -1e-5 4e-3 0 8e-3 0 0.0117-1e-5 4e-3 0 8e-3 0 0.0117 0 7e-3 1e-3 0.0146 1e-3 0.022 3e-5 1e-3 -2e-5 3e-3 0 4e-3 5e-5 3e-3 -5e-5 6e-3 0 9e-3 3e-5 3e-3 -3e-5 6e-3 0 9e-3 2e-5 1e-3 -2e-5 3e-3 0 4e-3 -1.4e-4 0.0138-1e-3 0.0272-1e-3 0.041 0 7e-3 -4e-5 0.0136 0 0.0205-3e-5 6e-3 0 0.0127 0 0.019 0 6e-3 -3e-5 0.0127 0 0.019-8e-5 0.0103 0 0.0204 0 0.0308 0 0.01-7e-5 0.0195 0 0.0293-4e-5 7e-3 0 0.0137 0 0.0205v4e-3 4e-3c1e-5 4e-3 -3e-5 9e-3 0 0.0132-3e-5 6e-3 0 0.0127 0 0.019 0 0.0133 1e-3 0.0263 1e-3 0.0396-8e-5 0.0102-1e-3 0.0205-1e-3 0.0308 0 6e-3 -3e-5 0.0127 0 0.019-3e-5 6e-3 0 0.0127 0 0.019 0 0.24449 0.0228 0.48406 0.0659 0.71631a0.355 0.355 0 0 0 0.0366 0.44677 0.355 0.355 0 0 0 0.0937 0.0615c0.0286 0.0867 0.0608 0.17243 0.0952 0.25634l-0.18896 0.18897a0.355 0.355 0 0 0-0.0732 0.39111 0.355 0.355 0 0 0-0.0293 0.14356 0.355 0.355 0 0 0 1e-3 0.0205 0.355 0.355 0 0 0 4e-3 0.0571 0.355 0.355 0 0 0-1e-3 0.0674 0.355 0.355 0 0 0-4e-3 0.041 0.355 0.355 0 0 0 7e-3 0.0498 0.355 0.355 0 0 0-7e-3 0.0454 0.355 0.355 0 0 0 6e-3 0.041 0.355 0.355 0 0 0 1e-3 0.0732 0.355 0.355 0 0 0 1e-3 0.0894 0.355 0.355 0 0 0-7e-3 0.0674 0.355 0.355 0 0 0-1e-3 0.019 0.355 0.355 0 0 0 1e-3 0.0146 0.355 0.355 0 0 0-1e-3 0.0205 0.355 0.355 0 0 0 4e-3 0.0337 0.355 0.355 0 0 0-4e-3 0.0308 0.355 0.355 0 0 0 4e-3 0.0351 0.355 0.355 0 0 0-4e-3 0.0352 0.355 0.355 0 0 0 7e-3 0.0454 0.355 0.355 0 0 0-3e-3 0.0688 0.355 0.355 0 0 0-4e-3 0.041 0.355 0.355 0 0 0 0 0.0147 0.355 0.355 0 0 0 0 9e-3 0.355 0.355 0 0 0 0 0.0117 0.355 0.355 0 0 0 0 9e-3 0.355 0.355 0 0 0 0 0.0103 0.355 0.355 0 0 0 1e-3 0.0161 0.355 0.355 0 0 0 6e-3 0.0498 0.355 0.355 0 0 0-4e-3 0.0644 0.355 0.355 0 0 0 0 0.0454 0.355 0.355 0 0 0 1e-3 0.0498 0.355 0.355 0 0 0-4e-3 0.0366 0.355 0.355 0 0 0 1e-3 0.019 0.355 0.355 0 0 0 4e-3 0.0498 0.355 0.355 0 0 0-4e-3 0.0498 0.355 0.355 0 0 0 0.10108 0.26514 0.355 0.355 0 0 0 0.50244 0l0.7998-0.79981c0.67996 0.56999 1.5551 0.91553 2.5093 0.91553 0.95193 0 1.8252-0.34353 2.5049-0.91113l0.79541 0.79541a0.355 0.355 0 0 0 0.50245 0 0.355 0.355 0 0 0 0.10253-0.26514 0.355 0.355 0 0 0-1e-3 -0.0483 0.355 0.355 0 0 0 1e-3 -0.0527 0.355 0.355 0 0 0 1e-3 -0.0176 0.355 0.355 0 0 0-3e-3 -0.0337 0.355 0.355 0 0 0 1e-3 -0.0542 0.355 0.355 0 0 0 0-0.0439 0.355 0.355 0 0 0-1e-3 -0.0644 0.355 0.355 0 0 0 3e-3 -0.0513 0.355 0.355 0 0 0 0-0.0132 0.355 0.355 0 0 0 0-0.0103 0.355 0.355 0 0 0 0-0.0132 0.355 0.355 0 0 0 0-9e-3 0.355 0.355 0 0 0 0-9e-3 0.355 0.355 0 0 0-1e-3 -0.0161 0.355 0.355 0 0 0-1e-3 -0.0395 0.355 0.355 0 0 0 0-0.0733 0.355 0.355 0 0 0 3e-3 -0.0366 0.355 0.355 0 0 0 0-9e-3 0.355 0.355 0 0 0-3e-3 -0.0278 0.355 0.355 0 0 0 0-3e-3 0.355 0.355 0 0 0 3e-3 -0.0395 0.355 0.355 0 0 0-3e-3 -0.0234 0.355 0.355 0 0 0 0-1e-3 0.355 0.355 0 0 0 3e-3 -0.0366 0.355 0.355 0 0 0-1e-3 -0.0205 0.355 0.355 0 0 0 1e-3 -9e-3 0.355 0.355 0 0 0 0-9e-3 0.355 0.355 0 0 0-1e-3 -0.0146 0.355 0.355 0 0 0-3e-3 -0.0659 0.355 0.355 0 0 0 1e-3 -0.0908 0.355 0.355 0 0 0 0-0.0791 0.355 0.355 0 0 0 3e-3 -0.0351 0.355 0.355 0 0 0-3e-3 -0.0469 0.355 0.355 0 0 0 1e-3 -0.0498 0.355 0.355 0 0 0-1e-3 -0.0381 0.355 0.355 0 0 0 0-0.0703 0.355 0.355 0 0 0 1e-3 -0.0557 0.355 0.355 0 0 0 1e-3 -0.0205 0.355 0.355 0 0 0-0.0308-0.14356 0.355 0.355 0 0 0-0.0732-0.39111l-0.18165-0.18164c0.0365-0.0884 0.0696-0.17951 0.0996-0.271a0.355 0.355 0 0 0 0.082-0.0542 0.355 0.355 0 0 0 0.0454-0.44238c0.0437-0.23366 0.0674-0.47463 0.0674-0.7207 0-6e-3 3e-5 -0.0127 0-0.019 3e-5 -6e-3 0-0.0126 0-0.019 0-0.0103-1e-3 -0.0205-1e-3 -0.0308 1.4e-4 -0.0133 1e-3 -0.0263 1e-3 -0.0396 0-0.0107 9e-5 -0.0215 0-0.0322 0-0.01 7e-5 -0.0195 0-0.0293 7e-5 -0.01 0-0.0195 0-0.0293 0-0.0103 8e-5 -0.0205 0-0.0308 3e-5 -6e-3 0-0.0126 0-0.019 0-6e-3 3e-5 -0.0127 0-0.019 3e-5 -7e-3 0-0.0136 0-0.0205 0-0.0153-1e-3 -0.0302-1e-3 -0.0454 9e-5 -7e-3 -4e-5 -0.0146 0-0.022 2e-5 -2e-3 -1e-5 -4e-3 0-6e-3 7e-5 -5e-3 1e-3 -0.0107 1e-3 -0.0161 0-4e-3 1e-5 -8e-3 0-0.0117 0-4e-3 1e-5 -8e-3 0-0.0117 2e-5 -3e-3 -2e-5 -6e-3 0-9e-3v-9e-3c0-3e-3 1e-5 -7e-3 0-0.0102 0-3e-3 1e-5 -7e-3 0-0.0103 0-8e-3 4e-5 -0.0156 0-0.0234-6e-5 -0.01 1.3e-4 -0.0195 0-0.0293 6e-5 -9e-3 0-0.0175 0-0.0264 0-0.0142-1e-3 -0.0283-1e-3 -0.0425 1.8e-4 -0.0146 1e-3 -0.0293 1e-3 -0.0439v-4e-3 -3e-3c-3e-5 -0.01-1e-3 -0.0195-1e-3 -0.0293 7e-5 -9e-3 1e-3 -0.0185 1e-3 -0.0278 0-3e-3 1e-5 -7e-3 0-0.0102 0-9e-3 6e-5 -0.0185 0-0.0278 9e-5 -0.0108 0-0.0214 0-0.0322 0-6e-3 3e-5 -0.0126 0-0.019v-6e-3c2e-5 -5e-3 0-0.01 0-0.0146 0-7e-3 3e-5 -0.0136 0-0.0205 3e-5 -7e-3 0-0.0137 0-0.0205 0-0.0153-1e-3 -0.0302-1e-3 -0.0454 1.7e-4 -0.0147 1e-3 -0.0292 1e-3 -0.0439 0-0.0148-1e-3 -0.0292-1e-3 -0.0439 1.8e-4 -0.0152 1e-3 -0.0301 1e-3 -0.0454 0-0.0112-1e-3 -0.0225-1e-3 -0.0337 1.7e-4 -0.0142 1e-3 -0.0282 1e-3 -0.0425v-4e-3c0-0.0113-1e-3 -0.0224-1e-3 -0.0337 4e-5 -4e-3 -2e-5 -9e-3 0-0.0132 9e-5 -8e-3 1e-3 -0.0156 1e-3 -0.0234 0-0.0177-1e-3 -0.0351-1e-3 -0.0527 1.2e-4 -0.0123 1e-3 -0.0243 1e-3 -0.0366 0-0.0112-1e-3 -0.0225-1e-3 -0.0337 1.2e-4 -0.0123 1e-3 -0.0243 1e-3 -0.0366 0-7e-3 3e-5 -0.0137 0-0.0205 6e-5 -8e-3 -1e-5 -0.0166 0-0.0249v-4e-3c0-0.0458-1e-3 -0.0908-3e-3 -0.13623 2e-3 -0.048 3e-3 -0.0966 3e-3 -0.14502 0-0.1711-0.0123-0.33853-0.0337-0.5039 0.0215-0.16565 0.0337-0.33401 0.0337-0.50537 0-0.24567-0.0224-0.48599-0.0659-0.71924a0.355 0.355 0 0 0 0.0557-0.20508 0.355 0.355 0 0 0-1e-3 -0.0483 0.355 0.355 0 0 0 1e-3 -0.0527 0.355 0.355 0 0 0 1e-3 -0.019 0.355 0.355 0 0 0-3e-3 -0.0337 0.355 0.355 0 0 0 1e-3 -0.0527 0.355 0.355 0 0 0 0-0.0439 0.355 0.355 0 0 0-1e-3 -0.0645 0.355 0.355 0 0 0 3e-3 -0.0513 0.355 0.355 0 0 0 0-0.0132 0.355 0.355 0 0 0 0-9e-3 0.355 0.355 0 0 0 0-0.0161 0.355 0.355 0 0 0 0-4e-3 0.355 0.355 0 0 0 0-0.0103 0.355 0.355 0 0 0-1e-3 -0.0161 0.355 0.355 0 0 0-1e-3 -0.0396 0.355 0.355 0 0 0 0-0.0747 0.355 0.355 0 0 0 3e-3 -0.0351 0.355 0.355 0 0 0 0-4e-3 0.355 0.355 0 0 0-3e-3 -0.0366 0.355 0.355 0 0 0 3e-3 -0.0337 0.355 0.355 0 0 0-1e-3 -0.0293 0.355 0.355 0 0 0 1e-3 -0.0381 0.355 0.355 0 0 0-1e-3 -0.0205 0.355 0.355 0 0 0 1e-3 -7e-3 0.355 0.355 0 0 0 0-4e-3 0.355 0.355 0 0 0-1e-3 -0.022 0.355 0.355 0 0 0-3e-3 -0.0645 0.355 0.355 0 0 0 1e-3 -0.0908 0.355 0.355 0 0 0 0-0.0791 0.355 0.355 0 0 0 0-0.0791 0.355 0.355 0 0 0 1e-3 -0.0498 0.355 0.355 0 0 0-1e-3 -0.041 0.355 0.355 0 0 0 0-0.0703 0.355 0.355 0 0 0 1e-3 -0.0586 0.355 0.355 0 0 0-4e-3 -0.082c9e-3 -0.10828 0.0147-0.21755 0.0147-0.32812 0-0.24319-0.0232-0.48083-0.0659-0.71192a0.355 0.355 0 0 0-0.0469-0.44091 0.355 0.355 0 0 0-0.0776-0.0513c-0.15578-0.48032-0.40264-0.91979-0.71924-1.2993l0.79688-0.79688a0.355 0.355 0 0 0 0-0.50244 0.355 0.355 0 0 0-0.25196-0.104 0.355 0.355 0 0 0-0.25049 0.104l-0.79541 0.79541c-0.6796-0.56723-1.5533-0.9082-2.5049-0.9082zm0 0.71045c0.75867 0 1.4544 0.262 2.0024 0.70019l-1.3022 1.3022c-0.22739-0.0413-0.46115-0.063-0.7002-0.063-0.2414 0-0.47807 0.0224-0.70752 0.0645l-1.2993-1.2993c0.54839-0.44051 1.246-0.70459 2.0068-0.70459zm2.5049 1.2026c0.25282 0.31619 0.44651 0.68132 0.56543 1.0796l-0.56543 0.56543c-0.30626-0.25544-0.65237-0.46489-1.0268-0.61817zm-5.0127 6e-3 1.0239 1.0239c-0.37395 0.15385-0.71979 0.36377-1.0254 0.61963l-0.5625-0.5625c0.11796-0.39909 0.31176-0.76402 0.56397-1.081zm2.5078 1.4399c0.0177 0 0.0351 1e-3 0.0527 1e-3l-0.0571 0.0571-0.0571-0.0571c0.0205-3.8e-4 0.0409-1e-3 0.0615-1e-3zm0.92432 0.13476c0.39751 0.11909 0.76248 0.31438 1.0781 0.5669l-0.0967 0.0967c-0.37097-0.20778-0.7776-0.35713-1.21-0.43506zm-1.856 1e-3 0.22852 0.22851c-0.43159 0.0786-0.8384 0.22848-1.2085 0.43653l-0.0967-0.0967c0.31503-0.25324 0.67944-0.4485 1.0767-0.56836zm4.1352 0.36914c3e-5 2e-3 -2e-5 4e-3 0 6e-3l-0.19336 0.19336c-8.7e-4 -1e-3 -2e-3 -2e-3 -3e-3 -3e-3zm-6.4058 0.0102 0.1919 0.1919c-8.8e-4 1e-3 -2e-3 2e-3 -3e-3 3e-3l-0.18897-0.18897c2e-5 -2e-3 -2e-5 -4e-3 0-6e-3zm5.707 0.68848c8.6e-4 1e-3 2e-3 2e-3 3e-3 3e-3l-3e-3 3e-3c-1e-3 -8.8e-4 -2e-3 -2e-3 -3e-3 -3e-3zm-5.0142 4e-3 3e-3 3e-3c-1e-3 8.8e-4 -2e-3 2e-3 -3e-3 3e-3l-3e-3 -3e-3c8.5e-4 -1e-3 2e-3 -2e-3 3e-3 -3e-3zm2.5093 1.4414c0.0177 0 0.0351 1e-3 0.0527 1e-3l-0.0571 0.0571-0.0571-0.0571c0.0205-3.8e-4 0.0409-1e-3 0.0615-1e-3zm0.92432 0.13476c1e-3 4.5e-4 3e-3 1e-3 4e-3 1e-3l-0.42773 0.42773-3e-3 -3e-3zm-1.856 1e-3 0.4248 0.4248-3e-3 3e-3 -0.42627-0.42627c1e-3 -4.4e-4 3e-3 -1e-3 4e-3 -1e-3zm0.92725 0.92725 3e-3 3e-3 -3e-3 3e-3 -3e-3 -3e-3zm2.5063 0.13476c0.16606 0.207 0.30502 0.43642 0.41602 0.68115-0.11142 0.24608-0.25044 0.47614-0.41748 0.68409l-0.68115-0.68262zm-5.0068 6e-3 0.67676 0.67676-0.6753 0.67676c-0.16514-0.20663-0.30414-0.43412-0.41455-0.67823 0.10999-0.24277 0.24892-0.46962 0.41309-0.67529zm1.1807 1.1807 1e-3 1e-3 -0.6753 0.67529c-8.3e-4 -6.6e-4 -2e-3 -8e-4 -3e-3 -1e-3zm2.6396 0 0.68115 0.67969c-8.3e-4 6.7e-4 -2e-3 8e-4 -3e-3 1e-3l-0.67968-0.67969zm-3.8188 1.1777c1e-3 8.8e-4 2e-3 2e-3 3e-3 3e-3l-4e-3 3e-3c-6.7e-4 -8.4e-4 -8e-4 -2e-3 -1e-3 -3e-3zm5.0024 4e-3 3e-3 3e-3c-6.7e-4 8.4e-4 -7.9e-4 2e-3 -1e-3 3e-3l-4e-3 -4e-3c8.2e-4 -6.8e-4 2e-3 -7.9e-4 3e-3 -1e-3zm-2.5034 0.13623 0.0557 0.0557c-0.0171 2.7e-4 -0.0341 1e-3 -0.0513 1e-3 -0.0201 0-0.04-1e-3 -0.0601-1e-3zm-0.70313 0.70313c0.22945 0.0421 0.46612 0.0645 0.70752 0.0645 0.23905 0 0.47281-0.0217 0.7002-0.063l0.22558 0.22559c-0.29337 0.0881-0.60316 0.13623-0.92578 0.13623-0.32472 0-0.63816-0.0485-0.9331-0.13769zm-71.732 20.965c-0.95159 0-1.8257 0.34139-2.5049 0.90821l-0.79394-0.79395a0.355 0.355 0 0 0-0.50244 0 0.355 0.355 0 0 0 0 0.50098l0.79541 0.79541c-0.2866 0.34341-0.516 0.73681-0.67236 1.1646a0.355 0.355 0 0 0-0.12305 0.0776 0.355 0.355 0 0 0-0.0293 0.45849c-0.0544 0.25959-0.0835 0.52723-0.0835 0.80274 0 0.21723 0.0185 0.43093 0.0527 0.63867a0.355 0.355 0 0 0-0.0366 0.19629 0.355 0.355 0 0 0-6e-3 0.0454 0.355 0.355 0 0 0 3e-3 0.0308 0.355 0.355 0 0 0-3e-3 0.0308 0.355 0.355 0 0 0 3e-3 0.0337 0.355 0.355 0 0 0-3e-3 0.0308 0.355 0.355 0 0 0 0 9e-3 0.355 0.355 0 0 0 0 0.0161 0.355 0.355 0 0 0 0 0.019 0.355 0.355 0 0 0 0 0.0146 0.355 0.355 0 0 0 3e-3 0.0293 0.355 0.355 0 0 0 0 0.0527 0.355 0.355 0 0 0-3e-3 0.0337 0.355 0.355 0 0 0 1e-3 0.0249 0.355 0.355 0 0 0 0 0.0293 0.355 0.355 0 0 0-1e-3 0.022 0.355 0.355 0 0 0 0 9e-3 0.355 0.355 0 0 0 4e-3 0.0352 0.355 0.355 0 0 0 4e-3 0.082 0.355 0.355 0 0 0 4e-3 0.12012 0.355 0.355 0 0 0-0.0146 0.0776 0.355 0.355 0 0 0 0 1e-3 0.355 0.355 0 0 0 1e-3 4e-3 0.355 0.355 0 0 0 0 0.0147 0.355 0.355 0 0 0 0 0.0147 0.355 0.355 0 0 0 0 0.0147 0.355 0.355 0 0 0 3e-3 0.0308 0.355 0.355 0 0 0-1e-3 0.0351 0.355 0.355 0 0 0-1e-3 0.019 0.355 0.355 0 0 0 1e-3 0.0205 0.355 0.355 0 0 0 1e-3 0.0396 0.355 0.355 0 0 0-3e-3 0.0308 0.355 0.355 0 0 0 6e-3 0.0439 0.355 0.355 0 0 0 0.019 0.17578c-0.0224 0.16897-0.0352 0.34068-0.0352 0.51563 0 0.27765 0.0297 0.5486 0.085 0.81006a0.355 0.355 0 0 0-0.0322 0.3706c-0.0342 0.20771-0.0527 0.41998-0.0527 0.63721 0 9e-3 1e-3 0.0176 1e-3 0.0264-1.6e-4 0.0147-1e-3 0.0292-1e-3 0.0439 0 2e-3 -1e-5 4e-3 0 6e-3 -1e-5 1e-3 0 3e-3 0 4e-3 0 6e-3 1e-3 0.0117 1e-3 0.0176-1e-4 0.0112-1e-3 0.0224-1e-3 0.0337 0 4e-3 -2e-5 8e-3 0 0.0117-1e-5 2e-3 0 5e-3 0 7e-3 0 9e-3 -6e-5 0.0175 0 0.0264-6e-5 8e-3 0 0.0166 0 0.0249-1e-5 3e-3 0 6e-3 0 9e-3v1e-3c-1e-5 3e-3 0 6e-3 0 9e-3 -1e-5 3e-3 0 7e-3 0 0.0103 2e-5 3e-3 -3e-5 6e-3 0 9e-3 -5e-5 7e-3 0 0.0146 0 0.022 0 1e-3 -1e-5 3e-3 0 4e-3 -1e-5 2e-3 0 4e-3 0 6e-3 0 8e-3 -6e-5 0.0166 0 0.0249-5e-5 8e-3 0 0.0156 0 0.0234 0 0.01-8e-5 0.0195 0 0.0293-5e-5 7e-3 0 0.0147 0 0.022 0 1e-3 -1e-5 3e-3 0 4e-3 -1e-5 1e-3 0 3e-3 0 4e-3 0 7e-3 -4e-5 0.0137 0 0.0205-4e-5 6e-3 0 0.0126 0 0.019 0 4e-3 -2e-5 9e-3 0 0.0132-2e-5 1e-3 0 3e-3 0 4e-3 -2e-5 4e-3 0 9e-3 0 0.0132 0 2e-3 -1e-5 4e-3 0 6e-3 -1e-5 1e-3 0 3e-3 0 4e-3 0 7e-3 -5e-5 0.0146 0 0.022 5e-5 6e-3 -9e-5 0.0127 0 0.019-4e-5 6e-3 0 0.0127 0 0.019 0 0.0166 1e-3 0.0332 1e-3 0.0498-3.1e-4 0.0201-1e-3 0.0399-1e-3 0.0601 0 0.0266 9.3e-4 0.0526 1e-3 0.0791-1.8e-4 9e-3 1.2e-4 0.0175 0 0.0264-7e-5 5e-3 5e-5 0.01 0 0.0147-4e-5 7e-3 -1e-3 0.0136-1e-3 0.0205 0 2e-3 -1e-5 4e-3 0 6e-3 -1e-5 1e-3 0 3e-3 0 4e-3s-1e-5 3e-3 0 4e-3c-1e-5 1e-3 0 3e-3 0 4e-3 0 6e-3 -4e-5 0.0127 0 0.019v1e-3c-1e-5 3e-3 0 6e-3 0 9e-3 -4e-5 7e-3 0 0.0137 0 0.0205 0 6e-3 -4e-5 0.0127 0 0.019-2e-5 4e-3 0 8e-3 0 0.0117 0 4e-3 -2e-5 9e-3 0 0.0132-3e-5 5e-3 0 0.0107 0 0.0161 0 1e-3 -1e-5 3e-3 0 4e-3 -1e-5 2e-3 0 4e-3 0 6e-3 1e-5 4e-3 -3e-5 9e-3 0 0.0132-7e-5 9e-3 0 0.0186 0 0.0278 0 0.0103-9e-5 0.0205 0 0.0308-3e-5 6e-3 0 0.0117 0 0.0176 0 0.0162 1e-3 0.0321 1e-3 0.0483 3e-5 2e-3 -3e-5 5e-3 0 7e-3 -1e-4 0.0113-1e-3 0.0224-1e-3 0.0337 0 0.17466 0.0129 0.3484 0.0352 0.51709a0.355 0.355 0 0 0 0.0674 0.36914c0.0794 0.34163 0.2022 0.66715 0.36475 0.96827l-0.35449 0.35449a0.355 0.355 0 0 0-0.0981 0.28857 0.355 0.355 0 0 0-4e-3 0.0439 0.355 0.355 0 0 0 3e-3 0.0293 0.355 0.355 0 0 0-3e-3 0.0308 0.355 0.355 0 0 0 3e-3 0.0337 0.355 0.355 0 0 0-3e-3 0.0366 0.355 0.355 0 0 0 0 0.019 0.355 0.355 0 0 0 0 0.0205 0.355 0.355 0 0 0 0 0.0147 0.355 0.355 0 0 0 3e-3 0.0293 0.355 0.355 0 0 0 0 0.0513 0.355 0.355 0 0 0-3e-3 0.0352 0.355 0.355 0 0 0 1e-3 0.0249 0.355 0.355 0 0 0 0 0.0308 0.355 0.355 0 0 0-1e-3 0.019 0.355 0.355 0 0 0 0 9e-3 0.355 0.355 0 0 0 4e-3 0.0351 0.355 0.355 0 0 0 4e-3 0.082 0.355 0.355 0 0 0 4e-3 0.12159 0.355 0.355 0 0 0-0.0132 0.0835 0.355 0.355 0 0 0 0 9e-3 0.355 0.355 0 0 0 0 1e-3 0.355 0.355 0 0 0 0 9e-3 0.355 0.355 0 0 0 0 9e-3 0.355 0.355 0 0 0 0 0.0161 0.355 0.355 0 0 0 3e-3 0.0293 0.355 0.355 0 0 0-1e-3 0.0351 0.355 0.355 0 0 0-1e-3 0.0205 0.355 0.355 0 0 0 1e-3 0.0205 0.355 0.355 0 0 0 1e-3 0.0366 0.355 0.355 0 0 0-4e-3 0.0366 0.355 0.355 0 0 0 0 1e-3 0.355 0.355 0 0 0 7e-3 0.041 0.355 0.355 0 0 0 0.0967 0.29004 0.355 0.355 0 0 0 0.50244 0l0.79541-0.79541c0.67905 0.56681 1.5522 0.90967 2.5034 0.90967 0.95381 0 1.829-0.34445 2.5093-0.91407l0.79833 0.79981a0.355 0.355 0 0 0 0.50245 0 0.355 0.355 0 0 0 0.10107-0.28565 0.355 0.355 0 0 0 0-3e-3 0.355 0.355 0 0 0 0-3e-3 0.355 0.355 0 0 0 3e-3 -0.0396 0.355 0.355 0 0 0-1e-3 -0.0425 0.355 0.355 0 0 0 0-0.0351 0.355 0.355 0 0 0 1e-3 -0.0176 0.355 0.355 0 0 0-1e-3 -0.0205 0.355 0.355 0 0 0 0-0.0366 0.355 0.355 0 0 0 0-0.0293 0.355 0.355 0 0 0 1e-3 -9e-3 0.355 0.355 0 0 0 0-3e-3 0.355 0.355 0 0 0 1e-3 -0.019 0.355 0.355 0 0 0-1e-3 -0.0176 0.355 0.355 0 0 0-3e-3 -0.0454 0.355 0.355 0 0 0-1e-3 -3e-3 0.355 0.355 0 0 0-4e-3 -0.0278 0.355 0.355 0 0 0 4e-3 -0.12451 0.355 0.355 0 0 0 1e-3 -0.0806 0.355 0.355 0 0 0 3e-3 -0.0322 0.355 0.355 0 0 0 0-0.0161 0.355 0.355 0 0 0-1e-3 -0.0132 0.355 0.355 0 0 0 0-0.0352 0.355 0.355 0 0 0 0-0.0234 0.355 0.355 0 0 0 0-0.0337 0.355 0.355 0 0 0 0-0.0527 0.355 0.355 0 0 0 1e-3 -0.0264 0.355 0.355 0 0 0-1e-3 -0.0176 0.355 0.355 0 0 0 1e-3 -7e-3 0.355 0.355 0 0 0 0-1e-3 0.355 0.355 0 0 0 0-9e-3 0.355 0.355 0 0 0 0-0.0308 0.355 0.355 0 0 0-1e-3 -0.0249 0.355 0.355 0 0 0 0-0.0352 0.355 0.355 0 0 0 0-0.0322 0.355 0.355 0 0 0 0-0.0278 0.355 0.355 0 0 0 0-0.0366 0.355 0.355 0 0 0-0.10254-0.2959l-0.36036-0.36035c0.1588-0.29497 0.28119-0.61246 0.36036-0.94629a0.355 0.355 0 0 0 0.0718-0.39697c0.0214-0.1654 0.0337-0.33427 0.0337-0.50538 0-0.0138-1e-3 -0.0273-1e-3 -0.041 2e-4 -0.0162 1e-3 -0.0321 1e-3 -0.0483 0-6e-3 2e-5 -0.0117 0-0.0176 8e-5 -0.0103 0-0.0204 0-0.0308 0-9e-3 6e-5 -0.0186 0-0.0278 3e-5 -6e-3 -1e-5 -0.0127 0-0.019-1e-5 -1e-3 0-3e-3 0-4e-3 4e-5 -5e-3 -2e-5 -0.0107 0-0.0161-2e-5 -4e-3 3e-5 -9e-3 0-0.0132 0-4e-3 1e-5 -8e-3 0-0.0117 3e-5 -6e-3 0-0.0126 0-0.019 0-7e-3 3e-5 -0.0137 0-0.0205v-9e-3 -1e-3c3e-5 -6e-3 0-0.0127 0-0.019v-4e-3c-2e-5 -0.0167-1e-3 -0.0331-1e-3 -0.0498-5e-5 -4e-3 6e-5 -9e-3 0-0.0132-8e-5 -4e-3 9e-5 -9e-3 0-0.0132 5.3e-4 -0.0265 1e-3 -0.0525 1e-3 -0.0791 0-0.0202-1e-3 -0.04-1e-3 -0.0601 2.1e-4 -0.0166 1e-3 -0.0332 1e-3 -0.0498 0-6e-3 3e-5 -0.0127 0-0.019 1.7e-4 -0.0136-4e-5 -0.0274 0-0.041v-4e-3c-1e-5 -2e-3 0-4e-3 0-6e-3 0-6e-3 2e-5 -0.0117 0-0.0176 1e-5 -4e-3 0-9e-3 0-0.0132 0-6e-3 3e-5 -0.0127 0-0.019-1e-5 -1e-3 0-3e-3 0-4e-3 3e-5 -5e-3 -2e-5 -0.0107 0-0.0161 0-0.0103 8e-5 -0.0204 0-0.0308 7e-5 -0.01 0-0.0195 0-0.0293 0-0.0108 8e-5 -0.0214 0-0.0322 3e-5 -5e-3 -2e-5 -0.0107 0-0.0161 0-2e-3 -1e-5 -4e-3 0-6e-3 -1e-5 -1e-3 0-3e-3 0-4e-3 0-7e-3 4e-5 -0.0146 0-0.022 2e-5 -3e-3 -3e-5 -6e-3 0-9e-3v-0.0103c1e-5 -3e-3 -1e-5 -6e-3 0-9e-3v-1e-3 -9e-3c0-8e-3 5e-5 -0.0166 0-0.0249 5e-5 -9e-3 0-0.0175 0-0.0264 0-6e-3 3e-5 -0.0127 0-0.019 0-0.0113-1e-3 -0.0225-1e-3 -0.0337 3e-5 -6e-3 1e-3 -0.0117 1e-3 -0.0176v-0.0103c0-0.0148-1e-3 -0.0292-1e-3 -0.0439 6e-5 -9e-3 1e-3 -0.0176 1e-3 -0.0264 0-0.21156-0.0173-0.41853-0.0498-0.62109a0.355 0.355 0 0 0-0.0308-0.40137c0.0533-0.25682 0.0806-0.52307 0.0806-0.79541 0-0.17137-0.0122-0.33973-0.0337-0.50537a0.355 0.355 0 0 0 0.0293-0.18604 0.355 0.355 0 0 0 3e-3 -0.0439 0.355 0.355 0 0 0-1e-3 -0.0322 0.355 0.355 0 0 0 0-0.0381 0.355 0.355 0 0 0 1e-3 -0.0249 0.355 0.355 0 0 0-1e-3 -0.0147 0.355 0.355 0 0 0 0-0.0366 0.355 0.355 0 0 0 0-0.0293 0.355 0.355 0 0 0 1e-3 -0.0191 0.355 0.355 0 0 0 1e-3 -0.0249 0.355 0.355 0 0 0-6e-3 -0.0601 0.355 0.355 0 0 0 0-3e-3 0.355 0.355 0 0 0-4e-3 -0.019 0.355 0.355 0 0 0 4e-3 -0.12305 0.355 0.355 0 0 0 1e-3 -0.0791 0.355 0.355 0 0 0 3e-3 -0.0337 0.355 0.355 0 0 0 0-0.0147 0.355 0.355 0 0 0-1e-3 -0.0176 0.355 0.355 0 0 0 0-0.0337 0.355 0.355 0 0 0 0-0.0205 0.355 0.355 0 0 0 0-0.0337 0.355 0.355 0 0 0 0-0.0557 0.355 0.355 0 0 0 1e-3 -0.0322 0.355 0.355 0 0 0-1e-3 -0.0117 0.355 0.355 0 0 0 1e-3 -0.0176 0.355 0.355 0 0 0 0-1e-3 0.355 0.355 0 0 0 0-9e-3 0.355 0.355 0 0 0 0-0.019 0.355 0.355 0 0 0-1e-3 -0.0205 0.355 0.355 0 0 0 0-4e-3 0.355 0.355 0 0 0 0-0.0352 0.355 0.355 0 0 0 0-0.0322 0.355 0.355 0 0 0 1e-3 -0.0308 0.355 0.355 0 0 0-3e-3 -0.041 0.355 0.355 0 0 0-0.0454-0.21534c0.0325-0.20259 0.0498-0.41099 0.0498-0.62255 0-0.26975-0.0268-0.53355-0.0791-0.78809a0.355 0.355 0 0 0-0.0264-0.47314 0.355 0.355 0 0 0-0.1333-0.0806v-1e-3c-0.15562-0.42372-0.38285-0.81338-0.66651-1.1543l0.79981-0.80127a0.355 0.355 0 0 0 0-0.50098 0.355 0.355 0 0 0-0.25049-0.104 0.355 0.355 0 0 0-0.25196 0.104l-0.79833 0.79834c-0.68028-0.56919-1.5555-0.9126-2.5093-0.9126zm0 0.70899c0.7613 0 1.4594 0.26364 2.0083 0.70459l-1.2085 1.2085c-0.25828-0.0539-0.52586-0.082-0.7998-0.082-0.27135 0-0.53653 0.0277-0.79248 0.0806l-1.21-1.21c0.54813-0.43841 1.2436-0.70166 2.0024-0.70166zm-2.5049 1.2026 0.95069 0.95069c-0.3448 0.14993-0.66422 0.34804-0.94922 0.58594l-0.54053-0.54053c0.12039-0.36557 0.30413-0.70238 0.53906-0.9961zm5.0127 6e-3c0.23437 0.29434 0.41801 0.63149 0.5376 0.99756l-0.53613 0.5376c-0.28489-0.23854-0.60442-0.4368-0.94922-0.5874zm-2.5078 1.333c0.0554 0 0.11078 2e-3 0.16553 4e-3l-0.16114 0.16259-0.1626-0.16259c0.0524-3e-3 0.10521-4e-3 0.15821-4e-3zm-1.0064 0.16113 0.5083 0.5083-0.59766 0.59766c-0.0866 0.0253-0.17233 0.0525-0.25634 0.0835l-0.64893-0.65039c0.29367-0.23458 0.62924-0.41892 0.99463-0.53907zm2.0186 1e-3c0.36515 0.12101 0.70143 0.30664 0.99463 0.54199l-0.64892 0.64893c-0.0814-0.0302-0.16518-0.0572-0.24903-0.082l-0.60205-0.60206zm-4.2129 0.34277 0.19483 0.19483c-0.0653 0.0782-0.12693 0.15994-0.18604 0.24316-8e-3 -0.092-0.0132-0.18571-0.0132-0.27978 0-0.053 2e-3 -0.10586 4e-3 -0.15821zm6.4014 9e-3c2e-3 0.0495 4e-3 0.0994 4e-3 0.14942 0 0.0935-5e-3 0.18683-0.0132 0.27832-0.0575-0.0808-0.11837-0.15976-0.18164-0.23584zm-5.7056 0.68848 0.47461 0.47461c-0.16488 0.10037-0.32098 0.21259-0.46875 0.33545l-0.32666-0.32666c0.0921-0.17131 0.20026-0.33269 0.3208-0.4834zm5.0127 4e-3c0.12068 0.15145 0.22737 0.31419 0.31934 0.48633l-0.32373 0.32373c-0.1474-0.12286-0.30429-0.23496-0.46875-0.33545zm-3.2241 1.7842 0.21826 0.21826-0.40283 0.40284-0.41895-0.41895c0.19185-0.0864 0.39361-0.15454 0.60352-0.20215zm1.4385 1e-3c0.20926 0.048 0.41081 0.11707 0.60205 0.20361l-0.41602 0.41602-0.40283-0.40284zm-0.71778 0.71777 0.15381 0.15381c-0.0523 3e-3 -0.10521 4e-3 -0.1582 4e-3 -0.05 0-0.0999-2e-3 -0.14942-4e-3zm-2.5049 0.39551 0.55371 0.55517-0.55371 0.55225c-0.13739-0.17097-0.25707-0.35639-0.35742-0.55371 0.10035-0.19731 0.21999-0.38279 0.35742-0.55371zm5.0039 6e-3c0.13558 0.16939 0.25375 0.35266 0.35302 0.54785-0.0993 0.1952-0.21747 0.37841-0.35302 0.54785l-0.54786-0.54639zm-3.9492 1.0503 0.40136 0.40137-0.46728 0.46875c-0.17236-0.092-0.3347-0.19854-0.48633-0.31934zm2.9004 0 0.54785 0.54785c-0.15087 0.12063-0.31336 0.22725-0.48486 0.31934l-0.46436-0.46582zm-4.6055 0.36182c0.0479 0.0649 0.0977 0.12871 0.14941 0.19043l-0.10547 0.10547c-0.021-0.0826-0.0368-0.16693-0.0513-0.25196 3e-3 -0.0148 5e-3 -0.0292 7e-3 -0.0439zm6.3018 1e-3c3e-3 0.0142 5e-3 0.0282 7e-3 0.0425-0.014 0.0821-0.0312 0.16334-0.0513 0.24317l-0.10107-0.10108c0.05-0.0599 0.0986-0.12175 0.14502-0.18457zm-0.64746 0.68555 0.32373 0.32373c-0.0918 0.17205-0.19882 0.33347-0.31934 0.48486l-0.47314-0.47314c0.16423-0.10039 0.32154-0.21275 0.46875-0.33545zm-5.0024 4e-3c0.14757 0.12269 0.30412 0.23519 0.46875 0.33545l-0.47461 0.47461c-0.1207-0.15094-0.22866-0.3118-0.3208-0.4834zm2.9795 0.87305 0.85107 0.85107c-0.40555 0.18496-0.85556 0.28858-1.3315 0.28858-0.47338 0-0.92185-0.1026-1.3257-0.28565l0.85254-0.85253c0.15505 0.0188 0.31313 0.0293 0.47315 0.0293 0.16305 0 0.32257-0.0113 0.48047-0.0308zm-72.911 14.421c-0.95381 0-1.828 0.3434-2.5078 0.91259l-0.7998-0.7998a0.355 0.355 0 0 0-0.25195-0.10254 0.355 0.355 0 0 0-0.25049 0.10254 0.355 0.355 0 0 0-0.06152 0.41162 0.355 0.355 0 0 0 0.06152 0.41162l0.65918 0.65918c-0.40562 0.54987-0.67085 1.2093-0.74268 1.9248a0.355 0.355 0 0 0-0.01172 0.15088c-5e-3 0.0806-0.0088 0.16135-0.0088 0.24316 0 0.0537 0.0022 0.10653 0.0044 0.15967-0.0022 0.0532-0.0044 0.10738-0.0044 0.16113 0 0.51949 0.10394 1.015 0.28857 1.4692-0.18473 0.45411-0.28857 0.94961-0.28857 1.4692 0 0.0844 0.0035 0.16885 0.0088 0.25195a0.355 0.355 0 0 0 0.01465 0.16699c0.0021 0.0201 0.0049 0.0401 0.0073 0.0601a0.355 0.355 0 0 0 0.06738 0.38379c0.13877 0.6143 0.421 1.1741 0.81152 1.6421l-0.80566 0.80566a0.355 0.355 0 0 0 0 0.50245 0.355 0.355 0 0 0 0.50244 0l0.80566-0.80567c0.67906 0.56681 1.5508 0.90967 2.502 0.90967 0.94894 0 1.8202-0.34087 2.499-0.90527l0.7998 0.80127a0.355 0.355 0 0 0 0.50244 0 0.355 0.355 0 0 0 0-0.50245l-0.7998-0.7998c0.39669-0.47329 0.68368-1.0409 0.82178-1.6641a0.355 0.355 0 0 0 0.06006-0.34571c0.0059-0.0457 0.01185-0.0916 0.01611-0.13769a0.355 0.355 0 0 0 0.0059-0.0718c0.0071-0.0961 0.01172-0.19361 0.01172-0.2915 0-0.51963-0.10367-1.0151-0.28857-1.4692 0.18481-0.45419 0.28857-0.94975 0.28857-1.4692 0-0.0537-0.0022-0.1079-0.0044-0.16113 0.0022-0.0531 0.0044-0.10602 0.0044-0.15967 0-0.0977-0.0046-0.19414-0.01172-0.29004a0.355 0.355 0 0 0-0.0044-0.0586c-0.06534-0.73569-0.33576-1.4134-0.75293-1.9761l0.65332-0.65332a0.355 0.355 0 0 0 0.06592-0.41162 0.355 0.355 0 0 0-0.06592-0.41162 0.355 0.355 0 0 0-0.25049-0.10254 0.355 0.355 0 0 0-0.25195 0.10254l-0.79541 0.79541c-0.67947-0.56634-1.5523-0.9082-2.5034-0.9082zm0 1.0298c0.67587 0 1.3018 0.20884 1.8179 0.56397l-1.6699 1.6699c-0.04892-2e-3 -0.09859-4e-3 -0.14795-4e-3 -0.05267 0-0.10457 2e-3 -0.15674 4e-3l-1.6655-1.6655c0.51724-0.35766 1.1438-0.56836 1.8223-0.56836zm2.5049 1.2026c0.30082 0.37617 0.51857 0.82159 0.62549 1.3096l-0.62549 0.62549c-0.36338-0.30306-0.78263-0.53935-1.2393-0.6958zm-5.0127 6e-3 1.2363 1.2363c-0.45628 0.15742-0.87512 0.39476-1.2378 0.69873l-0.62109-0.62256c0.10571-0.489 0.32224-0.93525 0.62256-1.3125zm3.2007 1.8062c0.48807 0.10694 0.93335 0.32458 1.3096 0.62549l-0.37646 0.37793-0.96826-0.96826zm-1.3931 1e-3 0.03369 0.0337-0.96826 0.96826-0.37354-0.37354c0.37524-0.30159 0.82085-0.52023 1.3081-0.62841zm3.8467 0.48339c-0.0159 0.0823-0.0351 0.1633-0.05713 0.24317-0.02707-0.0347-0.0553-0.0688-0.0835-0.10254zm-6.2886 0.0132 0.13184 0.1333c-0.0267 0.0321-0.05195 0.0652-0.07764 0.0981-0.02102-0.0761-0.03874-0.15319-0.0542-0.23144zm3.1377 0.19922 0.96826 0.96826-0.96826 0.96679-0.96826-0.96679zm2.5093 0.4292c0.09411 0.11765 0.17936 0.24309 0.25635 0.37353-0.0782 0.13247-0.1649 0.25867-0.26074 0.37793l-0.37354-0.37353zm-5.0127 6e-3 0.37207 0.37208-0.36768 0.36767c-0.09415-0.11769-0.1808-0.24158-0.25781-0.37207 0.07582-0.12848 0.16098-0.25159 0.25342-0.36768zm1.0342 1.0342 0.84522 0.84668c-0.43488-0.0861-0.83775-0.26023-1.1895-0.50244zm2.9385 0 0.34863 0.34864c-0.3538 0.24246-0.7594 0.41625-1.1968 0.50097zm1.6816 0.35157c3.81e-4 2e-3 0.0011 4e-3 0.0015 6e-3l-0.0029-3e-3c6.45e-4 -8.7e-4 8.21e-4 -2e-3 0.0015-3e-3zm-5.6499 0.67822c0.36278 0.30299 0.78186 0.54064 1.2378 0.69727l-1.2378 1.2392c-0.30128-0.37641-0.51846-0.82257-0.62549-1.311zm5.0024 4e-3 0.62988 0.62989c-0.10823 0.48746-0.32662 0.93276-0.62842 1.3081l-1.2407-1.2422c0.4566-0.15576 0.87559-0.39341 1.2393-0.6958zm-2.9458 0.87891c0.14704 0.0168 0.29531 0.0264 0.44678 0.0264 0.14794 0 0.29424-9e-3 0.43799-0.0249l1.5586 1.5586c-0.54709 0.43518-1.2408 0.69433-1.9966 0.69433-0.75815 0-1.4531-0.26107-2.001-0.69873zm-3.1128 10.125a0.355 0.355 0 0 0-0.25049 0.104 0.355 0.355 0 0 0-0.08935 0.32666 0.355 0.355 0 0 0 0.0249 0.22998 0.355 0.355 0 0 0-0.03516 0.18458 0.355 0.355 0 0 0-0.0029 0.0308 0.355 0.355 0 0 0 0 0.0161 0.355 0.355 0 0 0-0.0015 0.022 0.355 0.355 0 0 0 0 1e-3 0.355 0.355 0 0 0 0.0044 0.0234 0.355 0.355 0 0 0 0 0.0513 0.355 0.355 0 0 0 0.0088 0.0937 0.355 0.355 0 0 0-0.0088 0.0967 0.355 0.355 0 0 0-0.0029 0.0337 0.355 0.355 0 0 0 0 0.0205 0.355 0.355 0 0 0 0.0088 0.0674 0.355 0.355 0 0 0-0.0029 0.0879 0.355 0.355 0 0 0-0.0029 0.0542 0.355 0.355 0 0 0 0 0.0469 0.355 0.355 0 0 0 0.0059 0.0747 0.355 0.355 0 0 0-0.0029 0.0893 0.355 0.355 0 0 0-0.0029 0.0601 0.355 0.355 0 0 0-0.0029 0.0308 0.355 0.355 0 0 0 0.0015 0.0249 0.355 0.355 0 0 0 0.0059 0.0586 0.355 0.355 0 0 0-0.0044 0.0659 0.355 0.355 0 0 0-0.0029 0.0264 0.355 0.355 0 0 0 0.0015 0.0234 0.355 0.355 0 0 0 0.0044 0.0557 0.355 0.355 0 0 0-0.0044 0.0454 0.355 0.355 0 0 0 0.0059 0.0718 0.355 0.355 0 0 0-0.0015 0.0879 0.355 0.355 0 0 0-0.0059 0.0439 0.355 0.355 0 0 0 0.0029 0.0264 0.355 0.355 0 0 0-0.0029 0.0234 0.355 0.355 0 0 0 0.0029 0.0234 0.355 0.355 0 0 0 0.01025 0.0967 0.355 0.355 0 0 0-0.0073 0.11719 0.355 0.355 0 0 0 0.01904 0.17432 0.355 0.355 0 0 0 0.06592 0.36767c-0.05895 0.26963-0.09229 0.54939-0.09229 0.83643 0 0.0236 1e-3 0.0468 0.0015 0.0703-4.13e-4 0.0233-0.0015 0.0469-0.0015 0.0703 0 0.0522 0.0024 0.10359 0.0044 0.15528-2e-3 0.0513-0.0044 0.10347-0.0044 0.15527 0 0.0103 0.0014 0.0204 0.0015 0.0308-1.2e-5 9.8e-4 1.1e-5 2e-3 0 3e-3 -5.2e-5 8e-3 -0.0015 0.0166-0.0015 0.0249-3.6e-5 7e-3 0 0.0136 0 0.0205 5e-6 9.8e-4 -6e-6 2e-3 0 3e-3 -2.6e-5 6e-3 0 0.0117 0 0.0176-6e-6 3e-3 0 6e-3 0 9e-3 0 8e-3 0.0014 0.0166 0.0015 0.0249 1.7e-5 2e-3 -2e-5 4e-3 0 6e-3 -3.6e-5 7e-3 -0.0015 0.0136-0.0015 0.0205 0 7e-3 -3.6e-5 0.0136 0 0.0205-3e-5 6e-3 0 0.0127 0 0.019 0 0.0251 9.92e-4 0.0497 0.0015 0.0747-4.73e-4 0.025-0.0015 0.0496-0.0015 0.0747 0 8e-3 -5.2e-5 0.0166 0 0.0249-5.2e-5 8e-3 0 0.0166 0 0.0249 0 2e-3 -3e-6 4e-3 0 6e-3 -3e-6 2e-3 0 4e-3 0 6e-3 1.6e-5 5e-3 -3.8e-5 0.0107 0 0.0161-1.4e-5 4e-3 0 9e-3 0 0.0132 1.17e-4 0.0113 0.0013 0.0224 0.0015 0.0337 2.5e-5 3e-3 -3.2e-5 6e-3 0 9e-3 -2.73e-4 0.019-0.0015 0.0381-0.0015 0.0571 0 0.0118 0.0014 0.0234 0.0015 0.0352-1.04e-4 0.0117-0.0015 0.0234-0.0015 0.0351 0 7e-3 -3.6e-5 0.0136 0 0.0205-2.6e-5 6e-3 0 0.0117 0 0.0176 0 9e-3 0.0014 0.0176 0.0015 0.0264-1.04e-4 0.0117-0.0015 0.0234-0.0015 0.0351 0 0.0177 0.0012 0.0351 0.0015 0.0527-1.84e-4 0.0156-0.0015 0.0312-0.0015 0.0469 0 0.0138 0.0013 0.0273 0.0015 0.041-1.23e-4 0.0128-0.0015 0.0253-0.0015 0.0381 0 6e-3 -2.6e-5 0.0117 0 0.0176-4.7e-5 8e-3 0 0.0156 0 0.0234 0 1e-3 -2e-6 3e-3 0 4e-3 -3e-6 2e-3 0 4e-3 0 6e-3 0 6e-3 -3.1e-5 0.0127 0 0.019-3.5e-5 7e-3 0 0.0137 0 0.0205 0 0.0202 0.0012 0.04 0.0015 0.06-7.3e-5 0.01-0.0015 0.0195-0.0015 0.0293 0 6e-3 -2.6e-5 0.0117 0 0.0176-4.7e-5 8e-3 0 0.0156 0 0.0234 0 7e-3 -4.1e-5 0.0146 0 0.022-2.6e-5 6e-3 0 0.0117 0 0.0176 0 0.0123 0.0014 0.0243 0.0015 0.0366-9.5e-5 0.0112-0.0015 0.0224-0.0015 0.0337 0 6e-3 -3.1e-5 0.0127 0 0.019-4e-5 7e-3 0 0.0147 0 0.022 0 0.0162 0.0013 0.0321 0.0015 0.0483-2.2e-4 0.0171-0.0015 0.0342-0.0015 0.0513 0 0.0148 0.0013 0.0292 0.0015 0.0439-5.8e-5 9e-3 -0.0015 0.0176-0.0015 0.0264 0 2e-3 -3e-6 4e-3 0 6e-3v3e-3c0 7e-3 -4e-5 0.0146 0 0.022-6.5e-5 9e-3 0 0.0185 0 0.0278 0 1e-3 -2e-6 3e-3 0 4e-3 -4e-6 2e-3 0 5e-3 0 7e-3 0 9e-3 0.0014 0.0175 0.0015 0.0264-1.2e-5 4e-3 -0.0015 8e-3 -0.0015 0.0117 0 0.0254 9.8e-4 0.0509 0.0015 0.0762-4.73e-4 0.025-0.0015 0.0496-0.0015 0.0747 0 0.0143 0.0013 0.0282 0.0015 0.0425-1.22e-4 0.0127-0.0015 0.0254-0.0015 0.0381 0 0.0418 0.0016 0.083 0.0029 0.12451-0.0017 0.048-0.0029 0.0967-0.0029 0.14502 0 0.28444 0.0329 0.56167 0.09082 0.8291a0.355 0.355 0 0 0-0.07617 0.30616 0.355 0.355 0 0 0 0.0249 0.22851 0.355 0.355 0 0 0-0.03516 0.18018 0.355 0.355 0 0 0-0.0029 0.0366 0.355 0.355 0 0 0 0.0015 0.0234 0.355 0.355 0 0 0 0.0029 0.0454 0.355 0.355 0 0 0-0.0015 0.0513 0.355 0.355 0 0 0 0.01025 0.0879 0.355 0.355 0 0 0-0.01025 0.0937 0.355 0.355 0 0 0-0.0029 0.041 0.355 0.355 0 0 0 0 0.0176 0.355 0.355 0 0 0 0.0088 0.0615 0.355 0.355 0 0 0-0.0029 0.0923 0.355 0.355 0 0 0-0.0029 0.0557 0.355 0.355 0 0 0 0 0.0439 0.355 0.355 0 0 0 0.0059 0.082 0.355 0.355 0 0 0-0.0044 0.0894 0.355 0.355 0 0 0-0.0015 0.0542 0.355 0.355 0 0 0-0.0029 0.0293 0.355 0.355 0 0 0 0.0015 0.0249 0.355 0.355 0 0 0 0.0059 0.0601 0.355 0.355 0 0 0-0.0044 0.0659 0.355 0.355 0 0 0-0.0029 0.0249 0.355 0.355 0 0 0 0.0029 0.0234 0.355 0.355 0 0 0 0.0029 0.0557 0.355 0.355 0 0 0-0.0044 0.0513 0.355 0.355 0 0 0 0.0073 0.0645 0.355 0.355 0 0 0-0.0029 0.0893 0.355 0.355 0 0 0-0.0059 0.0454 0.355 0.355 0 0 0 0.0029 0.0249 0.355 0.355 0 0 0-0.0029 0.0264 0.355 0.355 0 0 0 0.0015 0.0234 0.355 0.355 0 0 0 0.01172 0.0952 0.355 0.355 0 0 0-0.0073 0.11426 0.355 0.355 0 0 0 0.01904 0.17578 0.355 0.355 0 0 0 0 1e-3 0.355 0.355 0 0 0 0.07764 0.38379 0.355 0.355 0 0 0 0.50244 0l0.7998-0.79981c0.67996 0.56999 1.5537 0.91553 2.5078 0.91553 0.95154 0 1.8253-0.34248 2.5049-0.90967l0.79395 0.79395a0.355 0.355 0 0 0 0.50244 0 0.355 0.355 0 0 0 0.07617-0.38526 0.355 0.355 0 0 0 0.0249-0.17578 0.355 0.355 0 0 0-0.0059-0.11426 0.355 0.355 0 0 0 0.0073-0.0996 0.355 0.355 0 0 0 0.0015-0.0146 0.355 0.355 0 0 0 0-4e-3 0.355 0.355 0 0 0-0.0015-0.0264 0.355 0.355 0 0 0 0.0015-0.0293 0.355 0.355 0 0 0-0.0029-0.0366 0.355 0.355 0 0 0-0.0015-0.0937 0.355 0.355 0 0 0 0.0029-0.0645 0.355 0.355 0 0 0-0.0015-0.0527 0.355 0.355 0 0 0 0.0015-0.0586 0.355 0.355 0 0 0 0.0015-0.0146 0.355 0.355 0 0 0 0-4e-3 0.355 0.355 0 0 0-0.0015-0.0249 0.355 0.355 0 0 0-0.0015-0.0644 0.355 0.355 0 0 0 0.0015-0.0615 0.355 0.355 0 0 0 0-0.0234 0.355 0.355 0 0 0 0-0.0308 0.355 0.355 0 0 0-0.0015-0.0557 0.355 0.355 0 0 0-0.0015-0.0894 0.355 0.355 0 0 0 0.0029-0.0791 0.355 0.355 0 0 0 0-0.0454 0.355 0.355 0 0 0-0.0015-0.0557 0.355 0.355 0 0 0-0.0015-0.0908 0.355 0.355 0 0 0 0.0029-0.0645 0.355 0.355 0 0 0 0.0015-9e-3 0.355 0.355 0 0 0 0-1e-3 0.355 0.355 0 0 0-0.0015-0.0527 0.355 0.355 0 0 0-0.0059-0.0864 0.355 0.355 0 0 0 0.0059-0.0894 0.355 0.355 0 0 0-0.0015-0.0527 0.355 0.355 0 0 0 0.0015-0.0439 0.355 0.355 0 0 0 0-1e-3 0.355 0.355 0 0 0 0.0015-0.0205 0.355 0.355 0 0 0-0.0015-0.0381 0.355 0.355 0 0 0-0.03369-0.17871 0.355 0.355 0 0 0 0.02637-0.22998 0.355 0.355 0 0 0-0.07178-0.29883c0.05901-0.26969 0.09229-0.54939 0.09229-0.83643 0-0.0484-0.0012-0.0971-0.0029-0.14502 0.0013-0.0415 0.0029-0.0827 0.0029-0.12451 0-0.0127-0.0013-0.0254-0.0015-0.0381 1.53e-4 -0.0142 0.0015-0.0282 0.0015-0.0425 0-0.0251-9.92e-4 -0.0497-0.0015-0.0747 4.85e-4 -0.0253 0.0015-0.0508 0.0015-0.0762 0-4e-3 -0.0015-8e-3 -0.0015-0.0117 5.9e-5 -9e-3 0.0015-0.0175 0.0015-0.0264 7e-6 -2e-3 -3e-6 -5e-3 0-7e-3 -3e-6 -1e-3 4e-6 -3e-3 0-4e-3 0-9e-3 6.5e-5 -0.0186 0-0.0278 4e-5 -7e-3 0-0.0147 0-0.022 0-0.0118-0.0014-0.0234-0.0015-0.0352 1.64e-4 -0.0147 0.0015-0.0292 0.0015-0.0439 0-0.0171-0.0012-0.0342-0.0015-0.0513 1.99e-4 -0.0162 0.0015-0.0321 0.0015-0.0483 0-7e-3 4e-5 -0.0147 0-0.022 3.1e-5 -6e-3 0-0.0127 0-0.019 0-0.0112-0.0014-0.0225-0.0015-0.0337 1.14e-4 -0.0123 0.0015-0.0243 0.0015-0.0366 0-6e-3 2.6e-5 -0.0117 0-0.0176 4.1e-5 -7e-3 0-0.0146 0-0.022 0-8e-3 4.6e-5 -0.0156 0-0.0234 2.6e-5 -6e-3 0-0.0117 0-0.0176 0-0.01-0.0014-0.0195-0.0015-0.0293 3.06e-4 -0.0201 0.0015-0.0399 0.0015-0.06 0-7e-3 3.5e-5 -0.0137 0-0.0205 3.1e-5 -6e-3 0-0.0127 0-0.019 0-0.0113 9.6e-5 -0.0224 0-0.0337 2.6e-5 -6e-3 0-0.0117 0-0.0176 0-0.0128-0.0013-0.0253-0.0015-0.0381 1.43e-4 -0.0137 0.0015-0.0272 0.0015-0.041 0-0.0156-0.0013-0.0313-0.0015-0.0469 2.36e-4 -0.0177 0.0015-0.035 0.0015-0.0527 0-0.0117-0.0014-0.0234-0.0015-0.0351 5.8e-5 -9e-3 0.0015-0.0176 0.0015-0.0264 0-6e-3 2.6e-5 -0.0117 0-0.0176 3.6e-5 -7e-3 0-0.0136 0-0.0205 0-0.0117-0.0014-0.0234-0.0015-0.0351 1.05e-4 -0.0118 0.0015-0.0233 0.0015-0.0352 0-0.022-0.0011-0.044-0.0015-0.0659 4.36e-4 -0.023 0.0014-0.0457 0.0015-0.0688-3e-6 -2e-3 6e-6 -4e-3 0-6e-3 0-8e-3 5.2e-5 -0.0166 0-0.0249 5.2e-5 -8e-3 0-0.0166 0-0.0249 0-0.0251-9.92e-4 -0.0497-0.0015-0.0747 4.73e-4 -0.025 0.0015-0.0496 0.0015-0.0747 0-6e-3 3e-5 -0.0127 0-0.019 3.6e-5 -7e-3 0-0.0136 0-0.0205 0-9e-3 -0.0014-0.0175-0.0015-0.0264 3.4e-5 -5e-3 0.0015-0.0107 0.0015-0.0161 1.3e-5 -3e-3 -7e-6 -6e-3 0-9e-3 0-3e-3 6e-6 -6e-3 0-9e-3 0-6e-3 2.6e-5 -0.0117 0-0.0176 6e-6 -9.8e-4 -5e-6 -2e-3 0-3e-3 0-7e-3 3.6e-5 -0.0136 0-0.0205 0-9e-3 -0.0014-0.0186-0.0015-0.0278 8.1e-5 -0.0103 0.0015-0.0204 0.0015-0.0308 0-0.0518-0.0024-0.10396-0.0044-0.15527 2e-3 -0.0517 0.0044-0.1031 0.0044-0.15528 0-0.0235-0.0011-0.047-0.0015-0.0703 4.19e-4 -0.0235 0.0015-0.0467 0.0015-0.0703 0-0.28964-0.0337-0.57187-0.09375-0.84375a0.355 0.355 0 0 0 0.0542-0.36035 0.355 0.355 0 0 0 0.0249-0.17432 0.355 0.355 0 0 0-0.0059-0.11719 0.355 0.355 0 0 0 0.0073-0.0996 0.355 0.355 0 0 0 0.0015-0.0161 0.355 0.355 0 0 0 0-9e-3 0.355 0.355 0 0 0-0.0015-0.019 0.355 0.355 0 0 0 0.0015-0.0308 0.355 0.355 0 0 0-0.0029-0.0337 0.355 0.355 0 0 0 0-1e-3 0.355 0.355 0 0 0 0-0.0894 0.355 0.355 0 0 0 0.0029-0.0806 0.355 0.355 0 0 0-0.0029-0.0381 0.355 0.355 0 0 0 0.0015-0.063 0.355 0.355 0 0 0 0.0015-0.0132 0.355 0.355 0 0 0 0-4e-3 0.355 0.355 0 0 0-0.0015-0.0264 0.355 0.355 0 0 0-0.0015-0.0645 0.355 0.355 0 0 0 0.0015-0.0601 0.355 0.355 0 0 0 0-0.0249 0.355 0.355 0 0 0 0-0.0308 0.355 0.355 0 0 0-0.0015-0.0601 0.355 0.355 0 0 0-0.0015-0.0893 0.355 0.355 0 0 0 0.0029-0.0747 0.355 0.355 0 0 0 0-0.0469 0.355 0.355 0 0 0-0.0015-0.0542 0.355 0.355 0 0 0-0.0015-0.0879 0.355 0.355 0 0 0 0-1e-3 0.355 0.355 0 0 0 0-1e-3 0.355 0.355 0 0 0 0.0029-0.063 0.355 0.355 0 0 0 0-0.0205 0.355 0.355 0 0 0 0-0.0352 0.355 0.355 0 0 0-0.0073-0.0952 0.355 0.355 0 0 0 0.0073-0.0937 0.355 0.355 0 0 0 0-0.0527 0.355 0.355 0 0 0 0.0015-0.0234 0.355 0.355 0 0 0 0-0.0308 0.355 0.355 0 0 0 0-9e-3 0.355 0.355 0 0 0-0.0015-0.0264 0.355 0.355 0 0 0-0.03369-0.19043 0.355 0.355 0 0 0 0.02637-0.22852 0.355 0.355 0 0 0-0.09522-0.32666 0.355 0.355 0 0 0-0.50244 0l-0.7998 0.80127c-0.67879-0.56398-1.5501-0.9038-2.499-0.9038-0.95119 0-1.8229 0.34181-2.502 0.9082l-0.80566-0.80567a0.355 0.355 0 0 0-0.25195-0.104zm3.5596 3.2007c0.06586 0 0.13143 3e-3 0.19629 7e-3l-0.20068 0.20068-0.20068-0.20068c0.06784-4e-3 0.13614-7e-3 0.20508-7e-3zm2.5005 1.1968c0.18508 0.23036 0.33936 0.48664 0.45557 0.76318-0.11528 0.27434-0.26806 0.5284-0.45117 0.75733l-0.76318-0.76172zm-5.0039 6e-3 0.75293 0.75293-0.75732 0.75586c-0.18116-0.22751-0.33242-0.47931-0.44678-0.75147 0.11527-0.27432 0.26807-0.52839 0.45117-0.75732zm2.499 2.499 0.21094 0.21094c-0.06819 4e-3 -0.13725 7e-3 -0.20654 7e-3 -0.07194 0-0.14313-4e-3 -0.21387-9e-3z" fill="#e78ac3"/>
  <polyline id="polyline2227" points="56.92 374.97 563.96 64.75" stroke="#e78ac3" stroke-width="2.13"/>
  <path id="line2266" d="m353.65 324.61 7.11 7.11m-7.11 0 7.11-7.11m0.01 3.55a3.56 3.56 0 0 1-3.56 3.56 3.56 3.56 0 0 1-3.56-3.56 3.56 3.56 0 0 1 3.56-3.56 3.56 3.56 0 0 1 3.56 3.56z" fill="none" stroke="#e78ac3" stroke-linecap="round" stroke-linejoin="round" stroke-miterlimit="10" stroke-width=".71"/>
  <line id="line2267" x1="351.07" x2="363.34" y1="328.16" y2="328.16" stroke="#e78ac3" stroke-width="2.13"/>
  <text id="text2274" x="371.85001" y="332.14001" font-family="'Linux Biolinum O'" font-size="12px" lengthAdjust="spacingAndGlyphs" textLength="99.089996">No checks, GIL held</text>
 </g>
 <g id="layer1">
  <text id="text2231" x="45.369999" y="389.73001" font-family="'Linux Biolinum O'" font-size="12px" text-anchor="end" lengthAdjust="spacingAndGlyphs" textLength="5.5799999">1</text>
  <text id="text2232" x="45.369999" y="279.35999" font-family="'Linux Biolinum O'" font-size="12px" text-anchor="end" lengthAdjust="spacingAndGlyphs" textLength="11.16">10</text>
  <text id="text2233" x="45.369999" y="168.99001" font-family="'Linux Biolinum O'" font-size="12px" text-anchor="end" lengthAdjust="spacingAndGlyphs" textLength="16.74">100</text>
  <text id="text2234" x="45.369999" y="58.619999" font-family="'Linux Biolinum O'" font-size="12px" text-anchor="end" lengthAdjust="spacingAndGlyphs" textLength="22.32">1000</text>
  <text id="text2235" x="45.369999" y="14.7" font-family="'Linux Biolinum O'" font-size="12px" text-anchor="end" lengthAdjust="spacingAndGlyphs" textLength="22.32">2500</text>
  <text id="text2248" x="50.23" y="406.04001" font-family="'Linux Biolinum O'" font-size="12px" lengthAdjust="spacingAndGlyphs" textLength="5.5799999">2</text>
  <text id="text2249" x="55.810001" y="401.10999" font-family="'Linux Biolinum O'" font-size="8.4px" lengthAdjust="spacingAndGlyphs" textLength="7.8000002">16</text>
  <text id="text2250" x="122.66" y="406.03" font-family="'Linux Biolinum O'" font-size="12px" lengthAdjust="spacingAndGlyphs" textLength="5.5799999">2</text>
  <text id="text2251" x="128.24001" y="401.10999" font-family="'Linux Biolinum O'" font-size="8.4px" lengthAdjust="spacingAndGlyphs" textLength="7.8000002">17</text>
  <text id="text2252" x="195.09" y="406.03" font-family="'Linux Biolinum O'" font-size="12px" lengthAdjust="spacingAndGlyphs" textLength="5.5799999">2</text>
  <text id="text2253" x="200.67" y="401.10999" font-family="'Linux Biolinum O'" font-size="8.4px" lengthAdjust="spacingAndGlyphs" textLength="7.8000002">18</text>
  <text id="text2254" x="267.53" y="406.03" font-family="'Linux Biolinum O'" font-size="12px" lengthAdjust="spacingAndGlyphs" textLength="5.5799999">2</text>
  <text id="text2255" x="273.10999" y="401.10999" font-family="'Linux Biolinum O'" font-size="8.4px" lengthAdjust="spacingAndGlyphs" textLength="7.8000002">19</text>
  <text id="text2256" x="339.95999" y="406.03" font-family="'Linux Biolinum O'" font-size="12px" lengthAdjust="spacingAndGlyphs" textLength="5.5799999">2</text>
  <text id="text2257" x="345.54001" y="401.10999" font-family="'Linux Biolinum O'" font-size="8.4px" lengthAdjust="spacingAndGlyphs" textLength="7.8000002">20</text>
  <text id="text2258" x="412.39999" y="406.03" font-family="'Linux Biolinum O'" font-size="12px" lengthAdjust="spacingAndGlyphs" textLength="5.5799999">2</text>
  <text id="text2259" x="417.98001" y="401.10999" font-family="'Linux Biolinum O'" font-size="8.4px" lengthAdjust="spacingAndGlyphs" textLength="7.8000002">21</text>
  <text id="text2260" x="484.82999" y="406.03" font-family="'Linux Biolinum O'" font-size="12px" lengthAdjust="spacingAndGlyphs" textLength="5.5799999">2</text>
  <text id="text2261" x="490.41" y="401.10999" font-family="'Linux Biolinum O'" font-size="8.4px" lengthAdjust="spacingAndGlyphs" textLength="7.8000002">22</text>
  <text id="text2262" x="557.26001" y="406.03" font-family="'Linux Biolinum O'" font-size="12px" lengthAdjust="spacingAndGlyphs" textLength="5.5799999">2</text>
  <text id="text2263" x="562.84003" y="401.10999" font-family="'Linux Biolinum O'" font-size="8.4px" lengthAdjust="spacingAndGlyphs" textLength="7.8000002">23</text>
  <text id="text2264" x="310.44" y="421.70999" font-family="'Linux Biolinum O'" font-size="14px" text-anchor="middle" lengthAdjust="spacingAndGlyphs" textLength="111.94">Number of samples</text>
  <text id="text2265" transform="rotate(-90 107.24 90.995)" font-family="'Linux Biolinum O'" font-size="14px" text-anchor="middle" lengthAdjust="spacingAndGlyphs" textLength="156.89999">Elapsed time (milliseconds)</text>
  <path id="polyline2248" d="m563.96 393v-3.49m-72.44 3.49v-3.49m-72.43 3.49v-3.49m-72.44 3.49v-3.49m-72.43 3.49v-3.49m-72.43 3.49v-3.49m-72.44 3.49v-3.49m-72.43 3.49v-3.49m-5.07 0h517.18m-520.67-378.79h3.49m-3.49 43.93h3.49m-3.49 110.37h3.49m-3.49 110.37h3.49m-3.49 110.37h3.49m0 3.75v-382.54" fill="none" stroke="#000" stroke-linejoin="round" stroke-miterlimit="10" stroke-width="1.07"/>
 </g>
</svg>
