<?xml version="1.0" encoding="UTF-8"?>
<svg id="svg2277" class="svglite" width="576pt" height="432pt" version="1.1" viewBox="0 0 576 432" xmlns="http://www.w3.org/2000/svg">
 <g id="layer5">
  <path id="path2284" d="m357.21 368.3c-0.12766-3.3e-4 -0.24568 0.0679-0.30908 0.17871l-4.7886 8.2881c-0.13711 0.23633 0.0329 0.53247 0.30615 0.5332h9.5801c0.27387 4e-4 0.44506-0.29631 0.30762-0.5332l-4.79-8.2881c-0.0629-0.1099-0.17953-0.17799-0.30615-0.17871zm0 1.0649 4.1763 7.2261h-8.354z" fill="#8da0cb"/>
  <path id="polygon242" d="m563.96 8.5649c-0.12684-1.097e-4 -0.2441 0.067456-0.30762 0.17725l-4.79 8.291c-0.0661 0.12408-0.0363 0.27054-0.0292 0.30029-0.0315 0.20531-0.0115 0.41274-9e-3 0.62115-0.0211 0.20632 0.13835 0.38674 0.3457 0.39111h9.5698c0.20911-0.0018 0.37136-0.18308 0.3501-0.39111 0.0115-0.20667-2e-3 -0.41361-5e-3 -0.61974 3.4e-4 -0.0019 0.0311-0.17387-0.0399-0.30176l-4.7783-8.291c-0.0635-0.10979-0.18078-0.17736-0.30762-0.17725zm-1e-3 1.8457 3.7163 6.4453h-7.4399zm-72.439 60.483c-0.12662 7.16e-4 -0.24327 0.06881-0.30615 0.17871l-4.7915 8.291c-0.0386 0.07543-0.049 0.1622-0.0293 0.24463-0.0287 0.07874-0.0203 0.66204 1e-4 0.72655-0.0403 0.21489 0.12128 0.41481 0.33985 0.42041h9.5801c0.21882-0.0025 0.3833-0.20044 0.3457-0.41602 8e-3 -0.04112 0.0131-0.66902-2e-3 -0.72669 0.0182-0.08487 5e-3 -0.17346-0.0381-0.24902l-4.7886-8.291c-0.0634-0.11081-0.18142-0.17904-0.30908-0.17871zm0 1.9263 3.6768 6.3647h-7.3535zm-72.429 17.314c-0.12684-1.1e-4 -0.2441 0.06746-0.30762 0.17725l-4.79 8.3013c-0.0641 0.11637-0.0579 0.2588 0.0161 0.36914-0.0357 0.06504-0.0527 0.09879-0.0527 0.24756v1.2205c0 0.19843 0.1364 0.39136 0.3457 0.3955h9.5801c0.20982-3e-3 0.34863-0.23126 0.34863-0.39404v-1.2232c0-0.13745-0.0121-0.17279-0.0551-0.24317 0.0752-0.11103 0.0814-0.25496 0.0161-0.37207l-4.79-8.3013c-0.0635-0.10979-0.18078-0.17736-0.30762-0.17725zm0 2.7729 3.1919 5.5283h-6.3853zm-72.439 65.437c-0.12767-3.3e-4 -0.24568 0.0679-0.30908 0.17872l-4.7798 8.2983c-0.0395 0.0779-0.0415 0.16463-0.0415 0.25195v1.4261c0 0.19788 0.14763 0.37018 0.34863 0.37353h9.5698c0.20274-8.7e-4 0.35303-0.18268 0.35303-0.37353v-1.4221c0-0.0883-1e-3 -0.17644-0.0446-0.25341l-4.7915-8.2983c-0.0629-0.1099-0.17953-0.178-0.30615-0.17872zm0 2.584 3.2974 5.7158h-6.5889zm-72.431 7.0064c-0.12683-1.1e-4 -0.24409 0.0675-0.30761 0.17724l-4.79 8.2998c-0.0533 0.0984-0.0454 0.19193-0.0454 0.31787v1.2832c0 0.1685 0.15506 0.36074 0.35303 0.36182h9.5801c0.19797-2.8e-4 0.3545-0.16239 0.3545-0.36035v-1.2824c0-0.13129 0.0123-0.22147-0.0434-0.31933l-4.79-8.2998c-0.0635-0.10979-0.18078-0.17735-0.30762-0.17724zm0 2.5063 3.3486 5.792h-6.6958zm-72.431 51.593c-0.12684-1.1e-4 -0.2441 0.0675-0.30762 0.17724l-4.7886 8.2998c-0.13711 0.23633 0.0329 0.53247 0.30615 0.5332h2.6499l-2.956 5.1167c-0.0753 0.14196-0.0459 0.3168 0.0718 0.42627l-0.0718 0.12451c-0.0395 0.0779-0.0445 0.15584-0.0445 0.25195 1.1e-4 0.52208 0 1.0447 0 1.561 0 0.19919 0.15092 0.36503 0.3501 0.36767h9.5801c0.20153-9.4e-4 0.35303-0.16907 0.35303-0.3706v-1.5623c0-0.0861-5e-3 -0.17222-0.0466-0.24756l-0.0659-0.11426c0.12076-0.1125 0.14808-0.29338 0.0659-0.43652l-2.9561-5.1167h2.6484c0.27387 4e-4 0.44506-0.29631 0.30762-0.5332l-4.79-8.2998c-0.0635-0.10979-0.18078-0.17735-0.30762-0.17724zm0 1.0664 4.1777 7.2349h-2.4468l-1.4238-2.4639c-0.0635-0.10979-0.18078-0.17736-0.30762-0.17725-0.12684-1.1e-4 -0.2441 0.0675-0.30762 0.17725l-1.4238 2.4639h-2.4448zm-0.0542 7.9438h0.1084l2.852 4.9394h-5.8125zm-72.385 3.9609c-0.12684-1.1e-4 -0.2441 0.0675-0.30762 0.17724l-4.7812 8.2983c-0.05 0.0938-0.0404 0.28507-0.0404 0.40602v2.5385c0 0.24416 0.1059 0.37092 0.34996 0.37768h9.5698c0.24563-3e-3 0.35538-0.28306 0.35538-0.479v-2.5405c0-0.1065 2e-3 -0.21056-0.0501-0.30323l-4.79-8.2998c-0.0639-0.10922-0.18108-0.17619-0.30761-0.17578zm1e-3 3.8555 2.5635 4.4429h-5.1226zm-72.432 56.443c-0.12631 4.1e-4 -0.2429 0.0679-0.30615 0.17724 0 0-4.8268 8.182-4.8268 8.2896v3.3525c0 0.21074 0.13355 0.39519 0.34424 0.3999h9.5801c0.21312-2e-3 0.34863-0.18823 0.34863-0.40136v-3.076c0-0.0963 0.0053-0.19196-0.04279-0.27539l-4.79-8.2896c-0.06352-0.10979-0.18078-0.17735-0.30762-0.17724zm0 4.2832 2.3159 4.0078h-4.6304z" fill="#8da0cb"/>
  <polyline id="polyline2230" points="56.92 299.85 563.96 27.57" stroke="#8da0cb" stroke-width="2.13"/>
  <line id="line2274" x1="351.07" x2="363.34" y1="374.19" y2="374.19" stroke="#8da0cb" stroke-width="2.13"/>
 </g>
 <g id="layer1" fill="#a0b2b4">
  <text id="text2277" x="371.85001" y="378.16" font-family="'Linux Biolinum O'" font-size="12px" lengthAdjust="spacingAndGlyphs" textLength="192">Check whenever possible, GIL released</text>
 </g>
</svg>
