<?xml version="1.0" encoding="UTF-8"?>
<svg id="svg2277" width="576pt" height="432pt" version="1.1" viewBox="0 0 576 432" xmlns="http://www.w3.org/2000/svg">
 <g id="layer3">
  <path id="line83" d="m563.96 44.625a0.35504 0.35504 0 0 0-0.25195 0.104l-5.0215 5.0229a0.355 0.355 0 0 0-0.0937 0.15527 0.35504 0.35504 0 0 0-6e-3 0.03076 0.35504 0.35504 0 0 0 0 0.0044 0.355 0.355 0 0 0-0.0132 0.06738 0.355 0.355 0 0 0 1e-3 0.01025 0.355 0.355 0 0 0-1e-3 0.0088 0.355 0.355 0 0 0 1e-3 0.01172 0.355 0.355 0 0 0-1e-3 0.01025 0.355 0.355 0 0 0 4e-3 0.01904 0.355 0.355 0 0 0-4e-3 0.02051 0.355 0.355 0 0 0 1e-3 0.0044 0.355 0.355 0 0 0-1e-3 0.0044 0.355 0.355 0 0 0 1e-3 0.01025 0.355 0.355 0 0 0-1e-3 0.01025 0.355 0.355 0 0 0 1e-3 0.0059 0.355 0.355 0 0 0-1e-3 0.0059 0.355 0.355 0 0 0 1e-3 0.0088 0.355 0.355 0 0 0-1e-3 0.01025 0.355 0.355 0 0 0 1e-3 0.0044 0.355 0.355 0 0 0 0 0.0015 0.355 0.355 0 0 0-1e-3 0.0044 0.355 0.355 0 0 0 0 0.0044 0.355 0.355 0 0 0 0 0.0044 0.355 0.355 0 0 0 1e-3 0.0044 0.355 0.355 0 0 0 0 0.0015 0.355 0.355 0 0 0-1e-3 0.0044 0.355 0.355 0 0 0 1e-3 0.0059 0.355 0.355 0 0 0-1e-3 0.0044 0.355 0.355 0 0 0 0 0.0044 0.355 0.355 0 0 0 0 0.0044 0.355 0.355 0 0 0 1e-3 0.0059 0.355 0.355 0 0 0-1e-3 0.0059 0.355 0.355 0 0 0 1e-3 0.01025 0.355 0.355 0 0 0-1e-3 0.01025 0.355 0.355 0 0 0 1e-3 0.0059 0.355 0.355 0 0 0-1e-3 0.0029 0.355 0.355 0 0 0 1e-3 0.0059 0.355 0.355 0 0 0-1e-3 0.0044 0.355 0.355 0 0 0 1e-3 0.0044 0.355 0.355 0 0 0-1e-3 0.0059 0.355 0.355 0 0 0 1e-3 0.0044 0.355 0.355 0 0 0-1e-3 0.0044 0.355 0.355 0 0 0 3e-3 0.01758 0.355 0.355 0 0 0-3e-3 0.01465 0.355 0.355 0 0 0 1e-3 0.0088 0.355 0.355 0 0 0-1e-3 0.01025 0.355 0.355 0 0 0 1e-3 0.0044 0.355 0.355 0 0 0 0 0.0015 0.355 0.355 0 0 0-1e-3 0.0044 0.355 0.355 0 0 0 1e-3 0.0044 0.355 0.355 0 0 0-1e-3 0.0044 0.355 0.355 0 0 0 0.0132 0.06885 0.35504 0.35504 0 0 0 0 0.0029 0.35504 0.35504 0 0 0 0 0.01025 0.35504 0.35504 0 0 0 9e-3 0.02783 0.355 0.355 0 0 0 0.0835 0.14209 0.355 0.355 0 0 0 3e-3 0.0029l5.0259 5.0171a0.35504 0.35504 0 0 0 1e-3 0 0.35504 0.35504 0 0 0 0.0102 0.0059 0.35504 0.35504 0 0 0 9e-3 0.0059 0.35504 0.35504 0 0 0 1e-3 0.0015 0.355 0.355 0 0 0 0.11719 0.06738 0.355 0.355 0 0 0 1e-3 0.0015 0.355 0.355 0 0 0 1e-3 0 0.35504 0.35504 0 0 0 0.0527 0.01025 0.355 0.355 0 0 0 0.0571 0.01172 0.355 0.355 0 0 0 0.0864-0.01172 0.35504 0.35504 0 0 0 9e-3 -0.0015 0.355 0.355 0 0 0 0.14942-0.08789 0.35504 0.35504 0 0 0 1e-3 -0.0015 0.355 0.355 0 0 0 1e-3 0 0.35504 0.35504 0 0 0 3e-3 -0.0015v-0.0015l5.02-5.0186a0.355 0.355 0 0 0 1e-3 0 0.355 0.355 0 0 0 0.0381-0.04687 0.35504 0.35504 0 0 0 1e-3 -0.0029 0.355 0.355 0 0 0 0.0645-0.20215 0.355 0.355 0 0 0 0-0.0088 0.355 0.355 0 0 0 0-0.0044 0.355 0.355 0 0 0 0-0.0059 0.355 0.355 0 0 0-1e-3 -0.01318 0.355 0.355 0 0 0 0-0.0015 0.355 0.355 0 0 0 1e-3 -0.0044 0.355 0.355 0 0 0-1e-3 -0.02051 0.355 0.355 0 0 0 1e-3 -0.01172 0.355 0.355 0 0 0 0-0.0029 0.355 0.355 0 0 0 0-0.0059 0.355 0.355 0 0 0 0-0.0029 0.355 0.355 0 0 0 0-0.0073 0.355 0.355 0 0 0 0-0.0073 0.355 0.355 0 0 0 0-0.0029 0.355 0.355 0 0 0 0-0.0044 0.355 0.355 0 0 0 0-0.0044 0.355 0.355 0 0 0-1e-3 -0.01465 0.355 0.355 0 0 0 0-0.0015 0.355 0.355 0 0 0 0-0.0015 0.355 0.355 0 0 0 1e-3 -0.0029 0.355 0.355 0 0 0 0-0.0059 0.355 0.355 0 0 0 0-0.0059 0.355 0.355 0 0 0 0-0.0015 0.355 0.355 0 0 0 0-0.0073 0.355 0.355 0 0 0 0-0.0015 0.355 0.355 0 0 0 0-0.0088 0.355 0.355 0 0 0 0-0.0029 0.355 0.355 0 0 0 0-0.0073 0.355 0.355 0 0 0 0-0.0059 0.355 0.355 0 0 0 0-0.0029 0.355 0.355 0 0 0 0-0.0059 0.355 0.355 0 0 0 0-0.0044 0.355 0.355 0 0 0-1e-3 -0.01318 0.355 0.355 0 0 0 0-0.0015 0.355 0.355 0 0 0 1e-3 -0.0044 0.355 0.355 0 0 0 0-0.0059 0.355 0.355 0 0 0 0-0.0059 0.355 0.355 0 0 0-1e-3 -0.0073 0.355 0.355 0 0 0 1e-3 -0.01318 0.355 0.355 0 0 0 0-0.0088 0.355 0.355 0 0 0-3e-3 -0.0293 0.355 0.355 0 0 0 0-0.0015 0.355 0.355 0 0 0 3e-3 -0.0088 0.355 0.355 0 0 0-1e-3 -0.01172 0.355 0.355 0 0 0 1e-3 -0.01025 0.355 0.355 0 0 0-1e-3 -0.0059 0.355 0.355 0 0 0 1e-3 -0.01318 0.355 0.355 0 0 0-0.12012-0.26514l-5.0054-5.0156a0.355 0.355 0 0 0-0.10401-0.07031 0.35504 0.35504 0 0 0-0.0205-0.0088 0.355 0.355 0 0 0-0.12598-0.0249zm-0.35449 1.541v3.4878h-3.4863zm0.70898 0.0029 3.479 3.4849h-3.479zm-4.1982 4.5264h3.4893v3.4893zm4.1982 0h3.479l-3.479 3.4863zm-72.795 52.49a0.355 0.355 0 0 0-0.0571 0.0117 0.35504 0.35504 0 0 0-0.0513 0.0102 0.355 0.355 0 0 0-0.14209 0.082l-5.0303 5.02a0.355 0.355 0 0 0-0.082 0.14209 0.35504 0.35504 0 0 0-0.0103 0.0439 0.35504 0.35504 0 0 0-1e-3 0.0132 0.355 0.355 0 0 0-0.0102 0.0527 0.355 0.355 0 0 0 3e-3 0.0146 0.355 0.355 0 0 0-3e-3 0.0146 0.355 0.355 0 0 0 1e-3 0.0103 0.355 0.355 0 0 0-1e-3 9e-3 0.355 0.355 0 0 0 1e-3 6e-3 0.355 0.355 0 0 0-1e-3 4e-3 0.355 0.355 0 0 0 1e-3 6e-3 0.355 0.355 0 0 0 0 1e-3 0.355 0.355 0 0 0-1e-3 4e-3 0.355 0.355 0 0 0 1e-3 4e-3 0.355 0.355 0 0 0-1e-3 4e-3 0.355 0.355 0 0 0 1e-3 6e-3 0.355 0.355 0 0 0-1e-3 4e-3 0.355 0.355 0 0 0 1e-3 4e-3 0.355 0.355 0 0 0 0 1e-3 0.355 0.355 0 0 0-1e-3 4e-3 0.355 0.355 0 0 0 1e-3 4e-3 0.355 0.355 0 0 0-1e-3 4e-3 0.355 0.355 0 0 0 1e-3 4e-3 0.355 0.355 0 0 0 0 1e-3 0.355 0.355 0 0 0-1e-3 4e-3 0.355 0.355 0 0 0 1e-3 6e-3 0.355 0.355 0 0 0-1e-3 4e-3 0.355 0.355 0 0 0 1e-3 4e-3 0.355 0.355 0 0 0-1e-3 4e-3 0.355 0.355 0 0 0 1e-3 7e-3 0.355 0.355 0 0 0-1e-3 4e-3 0.355 0.355 0 0 0 1e-3 4e-3 0.355 0.355 0 0 0-1e-3 6e-3 0.355 0.355 0 0 0 1e-3 4e-3 0.355 0.355 0 0 0-1e-3 6e-3 0.355 0.355 0 0 0 0.0117 0.0601 0.35504 0.35504 0 0 0 0 1e-3 0.35504 0.35504 0 0 0 0 9e-3 0.35504 0.35504 0 0 0 0 0.0102 0.35504 0.35504 0 0 0 9e-3 0.0249 0.355 0.355 0 0 0 0.0835 0.14502 0.355 0.355 0 0 0 4e-3 3e-3l5.0215 5.0229a0.355 0.355 0 0 0 3e-3 4e-3h1e-3a0.355 0.355 0 0 0 0.14209 0.082 0.35504 0.35504 0 0 0 0.0513 0.0102 0.355 0.355 0 0 0 0.0571 0.0117 0.355 0.355 0 0 0 0.0864-0.0117 0.35504 0.35504 0 0 0 0.0103-3e-3 0.355 0.355 0 0 0 0.15527-0.0894l5.0288-5.0317a0.355 0.355 0 0 0 0.0718-0.10107 0.35504 0.35504 0 0 0 0.0147-0.0396 0.355 0.355 0 0 0 1e-3 -4e-3 0.35504 0.35504 0 0 0 7e-3 -0.0308 0.355 0.355 0 0 0 6e-3 -0.0337 0.35504 0.35504 0 0 0 1e-3 -0.0205 0.355 0.355 0 0 0 1e-3 -0.019 0.355 0.355 0 0 0 0-0.0103 0.355 0.355 0 0 0-1e-3 -6e-3 0.355 0.355 0 0 0 0-1e-3 0.355 0.355 0 0 0 0-1e-3 0.355 0.355 0 0 0 1e-3 -1e-3 0.355 0.355 0 0 0 0-7e-3 0.355 0.355 0 0 0 0-4e-3 0.355 0.355 0 0 0 0-3e-3 0.35504 0.35504 0 0 0 0-3e-3 0.355 0.355 0 0 0 0-1e-3 0.35504 0.35504 0 0 0 0-1e-3 0.35504 0.35504 0 0 0 0-0.0205 0.355 0.355 0 0 0 0-9e-3 0.35504 0.35504 0 0 0 0-0.0205 0.355 0.355 0 0 0 0-9e-3 0.355 0.355 0 0 0 0-3e-3 0.35504 0.35504 0 0 0 0-1e-3 0.355 0.355 0 0 0 0-6e-3 0.35504 0.35504 0 0 0 0-1e-3 0.355 0.355 0 0 0 0-3e-3 0.355 0.355 0 0 0 0-7e-3 0.35504 0.35504 0 0 0 0-0.0483 0.355 0.355 0 0 0 0-3e-3 0.35504 0.35504 0 0 0 0-1e-3 0.35504 0.35504 0 0 0-1e-3 -6e-3 0.35504 0.35504 0 0 0-1e-3 -0.0337 0.355 0.355 0 0 0-4e-3 -0.0249 0.35504 0.35504 0 0 0-0.0308-0.0923 0.355 0.355 0 0 0-0.0264-0.0439 0.35504 0.35504 0 0 0-1e-3 -1e-3 0.35504 0.35504 0 0 0-1e-3 -3e-3 0.355 0.355 0 0 0-0.0366-0.0425l-5.0288-5.02a0.35504 0.35504 0 0 0-1e-3 0 0.355 0.355 0 0 0-0.13916-0.0806 0.35504 0.35504 0 0 0-0.0542-0.0117 0.355 0.355 0 0 0-0.0571-0.0117zm-0.35596 1.3814v3.6387h-3.6445zm0.71192 0 3.6445 3.6387h-3.6445zm-4.3594 4.519h3.6475v3.646zm4.3594 0h3.6475l-3.6475 3.646zm-72.785 36.79a0.355 0.355 0 0 0-0.0688 0.0132 0.35504 0.35504 0 0 0-0.0351 7e-3 0.355 0.355 0 0 0-0.14795 0.0835 0.355 0.355 0 0 0-3e-3 4e-3l-5.0273 5.0142a0.35504 0.35504 0 0 0-0.0147 0.0249 0.355 0.355 0 0 0-0.0659 0.11426 0.35504 0.35504 0 0 0-0.0117 0.0601 0.355 0.355 0 0 0-0.0102 0.0527 0.355 0.355 0 0 0 0.0102 0.0527 0.35504 0.35504 0 0 0 1e-3 0.0425 0.35504 0.35504 0 0 0 0 0.0146 0.355 0.355 0 0 0-0.0117 0.0601 0.355 0.355 0 0 0 3e-3 0.0146 0.355 0.355 0 0 0-3e-3 0.0147 0.355 0.355 0 0 0 6e-3 0.0308 0.355 0.355 0 0 0-6e-3 0.0308 0.355 0.355 0 0 0 1e-3 9e-3 0.355 0.355 0 0 0-1e-3 0.0103 0.355 0.355 0 0 0 1e-3 0.0102 0.355 0.355 0 0 0-1e-3 0.0117 0.355 0.355 0 0 0 0.0117 0.0601 0.35504 0.35504 0 0 0 0 0.0102 0.35504 0.35504 0 0 0 0 7e-3 0.355 0.355 0 0 0-0.0117 0.0601 0.355 0.355 0 0 0 1e-3 6e-3 0.355 0.355 0 0 0-1e-3 4e-3 0.355 0.355 0 0 0 0.0117 0.0601 0.35504 0.35504 0 0 0 0 0.0234 0.35504 0.35504 0 0 0 9e-3 0.0249 0.355 0.355 0 0 0 0.0733 0.1289 0.35504 0.35504 0 0 0 9e-3 0.0146h1e-3l0.1875 0.1875-0.18896 0.18897a0.35504 0.35504 0 0 0-0.0132 0.022 0.355 0.355 0 0 0-0.0688 0.12158 0.35504 0.35504 0 0 0-9e-3 0.0483 0.355 0.355 0 0 0-0.0117 0.0601 0.355 0.355 0 0 0 7e-3 0.0395 0.355 0.355 0 0 0-7e-3 0.041 0.355 0.355 0 0 0 0.0117 0.0601 0.35504 0.35504 0 0 0 9e-3 0.0469 0.355 0.355 0 0 0 1e-3 4e-3 0.355 0.355 0 0 0-1e-3 1e-3 0.35504 0.35504 0 0 0-9e-3 0.0483 0.355 0.355 0 0 0-0.0117 0.0601 0.355 0.355 0 0 0 0.0117 0.0601 0.35504 0.35504 0 0 0 0 0.0308 0.35504 0.35504 0 0 0 0 7e-3 0.355 0.355 0 0 0-0.0117 0.0601 0.355 0.355 0 0 0 4e-3 0.0234 0.355 0.355 0 0 0-4e-3 0.0264 0.355 0.355 0 0 0 3e-3 0.0161 0.355 0.355 0 0 0-3e-3 0.0132 0.355 0.355 0 0 0 1e-3 0.0103 0.355 0.355 0 0 0-1e-3 0.0117 0.355 0.355 0 0 0 3e-3 0.0146 0.355 0.355 0 0 0-3e-3 0.0146 0.355 0.355 0 0 0 1e-3 0.0103 0.355 0.355 0 0 0-1e-3 9e-3 0.355 0.355 0 0 0 7e-3 0.0337 0.355 0.355 0 0 0 0 1e-3 0.355 0.355 0 0 0 0 1e-3 0.355 0.355 0 0 0-7e-3 0.0337 0.355 0.355 0 0 0 1e-3 6e-3 0.355 0.355 0 0 0-1e-3 4e-3 0.355 0.355 0 0 0 1e-3 4e-3 0.355 0.355 0 0 0-1e-3 6e-3 0.355 0.355 0 0 0 1e-3 4e-3 0.355 0.355 0 0 0-1e-3 4e-3 0.355 0.355 0 0 0 4e-3 0.0249 0.355 0.355 0 0 0-4e-3 0.0264 0.355 0.355 0 0 0 4e-3 0.0205 0.355 0.355 0 0 0-4e-3 0.0205 0.355 0.355 0 0 0 1e-3 4e-3 0.355 0.355 0 0 0-1e-3 6e-3 0.355 0.355 0 0 0 3e-3 0.0161 0.355 0.355 0 0 0-3e-3 0.0132 0.355 0.355 0 0 0 4e-3 0.0249 0.355 0.355 0 0 0-4e-3 0.0249 0.355 0.355 0 0 0 1e-3 6e-3 0.355 0.355 0 0 0-1e-3 4e-3 0.355 0.355 0 0 0 1e-3 9e-3 0.355 0.355 0 0 0-1e-3 0.0102 0.355 0.355 0 0 0 6e-3 0.0308 0.355 0.355 0 0 0-6e-3 0.0308 0.355 0.355 0 0 0 0.0102 0.0527 0.355 0.355 0 0 0-0.0102 0.0557 0.355 0.355 0 0 0 1e-3 6e-3 0.355 0.355 0 0 0-1e-3 4e-3 0.355 0.355 0 0 0 0.0117 0.0601 0.35504 0.35504 0 0 0 0 0.0234 0.35504 0.35504 0 0 0 9e-3 0.0249 0.355 0.355 0 0 0 0.0733 0.1289 0.35504 0.35504 0 0 0 9e-3 0.0146h1e-3l5.0259 5.0244a0.355 0.355 0 0 0 3e-3 4e-3h1e-3a0.355 0.355 0 0 0 0.14502 0.0835 0.35504 0.35504 0 0 0 0.0454 9e-3 0.355 0.355 0 0 0 0.0601 0.0117 0.355 0.355 0 0 0 0.0601-0.0117 0.35504 0.35504 0 0 0 0.0483-0.0102 0.355 0.355 0 0 0 0.14209-0.082 0.35504 0.35504 0 0 0 1e-3 0l5.0288-5.0288a0.35504 0.35504 0 0 0 0.0864-0.14209 0.355 0.355 0 0 0 1e-3 -6e-3 0.35504 0.35504 0 0 0 9e-3 -0.0337 0.355 0.355 0 0 0 4e-3 -0.0264 0.35504 0.35504 0 0 0 1e-3 -0.022 0.35504 0.35504 0 0 0 0-3e-3 0.355 0.355 0 0 0 1e-3 -0.019 0.355 0.355 0 0 0 0-0.0103 0.355 0.355 0 0 0-1e-3 -9e-3 0.35504 0.35504 0 0 0 0-0.0103 0.35504 0.35504 0 0 0-1e-3 -0.019 0.355 0.355 0 0 0-1e-3 -0.0205 0.35504 0.35504 0 0 0 3e-3 -0.0425 0.355 0.355 0 0 0 1e-3 -7e-3 0.355 0.355 0 0 0-1e-3 -0.019 0.355 0.355 0 0 0 0-4e-3 0.35504 0.35504 0 0 0 1e-3 -0.0381 0.35504 0.35504 0 0 0 0-0.019 0.35504 0.35504 0 0 0 0-0.0103 0.355 0.355 0 0 0 0-1e-3 0.35504 0.35504 0 0 0 0-1e-3 0.35504 0.35504 0 0 0-1e-3 -6e-3 0.35504 0.35504 0 0 0 0-0.0103 0.355 0.355 0 0 0 0-3e-3 0.35504 0.35504 0 0 0 0-9e-3 0.355 0.355 0 0 0 1e-3 -0.019 0.355 0.355 0 0 0-1e-3 -0.0103 0.35504 0.35504 0 0 0 0-9e-3 0.355 0.355 0 0 0 1e-3 -0.0103 0.355 0.355 0 0 0 0-7e-3 0.355 0.355 0 0 0 0-3e-3 0.355 0.355 0 0 0 0-0.0103 0.35504 0.35504 0 0 0-1e-3 -0.0674 0.355 0.355 0 0 0 0-1e-3 0.355 0.355 0 0 0 1e-3 -0.0132 0.355 0.355 0 0 0 0-3e-3 0.355 0.355 0 0 0 0-6e-3 0.355 0.355 0 0 0 0-3e-3 0.355 0.355 0 0 0 0-7e-3 0.355 0.355 0 0 0 0-6e-3 0.355 0.355 0 0 0 0-4e-3 0.355 0.355 0 0 0-1e-3 -0.019 0.35504 0.35504 0 0 0 0-0.0102 0.35504 0.35504 0 0 0-1e-3 -1e-3 0.35504 0.35504 0 0 0 0-1e-3 0.35504 0.35504 0 0 0 0-1e-3 0.35504 0.35504 0 0 0 1e-3 -4e-3 0.35504 0.35504 0 0 0 0-0.0132 0.35504 0.35504 0 0 0 1e-3 -0.0674 0.355 0.355 0 0 0 0-1e-3 0.35504 0.35504 0 0 0 0-1e-3 0.35504 0.35504 0 0 0 0-1e-3 0.355 0.355 0 0 0-1e-3 -4e-3 0.35504 0.35504 0 0 0 0-3e-3 0.355 0.355 0 0 0 0-1e-3 0.35504 0.35504 0 0 0 1e-3 -4e-3 0.355 0.355 0 0 0 0-1e-3 0.35504 0.35504 0 0 0-1e-3 -0.0688 0.355 0.355 0 0 0 1e-3 -0.0132 0.355 0.355 0 0 0-1e-3 -7e-3 0.35504 0.35504 0 0 0-9e-3 -0.0718 0.35504 0.35504 0 0 0 9e-3 -0.0718 0.355 0.355 0 0 0 1e-3 -7e-3 0.355 0.355 0 0 0-1e-3 -0.019 0.35504 0.35504 0 0 0-1e-3 -0.0249 0.355 0.355 0 0 0-4e-3 -0.0249 0.35504 0.35504 0 0 0-0.0102-0.041 0.355 0.355 0 0 0 0-1e-3 0.355 0.355 0 0 0 3e-3 -0.0102 0.35504 0.35504 0 0 0 6e-3 -0.0249 0.355 0.355 0 0 0 6e-3 -0.0351 0.35504 0.35504 0 0 0 1e-3 -0.0205 0.355 0.355 0 0 0 1e-3 -0.019 0.355 0.355 0 0 0-1e-3 -0.019 0.35504 0.35504 0 0 0-1e-3 -0.0205 0.35504 0.35504 0 0 0 1e-3 -0.022 0.355 0.355 0 0 0 1e-3 -0.019 0.355 0.355 0 0 0-1e-3 -0.019 0.35504 0.35504 0 0 0-1e-3 -0.0234 0.355 0.355 0 0 0-6e-3 -0.0293 0.35504 0.35504 0 0 0-9e-3 -0.0381 0.355 0.355 0 0 0-6e-3 -0.0132 0.35504 0.35504 0 0 0-0.0161-0.0381 0.355 0.355 0 0 0-1e-3 -3e-3 0.35504 0.35504 0 0 0-0.0278-0.0439 0.355 0.355 0 0 0-0.0352-0.0425 0.35504 0.35504 0 0 0 0-1e-3l-0.18896-0.1875 0.18896-0.18897a0.355 0.355 0 0 0 0.0352-0.0425 0.35504 0.35504 0 0 0 0.0454-0.0864 0.355 0.355 0 0 0 1e-3 -1e-3 0.35504 0.35504 0 0 0 0-1e-3 0.35504 0.35504 0 0 0 4e-3 -0.0103 0.355 0.355 0 0 0 1e-3 -6e-3 0.35504 0.35504 0 0 0 9e-3 -0.0337 0.355 0.355 0 0 0 4e-3 -0.0264 0.35504 0.35504 0 0 0 1e-3 -0.022 0.35504 0.35504 0 0 0 0-3e-3 0.355 0.355 0 0 0 1e-3 -0.019 0.355 0.355 0 0 0 0-3e-3 0.355 0.355 0 0 0 0-7e-3 0.355 0.355 0 0 0-1e-3 -7e-3 0.35504 0.35504 0 0 0 0-0.0117 0.35504 0.35504 0 0 0-7e-3 -0.0483 0.35504 0.35504 0 0 0 7e-3 -0.0601 0.35504 0.35504 0 0 0 0-3e-3 0.355 0.355 0 0 0 1e-3 -7e-3 0.355 0.355 0 0 0-1e-3 -0.0102 0.355 0.355 0 0 0 1e-3 -0.0117 0.355 0.355 0 0 0-1e-3 -6e-3 0.355 0.355 0 0 0 1e-3 -0.0132 0.355 0.355 0 0 0-1e-3 -0.019 0.35504 0.35504 0 0 0 0-0.0102 0.35504 0.35504 0 0 0 0-1e-3 0.35504 0.35504 0 0 0 0-0.0117 0.355 0.355 0 0 0 1e-3 -0.019 0.355 0.355 0 0 0-1e-3 -0.0103 0.355 0.355 0 0 0 1e-3 -0.019 0.355 0.355 0 0 0-1e-3 -0.019 0.35504 0.35504 0 0 0-1e-3 -0.0205 0.355 0.355 0 0 0-7e-3 -0.0439 0.35504 0.35504 0 0 0 6e-3 -0.0308 0.355 0.355 0 0 0 0-1e-3 0.35504 0.35504 0 0 0 0-0.10986 0.355 0.355 0 0 0-1e-3 -7e-3 0.35504 0.35504 0 0 0-0.0117-0.0469 0.355 0.355 0 0 0-1e-3 -4e-3 0.35504 0.35504 0 0 0-0.0498-0.0937 0.355 0.355 0 0 0-0.0352-0.0425 0.35504 0.35504 0 0 0 0-1e-3l-5.0303-5.0186a0.355 0.355 0 0 0-1e-3 0 0.355 0.355 0 0 0-0.24903-0.104zm0.35449 3.6416 1.3814 1.3784h-1.3814zm-0.71044 1e-3v1.377h-1.3799zm-2.543 2.5371h2.543v0.16992h-2.7129zm3.2534 0h2.5444l0.16992 0.16992h-2.7144zm-2.0962 1.9805h1.3858v1.3858zm2.0962 0h1.3872l-1.3872 1.3872zm-72.794 53.909a0.355 0.355 0 0 0-0.0571 0.0117 0.35504 0.35504 0 0 0-0.0557 0.0117 0.355 0.355 0 0 0-0.13916 0.0806l-5.02 5.02a0.355 0.355 0 0 0-0.0806 0.13916 0.35504 0.35504 0 0 0-0.0117 0.0557 0.355 0.355 0 0 0-0.0117 0.0571 0.355 0.355 0 0 0 0.0117 0.0571 0.35504 0.35504 0 0 0 0 0.0337 0.35504 0.35504 0 0 0 0 0.022 0.355 0.355 0 0 0-0.0117 0.0571 0.355 0.355 0 0 0 0.0117 0.0571 0.35504 0.35504 0 0 0 0.0103 0.0513 0.355 0.355 0 0 0 0.0659 0.11719 0.355 0.355 0 0 0-0.0659 0.11279 0.35504 0.35504 0 0 0-0.0103 0.0527 0.355 0.355 0 0 0-0.0117 0.0571 0.355 0.355 0 0 0 0.0117 0.0571 0.35504 0.35504 0 0 0 0.0117 0.0557 0.355 0.355 0 0 0 0.0366 0.0732 0.355 0.355 0 0 0-0.0366 0.0732 0.35504 0.35504 0 0 0-0.0117 0.0557 0.355 0.355 0 0 0-0.0117 0.0571 0.355 0.355 0 0 0 0.0117 0.0571 0.35504 0.35504 0 0 0 0.0103 0.0527 0.355 0.355 0 0 0 0.0454 0.0835 0.355 0.355 0 0 0-0.0454 0.085 0.35504 0.35504 0 0 0-0.0103 0.0293 0.35504 0.35504 0 0 0 0 9e-3 0.35504 0.35504 0 0 0 0 0.0146 0.355 0.355 0 0 0-0.0117 0.0571 0.355 0.355 0 0 0 1e-3 6e-3 0.355 0.355 0 0 0-1e-3 6e-3 0.355 0.355 0 0 0 1e-3 6e-3 0.355 0.355 0 0 0-1e-3 4e-3 0.355 0.355 0 0 0 3e-3 0.0146 0.355 0.355 0 0 0-3e-3 0.0147 0.355 0.355 0 0 0 6e-3 0.0293 0.355 0.355 0 0 0-6e-3 0.0308 0.355 0.355 0 0 0 1e-3 4e-3 0.355 0.355 0 0 0-1e-3 6e-3 0.355 0.355 0 0 0 1e-3 4e-3 0.355 0.355 0 0 0 0 1e-3 0.355 0.355 0 0 0-1e-3 3e-3 0.355 0.355 0 0 0 1e-3 0.0103 0.355 0.355 0 0 0-1e-3 0.0103 0.355 0.355 0 0 0 1e-3 4e-3 0.355 0.355 0 0 0-1e-3 4e-3 0.355 0.355 0 0 0 9e-3 0.041 0.355 0.355 0 0 0-9e-3 0.0395 0.355 0.355 0 0 0 3e-3 0.0103 0.355 0.355 0 0 0-3e-3 0.0117 0.355 0.355 0 0 0 1e-3 0.0102 0.355 0.355 0 0 0-1e-3 9e-3 0.355 0.355 0 0 0 3e-3 0.0132 0.355 0.355 0 0 0-3e-3 0.0161 0.355 0.355 0 0 0 1e-3 6e-3 0.355 0.355 0 0 0-1e-3 4e-3 0.355 0.355 0 0 0 0.0117 0.0571 0.35504 0.35504 0 0 0 0 1e-3 0.35504 0.35504 0 0 0 0 0.0103 0.35504 0.35504 0 0 0 0 0.0103 0.35504 0.35504 0 0 0 0 3e-3 0.35504 0.35504 0 0 0 0 0.0103 0.355 0.355 0 0 0-0.0117 0.0571 0.355 0.355 0 0 0 1e-3 6e-3 0.355 0.355 0 0 0-1e-3 4e-3 0.355 0.355 0 0 0 1e-3 6e-3 0.355 0.355 0 0 0-1e-3 4e-3 0.355 0.355 0 0 0 1e-3 4e-3 0.355 0.355 0 0 0-1e-3 4e-3 0.355 0.355 0 0 0 3e-3 0.0102 0.355 0.355 0 0 0-3e-3 0.0117 0.355 0.355 0 0 0 1e-3 6e-3 0.355 0.355 0 0 0-1e-3 4e-3 0.355 0.355 0 0 0 1e-3 4e-3 0.355 0.355 0 0 0-1e-3 4e-3 0.355 0.355 0 0 0 1e-3 6e-3 0.355 0.355 0 0 0-1e-3 4e-3 0.355 0.355 0 0 0 1e-3 4e-3 0.355 0.355 0 0 0-1e-3 6e-3 0.355 0.355 0 0 0 1e-3 4e-3 0.355 0.355 0 0 0-1e-3 4e-3 0.355 0.355 0 0 0 3e-3 0.0161 0.355 0.355 0 0 0-3e-3 0.0161 0.355 0.355 0 0 0 4e-3 0.0234 0.355 0.355 0 0 0-4e-3 0.0249 0.355 0.355 0 0 0 0.0117 0.0571 0.35504 0.35504 0 0 0 0.0117 0.0542 0.355 0.355 0 0 0 0.0439 0.0835 0.355 0.355 0 0 0-0.0439 0.0835 0.35504 0.35504 0 0 0-0.0117 0.0557 0.355 0.355 0 0 0-0.0117 0.0571 0.355 0.355 0 0 0 3e-3 0.0146 0.355 0.355 0 0 0-3e-3 0.0146 0.355 0.355 0 0 0 0.0117 0.0571 0.35504 0.35504 0 0 0 0 4e-3 0.35504 0.35504 0 0 0 0.0117 0.0498 0.355 0.355 0 0 0 0.0806 0.13916 0.35504 0.35504 0 0 0 0 1e-3l5.02 5.0186a0.355 0.355 0 0 0 0.14209 0.082 0.35504 0.35504 0 0 0 0.0498 0.0103 0.355 0.355 0 0 0 0.0601 0.0117 0.355 0.355 0 0 0 0.0864-0.0117 0.35504 0.35504 0 0 0 7e-3 -1e-3 0.355 0.355 0 0 0 0.15527-0.0908h1e-3l5.0303-5.0186a0.35504 0.35504 0 0 0 0-1e-3 0.355 0.355 0 0 0 0.0352-0.0425 0.35504 0.35504 0 0 0 0.0293-0.0469 0.355 0.355 0 0 0 0-1e-3 0.35504 0.35504 0 0 0 0.022-0.0498 0.355 0.355 0 0 0 1e-3 -6e-3 0.35504 0.35504 0 0 0 7e-3 -0.0322 0.355 0.355 0 0 0 6e-3 -0.0293 0.35504 0.35504 0 0 0 1e-3 -0.0234 0.355 0.355 0 0 0 1e-3 -0.019 0.355 0.355 0 0 0-1e-3 -0.0102 0.355 0.355 0 0 0 1e-3 -0.019 0.355 0.355 0 0 0-1e-3 -0.019 0.35504 0.35504 0 0 0-1e-3 -0.0249 0.355 0.355 0 0 0-4e-3 -0.0249 0.35504 0.35504 0 0 0-0.0102-0.041 0.355 0.355 0 0 0-0.0161-0.041 0.35504 0.35504 0 0 0-6e-3 -0.0117 0.355 0.355 0 0 0-9e-3 -0.0132 0.35504 0.35504 0 0 0-0.0102-0.019 0.35504 0.35504 0 0 0 0.041-0.0864 0.355 0.355 0 0 0 1e-3 -6e-3 0.35504 0.35504 0 0 0 9e-3 -0.0337 0.355 0.355 0 0 0 4e-3 -0.0264 0.35504 0.35504 0 0 0 1e-3 -0.0249 0.355 0.355 0 0 0 1e-3 -0.019 0.355 0.355 0 0 0-1e-3 -0.019 0.35504 0.35504 0 0 0 0-0.022 0.355 0.355 0 0 0 1e-3 -7e-3 0.355 0.355 0 0 0-1e-3 -0.0102 0.35504 0.35504 0 0 0 0-3e-3 0.35504 0.35504 0 0 0 1e-3 -0.0161 0.35504 0.35504 0 0 0 0-3e-3 0.355 0.355 0 0 0 0-9e-3 0.35504 0.35504 0 0 0 0-0.0205 0.355 0.355 0 0 0 0-9e-3 0.35504 0.35504 0 0 0 0-0.0103 0.355 0.355 0 0 0 0-1e-3 0.35504 0.35504 0 0 0 0-0.0117 0.355 0.355 0 0 0 0-9e-3 0.355 0.355 0 0 0-1e-3 -4e-3 0.355 0.355 0 0 0 1e-3 -4e-3 0.355 0.355 0 0 0 0-3e-3 0.355 0.355 0 0 0 0-7e-3 0.355 0.355 0 0 0 0-6e-3 0.355 0.355 0 0 0 0-4e-3 0.355 0.355 0 0 0-1e-3 -9e-3 0.355 0.355 0 0 0 0-1e-3 0.35504 0.35504 0 0 0 0-9e-3 0.35504 0.35504 0 0 0-1e-3 -0.019 0.355 0.355 0 0 0-6e-3 -0.0381 0.355 0.355 0 0 0 6e-3 -0.0322 0.35504 0.35504 0 0 0 1e-3 -0.019 0.35504 0.35504 0 0 0 0-3e-3 0.355 0.355 0 0 0 1e-3 -0.019 0.355 0.355 0 0 0 0-3e-3 0.355 0.355 0 0 0 0-7e-3 0.355 0.355 0 0 0-1e-3 -9e-3 0.355 0.355 0 0 0 0-1e-3 0.355 0.355 0 0 0 0-0.0102 0.355 0.355 0 0 0 1e-3 -9e-3 0.355 0.355 0 0 0-1e-3 -9e-3 0.355 0.355 0 0 0 1e-3 -0.0102 0.355 0.355 0 0 0-1e-3 -0.0132 0.355 0.355 0 0 0 0-1e-3 0.355 0.355 0 0 0 1e-3 -7e-3 0.355 0.355 0 0 0-1e-3 -7e-3 0.35504 0.35504 0 0 0-1e-3 -0.0322 0.35504 0.35504 0 0 0 1e-3 -0.019 0.35504 0.35504 0 0 0 0-3e-3 0.35504 0.35504 0 0 0 0-9e-3 0.35504 0.35504 0 0 0 1e-3 -6e-3 0.355 0.355 0 0 0 0-1e-3 0.35504 0.35504 0 0 0 0-0.0322 0.355 0.355 0 0 0 0-9e-3 0.355 0.355 0 0 0 0-7e-3 0.355 0.355 0 0 0 0-3e-3 0.35504 0.35504 0 0 0-1e-3 -0.022 0.35504 0.35504 0 0 0 1e-3 -0.0674 0.355 0.355 0 0 0 0-3e-3 0.35504 0.35504 0 0 0 0-4e-3 0.355 0.355 0 0 0 0-3e-3 0.355 0.355 0 0 0 0-4e-3 0.355 0.355 0 0 0 0-7e-3 0.355 0.355 0 0 0-1e-3 -7e-3 0.355 0.355 0 0 0 0-3e-3 0.35504 0.35504 0 0 0 0-0.0103 0.35504 0.35504 0 0 0-0.0264-0.11572 0.355 0.355 0 0 0-1e-3 -3e-3 0.35504 0.35504 0 0 0-0.0308-0.0557 0.35504 0.35504 0 0 0 0.0322-0.0586 0.355 0.355 0 0 0 1e-3 -4e-3 0.35504 0.35504 0 0 0 0.0249-0.12305 0.355 0.355 0 0 0 1e-3 -7e-3 0.355 0.355 0 0 0-1e-3 -0.019 0.35504 0.35504 0 0 0-1e-3 -0.0249 0.355 0.355 0 0 0-4e-3 -0.0249 0.35504 0.35504 0 0 0-0.0102-0.041 0.355 0.355 0 0 0-0.0161-0.041 0.35504 0.35504 0 0 0-6e-3 -0.0117 0.355 0.355 0 0 0-9e-3 -0.0132 0.35504 0.35504 0 0 0-6e-3 -0.0103 0.35504 0.35504 0 0 0 0.0146-0.0234 0.355 0.355 0 0 0 6e-3 -0.0117 0.35504 0.35504 0 0 0 0.0161-0.041 0.355 0.355 0 0 0 0-3e-3 0.35504 0.35504 0 0 0 0.0102-0.0381 0.355 0.355 0 0 0 4e-3 -0.0249 0.35504 0.35504 0 0 0 1e-3 -0.0249 0.355 0.355 0 0 0 1e-3 -0.019 0.355 0.355 0 0 0-1e-3 -7e-3 0.35504 0.35504 0 0 0-0.0264-0.12744 0.355 0.355 0 0 0-1e-3 -3e-3 0.35504 0.35504 0 0 0-0.0542-0.0864 0.35504 0.35504 0 0 0 0.0146-0.0161 0.355 0.355 0 0 0 4e-3 -6e-3 0.35504 0.35504 0 0 0 7e-3 -0.0132 0.355 0.355 0 0 0 0.0234-0.041 0.35504 0.35504 0 0 0 1e-3 -4e-3 0.355 0.355 0 0 0 0.0176-0.0439 0.35504 0.35504 0 0 0 6e-3 -0.0249 0.355 0.355 0 0 0 6e-3 -0.0352 0.35504 0.35504 0 0 0 1e-3 -0.0205 0.355 0.355 0 0 0 1e-3 -0.019 0.355 0.355 0 0 0-1e-3 -0.019 0.35504 0.35504 0 0 0-1e-3 -0.0264 0.355 0.355 0 0 0-4e-3 -0.0205 0.35504 0.35504 0 0 0-3e-3 -0.0205 0.35504 0.35504 0 0 0 1e-3 -9e-3 0.355 0.355 0 0 0 6e-3 -0.0352 0.35504 0.35504 0 0 0 1e-3 -0.0205 0.355 0.355 0 0 0 1e-3 -0.019 0.355 0.355 0 0 0-1e-3 -0.019 0.35504 0.35504 0 0 0-1e-3 -0.0249 0.355 0.355 0 0 0-4e-3 -0.0249 0.35504 0.35504 0 0 0-0.0102-0.041 0.355 0.355 0 0 0-0.0161-0.041 0.35504 0.35504 0 0 0-6e-3 -0.0117 0.355 0.355 0 0 0-9e-3 -0.0132 0.35504 0.35504 0 0 0-0.0205-0.0337 0.355 0.355 0 0 0-0.0352-0.0425l-5.0317-5.02a0.355 0.355 0 0 0-0.15527-0.0908 0.35504 0.35504 0 0 0-7e-3 -1e-3 0.355 0.355 0 0 0-0.0864-0.0117zm0.35449 3.6519 1.3682 1.3682h-1.3682zm-0.71045 1e-3v1.3667h-1.3638zm-1.3638 4.5264h1.3638v1.3667zm2.0742 0h1.3682l-1.3682 1.3682zm-72.785 31.529a0.355 0.355 0 0 0-0.0571 0.0117 0.35504 0.35504 0 0 0-0.0542 0.0117 0.355 0.355 0 0 0-0.12891 0.0747 0.35504 0.35504 0 0 0-0.0117 6e-3l-5.0288 5.0215a0.355 0.355 0 0 0-0.082 0.14209 0.35504 0.35504 0 0 0-0.0102 0.0513 0.355 0.355 0 0 0-0.0117 0.0571 0.355 0.355 0 0 0 0.0117 0.0571 0.35504 0.35504 0 0 0 0 6e-3 0.355 0.355 0 0 0-0.0117 0.0571 0.355 0.355 0 0 0 1e-3 6e-3 0.355 0.355 0 0 0-1e-3 4e-3 0.355 0.355 0 0 0 3e-3 0.0132 0.355 0.355 0 0 0-3e-3 0.0161 0.355 0.355 0 0 0 1e-3 4e-3 0.355 0.355 0 0 0-1e-3 6e-3 0.355 0.355 0 0 0 1e-3 7e-3 0.355 0.355 0 0 0-1e-3 4e-3 0.355 0.355 0 0 0 4e-3 0.0234 0.355 0.355 0 0 0-4e-3 0.0249 0.355 0.355 0 0 0 1e-3 6e-3 0.355 0.355 0 0 0-1e-3 4e-3 0.355 0.355 0 0 0 1e-3 0.0103 0.355 0.355 0 0 0-1e-3 9e-3 0.355 0.355 0 0 0 3e-3 0.0146 0.355 0.355 0 0 0-3e-3 0.0161 0.355 0.355 0 0 0 1e-3 6e-3 0.355 0.355 0 0 0-1e-3 4e-3 0.355 0.355 0 0 0 1e-3 4e-3 0.355 0.355 0 0 0-1e-3 6e-3 0.355 0.355 0 0 0 3e-3 0.0161 0.355 0.355 0 0 0-3e-3 0.0132 0.355 0.355 0 0 0 1e-3 6e-3 0.355 0.355 0 0 0-1e-3 6e-3 0.355 0.355 0 0 0 1e-3 6e-3 0.355 0.355 0 0 0-1e-3 3e-3 0.355 0.355 0 0 0 1e-3 4e-3 0.355 0.355 0 0 0-1e-3 6e-3 0.355 0.355 0 0 0 1e-3 4e-3 0.355 0.355 0 0 0-1e-3 6e-3 0.355 0.355 0 0 0 3e-3 0.0161 0.355 0.355 0 0 0-3e-3 0.0132 0.355 0.355 0 0 0 1e-3 4e-3 0.355 0.355 0 0 0-1e-3 4e-3 0.355 0.355 0 0 0 1e-3 6e-3 0.355 0.355 0 0 0-1e-3 6e-3 0.355 0.355 0 0 0 1e-3 6e-3 0.355 0.355 0 0 0-1e-3 4e-3 0.355 0.355 0 0 0 1e-3 4e-3 0.355 0.355 0 0 0-1e-3 6e-3 0.355 0.355 0 0 0 3e-3 0.0205 0.355 0.355 0 0 0-3e-3 0.0176 0.355 0.355 0 0 0 1e-3 4e-3 0.355 0.355 0 0 0-1e-3 6e-3 0.355 0.355 0 0 0 3e-3 0.0102 0.355 0.355 0 0 0 0 1e-3 0.355 0.355 0 0 0 0 1e-3 0.355 0.355 0 0 0-3e-3 9e-3 0.355 0.355 0 0 0 1e-3 4e-3 0.355 0.355 0 0 0-1e-3 4e-3 0.355 0.355 0 0 0 6e-3 0.0249 0.355 0.355 0 0 0-6e-3 0.0249 0.355 0.355 0 0 0 1e-3 4e-3 0.355 0.355 0 0 0-1e-3 4e-3 0.355 0.355 0 0 0 4e-3 0.0249 0.355 0.355 0 0 0-4e-3 0.0264 0.355 0.355 0 0 0 1e-3 0.0103 0.355 0.355 0 0 0-1e-3 9e-3 0.355 0.355 0 0 0 0.0117 0.0571 0.35504 0.35504 0 0 0 0 0.0161 0.35504 0.35504 0 0 0 0.0117 0.0395 0.355 0.355 0 0 0 0.0337 0.0688 0.355 0.355 0 0 0-0.0337 0.0688 0.35504 0.35504 0 0 0-0.0117 0.0542 0.355 0.355 0 0 0-0.0117 0.0571 0.355 0.355 0 0 0 0.0117 0.0571 0.35504 0.35504 0 0 0 0.0102 0.0527 0.355 0.355 0 0 0 0.082 0.13916 0.35504 0.35504 0 0 0 0 1e-3l5.0288 5.0186a0.355 0.355 0 0 0 1e-3 0 0.355 0.355 0 0 0 0 1e-3 0.355 0.355 0 0 0 0.14648 0.0835 0.35504 0.35504 0 0 0 0.0352 7e-3 0.355 0.355 0 0 0 0.0688 0.0132 0.355 0.355 0 0 0 0.25049-0.10547 0.355 0.355 0 0 0 9e-3 -9e-3l5.02-5.0098a0.355 0.355 0 0 0 1e-3 0 0.355 0.355 0 0 0 6e-3 -9e-3 0.35504 0.35504 0 0 0 0.0659-0.0967 0.355 0.355 0 0 0 9e-3 -0.0264 0.35504 0.35504 0 0 0 0.022-0.11132 0.355 0.355 0 0 0 1e-3 -7e-3 0.355 0.355 0 0 0-1e-3 -0.019 0.35504 0.35504 0 0 0-1e-3 -0.0249 0.355 0.355 0 0 0-9e-3 -0.0483 0.35504 0.35504 0 0 0-1e-3 -4e-3 0.355 0.355 0 0 0-0.0132-0.0352 0.35504 0.35504 0 0 0-0.0117-0.0293 0.355 0.355 0 0 0-0.0117-0.0205 0.35504 0.35504 0 0 0 0.0117-0.0176 0.355 0.355 0 0 0 6e-3 -0.0117 0.35504 0.35504 0 0 0 6e-3 -0.0176 0.355 0.355 0 0 0 0.0117-0.0337 0.35504 0.35504 0 0 0 0.0147-0.0864 0.35504 0.35504 0 0 0 0-0.0513 0.35504 0.35504 0 0 0 0-0.0103 0.35504 0.35504 0 0 0 0-0.022 0.35504 0.35504 0 0 0 0-9e-3 0.35504 0.35504 0 0 0 0-0.019 0.35504 0.35504 0 0 0 0-1e-3 0.35504 0.35504 0 0 0 0-0.0103 0.35504 0.35504 0 0 0 0-0.0176 0.35504 0.35504 0 0 0 0-1e-3 0.355 0.355 0 0 0 0-9e-3 0.35504 0.35504 0 0 0 0-0.022 0.35504 0.35504 0 0 0 0-0.0103 0.355 0.355 0 0 0 0-9e-3 0.35504 0.35504 0 0 0 0-0.019 0.35504 0.35504 0 0 0 0-1e-3 0.35504 0.35504 0 0 0 0-9e-3 0.35504 0.35504 0 0 0 0-0.0205 0.35504 0.35504 0 0 0 0-0.0117 0.35504 0.35504 0 0 0 0-3e-3 0.355 0.355 0 0 0 0-6e-3 0.35504 0.35504 0 0 0 0-1e-3 0.35504 0.35504 0 0 0 0-9e-3 0.35504 0.35504 0 0 0 0-0.019 0.35504 0.35504 0 0 0 0-0.0103 0.35504 0.35504 0 0 0 0-0.0102 0.355 0.355 0 0 0 0-9e-3 0.35504 0.35504 0 0 0 0-0.0103 0.35504 0.35504 0 0 0 0-1e-3 0.355 0.355 0 0 0 0-1e-3 0.35504 0.35504 0 0 0 0-7e-3 0.35504 0.35504 0 0 0 0-0.0102 0.35504 0.35504 0 0 0 0-1e-3 0.355 0.355 0 0 0 0-9e-3 0.35504 0.35504 0 0 0 0-0.0102 0.355 0.355 0 0 0 0-6e-3 0.355 0.355 0 0 0 0-3e-3 0.35504 0.35504 0 0 0 0-1e-3 0.35504 0.35504 0 0 0 0-0.019 0.35504 0.35504 0 0 0 0-1e-3 0.35504 0.35504 0 0 0 0-9e-3 0.35504 0.35504 0 0 0 0-1e-3 0.35504 0.35504 0 0 0 0-0.0498 0.35504 0.35504 0 0 0 0-0.0132 0.35504 0.35504 0 0 0 0-0.0454 0.35504 0.35504 0 0 0 0-0.0205 0.35504 0.35504 0 0 0 0-0.0322 0.35504 0.35504 0 0 0-4e-3 -0.0337 0.355 0.355 0 0 0-1e-3 -3e-3 0.355 0.355 0 0 0 0-1e-3 0.355 0.355 0 0 0 3e-3 -0.0176 0.35504 0.35504 0 0 0 1e-3 -0.0234 0.355 0.355 0 0 0 1e-3 -0.019 0.355 0.355 0 0 0-1e-3 -7e-3 0.35504 0.35504 0 0 0-0.022-0.11279 0.355 0.355 0 0 0-9e-3 -0.0249 0.35504 0.35504 0 0 0-0.0674-0.0982 0.355 0.355 0 0 0-6e-3 -7e-3l-5.0288-5.0215a0.35504 0.35504 0 0 0-6e-3 -3e-3 0.355 0.355 0 0 0-0.14941-0.0879 0.35504 0.35504 0 0 0-9e-3 -1e-3 0.355 0.355 0 0 0-0.0864-0.0117zm-0.35449 2.2222v2.7993h-2.7978zm0.70899 3e-3 2.7978 2.7964h-2.7978zm-3.5083 4.5249h2.7993v2.8022zm3.5083 0h2.7993l-2.7993 2.7993zm-72.785 32.581a0.355 0.355 0 0 0-0.0688 0.0132 0.35504 0.35504 0 0 0-0.0337 7e-3 0.355 0.355 0 0 0-0.14795 0.085 0.355 0.355 0 0 0-3e-3 3e-3l-5.023 5.023a0.355 0.355 0 0 0-4e-3 3e-3 0.355 0.355 0 0 0-0.0835 0.14795 0.35504 0.35504 0 0 0-7e-3 0.0337 0.355 0.355 0 0 0-0.0132 0.0688 0.355 0.355 0 0 0 0.0117 0.0601 0.355 0.355 0 0 0-0.0117 0.0601 0.355 0.355 0 0 0 1e-3 4e-3 0.355 0.355 0 0 0-1e-3 6e-3 0.355 0.355 0 0 0 6e-3 0.0308 0.355 0.355 0 0 0-6e-3 0.0293 0.355 0.355 0 0 0 3e-3 0.0161 0.355 0.355 0 0 0-3e-3 0.0132 0.355 0.355 0 0 0 1e-3 0.0102 0.355 0.355 0 0 0-1e-3 0.0103 0.355 0.355 0 0 0 0 4e-3 0.355 0.355 0 0 0 0 4e-3 0.355 0.355 0 0 0 1e-3 4e-3 0.355 0.355 0 0 0 0 1e-3 0.355 0.355 0 0 0-1e-3 6e-3 0.355 0.355 0 0 0 1e-3 4e-3 0.355 0.355 0 0 0-1e-3 6e-3 0.355 0.355 0 0 0 1e-3 6e-3 0.355 0.355 0 0 0-1e-3 4e-3 0.355 0.355 0 0 0 1e-3 4e-3 0.355 0.355 0 0 0 0 1e-3 0.355 0.355 0 0 0-1e-3 3e-3 0.355 0.355 0 0 0 1e-3 0.0102 0.355 0.355 0 0 0-1e-3 0.0103 0.355 0.355 0 0 0 1e-3 9e-3 0.355 0.355 0 0 0-1e-3 0.0103 0.355 0.355 0 0 0 1e-3 6e-3 0.355 0.355 0 0 0 0 1e-3 0.355 0.355 0 0 0-1e-3 4e-3 0.355 0.355 0 0 0 1e-3 4e-3 0.355 0.355 0 0 0 0 1e-3 0.355 0.355 0 0 0-1e-3 4e-3 0.355 0.355 0 0 0 1e-3 0.0103 0.355 0.355 0 0 0-1e-3 9e-3 0.355 0.355 0 0 0 1e-3 9e-3 0.355 0.355 0 0 0-1e-3 0.0103 0.355 0.355 0 0 0 3e-3 0.0117 0.355 0.355 0 0 0-3e-3 9e-3 0.355 0.355 0 0 0 0 4e-3 0.355 0.355 0 0 0 0 4e-3 0.355 0.355 0 0 0 1e-3 4e-3 0.355 0.355 0 0 0-1e-3 7e-3 0.355 0.355 0 0 0 3e-3 0.0146 0.355 0.355 0 0 0-3e-3 0.0147 0.355 0.355 0 0 0 3e-3 0.0147 0.355 0.355 0 0 0-3e-3 0.0146 0.355 0.355 0 0 0 4e-3 0.0205 0.355 0.355 0 0 0-4e-3 0.0205 0.355 0.355 0 0 0 1e-3 0.0103 0.355 0.355 0 0 0-1e-3 0.0102 0.355 0.355 0 0 0 4e-3 0.0205 0.355 0.355 0 0 0 0 1e-3 0.355 0.355 0 0 0-4e-3 0.019 0.355 0.355 0 0 0 0.0103 0.0542 0.355 0.355 0 0 0-0.0103 0.0542 0.355 0.355 0 0 0 1e-3 0.0103 0.355 0.355 0 0 0-1e-3 0.0102 0.355 0.355 0 0 0 7e-3 0.0396 0.355 0.355 0 0 0-7e-3 0.0395 0.355 0.355 0 0 0 0.0132 0.0688 0.35504 0.35504 0 0 0 7e-3 0.0381 0.355 0.355 0 0 0 0.085 0.14502 0.355 0.355 0 0 0 3e-3 3e-3l5.0259 5.0273a0.35504 0.35504 0 0 0 0.0132 7e-3 0.355 0.355 0 0 0 0.13037 0.0747 0.35504 0.35504 0 0 0 0.0469 9e-3 0.355 0.355 0 0 0 0.0601 0.0117 0.355 0.355 0 0 0 0.0937-0.0132 0.355 0.355 0 0 0 0.14941-0.0835 0.35504 0.35504 0 0 0 9e-3 -6e-3l5.0288-5.0303a0.355 0.355 0 0 0 1e-3 0 0.355 0.355 0 0 0 0.0908-0.15821 0.35504 0.35504 0 0 0 1e-3 -6e-3 0.355 0.355 0 0 0 0.0117-0.0879 0.355 0.355 0 0 0-3e-3 -0.0351 0.355 0.355 0 0 0 3e-3 -0.0439 0.355 0.355 0 0 0-1e-3 -9e-3 0.355 0.355 0 0 0 1e-3 -0.0117 0.355 0.355 0 0 0-6e-3 -0.0615 0.35504 0.35504 0 0 0 3e-3 -0.0322 0.355 0.355 0 0 0 3e-3 -0.0146 0.355 0.355 0 0 0-1e-3 -0.0103 0.35504 0.35504 0 0 0 0-9e-3 0.355 0.355 0 0 0 1e-3 -0.022 0.355 0.355 0 0 0-1e-3 -9e-3 0.355 0.355 0 0 0 1e-3 -0.0117 0.355 0.355 0 0 0-1e-3 -0.0249 0.355 0.355 0 0 0 1e-3 -0.0161 0.355 0.355 0 0 0-1e-3 -9e-3 0.355 0.355 0 0 0 1e-3 -0.0205 0.355 0.355 0 0 0-1e-3 -0.0264 0.355 0.355 0 0 0 1e-3 -3e-3 0.355 0.355 0 0 0 0-4e-3 0.355 0.355 0 0 0 0-7e-3 0.355 0.355 0 0 0 0-3e-3 0.355 0.355 0 0 0 0-6e-3 0.355 0.355 0 0 0-1e-3 -4e-3 0.355 0.355 0 0 0 1e-3 -0.0161 0.355 0.355 0 0 0-1e-3 -0.0103 0.355 0.355 0 0 0 1e-3 -9e-3 0.355 0.355 0 0 0-1e-3 -0.0132 0.355 0.355 0 0 0 1e-3 -6e-3 0.355 0.355 0 0 0 0-7e-3 0.355 0.355 0 0 0 0-3e-3 0.355 0.355 0 0 0 0-6e-3 0.355 0.355 0 0 0 0-6e-3 0.355 0.355 0 0 0-1e-3 -7e-3 0.355 0.355 0 0 0 1e-3 -0.0117 0.355 0.355 0 0 0-1e-3 -0.0103 0.355 0.355 0 0 0 0-3e-3 0.355 0.355 0 0 0 1e-3 -7e-3 0.355 0.355 0 0 0 0-3e-3 0.355 0.355 0 0 0 0-6e-3 0.355 0.355 0 0 0 0-7e-3 0.355 0.355 0 0 0 0-3e-3 0.355 0.355 0 0 0-1e-3 -4e-3 0.355 0.355 0 0 0 0-1e-3 0.355 0.355 0 0 0 0-1e-3 0.355 0.355 0 0 0 0-1e-3 0.355 0.355 0 0 0 1e-3 -1e-3 0.355 0.355 0 0 0 0-3e-3 0.355 0.355 0 0 0 0-9e-3 0.355 0.355 0 0 0 0-1e-3 0.355 0.355 0 0 0 0-7e-3 0.355 0.355 0 0 0-1e-3 -4e-3 0.355 0.355 0 0 0 0-1e-3 0.355 0.355 0 0 0 1e-3 -0.0146 0.355 0.355 0 0 0-1e-3 -0.0205 0.355 0.355 0 0 0 1e-3 -9e-3 0.355 0.355 0 0 0-3e-3 -0.0249 0.35504 0.35504 0 0 0 1e-3 -0.0161 0.355 0.355 0 0 0 1e-3 -0.019 0.355 0.355 0 0 0 0-6e-3 0.355 0.355 0 0 0 0-4e-3 0.355 0.355 0 0 0-1e-3 -0.0205 0.35504 0.35504 0 0 0-1e-3 -6e-3 0.355 0.355 0 0 0 0-4e-3 0.355 0.355 0 0 0-3e-3 -0.0293 0.355 0.355 0 0 0 6e-3 -0.0601 0.355 0.355 0 0 0-3e-3 -0.0146 0.35504 0.35504 0 0 0-0.022-0.10693 0.355 0.355 0 0 0-9e-3 -0.0234 0.35504 0.35504 0 0 0-0.0644-0.0967 0.355 0.355 0 0 0-7e-3 -9e-3l-5.0288-5.0288a0.35504 0.35504 0 0 0-1e-3 -1e-3 0.355 0.355 0 0 0-0.25049-0.10401zm-0.35449 2.0127v3.0176h-3.019zm0.70898 0 3.0176 3.0176h-3.0176zm-3.728 4.5278h3.019v3.019zm3.728 0h3.0176l-3.0176 3.019zm-72.794 24.429a0.355 0.355 0 0 0-0.0571 0.0117 0.35504 0.35504 0 0 0-0.0513 0.0102 0.355 0.355 0 0 0-0.14356 0.082 0.355 0.355 0 0 0-3e-3 4e-3l-5.0171 5.0156a0.355 0.355 0 0 0-0.0806 0.13916 0.35504 0.35504 0 0 0-0.0117 0.0557 0.355 0.355 0 0 0-0.0117 0.0571 0.355 0.355 0 0 0 0.0117 0.0571 0.35504 0.35504 0 0 0 0.0102 0.0513 0.355 0.355 0 0 0 6e-3 0.0264 0.355 0.355 0 0 0 0 1e-3 0.355 0.355 0 0 0-6e-3 0.0249 0.35504 0.35504 0 0 0-0.0102 0.0513 0.355 0.355 0 0 0-0.0117 0.0571 0.355 0.355 0 0 0 0.0103 0.0498 0.355 0.355 0 0 0-0.0103 0.0498 0.355 0.355 0 0 0 9e-3 0.0439 0.355 0.355 0 0 0-9e-3 0.0454 0.355 0.355 0 0 0 9e-3 0.0396 0.355 0.355 0 0 0-9e-3 0.041 0.355 0.355 0 0 0 1e-3 0.0103 0.355 0.355 0 0 0-1e-3 0.0103 0.355 0.355 0 0 0 6e-3 0.0293 0.355 0.355 0 0 0-6e-3 0.0293 0.355 0.355 0 0 0 9e-3 0.0454 0.355 0.355 0 0 0-9e-3 0.0454 0.355 0.355 0 0 0 3e-3 0.0161 0.355 0.355 0 0 0-3e-3 0.0147 0.355 0.355 0 0 0 1e-3 9e-3 0.355 0.355 0 0 0-1e-3 0.0103 0.355 0.355 0 0 0 1e-3 4e-3 0.355 0.355 0 0 0-1e-3 6e-3 0.355 0.355 0 0 0 6e-3 0.0293 0.355 0.355 0 0 0-6e-3 0.022 0.355 0.355 0 0 0 1e-3 0.0103 0.355 0.355 0 0 0-1e-3 9e-3 0.355 0.355 0 0 0 4e-3 0.0205 0.355 0.355 0 0 0-4e-3 0.0205 0.355 0.355 0 0 0 1e-3 0.0102 0.355 0.355 0 0 0-1e-3 9e-3 0.355 0.355 0 0 0 3e-3 0.0132 0.355 0.355 0 0 0-3e-3 0.0161 0.355 0.355 0 0 0 0.0103 0.0498 0.355 0.355 0 0 0-0.0103 0.0498 0.355 0.355 0 0 0 9e-3 0.0454 0.355 0.355 0 0 0-9e-3 0.0454 0.355 0.355 0 0 0 4e-3 0.0249 0.355 0.355 0 0 0-4e-3 0.0249 0.355 0.355 0 0 0 1e-3 0.0103 0.355 0.355 0 0 0-1e-3 0.0102 0.355 0.355 0 0 0 1e-3 9e-3 0.355 0.355 0 0 0-1e-3 0.0102 0.355 0.355 0 0 0 3e-3 0.0147 0.355 0.355 0 0 0-3e-3 0.0161 0.355 0.355 0 0 0 0.0117 0.0571 0.35504 0.35504 0 0 0 0 4e-3 0.35504 0.35504 0 0 0 0 1e-3 0.355 0.355 0 0 0-0.0117 0.0571 0.355 0.355 0 0 0 1e-3 4e-3 0.355 0.355 0 0 0-1e-3 4e-3 0.355 0.355 0 0 0 3e-3 0.0161 0.355 0.355 0 0 0-3e-3 0.0161 0.355 0.355 0 0 0 3e-3 0.0147 0.355 0.355 0 0 0-3e-3 0.0146 0.355 0.355 0 0 0 1e-3 9e-3 0.355 0.355 0 0 0-1e-3 0.0103 0.355 0.355 0 0 0 3e-3 0.0117 0.355 0.355 0 0 0-3e-3 0.0102 0.355 0.355 0 0 0 4e-3 0.0234 0.355 0.355 0 0 0-4e-3 0.0249 0.355 0.355 0 0 0 1e-3 6e-3 0.355 0.355 0 0 0-1e-3 4e-3 0.355 0.355 0 0 0 1e-3 0.0103 0.355 0.355 0 0 0-1e-3 0.0103 0.355 0.355 0 0 0 1e-3 4e-3 0.355 0.355 0 0 0-1e-3 6e-3 0.355 0.355 0 0 0 4e-3 0.019 0.355 0.355 0 0 0 0 1e-3 0.355 0.355 0 0 0-4e-3 0.019 0.355 0.355 0 0 0 0.0117 0.0571 0.35504 0.35504 0 0 0 0.0117 0.0542 0.35504 0.35504 0 0 0 0 1e-3 0.355 0.355 0 0 0 0.0806 0.13769 0.35504 0.35504 0 0 0 0 1e-3l5.0171 5.0244a0.355 0.355 0 0 0 3e-3 4e-3h1e-3a0.355 0.355 0 0 0 0.14209 0.082 0.35504 0.35504 0 0 0 0.0513 0.0102 0.355 0.355 0 0 0 0.0571 0.0117 0.355 0.355 0 0 0 0.0571-0.0117 0.35504 0.35504 0 0 0 0.0352 0 0.35504 0.35504 0 0 0 0.019-0.0117 0.35504 0.35504 0 0 0 1e-3 0 0.355 0.355 0 0 0 0.022-4e-3 0.355 0.355 0 0 0 0.10547-0.0688 0.355 0.355 0 0 0 0.0103-7e-3 0.35504 0.35504 0 0 0 1e-3 0l5.0288-5.0288a0.35504 0.35504 0 0 0 0-1e-3 0.355 0.355 0 0 0 0.0234-0.0278 0.35504 0.35504 0 0 0 4e-3 -4e-3 0.355 0.355 0 0 0 1e-3 -1e-3 0.35504 0.35504 0 0 0 7e-3 -9e-3 0.355 0.355 0 0 0 1e-3 -1e-3 0.355 0.355 0 0 0 0-1e-3 0.355 0.355 0 0 0 1e-3 -1e-3 0.35504 0.35504 0 0 0 0.0205-0.0352 0.355 0.355 0 0 0 3e-3 -4e-3 0.35504 0.35504 0 0 0 1e-3 -3e-3 0.355 0.355 0 0 0 0-1e-3 0.35504 0.35504 0 0 0 0.0205-0.0469 0.355 0.355 0 0 0 1e-3 -4e-3 0.355 0.355 0 0 0 0-1e-3 0.35504 0.35504 0 0 0 0.0103-0.0366 0.355 0.355 0 0 0 4e-3 -0.0278 0.35504 0.35504 0 0 0 1e-3 -0.0234 0.355 0.355 0 0 0 1e-3 -0.019 0.355 0.355 0 0 0-1e-3 -0.0103 0.35504 0.35504 0 0 0 0-9e-3 0.35504 0.35504 0 0 0 0-0.0117 0.35504 0.35504 0 0 0 0-1e-3 0.355 0.355 0 0 0 1e-3 -7e-3 0.355 0.355 0 0 0 0-7e-3 0.355 0.355 0 0 0 0-3e-3 0.355 0.355 0 0 0-1e-3 -0.0117 0.355 0.355 0 0 0 1e-3 -9e-3 0.355 0.355 0 0 0-1e-3 -4e-3 0.355 0.355 0 0 0 1e-3 -6e-3 0.355 0.355 0 0 0-1e-3 -0.019 0.35504 0.35504 0 0 0 0-1e-3 0.35504 0.35504 0 0 0 0-0.0176 0.35504 0.35504 0 0 0 0-3e-3 0.355 0.355 0 0 0 1e-3 -7e-3 0.355 0.355 0 0 0-1e-3 -0.0102 0.35504 0.35504 0 0 0 0-1e-3 0.355 0.355 0 0 0 1e-3 -0.0103 0.355 0.355 0 0 0-1e-3 -7e-3 0.355 0.355 0 0 0 0-3e-3 0.355 0.355 0 0 0 1e-3 -9e-3 0.355 0.355 0 0 0-1e-3 -0.0102 0.355 0.355 0 0 0 1e-3 -0.019 0.355 0.355 0 0 0-1e-3 -0.0103 0.35504 0.35504 0 0 0 0-3e-3 0.355 0.355 0 0 0 1e-3 -0.019 0.355 0.355 0 0 0 0-3e-3 0.355 0.355 0 0 0 0-6e-3 0.355 0.355 0 0 0-1e-3 -7e-3 0.35504 0.35504 0 0 0 0-0.0132 0.35504 0.35504 0 0 0-4e-3 -0.0381 0.355 0.355 0 0 0 3e-3 -0.019 0.35504 0.35504 0 0 0 1e-3 -0.0234 0.355 0.355 0 0 0 1e-3 -0.019 0.355 0.355 0 0 0-1e-3 -0.0117 0.35504 0.35504 0 0 0 0-7e-3 0.355 0.355 0 0 0 1e-3 -0.0117 0.355 0.355 0 0 0-1e-3 -3e-3 0.35504 0.35504 0 0 0 0-0.0747 0.355 0.355 0 0 0 1e-3 -0.0117 0.355 0.355 0 0 0-1e-3 -7e-3 0.35504 0.35504 0 0 0-1e-3 -0.0351 0.355 0.355 0 0 0 0-4e-3 0.35504 0.35504 0 0 0 1e-3 -0.0249 0.355 0.355 0 0 0 1e-3 -0.019 0.355 0.355 0 0 0-1e-3 -7e-3 0.35504 0.35504 0 0 0-3e-3 -0.0366 0.355 0.355 0 0 0 0-3e-3 0.35504 0.35504 0 0 0 0-1e-3 0.35504 0.35504 0 0 0 0-1e-3 0.35504 0.35504 0 0 0 3e-3 -0.0308 0.355 0.355 0 0 0 1e-3 -0.019 0.355 0.355 0 0 0-1e-3 -0.019 0.355 0.355 0 0 0 1e-3 -0.0102 0.355 0.355 0 0 0-1e-3 -0.0117 0.355 0.355 0 0 0 0-1e-3 0.355 0.355 0 0 0 1e-3 -6e-3 0.355 0.355 0 0 0 0-0.0103 0.35504 0.35504 0 0 0-1e-3 -0.0674 0.35504 0.35504 0 0 0 0-1e-3 0.35504 0.35504 0 0 0 0-3e-3 0.35504 0.35504 0 0 0 0-0.0762 0.355 0.355 0 0 0 1e-3 -0.0132 0.355 0.355 0 0 0-1e-3 -7e-3 0.35504 0.35504 0 0 0-3e-3 -0.0352 0.355 0.355 0 0 0 1e-3 -9e-3 0.35504 0.35504 0 0 0 1e-3 -0.0205 0.355 0.355 0 0 0 1e-3 -0.019 0.355 0.355 0 0 0-1e-3 -7e-3 0.35504 0.35504 0 0 0 0-0.0205 0.35504 0.35504 0 0 0 0-1e-3 0.35504 0.35504 0 0 0 0-0.019 0.35504 0.35504 0 0 0 0-3e-3 0.355 0.355 0 0 0 1e-3 -7e-3 0.355 0.355 0 0 0-1e-3 -0.0103 0.355 0.355 0 0 0 1e-3 -0.0103 0.355 0.355 0 0 0-1e-3 -0.0102 0.35504 0.35504 0 0 0-1e-3 -0.0264 0.35504 0.35504 0 0 0 0-1e-3 0.35504 0.35504 0 0 0 1e-3 -0.0234 0.355 0.355 0 0 0 1e-3 -0.019 0.355 0.355 0 0 0-1e-3 -7e-3 0.35504 0.35504 0 0 0-1e-3 -0.0337 0.355 0.355 0 0 0 0-6e-3 0.35504 0.35504 0 0 0 1e-3 -0.0234 0.355 0.355 0 0 0 1e-3 -0.019 0.355 0.355 0 0 0-1e-3 -7e-3 0.35504 0.35504 0 0 0-3e-3 -0.0425 0.35504 0.35504 0 0 0 3e-3 -0.0308 0.355 0.355 0 0 0 1e-3 -0.019 0.355 0.355 0 0 0-1e-3 -0.019 0.35504 0.35504 0 0 0-1e-3 -0.022 0.355 0.355 0 0 0-6e-3 -0.0322 0.35504 0.35504 0 0 0-6e-3 -0.0278 0.355 0.355 0 0 0-0.0132-0.0337 0.35504 0.35504 0 0 0 0.0103-0.0264 0.355 0.355 0 0 0 1e-3 -7e-3 0.35504 0.35504 0 0 0 7e-3 -0.0278 0.355 0.355 0 0 0 6e-3 -0.0337 0.35504 0.35504 0 0 0 1e-3 -0.0205 0.355 0.355 0 0 0 1e-3 -0.019 0.355 0.355 0 0 0-1e-3 -0.0191 0.35504 0.35504 0 0 0-1e-3 -0.0249 0.355 0.355 0 0 0-4e-3 -0.0249 0.35504 0.35504 0 0 0-0.0103-0.041 0.355 0.355 0 0 0-3e-3 -7e-3 0.35504 0.35504 0 0 0-0.019-0.0439 0.355 0.355 0 0 0-0.0249-0.0439 0.35504 0.35504 0 0 0-1e-3 -1e-3 0.35504 0.35504 0 0 0-1e-3 -3e-3 0.355 0.355 0 0 0-0.0366-0.0425l-5.0288-5.02a0.35504 0.35504 0 0 0-1e-3 0 0.355 0.355 0 0 0-0.15381-0.0893 0.35504 0.35504 0 0 0-0.0103-3e-3 0.355 0.355 0 0 0-0.0864-0.0117zm0.35449 2.8125 1.5557 1.5527 0.65625 0.65479h-2.2119zm-0.71045 1e-3v2.2061h-2.206zm-2.2119 4.5161h2.2119v2.2148zm2.9224 0h2.2178l-2.2178 2.2192zm-72.785 32.73a0.355 0.355 0 0 0-0.05713 0.0117 0.35504 0.35504 0 0 0-0.05273 0.0102 0.355 0.355 0 0 0-0.14062 0.082 0.355 0.355 0 0 0-0.0029 4e-3l-5.0273 5.0244a0.35504 0.35504 0 0 0 0 1e-3 0.35504 0.35504 0 0 0-0.0059 0.0103 0.355 0.355 0 0 0-0.07471 0.1289 0.35504 0.35504 0 0 0-0.01172 0.0542 0.355 0.355 0 0 0-0.01172 0.0571 0.355 0.355 0 0 0 0.0088 0.0454 0.355 0.355 0 0 0-0.0088 0.0454 0.355 0.355 0 0 0 0.01172 0.0571 0.35504 0.35504 0 0 0 0 0.0264 0.355 0.355 0 0 0-0.01172 0.0571 0.355 0.355 0 0 0 0.0088 0.0439 0.355 0.355 0 0 0-0.0088 0.0454 0.355 0.355 0 0 0 0.0029 0.0146 0.355 0.355 0 0 0-0.0029 0.0147 0.355 0.355 0 0 0 0.0029 0.0147 0.355 0.355 0 0 0-0.0029 0.0146 0.355 0.355 0 0 0 0.0015 6e-3 0.355 0.355 0 0 0-0.0015 4e-3 0.355 0.355 0 0 0 0.0015 0.0102 0.355 0.355 0 0 0-0.0015 0.0103 0.355 0.355 0 0 0 0.01172 0.0542 0.355 0.355 0 0 0-0.01172 0.0557 0.355 0.355 0 0 0 0.0015 9e-3 0.355 0.355 0 0 0-0.0015 0.0102 0.355 0.355 0 0 0 0.0029 0.0176 0.355 0.355 0 0 0-0.0029 0.0146 0.355 0.355 0 0 0 0.0044 0.019 0.355 0.355 0 0 0-0.0044 0.019 0.355 0.355 0 0 0 0.0059 0.0249 0.355 0.355 0 0 0-0.0059 0.0264 0.355 0.355 0 0 0 0.0044 0.0249 0.355 0.355 0 0 0-0.0044 0.0234 0.355 0.355 0 0 0 0.0059 0.0249 0.355 0.355 0 0 0-0.0059 0.0264 0.355 0.355 0 0 0 0.01172 0.0571 0.35504 0.35504 0 0 0 0 4e-3 0.355 0.355 0 0 0-0.01172 0.0571 0.355 0.355 0 0 0 0.0029 0.0102 0.355 0.355 0 0 0 0 1e-3 0.355 0.355 0 0 0-0.0029 0.0102 0.355 0.355 0 0 0 0.0088 0.044 0.355 0.355 0 0 0-0.0088 0.0454 0.355 0.355 0 0 0 0.0015 6e-3 0.355 0.355 0 0 0-0.0015 4e-3 0.355 0.355 0 0 0 0.0015 0.0102 0.355 0.355 0 0 0-0.0015 9e-3 0.355 0.355 0 0 0 0.0015 0.0103 0.355 0.355 0 0 0-0.0015 0.0102 0.355 0.355 0 0 0 0.0015 0.0103 0.355 0.355 0 0 0-0.0015 0.0102 0.355 0.355 0 0 0 0.01172 0.0571 0.35504 0.35504 0 0 0 0 1e-3 0.35504 0.35504 0 0 0 0 0.0132 0.35504 0.35504 0 0 0 0 0.019 0.35504 0.35504 0 0 0 0 1e-3 0.355 0.355 0 0 0-0.01172 0.0571 0.355 0.355 0 0 0 0.0015 0.0103 0.355 0.355 0 0 0-0.0015 0.0103 0.355 0.355 0 0 0 0.0015 6e-3 0.355 0.355 0 0 0-0.0015 4e-3 0.355 0.355 0 0 0 0.0015 4e-3 0.355 0.355 0 0 0-0.0015 6e-3 0.355 0.355 0 0 0 0.0059 0.0308 0.355 0.355 0 0 0-0.0059 0.0293 0.355 0.355 0 0 0 0.0015 6e-3 0.355 0.355 0 0 0-0.0015 4e-3 0.355 0.355 0 0 0 0.0044 0.0234 0.355 0.355 0 0 0-0.0044 0.0249 0.355 0.355 0 0 0 0.0015 6e-3 0.355 0.355 0 0 0-0.0015 4e-3 0.355 0.355 0 0 0 0.0044 0.019 0.355 0.355 0 0 0-0.0044 0.022 0.355 0.355 0 0 0 0.0044 0.019 0.355 0.355 0 0 0-0.0044 0.019 0.355 0.355 0 0 0 0.0029 0.0117 0.355 0.355 0 0 0-0.0029 0.0102 0.355 0.355 0 0 0 0.01172 0.0571 0.35504 0.35504 0 0 0 0 0.0146 0.35504 0.35504 0 0 0 0 0.0103 0.355 0.355 0 0 0-0.01172 0.0571 0.355 0.355 0 0 0 0.01172 0.0571 0.35504 0.35504 0 0 0 0.01172 0.0542 0.355 0.355 0 0 0 0.08057 0.13916 0.35504 0.35504 0 0 0 0 1e-3l5.0273 5.0244a0.355 0.355 0 0 0 0.0029 4e-3h0.0015a0.355 0.355 0 0 0 0.13916 0.082 0.35504 0.35504 0 0 0 0.05273 0.0103 0.355 0.355 0 0 0 0.05713 0.0117 0.355 0.355 0 0 0 0.05713-0.0117 0.35504 0.35504 0 0 0 0.05566-0.0117 0.355 0.355 0 0 0 0.13916-0.0806l5.0303-5.0288a0.35504 0.35504 0 0 0 0.06445-0.0908 0.355 0.355 0 0 0 0-1e-3 0.35504 0.35504 0 0 0 0.01172-0.0278 0.355 0.355 0 0 0 0.01465-0.0396 0.35504 0.35504 0 0 0 0.0073-0.0366 0.355 0.355 0 0 0 0-3e-3 0.35504 0.35504 0 0 0 0-0.10839 0.355 0.355 0 0 0-0.0029-0.0147 0.35504 0.35504 0 0 0 0.0073-0.0586 0.35504 0.35504 0 0 0 0-0.0322 0.35504 0.35504 0 0 0 0-9e-3 0.35504 0.35504 0 0 0 0-1e-3 0.35504 0.35504 0 0 0 0-0.019 0.35504 0.35504 0 0 0 0-0.019 0.35504 0.35504 0 0 0 0-9e-3 0.35504 0.35504 0 0 0 0-0.0132 0.35504 0.35504 0 0 0 0-9e-3 0.35504 0.35504 0 0 0 0-0.0293 0.35504 0.35504 0 0 0 0-1e-3 0.35504 0.35504 0 0 0 0-9e-3 0.35504 0.35504 0 0 0 0-0.06 0.35504 0.35504 0 0 0 0-1e-3 0.35504 0.35504 0 0 0 0-9e-3 0.35504 0.35504 0 0 0 0-9e-3 0.35504 0.35504 0 0 0 0-0.0103 0.35504 0.35504 0 0 0 0-0.0102 0.35504 0.35504 0 0 0 0-0.0308 0.355 0.355 0 0 0 0-1e-3 0.35504 0.35504 0 0 0 0-9e-3 0.35504 0.35504 0 0 0-0.0088-0.0644 0.35504 0.35504 0 0 0 0.0088-0.0645 0.35504 0.35504 0 0 0 0-0.0103 0.35504 0.35504 0 0 0 0-9e-3 0.35504 0.35504 0 0 0 0-0.0308 0.35504 0.35504 0 0 0 0-1e-3 0.35504 0.35504 0 0 0 0-0.0293 0.35504 0.35504 0 0 0 0-0.022 0.35504 0.35504 0 0 0-0.0029-0.0249 0.35504 0.35504 0 0 0 0.0029-0.0322 0.35504 0.35504 0 0 0-0.0059-0.0923 0.35504 0.35504 0 0 0 0.0015-3e-3 0.355 0.355 0 0 0 0-7e-3 0.35504 0.35504 0 0 0 0.0044-0.0674 0.35504 0.35504 0 0 0 0-0.0513 0.35504 0.35504 0 0 0 0-0.0483 0.35504 0.35504 0 0 0 0-0.0322 0.355 0.355 0 0 0 0-9e-3 0.35504 0.35504 0 0 0 0-0.0483 0.35504 0.35504 0 0 0 0-0.0132 0.35504 0.35504 0 0 0 0-0.019 0.35504 0.35504 0 0 0-0.0044-0.0542 0.355 0.355 0 0 0 0-1e-3 0.35504 0.35504 0 0 0 0.0044-0.0439 0.35504 0.35504 0 0 0 0-9e-3 0.35504 0.35504 0 0 0 0-1e-3 0.35504 0.35504 0 0 0 0-0.0293 0.35504 0.35504 0 0 0 0-1e-3 0.35504 0.35504 0 0 0 0-0.0205 0.35504 0.35504 0 0 0 0-0.0381 0.355 0.355 0 0 0 0-1e-3 0.35504 0.35504 0 0 0-0.0029-0.0454 0.35504 0.35504 0 0 0-0.0015-0.0982 0.355 0.355 0 0 0 0-3e-3 0.35504 0.35504 0 0 0-0.0029-0.0146 0.35504 0.35504 0 0 0 0.0029-0.0117 0.355 0.355 0 0 0 0-6e-3 0.35504 0.35504 0 0 0 0.0015-0.0967 0.35504 0.35504 0 0 0-0.0015-0.0996 0.355 0.355 0 0 0-0.0073-0.0366 0.35504 0.35504 0 0 0-0.0015-4e-3 0.355 0.355 0 0 0-0.01318-0.0351 0.35504 0.35504 0 0 0-0.01172-0.0293 0.355 0.355 0 0 0-0.0015-3e-3 0.35504 0.35504 0 0 0-0.06299-0.0879l-5.0303-5.0288a0.355 0.355 0 0 0-0.13916-0.0806 0.35504 0.35504 0 0 0-0.05566-0.0117 0.355 0.355 0 0 0-0.05713-0.0117zm-0.35449 2.8315v2.1987h-2.1973zm0.71045 1e-3 2.1987 2.1973h-2.1987zm-2.9092 4.5264h2.1987v2.1987zm2.9092 0h2.1987l-2.1987 2.1973z" fill="#fc8d62"/>
  <polyline id="polyline2228" points="56.92 375.84 563.96 64.54" stroke="#fc8d62" stroke-width="2.13"/>
  <path id="line2269" d="m357.21 348.53v-10.05m-5.03 5.02 5.03-5.02 5.02 5.02-5.02 5.03z" fill="none" stroke="#fc8d62" stroke-linecap="round" stroke-linejoin="round" stroke-miterlimit="10" stroke-width=".71"/>
  <line id="line2270" x1="351.07" x2="363.34" y1="343.5" y2="343.5" stroke="#fc8d62" stroke-width="2.13"/>
 </g>
 <g id="layer1" fill="#a0b2b4">
  <text id="text2275" x="371.85001" y="347.48001" font-family="'Linux Biolinum O'" font-size="12px" lengthAdjust="spacingAndGlyphs" textLength="118.16">No checks, GIL released</text>
 </g>
</svg>
