<?xml version="1.0" encoding="UTF-8"?>
<svg width="576pt" height="432pt" version="1.1" viewBox="0 0 576 432" xmlns="http://www.w3.org/2000/svg">
 <defs><style type="text/css"><![CDATA[
  @import url('rjs/fonts/fontfaces.css');
]]></style></defs>
 <g transform="scale(1.5 1.5) translate(10)">
  <circle cx="132.38" cy="16" r="1.95" fill="#66c2a5"/>
  <polygon transform="translate(-19.5 2.11)" points="189.69 16.17 184.43 16.17 187.06 11.61" fill="#fc8d62"/>
  <polygon transform="translate(-25.5 1.355)" points="231.69 12.69 227.78 12.69 227.78 16.6 231.69 16.6" fill="#8da0cb"/>
  <g fill="none" stroke-linecap="round" stroke-linejoin="round" stroke-width=".71">
    <path stroke="#e78ac3" d="m240.91 18.765v-5.53m-2.77 2.77h5.53"/>
    <path stroke="#a6d854" d="m275.63 14.045 3.91 3.91m-3.91 0 3.91-3.91m-3.91 0h3.91v3.91h-3.91z"/>
    <path stroke="#ffd92f" d="m314.26 18.765v-5.53m-2.77 2.77h5.53m-4.72-1.96 3.91 3.91m-3.91 0 3.91-3.91"/>
  </g>
  <g fill="none" stroke-linecap="square" stroke-width="1.07">
   <path stroke="#49595b" d="m58.45 36.26h294.58m-294.58 35.24h294.58m-294.58 35.24h294.58m-294.58 35.23h294.58m-294.58 35.24h294.58m-294.58 35.23h294.58"
         stroke-linejoin="round" stroke-width="1.07"/>
   <path stroke="#a0b2b4" d="m347.25 251.16v-3.48m-57.76 3.48v-3.48m-57.76 3.48v-3.48m-57.76 3.48v-3.48m-57.76 3.48v-3.48m-51.98 3.48v-3.48m-5.78 0h294.58m-298.07-211.42h3.49m-3.49 35.24h3.49m-3.49 35.24h3.49m-3.49 35.23h3.49m-3.49 35.24h3.49m-3.49 35.23h3.49m-3.49 35.24h3.49m0 0v-211.42m0 211.42h294.58"
         stroke-linecap="square" stroke-width="1.07"/>
  </g>
  <g fill="#a0b2b4" font-family="'Libertinus Sans', 'Linux Biolinum O', sans-serif">
   <text x="44.950001" y="19.280001" font-size="14px" lengthAdjust="spacingAndGlyphs" textLength="71.290001"># of samples</text>
   <text x="139.53" y="19.629999" font-size="12px" lengthAdjust="spacingAndGlyphs" textLength="5.5799999">2</text>
   <text x="145.11" y="14.71" font-size="8.4px" lengthAdjust="spacingAndGlyphs" textLength="7.8000002">17</text>
   <text x="176.2" y="19.629999" font-size="12px" lengthAdjust="spacingAndGlyphs" textLength="5.5799999">2</text>
   <text x="181.78" y="14.71" font-size="8.4px" lengthAdjust="spacingAndGlyphs" textLength="7.8000002">18</text>
   <text x="212.88" y="19.629999" font-size="12px" lengthAdjust="spacingAndGlyphs" textLength="5.5799999">2</text>
   <text x="218.46001" y="14.71" font-size="8.4px" lengthAdjust="spacingAndGlyphs" textLength="7.8000002">19</text>
   <text x="249.54999" y="19.629999" font-size="12px" lengthAdjust="spacingAndGlyphs" textLength="5.5799999">2</text>
   <text x="255.13" y="14.71" font-size="8.4px" lengthAdjust="spacingAndGlyphs" textLength="7.8000002">20</text>
   <text x="286.23001" y="19.629999" font-size="12px" lengthAdjust="spacingAndGlyphs" textLength="5.5799999">2</text>
   <text x="291.81" y="14.71" font-size="8.4px" lengthAdjust="spacingAndGlyphs" textLength="7.8000002">21</text>
   <text x="322.89999" y="19.629999" font-size="12px" lengthAdjust="spacingAndGlyphs" textLength="5.5799999">2</text>
   <text x="328.48001" y="14.71" font-size="8.4px" lengthAdjust="spacingAndGlyphs" textLength="7.8000002">22</text>
   <g font-size="12px">
    <g text-anchor="end">
     <text x="51.98" y="251.64999" lengthAdjust="spacingAndGlyphs" textLength="13.8">1.0</text>
     <text x="51.98" y="216.42" lengthAdjust="spacingAndGlyphs" textLength="13.8">1.1</text>
     <text x="51.98" y="181.17999" lengthAdjust="spacingAndGlyphs" textLength="13.8">1.2</text>
     <text x="51.98" y="145.95" lengthAdjust="spacingAndGlyphs" textLength="13.8">1.3</text>
     <text x="51.98" y="110.71" lengthAdjust="spacingAndGlyphs" textLength="13.8">1.4</text>
     <text x="51.98" y="75.470001" lengthAdjust="spacingAndGlyphs" textLength="13.8">1.5</text>
     <text x="51.98" y="40.240002" lengthAdjust="spacingAndGlyphs" textLength="13.8">1.6</text>
    </g>
    <g text-anchor="middle">
     <text x="64.230003" y="262.10001" lengthAdjust="spacingAndGlyphs" textLength="5.5799999">1</text>
     <text x="116.21" y="262.10001" lengthAdjust="spacingAndGlyphs" textLength="11.16">10</text>
     <text x="173.97" y="262.10001" lengthAdjust="spacingAndGlyphs" textLength="11.16">20</text>
     <text x="231.73" y="262.10001" lengthAdjust="spacingAndGlyphs" textLength="11.16">30</text>
     <text x="289.48999" y="262.10001" lengthAdjust="spacingAndGlyphs" textLength="11.16">40</text>
     <text x="347.25" y="262.10001" lengthAdjust="spacingAndGlyphs" textLength="11.16">50</text>
    </g>
   </g>
   <g font-size="14px" text-anchor="middle">
    <text x="205.74001" y="277.70999" lengthAdjust="spacingAndGlyphs" textLength="112.77">Check interval (ms)</text>
    <text transform="rotate(-90 79.11 62.86)" lengthAdjust="spacingAndGlyphs" textLength="150.97">Median elapsed time ratio</text>
    <text transform="rotate(-90 86.67 55.3)" lengthAdjust="spacingAndGlyphs" textLength="226.97">(coarse checks/no checks, GIL released)</text>
   </g>
  </g>
  <path d="m349.2 157.73a1.95 1.95 0 0 1-1.95 1.95 1.95 1.95 0 0 1-1.95-1.95 1.95 1.95 0 0 1 1.95-1.95 1.95 1.95 0 0 1 1.95 1.95zm-14.44-0.12999a1.95 1.95 0 0 1-1.95 1.95 1.95 1.95 0 0 1-1.95-1.95 1.95 1.95 0 0 1 1.95-1.95 1.95 1.95 0 0 1 1.95 1.95zm-14.44-0.98001a1.95 1.95 0 0 1-1.95 1.95 1.95 1.95 0 0 1-1.95-1.95 1.95 1.95 0 0 1 1.95-1.95 1.95 1.95 0 0 1 1.95 1.95zm-14.44-0.08a1.95 1.95 0 0 1-1.95 1.95 1.95 1.95 0 0 1-1.95-1.95 1.95 1.95 0 0 1 1.95-1.95 1.95 1.95 0 0 1 1.95 1.95zm-14.44 0.72a1.95 1.95 0 0 1-1.95 1.95 1.95 1.95 0 0 1-1.95-1.95 1.95 1.95 0 0 1 1.95-1.95 1.95 1.95 0 0 1 1.95 1.95zm-14.44 0.19001a1.95 1.95 0 0 1-1.95 1.95 1.95 1.95 0 0 1-1.95-1.95 1.95 1.95 0 0 1 1.95-1.95 1.95 1.95 0 0 1 1.95 1.95zm-14.44-0.02a1.95 1.95 0 0 1-1.95 1.95 1.95 1.95 0 0 1-1.95-1.95 1.95 1.95 0 0 1 1.95-1.95 1.95 1.95 0 0 1 1.95 1.95zm-14.44-0.56001a1.95 1.95 0 0 1-1.95 1.95 1.95 1.95 0 0 1-1.95-1.95 1.95 1.95 0 0 1 1.95-1.95 1.95 1.95 0 0 1 1.95 1.95zm-14.44-0.29999a1.95 1.95 0 0 1-1.95 1.95 1.95 1.95 0 0 1-1.95-1.95 1.95 1.95 0 0 1 1.95-1.95 1.95 1.95 0 0 1 1.95 1.95zm-14.44 0.36999a1.95 1.95 0 0 1-1.95 1.95 1.95 1.95 0 0 1-1.95-1.95 1.95 1.95 0 0 1 1.95-1.95 1.95 1.95 0 0 1 1.95 1.95zm-14.44 0.77001a1.95 1.95 0 0 1-1.95 1.95 1.95 1.95 0 0 1-1.95-1.95 1.95 1.95 0 0 1 1.95-1.95 1.95 1.95 0 0 1 1.95 1.95zm-14.44-0.11a1.95 1.95 0 0 1-1.95 1.95 1.95 1.95 0 0 1-1.95-1.95 1.95 1.95 0 0 1 1.95-1.95 1.95 1.95 0 0 1 1.95 1.95zm-14.44-0.80001a1.95 1.95 0 0 1-1.95 1.95 1.95 1.95 0 0 1-1.95-1.95 1.95 1.95 0 0 1 1.95-1.95 1.95 1.95 0 0 1 1.95 1.95zm-14.44-0.61a1.95 1.95 0 0 1-1.95 1.95 1.95 1.95 0 0 1-1.95-1.95 1.95 1.95 0 0 1 1.95-1.95 1.95 1.95 0 0 1 1.95 1.95zm-14.44 0.93a1.95 1.95 0 0 1-1.95 1.95 1.95 1.95 0 0 1-1.95-1.95 1.95 1.95 0 0 1 1.95-1.95 1.95 1.95 0 0 1 1.95 1.95zm-14.44 0.91999a1.95 1.95 0 0 1-1.95 1.95 1.95 1.95 0 0 1-1.95-1.95 1.95 1.95 0 0 1 1.95-1.95 1.95 1.95 0 0 1 1.95 1.95zm-14.44 0.21001a1.95 1.95 0 0 1-1.95 1.95 1.95 1.95 0 0 1-1.95-1.95 1.95 1.95 0 0 1 1.95-1.95 1.95 1.95 0 0 1 1.95 1.95zm-14.44-0.77a1.95 1.95 0 0 1-1.95 1.95 1.95 1.95 0 0 1-1.95-1.95 1.95 1.95 0 0 1 1.95-1.95 1.95 1.95 0 0 1 1.95 1.95zm-14.44-1.02a1.95 1.95 0 0 1-1.95 1.95 1.95 1.95 0 0 1-1.95-1.95 1.95 1.95 0 0 1 1.95-1.95 1.95 1.95 0 0 1 1.95 1.95zm-14.44 1.31a1.95 1.95 0 0 1-1.95 1.95 1.95 1.95 0 0 1-1.95-1.95 1.95 1.95 0 0 1 1.95-1.95 1.95 1.95 0 0 1 1.95 1.95zm-8.66 1.83a1.95 1.95 0 0 1-1.95 1.95 1.95 1.95 0 0 1-1.95-1.95 1.95 1.95 0 0 1 1.95-1.95 1.95 1.95 0 0 1 1.95 1.95z" fill="#66c2a5"/>
  <path d="m349.88 201.04h-5.26l2.63-4.56zm-14.44 0.54h-5.26l2.63-4.56zm-14.44 0.42h-5.26l2.63-4.56zm-14.44-0.53h-5.26l2.63-4.56zm-14.44-0.59h-5.26l2.63-4.56zm-14.44-0.2h-5.26l2.63-4.56zm-14.44 0.44h-5.26l2.63-4.56zm-14.44 0.5h-5.26l2.63-4.56zm-14.44 0.03h-5.26l2.63-4.56zm-14.44-1.39h-5.26l2.63-4.55zm-14.44 0.95h-5.26l2.63-4.56zm-14.44-0.01h-5.26l2.63-4.56zm-14.44 0.42h-5.26l2.63-4.56zm-14.44 0.86h-5.26l2.63-4.56zm-14.44-2.07h-5.26l2.63-4.56zm-14.44 0.81h-5.26l2.63-4.56zm-14.44 0.38h-5.26l2.63-4.56zm-14.44 0.61h-5.26l2.63-4.56zm-14.44 1.06h-5.26l2.63-4.56zm-14.44-1.48h-5.26l2.63-4.56zm-8.66 0.08h-5.27l2.64-4.56z" fill="#fc8d62"/>
  <path d="m345.3 164.02v3.91h3.9v-3.91zm-14.44 2.78v3.91h3.91v-3.91zm-14.44 0.33v3.91h3.91v-3.91zm-14.44 0.13v3.91h3.91v-3.91zm-14.44-3.43v3.91h3.91v-3.91zm-14.44-0.28v3.91h3.91v-3.91zm-14.44 1.59v3.9h3.91v-3.9zm-14.44-3.47v3.91h3.91v-3.91zm-14.44 0.54v3.91h3.91v-3.91zm-14.44-0.63v3.91h3.91v-3.91zm-14.44-1.41v3.91h3.91v-3.91zm-14.44 1.16v3.91h3.91v-3.91zm-14.44 0.73v3.91h3.91v-3.91zm-14.44 0.41v3.91h3.91v-3.91zm-14.44 0.24v3.91h3.91v-3.91zm-14.44-0.06v3.91h3.91v-3.91zm-14.44 2.86v3.91h3.91v-3.91zm-14.44-3.92v3.91h3.91v-3.91zm-14.44 0.26v3.91h3.91v-3.91zm-14.44-0.08v3.91h3.91v-3.91zm-8.67-2.8v3.91h3.91v-3.91z" fill="#8da0cb"/>
  <g fill="none" stroke-linecap="round" stroke-linejoin="round" stroke-miterlimit="10" stroke-width=".71">
   <path d="m347.25 206.16v-5.53m-2.76 2.76h5.52m-17.2 0.94v-5.53m-2.76 2.77h5.52m-17.2 2.58v-5.53m-2.76 2.76h5.52m-17.2 4.11v-5.53m-2.76 2.77h5.52m-17.2 7.95v-5.53m-2.76 2.76h5.52m-17.2-1.93v-5.53m-2.76 2.77h5.53m-17.21 3.85v-5.53m-2.76 2.77h5.53m-17.21 4.21v-5.53m-2.76 2.76h5.53m-17.21-0.85001v-5.53m-2.76 2.76h5.53m-17.21 3.8v-5.53m-2.76 2.76h5.53m-17.21 3.22v-5.53m-2.76 2.76h5.53m-17.21 0.81v-5.53m-2.76 2.76h5.53m-17.21 2.31v-5.53m-2.76 2.77h5.53m-17.21 3.81v-5.53m-2.76 2.76h5.53m-17.21 3.59v-5.52m-2.76 2.76h5.53m-17.21 3.22v-5.53m-2.76 2.77h5.53m-17.21 5.75v-5.53m-2.76 2.77h5.53m-17.21 3.53v-5.53m-2.76 2.76h5.53m-17.21 4.04v-5.53m-2.76 2.76h5.53m-17.21 3.69v-5.53m-2.76 2.76h5.53m-11.43 2.5v-5.52m-2.77 2.76h5.53" stroke="#e78ac3"/>
   <path d="m345.3 75.6 3.9 3.91m-3.9 0 3.9-3.91m-3.9 0h3.91v3.91h-3.91zm-14.44 2.3 3.91 3.91m-3.91 0 3.91-3.91m-3.91 0h3.91v3.91h-3.91zm-14.44-0.05 3.91 3.91m-3.91 0 3.91-3.91m-3.91 0h3.91v3.91h-3.91zm-14.44-17.83 3.91 3.91m-3.91 0 3.91-3.91m-3.91 0h3.91v3.91h-3.91zm-14.44 10.97 3.91 3.91m-3.91 0 3.91-3.91m-3.91 0h3.91v3.91h-3.91zm-14.44 4.52 3.91 3.91m-3.91 0 3.91-3.91m-3.91 0h3.91v3.91h-3.91zm-14.44 2.46 3.91 3.91m-3.91 0 3.91-3.91m-3.91 0h3.91v3.91h-3.91zm-14.44-0.03 3.91 3.91m-3.91 0 3.91-3.91m-3.91 0h3.91v3.91h-3.91zm-14.44-16.53 3.91 3.91m-3.91 0 3.91-3.91m-3.91 0h3.91v3.91h-3.91zm-14.44 7.94 3.91 3.9m-3.91 0 3.91-3.9m-3.91 0h3.91v3.91h-3.91zm-14.44 6.54 3.91 3.91m-3.91 0 3.91-3.91m-3.91 0h3.91v3.91h-3.91zm-14.44 2.31 3.91 3.91m-3.91 0 3.91-3.91m-3.91 0h3.91v3.91h-3.91zm-14.44 0.23 3.91 3.91m-3.91 0 3.91-3.91m-3.91 0h3.91v3.91h-3.91zm-14.44-8.72 3.91 3.91m-3.91 0 3.91-3.91m-3.91 0h3.91v3.91h-3.91zm-14.44-2.52 3.91 3.91m-3.91 0 3.91-3.91m-3.91 0h3.91v3.91h-3.91zm-14.44 8.32 3.91 3.91m-3.91 0 3.91-3.91m-3.91 0h3.91v3.91h-3.91zm-14.44 3.36 3.91 3.91m-3.91 0 3.91-3.91m-3.91 0h3.91v3.91h-3.91zm-14.44-0.67001 3.91 3.91m-3.91 0 3.91-3.91m-3.91 0h3.91v3.91h-3.91zm-14.44-16.49 3.91 3.91m-3.91 0 3.91-3.91m-3.91 0h3.91v3.91h-3.91zm-14.44 8.91 3.91 3.91m-3.91 0 3.91-3.91m-3.91 0h3.91v3.91h-3.91zm-8.67 5.67 3.91 3.91m-3.91 0 3.91-3.91m-3.91 0h3.91v3.91h-3.91z" stroke="#a6d854"/>
   <path d="m347.25 182.07v-5.53m-2.76 2.76h5.52m-4.71-1.95 3.9 3.91m-3.9 0 3.9-3.91m-16.39-0.51001v-5.53m-2.76 2.77h5.52m-4.71-1.96 3.91 3.91m-3.91 0 3.91-3.91m-16.4 4.82v-5.53m-2.76 2.77h5.52m-4.71-1.96 3.91 3.91m-3.91 0 3.91-3.91m-16.4 10.25v-5.53m-2.76 2.76h5.52m-4.71-1.95 3.91 3.91m-3.91 0 3.91-3.91m-16.4 1.36v-5.53m-2.76 2.76h5.52m-4.71-1.95 3.91 3.91m-3.91 0 3.91-3.91m-16.4 6.36v-5.53m-2.76 2.77h5.53m-4.72-1.96 3.91 3.91m-3.91 0 3.91-3.91m-16.4 4.94v-5.53m-2.76 2.77h5.53m-4.72-1.96 3.91 3.91m-3.91 0 3.91-3.91m-16.4 5.35v-5.53m-2.76 2.77h5.53m-4.72-1.96 3.91 3.91m-3.91 0 3.91-3.91m-16.4 4.87v-5.53m-2.76 2.77h5.53m-4.72-1.96 3.91 3.91m-3.91 0 3.91-3.91m-16.4 4.46v-5.53m-2.76 2.76h5.53m-4.72-1.95 3.91 3.91m-3.91 0 3.91-3.91m-16.4 4.43v-5.53m-2.76 2.77h5.53m-4.72-1.96 3.91 3.91m-3.91 0 3.91-3.91m-16.4 4.58v-5.53m-2.76 2.76h5.53m-4.72-1.95 3.91 3.91m-3.91 0 3.91-3.91m-16.4 3.91v-5.53m-2.76 2.76h5.53m-4.72-1.95 3.91 3.91m-3.91 0 3.91-3.91m-16.4 8.07v-5.53m-2.76 2.77h5.53m-4.72-1.96 3.91 3.91m-3.91 0 3.91-3.91m-16.4 0.75v-5.53m-2.76 2.77h5.53m-4.72-1.96 3.91 3.91m-3.91 0 3.91-3.91m-16.4 5.95v-5.53m-2.76 2.77h5.53m-4.72-1.96 3.91 3.91m-3.91 0 3.91-3.91m-16.4 2.35v-5.53m-2.76 2.77h5.53m-4.72-1.96 3.91 3.91m-3.91 0 3.91-3.91m-16.4-0.58v-5.53m-2.76 2.77h5.53m-4.72-1.96 3.91 3.91m-3.91 0 3.91-3.91m-16.4 6.34v-5.53m-2.76 2.77h5.53m-4.72-1.96 3.91 3.91m-3.91 0 3.91-3.91m-16.4 8.8v-5.53m-2.76 2.77h5.53m-4.72-1.96 3.91 3.91m-3.91 0 3.91-3.91m-10.62 5.6v-5.53m-2.77 2.76h5.53m-4.72-1.95 3.91 3.91m-3.91 0 3.91-3.91" stroke="#ffd92f"/>
  </g>
 </g>
</svg>
