<?xml version="1.0" encoding="UTF-8"?><svg width="609.05mm" height="73.29mm" version="1.1" viewBox="0 0 609.05 73.29" xmlns="http://www.w3.org/2000/svg"><path fill="#a0b2b4" d="m528.38 24.871h3.9688v2.3889l1.5214-0.76718c4.5906-2.315 10.763-2.9141 14.229-1.381 1.7392 0.76935 3.7228 2.7654 4.6016 4.6306 1.3038 2.7671 1.6861 5.0379 1.8082 10.739 0.0954 4.4536 0.0364 5.5195-0.43112 7.7918-1.2142 5.9014-3.8808 8.906-8.9604 10.096-2.1816 0.51116-8.0381 0.52046-10.85 0.0172l-1.9182-0.34326v15.246h-3.9688zm15.283 30.05c4.2886-1.1416 6.1345-4.0207 6.7461-10.522 0.35095-3.7304-4e-3 -8.3926-0.84473-11.089-0.63173-2.0267-2.133-3.9143-3.8206-4.8037-0.89224-0.47024-1.5283-0.57409-3.4735-0.56715-2.7815 0.01-4.9578 0.53073-7.8714 1.8837l-2.0505 0.95219v23.719l0.59531 0.13635c2.9725 0.68084 8.6726 0.83528 10.719 0.29044zm-543.66-54.921h148.17v68.792h-148.17zm145.52 2.6458h-142.87v63.5h142.87zm-90.752 55.828c-6.2695-0.7645-10.125-3.8686-11.995-9.6587-1.0486-3.2453-1.3565-6.1516-1.3456-12.7 8e-3 -4.9199 0.11779-6.9459 0.48659-8.9958 1.2526-6.9627 3.756-11.239 7.6431-13.056 2.4444-1.1426 3.94-1.4184 7.5927-1.4001 5.4377 0.0273 8.3898 1.0435 11.135 3.833 3.6402 3.699 5.2478 10.616 4.9253 21.192-0.33711 11.053-2.4712 16.304-7.7747 19.13-2.6614 1.4185-7.0374 2.0973-10.667 1.6548zm7.4544-4.4749c1.9869-0.76317 3.4974-2.277 4.6104-4.6208 1.5983-3.3655 2.4054-9.3081 2.1068-15.512-0.47806-9.9347-2.3965-14.772-6.6311-16.721-1.181-0.54356-1.7207-0.60887-5.0318-0.60887-3.6571 0-3.7336 0.0121-5.4739 0.86849-3.7605 1.8504-5.4505 6.0402-6.0462 14.989-0.30745 4.6189-0.0135 10.26 0.69842 13.402 1.1028 4.8673 3.2971 7.4557 7.2609 8.565 2.1055 0.5892 6.5199 0.40174 8.5064-0.36124zm54.936 4.4694c-10.365-0.96586-14.04-6.6273-14.423-22.221-0.34443-14.002 2.0551-21.309 7.9505-24.211 3.0655-1.5088 5.0214-1.7958 11.022-1.6176 3.1225 0.0928 6.2039 0.34059 7.8052 0.62779l2.6458 0.47454 0.0784 1.9449c0.0644 1.5974 0.0109 1.919-0.2993 1.8-0.20774-0.0797-1.7313-0.35895-3.3857-0.62052-4.3126-0.68185-11.46-0.6776-13.459 8e-3 -5.4607 1.8732-7.2035 5.096-7.9854 14.766-0.39861 4.9303 0.0167 13.301 0.81325 16.39 0.68607 2.6608 1.8332 4.863 3.2469 6.2332 2.3125 2.2414 5.1147 2.8912 11.332 2.6275 2.2564-0.0957 5.3872-0.38999 6.9575-0.65403l2.8549-0.48006-0.15362 3.7247-0.92604 0.1911c-4.2963 0.88661-10.587 1.3405-14.074 1.0156zm-95.133-40.433c-7.8e-4 -0.15679-11.261 7.6288-11.684 7.6288-0.23113 0-1.8761-2.6368-1.8761-3.0073 4.5294-3.2795 9.2354-6.3243 13.889-9.4282h4.1026v44.715h-4.2333zm61.709 17.059c-2.741-1.2764-4.2885-3.7639-5.0439-8.1075-0.50647-2.9122-0.37834-8.2107 0.2543-10.516 1.4953-5.4478 5.0317-7.8065 11.067-7.3812 4.728 0.33315 5.2378 0.44125 5.2378 1.1106 0 1.3392 6e-4 1.339-4.3404 1.2224-2.6746-0.0719-4.3811-3e-3 -4.9988 0.20039-2.7707 0.91441-4.5976 3.6307-4.8707 7.2418l-0.15193 2.0089 1.9554-0.67376c4.9606-1.7092 10.331-0.80422 12.256 2.0654 0.93745 1.3974 1.2088 2.515 1.2088 4.9781 0 3.0842-0.5174 4.5306-2.2294 6.2322-1.7238 1.7133-3.2847 2.2431-6.5983 2.2395-1.9747-2e-3 -2.6601-0.11578-3.7455-0.62121zm7.2966-2.3104c3.7916-2.0932 3.8655-8.7451 0.1172-10.56-2.2462-1.0874-6.1296-0.88295-9.2231 0.48544l-1.1692 0.51719 0.11356 1.2846c0.43466 4.9171 1.7277 7.513 4.3256 8.6845 1.3762 0.62056 4.345 0.41088 5.8359-0.41217zm193.71 25.933c-5.9789-0.57737-8.8572-2.9538-10.417-8.6011-0.51454-1.8626-0.58054-2.7689-0.59578-8.1801-0.0142-5.0376 0.0675-6.4499 0.47439-8.2021 1.5829-6.8166 5.2522-9.4227 13.267-9.4227 7.9877 0 11.703 2.6816 13.3 9.6004 0.3486 1.5102 0.44698 3.226 0.44496 7.7598-2e-3 5.1438-0.0717 6.0978-0.59663 8.2021-1.4826 5.9433-4.2564 8.2243-10.771 8.8577-1.4529 0.14125-2.7012 0.24366-2.774 0.22759-0.0728-0.0161-1.1219-0.12479-2.3313-0.24159zm6.0886-3.7169c4.1432-0.87818 5.6301-3.0935 6.3184-9.4136 0.35667-3.2753 0.17063-8.3102-0.40653-11.002-1.0385-4.8435-3.7101-6.8039-9.2722-6.8039-4.1826 0-6.8213 1.1784-8.1485 3.6391-1.2382 2.2956-1.604 4.6125-1.5975 10.119 0.0107 9.1444 1.3411 12.17 5.8909 13.397 1.5411 0.41551 5.3971 0.45004 7.2156 0.0646zm82.978 3.7146c-3.1861-0.22392-5.717-0.97584-7.7864-2.3134-3.2665-2.1112-4.9633-5.2356-6.1177-11.264-0.67485-3.5246-0.65995-16.65 0.023-20.267 1.2264-6.4945 3.2992-9.8792 7.2812-11.889 3.9847-2.0115 9.597-2.2868 18.463-0.90593l2.7369 0.42626v3.7054l-1.1245-0.18139c-4.9105-0.79212-6.8554-0.99118-9.856-1.0088-5.3331-0.0313-8.2192 0.93045-10.541 3.5125-1.3144 1.462-2.1885 3.6842-2.8747 7.3093-0.53888 2.8464-0.46117 16.566 0.10846 19.149 1.2265 5.5625 3.087 8.1007 6.9176 9.4374 1.8696 0.65242 10.488 0.64952 14.195-5e-3 1.3824-0.24403 2.9496-0.6333 2.9496-0.44475v3.5509l-0.83285 0.19854c-3.8691 0.82955-9.7286 1.2578-13.542 0.98984zm31.848 2e-3c-5.9789-0.57737-8.8572-2.9538-10.417-8.6011-0.51454-1.8626-0.58054-2.7689-0.59578-8.1801-0.0142-5.0376 0.0675-6.4499 0.4744-8.2021 1.5829-6.8166 5.2522-9.4227 13.267-9.4227 7.9877 0 11.703 2.6816 13.3 9.6004 0.3486 1.5102 0.44699 3.226 0.44496 7.7598-2e-3 5.1438-0.0717 6.0978-0.59662 8.2021-1.4826 5.9433-4.2564 8.2243-10.771 8.8577-1.4529 0.14125-2.7012 0.24366-2.774 0.22759-0.0728-0.0161-1.1219-0.12479-2.3313-0.24159zm6.0886-3.7169c4.1432-0.87818 5.6301-3.0935 6.3184-9.4136 0.35667-3.2753 0.17063-8.3102-0.40653-11.002-1.0385-4.8435-3.71-6.8039-9.2722-6.8039-4.1826 0-6.8213 1.1784-8.1485 3.6391-1.2382 2.2956-1.604 4.6125-1.5975 10.119 0.0107 9.1444 1.3411 12.17 5.8909 13.397 1.5411 0.41551 5.3971 0.45004 7.2156 0.0646zm64.505 3.7294c-6.2903-0.60855-9.0862-3.0392-10.491-9.1208-0.70285-3.0423-0.70935-13.084-0.0104-16.062 1.5542-6.6227 5.289-9.2507 13.147-9.2513 1.6735-1.4e-4 4.0547 0.13153 5.2917 0.29259 3.6022 0.46904 3.32 0.27683 3.2213 2.1937l-0.086 1.6708-3.2213-0.34794c-8.4442-0.91207-12.398 0.53015-13.887 5.0659-0.89439 2.7245-1.2756 7.6458-0.90059 11.625 0.85312 9.0523 3.3348 10.952 13.365 10.231 2.4448-0.17575 4.4984-0.26634 4.5634-0.2013 0.065 0.065 0.19315 0.83487 0.2847 1.7107l0.16645 1.5925-3.407 0.31158c-5.1519 0.47116-5.8874 0.49767-8.0372 0.2897zm27.772-0.0289c-6.7308-0.65243-9.789-4.5958-10.586-13.65-0.33015-3.7498-0.0599-8.0776 0.68579-10.981 1.3007-5.0653 4.5124-8.4422 9.0143-9.4779 1.6519-0.38003 6.1985-0.37801 7.8765 3e-3 5.8369 1.327 8.6711 5.676 9.0777 13.929 0.0868 1.7614 0.0787 3.5176-0.018 3.9026l-0.17572 0.70011h-22.558l0.15461 2.3151c0.27355 4.0963 1.6297 7.2161 3.6904 8.4897 1.9102 1.1806 3.8824 1.4526 9.1979 1.2687 2.6921-0.0932 5.6985-0.24563 6.6807-0.33883l1.7859-0.16946v1.5963c0 1.874 0.33651 1.7254-4.8948 2.1627-4.6822 0.39142-7.691 0.46716-9.9312 0.25002zm12.085-19.149c0.21503-0.56036-0.32472-4.7489-0.82495-6.4019-0.57645-1.9047-1.8686-3.5015-3.5877-4.4336-1.2521-0.67886-1.7865-0.79799-3.9892-0.88921-2.985-0.12363-4.8485 0.31351-6.5303 1.5318-2.1404 1.5505-3.4214 4.4311-3.6808 8.2772l-0.15612 2.3151h9.3079c8.0567 0 9.3285-0.0537 9.4612-0.39949zm54.599 19.1c-1.9308-0.45148-2.9625-1.027-3.917-2.185-1.7822-2.1621-2.1469-5.3201-2.1595-18.698l-9e-3 -9.4588h-4.7625v-3.4396h4.7513l0.1434-10.451h3.9688l0.1434 10.451h11.101v3.4396h-11.112v10.667c0 13.634 0.18807 14.79 2.5793 15.848 1.101 0.48704 1.5402 0.52178 4.5453 0.35959 1.8296-0.0987 3.5176-0.23529 3.7512-0.30342 0.34579-0.10085 0.45653 0.18036 0.59581 1.5129 0.0941 0.90023 0.11377 1.6941 0.0437 1.7641-0.57527 0.57526-7.748 0.94221-9.6632 0.49436zm22.622 0.0679c-2.4205-0.16645-5.768-0.58111-7.6188-0.94374-0.72496-0.14205-0.73807-0.17723-0.66146-1.7749l0.0782-1.63 0.92604 0.0187c0.50932 0.0103 2.8906 0.23315 5.2917 0.49522 6.9157 0.75481 10.606 0.20668 12.405-1.8427 1.2789-1.4566 1.6897-3.7992 1.0623-6.0588-0.61563-2.2173-2.4522-3.1069-8.5233-4.1285-9.9489-1.6741-12.132-3.5392-11.761-10.048 0.10733-1.8824 0.27137-2.5686 0.88243-3.6913 2.2871-4.2021 7.6784-5.5351 17.71-4.3785 5.3124 0.61247 4.8932 0.40662 4.8932 2.4028 0 1.9425 0.0894 1.896-2.7781 1.4453-6.2219-0.97789-11.667-0.88071-13.879 0.2477-2.6201 1.3367-3.6124 4.535-2.234 7.2006 0.62517 1.2089 2.7207 2.0024 8.265 3.1293 7.5569 1.5361 9.5843 2.4656 10.801 4.9519 0.63166 1.2911 0.75774 1.9198 0.84212 4.1994 0.0717 1.9359-0.0197 3.0901-0.32865 4.1529-1.3871 4.7714-6.5245 6.861-15.372 6.2526zm-430.61-46.828 7.7969 0.1464 7.0446 19.917c3.8745 10.954 7.0999 19.972 7.1675 20.04 0.0676 0.0676 2.9584-7.9424 6.4238-17.8s6.6528-18.905 7.083-20.106l0.78215-2.1828h7.6229v46.302h-3.9688v-21.034c0-20.034-0.0225-21.034-0.47352-21.034-0.38762 0-1.7902 3.6734-7.7317 20.249l-7.2582 20.25-4.9938-0.15-14.842-40.302c-0.13407-0.36406-0.4195 1.8895-0.4195 20.968v21.054h-4.2333zm54.769 12.979h3.9688v33.338h-3.9688zm14.288-14.817h3.9688v48.154h-3.9688zm14.817 0h3.9688v48.154h-3.9688zm14.288 14.817h3.9688v33.338h-3.9688zm49.212 0h3.9688v2.3468l1.998-0.92313c3.1056-1.4349 5.605-1.988 8.9822-1.9878 6.672 3.5e-4 9.0988 1.9718 10.466 8.5016 0.1908 0.91143 0.35312 5.929 0.43439 13.428l0.12975 11.972h-4.0185l-5e-3 -9.8557c-6e-3 -13.241-0.38998-16.585-2.1315-18.569-1.2397-1.412-2.7838-1.8778-6.066-1.83-2.9687 0.0432-5.0265 0.51632-8.1359 1.8706l-1.6536 0.72024v27.664h-3.9688zm120.91 0h3.9688v2.3468l1.998-0.92313c3.1056-1.4349 5.605-1.988 8.9822-1.9878 6.672 3.5e-4 9.0988 1.9718 10.466 8.5016 0.1908 0.91143 0.35312 5.929 0.43439 13.428l0.12976 11.972h-4.0185l-5e-3 -9.8557c-6e-3 -13.241-0.38998-16.585-2.1315-18.569-1.2397-1.412-2.7838-1.8778-6.066-1.83-2.9687 0.0432-5.0265 0.51632-8.1359 1.8706l-1.6536 0.72024v27.664h-3.9688zm-213.52-13.229h3.9688v4.7625h-3.9688zm43.392 0h3.9688v4.7625h-3.9688z"/></svg>
