<?xml version="1.0"?>
<svg xmlns="http://www.w3.org/2000/svg" version="1.1" viewBox="0 0 640 640">
<g fill="oklch(0.85368 0.0197244 205.262)">
<path d="m570,524q0-2.3,0.51,0.51l-0.51-4.34v3.83m31-380q10.7,45.2,1.02,90.6-2.3,17.9,4.34,45.4l10.7,46.9,8.67,43.6,3.32,21.9q1.53,13-7.4,20.4l-21.4,1.79-20.4,2.3q-9.69,6.89-5.36,38.3,2.55,15.6,6.89,25.3l2.81,6.38q1.53,4.59-2.3,5.87l-1.02,0.765,0.51-0.255-2.3,2.04q-3.57,2.3-5.87,8.93l-1.02,3.32q-1.28,4.59-1.28,10.2v3.57l0.255,1.53,0.255,2.04,2.04,8.93,0.51,4.34,1.28,3.83q5.87,19.6,6.63,26.8,1.53,16.1-7.4,26.5l-3.57,3.06,1.79-2.3q7.65-5.87,8.42-17.6l-1.28,2.81-0.51,4.08q-4.08,9.18-12,14.8h-0.255q7.65-5.61,10.7-15.3l1.53-7.91-3.83,9.95-6.38,10.2-24.7,14.5-2.55,0.51-1.28,0.255-20.4,8.42-12.2,2.04,9.18-1.79q11.2-3.06,30.4-12.2l16.1-9.44q7.65-5.36,11.5-13.3l4.34-9.69-1.28-9.69-5.61-24.2-3.32-9.69q-2.55-6.89-3.06-12.8l0.255-1.53,0.255-2.81q0.51-14,5.87-20.2l3.57-4.08,4.08-3.06-1.28-1.02-0.255-0.51-3.32-5.61-2.04-4.34,1.02,3.57,3.57,7.65-0.255,0.255-3.83-8.93q-5.87-15.3-7.4-34.4-1.53-18.9,2.55-28.1,5.1-8.67,14.8-10.5l15.1-1.02,21.4-1.79-0.765-6.63-1.02-12.8-9.69-49.5-12.5-48.5q-7.65-30.1-5.61-52.6l3.83-36.2q5.36-51.8-35.5-119-7.4-14.3-27.8-28.8l-8.93-5.61q-1.79-0.51,3.57,3.83-16.8-12.5-34.7-20.4-22.2-9.69-26-12.2-4.59-2.81-4.34-4.59,0.255-3.32,19.6,1.53,18.9,5.61,42.3,19.4,26.5,15.3,37.2,29.8,30.1,37.5,41.1,82.9m-140,485-4.34,0.255-2.55-1.02,23.2,1.02-16.3-0.255"/>
<path d="m539,210c12,1.49,23.6,5.61,34.4,10.9,2.54,0.884,7.44,5.78,1.84,5.65,5.73,0.901,4.31,5.85-0.703,4.46-7.5-0.466-15-1.3-22.4-2.06,4.53-0.541-4.21-1.48-6.48-1.45-4.17-0.2-8.34-0.468-12.5-0.627,1.76,2,1.57,4.72,2.08,7.18-1.5-2.42-0.623,3.62-0.482,5.08,1.59,5.78-2.54,11.2-5.74,15.7,3.09-0.479,6.17-0.958,9.26-1.44-2.98,1.59-6.14,2.59-9.5,2.91-3.35,0.337-5.09,4.21-8.56,4.69-6.63,2.03-13.9,1.34-20.5-0.305-1.4-1.69-3.34-2-5.42-1.94-7.4-0.185-14.6-2.22-21.7-3.9-12.1-3.23-23.2-9-33.7-15.8-2.86-2.03-2.25-1.06-0.315,1.04,3.94,4.71,9.06,8.27,13.5,12.5,4.89,4.43,10.9,7.44,16.2,11.2,3.37,2.48,7.78,2.66,11.6,4.05,5.39,1.51,10.8,3.01,16.2,4.52-5.11-1.1-10.2-2.44-15.3-3.38,2.91,1.72,6.3,2.89,9.74,2.75,3.25,0.605,6.47,1.39,9.77,1.27,3.8,0.503,7.61,1.12,11.4,0.194,5.17-0.385,10.3-1.12,15.4-1.92,1.53-0.136,5.44-0.887,4.4-0.377-3.98,2.96-9.14,2.34-13.8,3.27-7.09,0.818-14.2,2.36-21.3,1.32-2.98-0.344-6.01-0.361-8.97-0.811-13-3.19-26-7.81-36.8-16-7.36-5.23-13.4-12.1-20.3-17.8-3.63-3.97,1.96-8.54-1.1-12.4-1.39-2.59,2.91,0.0787,4.08-0.34,12-7.07,24.9-12.6,38.4-16.1,22.4-0.685,44.9-1.37,67.3-2.05zm-28.6,5.43c-8.57,0.429-17.2,0.471-25.7,1.14-6.8,1.26-13.7,2.3-20.1,4.96-3.49,1.23-10.1,3.51-11.3,4.29,10.6-2.2,21.1-4.99,32-5.33,20.4-1.21,40.9-0.914,61.2,0.105,3.15,0.185,11.5,1.82,4.68,0.0408-0.509-0.0408,4.89,0.487,0.701-0.698-6.04-2.07-12.5-2.35-18.8-3.55-7.56-0.319-15.1-0.638-22.7-0.958zm0.159,11.7c-3.56,0.106-7.13,0.213-10.7,0.319-1.75,1.29-0.269,3.2-1.76,4.31-0.874-1.72,2.7-4.79,0.119-4.28-7.82,0.0766-15.6,0.333-23.4,1.3-7.67,0.92-15.2,3.01-22.8,4.42-3.07,0.638-6.14,1.28-9.21,1.91,10.2,6.92,21.7,11.4,32.9,16.3,5.43,0.939,10.9,1.88,16.3,2.82,0.005-2.31-1.64-3.07-2.7-4.67-1.57-1.35-0.502-3.53-1.82-5.07-1.22-1.84-0.3-4.28-0.586-6.38,2.25,0.855,1.82,3.95,2.78,5.85,0.711,1.72,0.883,3.17,1.46,3.12,2.21,2.85,4.37,5.99,8.02,7.34,6.3,3.17,14.4,3.2,20.5-0.369,5.48-4.28,9.27-11.3,8.11-18.4,0.159-2.78-0.12-5.76,0.302-8.43-4.28-0.963-5.7,0.941-3.15,4.1,0.426,4.02-1.65,8.24-4.67,10.9-2.43,3.71-7.14,4.23-11.1,3.28-2.02-0.45-4.55,0.11-5.75-1.99-0.968-1.59-3.84-2.65-3.36-4.65-0.272-1.76-1.48-2.68-1.08-4.63-0.479-0.9,0.416-4.69,1.72-3.5,0.88,1.45-0.297,3.84,1.1,4.55,0.78,2.02,2.46,3.48,4.67,4.52,3.47,2.24,6.61-0.602,9.17-2.7,2.94-2.14,3.35-10.5-1.03-9.94-1.36-0.0306-2.73-0.0741-4.08-0.112zm-24,4c0.207,2.11-0.384,3.93,0.0659,5.78,0.882,2.63,0.345,7.75-0.291,2.16-0.85-2.72,0.185-5.23,0.225-7.95zm-1.12,23c0.22,0.212,10.1,3.29,8.61,1.51-2.49-1.35-5.85-0.936-8.61-1.51zm68,7.5c-3.66,2.37-7.88,3.43-12,4.79-1.82,2.11-5.03,1.78-7.5,2.75-3.31,1.39-6.87,2.51-10.5,2.25,9.19-2.78,18.4-5.6,27.5-8.63,0.812-0.385,1.63-0.77,2.44-1.15z"/>
<path d="m110,123zm12,2.55c-4.15,2.42-8.86,1.08-13.1,1.87-7.54-0.538-8.74,1.06-0.453,0.296,7.02-0.383,15.3-0.169,21.3-2.34-2.58-0.209-5.16,0.0622-7.74,0.182zm34.1,4.12zm-4.45-13.5c-5.01-0.507-6.97,2.46-11.6,2.77-6.79,1.97-14.3,2-20.5,5.56,7.39-0.66,15.1,0.602,22.2-2.32,5-0.176,9.07-1.83,13.9-2.61,12.4-3.04-1.17,2.39-4.41,1.93,12.9-1.78,24.6-7.71,37.1-11.1,22.8-9.98,43.7-24.4,59.3-43.9,11-11.1,22.9-21.2,34.2-31.9,5.88-3.35,12.1-4.86,9-2.65,5.62-1.5,25.8-9.81,15.1-14.9-11.1-2.27-23.4,5.3-32.8,11.3-23.8,16.4-40.8,40.3-62.7,58.9-17.6,13.6-38.6,20.7-58.9,29zm-59.5,9.8c-6.27,0.62-12.7,2.89-1.92,0.571,2.57,0.293,2.07-0.204,1.92-0.571zm45.6,75.5c3.4,0.879,9.67,1.2,14,0.0213,5.02-0.223,8.01-0.983,12.8-2.15,4.48-0.804,9.28-0.46,13.7-2.67,7.66-1.09,14.8-3.66,21.3-7.81,12.9-7.39,27-13,39-21.8-11.6,11.2-22.1,23.7-35.1,33.3-13.3,8.9-25.8,19.3-40.5,25.3-4.66,0.529-9.91,1.74-14,4.34,5.42,0.622,10.9,0.589,16-1.31,4.23,0.266,12-5.94,13.1-2.95-6.06,1.75-11,3.17-2.09,0.601,6.3-2.73,12.2-6.45,18.9-8.51,13.8-10.8,28.6-20.4,41.5-32.3,9.45-5.52,14.2-15,19.9-23.7,4.01-5.74,3.43-0.187,7.68-7.38,7.58-6.14-1.48-11-0.674-13.8,1.62-4.69,6.38-7.23,5.5-5.93,2.33-5,5.14-11,3.48-16.3-5.65-5.63-9.66,4.76-12.7,8.52-12.3,20.7-32.2,35.1-52,48.1-16.3,6.94-31.7,16.4-48.9,20.9-3.21,1.25-6.65,2.25-11.3,2.59-2.3,0.0769-11.8,2.05-9.55,2.94zm8.85-19.5c-6.09-1.5-10.1-0.257-1.57-0.0891,2.82,1.05,13.6-0.38,11.1-1.02-3.02,0.222-6.6,0.121-9.54,1.11zm-17-3.61c-3.54-0.147,9.45,0.826,0.0512,0.005l-0.0512-0.005zm15.8-0.811zm-6.42,25.3c-4.37,1.36-11.7,1.24-2.88,1.8,3.97,0.468,13.6-0.976,2.88-1.8zm-9.28-3.02zm-4.95,3.65zm5.71,24.7c3.26,0.907-7.71-1.09-4.71,0.0435,1.57-0.0142,3.14-0.0293,4.71-0.0435zm-19-28.6c2.44,1.41,8.39,0.646,0.203,0.0431l-0.203-0.0431zm-5.89,106c5.5,1.45,10.5,2.77,2.29,0.102-0.764-0.0338-1.53-0.0677-2.29-0.102zm-6.07-3.38c0.342-2.76-10.7-1.91-1.39-0.818l0.702,0.412,0.691,0.406zm-0.0918-34c-5.42,0.968-11,0.75-16.4,1.2,5.46-0.507,11.1,0.0724,16.4-1.2zm-59.2-1.61c-2.32-1.71-13-3.41-10.4-2.48,9.86,2.11,19.8,4.76,30,4.96-6.14-2.42-13.1-1.42-19.1-2.83l-0.529,0.344zm-1.15-4.42zm69.6,4.34c14.2-0.827,28-3.7,41.3-8.5,30.3-8.49,57.1-25.3,82.9-42.7,8.44-6,13-16.5,22.1-21.6-4.05,5.77,5.17-5.15,7.54-7.39,2.24-4.16,7.06-8.4,4.98-13.4-7.33-2.06-11.9,6.46-17.3,10.2-14.7,13.3-29.1,27.1-46.4,37.2-16,10.3-33,19.1-50.4,26.9-24,9.27-49.5,15-75.1,17.1-2.43,0.862-9.01,0.142-13.1,0.203-5.47,0.0675-11.1-0.815-16.3,0.844,8.48,1.5,17.1,3.72,25.6,2.72,4.82,1.42,9-0.414,13.9,0.456,5.36-3.06,11.5,1.57,17.1-1.31,1.05-0.216,2.1-0.433,3.16-0.65zm30-35.4c-6.14,0.419,6.49,1.28,8.94,1.33,9.79,0.51,8.47-2.34-0.752-0.751-2.93,0.351-5.24,0.332-8.18-0.577zm-25.2,71.9zm7.07,3.59c6.05,0.864,12.1,3.8,18.1,2.21,4.62,0.183,9.28,0.942,13.5-1.23,13.8,0.12-5.12,2.2-5.32,1.79,10.7,0.469,20.5-4.15,30.8-6.29,18.6-7.79,35-19.5,49.8-33,9.97-7.32,19.4-15.9,24.4-27.4,2.88-5.74,7.68-8,8.31-7.76,8.38-3.51,9.52-24.8-2.08-14.5-2.16,1.33-9.96,11.4-7.97,6.29,2.45-5.52,3.29-12,7.02-16.8,0.462,1.64,4.83-8.93,1.6-11.8-5.48-5.9-9.2,4.35-11.6,8.35-5.53,10.2-10.6,20.7-18.1,29.7-5.66,7.54-11.6,14.9-19.5,20.1-6.24,4.63-11.7,10.5-19,13.5-3.15,2.83-8.28,4.23-12.8,5.47-6.7,1.17-7.23,4.89,0.191,3.38,4.62-0.749,8.8-1.55,12.6-3.18,9.4-4.11,1.92,1.27-0.689,1.1,7.48-1.41,13.2-6.78,20.5-8.83,4.62-3.72,9.24-7.44,13.9-11.2-15.6,16.4-32.7,32.2-54.1,40.5-9.19,3.6-18.5,6.99-28.2,7.81-2.13,0.59-8.42,0.879-12.5,0.791-3,0.044-5.95-0.121-8.81,0.957zm-5.31,0.437c0.852,2.48,10.3,2.52,14.2,2.75-4.69-2.39-9.6-0.428-14.2-2.75zm-21.6-6.67zm62.1-21.8zm11.4,2.94c-7.57-2.51-4.4,0.987,1.6-0.181,6.04,0.3,13.1-2.91,3.16-0.762-1.3,1.06-4-1.09-4.77,0.943zm-1.15-4.42zm-23.9-49.5,0.5,0.106-0.5-0.106zm1.5,0.319zm99.4,9.11zm-74-108zm1.26,3.92c-7.14-1.49-8.06-0.383-0.262,0.0832,3.89,0.92,14-1.84,5.28-0.706-1.54,0.577-4.17-1.39-5.01,0.622zm34.1-7.9c-4.44,2.38-12.3,4.53-3.19,1.49,1.13-0.378,2.25-0.724,3.19-1.49zm58.9-21.4c4.18-1.89,2.42,0.627,6.88-5.63,6.37-5.17,1.04-15.2-5.51-9.89-10.1,9.46-18.3,20.6-27.8,30.6-9.79,8.58-18,19-28.2,27-14,9.46-27.1,20.7-42.7,27.6-4.51,2.41-12,2.07-15.9,6.02,5.03-1.39,11,1.4,15.2-2.52,4.51-0.44,8-1.11,11.8-3.77,8.1-0.189-7.27,4.05,3.6,0.244,8.72-5.82,19.4-7.72,27.2-15.1,15.5-9.92,28.1-23.4,42.2-35,6.29-5.23,8.51-13.1,13.2-19.5zm10.5-34.8c3.41-5.06,7.01-7.92,8.42-7.05,7.33-2.8,9.78-17.9-0.329-14-7.51,5.7-15.4,10.9-20.6,19-11.3,11.7-22.6,23.5-35.1,34-11,8.2-21.5,18.3-33.9,23.3-3.66,2.11-8.11,2.59-12.8,4.12-8.7,2.64,1.4,2.27,5.4,2.24,4.24-1.88,8.47-1.98,12.8-3.42,3.64-2.68,9.04-1.54,12.7-4.82,14-5.02,24.8-16,36.1-25.2,8.23-10.3,22-15.6,27.3-28.2zm-265,189c4.17,1.3,13.3,2.45,4.32,0.397-1.73-0.893-7.99-0.368-4.32-0.397z"/>
</g>
</svg>
